<svg width="282" height="109" viewBox="0 0 282 109" fill="none" xmlns="http://www.w3.org/2000/svg">
<path d="M48.3088 28.1943C53.5713 28.1943 58.7525 29.4922 63.3935 31.9729C68.0346 34.4535 71.9922 38.0405 74.9159 42.4161C77.8395 46.7916 79.6389 51.8207 80.1547 57.0578C80.6706 62.2949 79.8868 67.5784 77.873 72.4402C75.8591 77.3021 72.6773 81.5922 68.6094 84.9307C64.5415 88.2691 59.713 90.5528 54.5517 91.5795C52.8177 91.9244 51.0641 92.1238 49.3088 92.1787" stroke="url(#paint0_linear)" stroke-width="32"/>
<path d="M56.915 91.1668C51.8319 92.5288 46.4913 92.6162 41.3664 91.4212C36.2414 90.2262 31.4902 87.7858 27.5337 84.316C23.5772 80.8462 20.5375 76.4543 18.6838 71.5291C16.8301 66.604 16.2197 61.2977 16.9066 56.0803C17.5935 50.8629 19.5565 45.8954 22.6217 41.6178C25.687 37.3403 29.7598 33.8847 34.4796 31.5572" stroke="url(#paint1_linear)" stroke-width="32"/>
<path d="M48.3354 28.1919C43.0912 28.1815 37.9248 29.46 33.2908 31.9151C28.6568 34.3702 24.6971 37.9265 21.7603 42.2713C20.2575 44.4944 19.0462 46.889 18.1476 49.3962" stroke="url(#paint2_linear)" stroke-width="32"/>
<path d="M125.093 25.26C125.093 23.484 123.845 22.3 121.477 22.3H117.669V33.5H121.669C124.277 33.5 125.541 32.236 125.541 30.3C125.541 29.068 124.805 27.884 123.157 27.724C124.453 27.484 125.093 26.412 125.093 25.26ZM121.333 23.98C122.725 23.98 123.221 24.668 123.221 25.484C123.221 26.332 122.709 27.004 121.573 27.004H119.493V23.98H121.333ZM123.669 30.188C123.669 31.1 123.013 31.836 121.653 31.836H119.493V28.556H121.605C123.061 28.556 123.669 29.244 123.669 30.188ZM133.412 28.636C133.412 26.732 132.324 25.692 130.356 25.692C128.676 25.692 127.476 26.476 127.044 27.82L128.788 27.98C128.996 27.42 129.492 27.068 130.244 27.068C131.14 27.068 131.684 27.612 131.684 28.556V29.212C131.38 29.036 130.708 28.876 130.004 28.876C128.02 28.876 126.804 29.82 126.804 31.372C126.804 32.732 127.908 33.724 129.46 33.724C130.404 33.724 131.332 33.308 131.716 32.684H131.764V33.5H133.412V28.636ZM128.548 31.228C128.548 30.54 129.156 30.108 130.196 30.108C130.82 30.108 131.444 30.268 131.716 30.476V31.068C131.716 31.74 130.884 32.364 129.924 32.364C129.092 32.364 128.548 31.916 128.548 31.228ZM141.725 28.652C141.725 26.796 140.717 25.692 139.069 25.692C137.981 25.692 137.117 26.188 136.685 26.94H136.653V25.932H135.037V33.5H136.765V29.148C136.765 28.012 137.549 27.212 138.557 27.212C139.453 27.212 139.981 27.836 139.981 28.988V33.5H141.725V28.652ZM145.102 29.9L148.158 33.5H150.414L146.83 29.34L150.094 25.932H148.014L145.102 29.116V22.3H143.358V33.5H145.102V29.9ZM157.327 28.636C157.327 26.732 156.239 25.692 154.271 25.692C152.591 25.692 151.391 26.476 150.959 27.82L152.703 27.98C152.911 27.42 153.407 27.068 154.159 27.068C155.055 27.068 155.599 27.612 155.599 28.556V29.212C155.295 29.036 154.623 28.876 153.919 28.876C151.935 28.876 150.719 29.82 150.719 31.372C150.719 32.732 151.823 33.724 153.375 33.724C154.319 33.724 155.247 33.308 155.631 32.684H155.679V33.5H157.327V28.636ZM152.463 31.228C152.463 30.54 153.071 30.108 154.111 30.108C154.735 30.108 155.359 30.268 155.631 30.476V31.068C155.631 31.74 154.799 32.364 153.839 32.364C153.007 32.364 152.463 31.916 152.463 31.228ZM166.648 29.724C166.648 27.308 165.096 25.692 163.064 25.692C161.928 25.692 161.08 26.22 160.696 26.972V22.3H158.952V33.5H160.568V32.396H160.616C161.112 33.308 162.136 33.74 163.112 33.74C165.144 33.74 166.648 32.108 166.648 29.724ZM164.904 29.724C164.904 30.412 164.712 31.004 164.328 31.484C163.944 31.964 163.416 32.204 162.76 32.204C161.464 32.204 160.632 31.18 160.632 29.724C160.632 28.252 161.464 27.212 162.76 27.212C164.088 27.212 164.904 28.3 164.904 29.724ZM167.882 33.5H169.626V22.3H167.882V33.5ZM176.622 31.228C176.27 31.948 175.678 32.3 174.846 32.3C173.63 32.3 172.814 31.436 172.638 30.172H178.382V29.74C178.35 27.132 176.702 25.692 174.638 25.692C172.43 25.692 170.878 27.436 170.878 29.74C170.878 32.028 172.51 33.74 174.83 33.74C176.35 33.74 177.438 33.052 178.078 31.66L176.622 31.228ZM174.67 27.036C175.646 27.036 176.494 27.644 176.574 28.988H172.654C172.846 27.724 173.566 27.036 174.67 27.036Z" fill="#B8A57D"/>
<path d="M243.829 31.804H245.989V29.356H243.829V18.7H239.293L233.005 29.356V31.804H241.165V35.5H243.829V31.804ZM241.069 20.284H241.165V29.356H235.669L241.069 20.284ZM253.593 35.86C256.929 35.86 259.401 33.436 259.401 30.028C259.401 26.86 257.049 24.7 253.905 24.7C252.249 24.7 250.569 25.348 249.825 26.884V26.356C249.825 22.732 251.169 20.764 253.545 20.764C255.153 20.764 256.161 21.628 256.473 22.66L259.185 22.156C258.489 19.78 256.305 18.34 253.545 18.34C249.345 18.34 247.089 21.676 247.089 27.172C247.089 32.836 249.345 35.86 253.593 35.86ZM253.401 33.508C251.361 33.508 250.137 32.044 250.137 30.196C250.137 28.348 251.361 26.884 253.401 26.884C255.441 26.884 256.665 28.348 256.665 30.196C256.665 32.044 255.441 33.508 253.401 33.508Z" fill="#B8A57D"/>
<path d="M266.749 27.7C268.861 27.7 270.445 25.924 270.445 23.02C270.445 20.068 268.861 18.34 266.749 18.34C264.637 18.34 263.053 20.068 263.053 23.02C263.053 25.924 264.637 27.7 266.749 27.7ZM276.229 18.7L265.141 35.5H266.821L277.933 18.7H276.229ZM266.749 26.116C265.501 26.116 264.733 25.012 264.733 23.02C264.733 21.028 265.501 19.924 266.749 19.924C267.973 19.924 268.765 21.028 268.765 23.02C268.765 25.012 267.973 26.116 266.749 26.116ZM276.349 35.86C278.485 35.86 280.045 34.084 280.045 31.18C280.045 28.228 278.485 26.5 276.349 26.5C274.237 26.5 272.653 28.228 272.653 31.18C272.653 34.084 274.237 35.86 276.349 35.86ZM276.349 34.276C275.125 34.276 274.333 33.172 274.333 31.18C274.333 29.188 275.125 28.084 276.349 28.084C277.573 28.084 278.365 29.188 278.365 31.18C278.365 33.172 277.573 34.276 276.349 34.276Z" fill="#B8A57D" fill-opacity="0.65"/>
<path d="M127.013 58.9C127.013 55.524 124.709 53.3 121.045 53.3H117.669V64.5H120.789C124.181 64.5 127.013 62.964 127.013 58.9ZM125.125 58.9C125.125 60.1 124.773 61.06 124.053 61.78C123.333 62.484 122.357 62.836 121.125 62.836H119.493V54.98H121.125C123.589 54.98 125.125 56.5 125.125 58.9ZM130.242 53.3H128.498V55.14H130.242V53.3ZM130.242 56.932H128.498V64.5H130.242V56.932ZM131.574 60.468C131.574 62.804 133.158 64.244 134.998 64.244C136.07 64.244 136.902 63.796 137.27 63.076V64.212C137.27 65.556 136.55 66.308 135.398 66.308C134.486 66.308 133.766 65.86 133.59 65.22L131.83 65.604C132.198 66.836 133.558 67.7 135.366 67.7C137.686 67.7 138.998 66.308 138.998 63.828V56.932H137.302V57.764H137.254C136.806 57.14 136.15 56.692 134.998 56.692C133.19 56.692 131.574 58.1 131.574 60.468ZM133.318 60.468C133.318 59.012 134.214 58.196 135.318 58.196C136.518 58.196 137.334 59.076 137.334 60.468C137.334 61.828 136.518 62.724 135.318 62.724C134.214 62.724 133.318 61.892 133.318 60.468ZM142.492 53.3H140.748V55.14H142.492V53.3ZM142.492 56.932H140.748V64.5H142.492V56.932ZM147.361 64.66C147.921 64.66 148.401 64.564 148.657 64.436L148.465 63.044C148.273 63.156 148.017 63.204 147.697 63.204C146.881 63.204 146.481 62.82 146.481 61.716V58.404H148.577V56.932H146.481V54.516L144.737 54.852V56.932H143.361V58.404H144.737V62.004C144.737 63.972 145.809 64.66 147.361 64.66ZM155.897 59.636C155.897 57.732 154.809 56.692 152.841 56.692C151.161 56.692 149.961 57.476 149.529 58.82L151.273 58.98C151.481 58.42 151.977 58.068 152.729 58.068C153.625 58.068 154.169 58.612 154.169 59.556V60.212C153.865 60.036 153.193 59.876 152.489 59.876C150.505 59.876 149.289 60.82 149.289 62.372C149.289 63.732 150.393 64.724 151.945 64.724C152.889 64.724 153.817 64.308 154.201 63.684H154.249V64.5H155.897V59.636ZM151.033 62.228C151.033 61.54 151.641 61.108 152.681 61.108C153.305 61.108 153.929 61.268 154.201 61.476V62.068C154.201 62.74 153.369 63.364 152.409 63.364C151.577 63.364 151.033 62.916 151.033 62.228ZM157.523 64.5H159.267V53.3H157.523V64.5Z" fill="#7FB9CC"/>
<path d="M238.437 66.86C242.133 66.86 244.437 64.412 244.437 61.124C244.437 58.34 242.685 56.3 240.261 56.3C240.189 56.3 240.141 56.324 240.069 56.324V56.228C240.285 56.06 240.573 55.748 240.981 55.34L244.173 51.98V49.7H232.941V52.148H240.957L236.349 56.876V59.036C236.997 58.484 237.717 58.22 238.485 58.22C240.381 58.22 241.605 59.372 241.605 61.22C241.605 63.068 240.429 64.46 238.389 64.46C236.565 64.46 235.101 63.26 234.933 61.628L232.341 61.94C232.485 64.772 235.125 66.86 238.437 66.86ZM252.377 66.86C256.265 66.86 258.737 63.356 258.737 58.1C258.737 52.844 256.217 49.34 252.305 49.34C248.417 49.34 245.945 52.844 245.945 58.1C245.945 63.356 248.417 66.86 252.377 66.86ZM252.377 64.412C249.977 64.412 248.705 61.844 248.705 58.1C248.705 54.38 249.953 51.788 252.305 51.788C254.705 51.788 255.977 54.38 255.977 58.1C255.977 61.844 254.705 64.412 252.377 64.412Z" fill="#7FB9CC"/>
<path d="M266.749 58.7C268.861 58.7 270.445 56.924 270.445 54.02C270.445 51.068 268.861 49.34 266.749 49.34C264.637 49.34 263.053 51.068 263.053 54.02C263.053 56.924 264.637 58.7 266.749 58.7ZM276.229 49.7L265.141 66.5H266.821L277.933 49.7H276.229ZM266.749 57.116C265.501 57.116 264.733 56.012 264.733 54.02C264.733 52.028 265.501 50.924 266.749 50.924C267.973 50.924 268.765 52.028 268.765 54.02C268.765 56.012 267.973 57.116 266.749 57.116ZM276.349 66.86C278.485 66.86 280.045 65.084 280.045 62.18C280.045 59.228 278.485 57.5 276.349 57.5C274.237 57.5 272.653 59.228 272.653 62.18C272.653 65.084 274.237 66.86 276.349 66.86ZM276.349 65.276C275.125 65.276 274.333 64.172 274.333 62.18C274.333 60.188 275.125 59.084 276.349 59.084C277.573 59.084 278.365 60.188 278.365 62.18C278.365 64.172 277.573 65.276 276.349 65.276Z" fill="#7FB9CC" fill-opacity="0.65"/>
<path d="M127.397 83.8H125.573V92.248L119.701 83.736H117.669V95H119.493V86.552L125.365 95.064H127.397V83.8ZM128.986 91.208C128.986 93.704 130.746 95.24 132.906 95.24C135.066 95.24 136.858 93.704 136.858 91.208C136.858 88.728 135.066 87.192 132.906 87.192C130.746 87.192 128.986 88.696 128.986 91.208ZM130.73 91.208C130.73 89.736 131.61 88.712 132.906 88.712C134.234 88.712 135.098 89.736 135.098 91.208C135.098 92.696 134.234 93.704 132.906 93.704C131.61 93.704 130.73 92.696 130.73 91.208ZM144.787 90.152C144.787 88.296 143.779 87.192 142.131 87.192C141.043 87.192 140.179 87.688 139.747 88.44H139.715V87.432H138.099V95H139.827V90.648C139.827 89.512 140.611 88.712 141.619 88.712C142.515 88.712 143.043 89.336 143.043 90.488V95H144.787V90.152ZM157.171 91.224C157.171 88.808 155.619 87.192 153.587 87.192C152.451 87.192 151.603 87.72 151.219 88.472V83.8H149.475V95H151.091V93.896H151.139C151.635 94.808 152.659 95.24 153.635 95.24C155.667 95.24 157.171 93.608 157.171 91.224ZM155.427 91.224C155.427 91.912 155.235 92.504 154.851 92.984C154.467 93.464 153.939 93.704 153.283 93.704C151.987 93.704 151.155 92.68 151.155 91.224C151.155 89.752 151.987 88.712 153.283 88.712C154.611 88.712 155.427 89.8 155.427 91.224ZM164.741 90.136C164.741 88.232 163.653 87.192 161.685 87.192C160.005 87.192 158.805 87.976 158.373 89.32L160.117 89.48C160.325 88.92 160.821 88.568 161.573 88.568C162.469 88.568 163.013 89.112 163.013 90.056V90.712C162.709 90.536 162.037 90.376 161.333 90.376C159.349 90.376 158.133 91.32 158.133 92.872C158.133 94.232 159.237 95.224 160.789 95.224C161.733 95.224 162.661 94.808 163.045 94.184H163.093V95H164.741V90.136ZM159.877 92.728C159.877 92.04 160.485 91.608 161.525 91.608C162.149 91.608 162.773 91.768 163.045 91.976V92.568C163.045 93.24 162.213 93.864 161.253 93.864C160.421 93.864 159.877 93.416 159.877 92.728ZM173.054 90.152C173.054 88.296 172.046 87.192 170.398 87.192C169.31 87.192 168.446 87.688 168.014 88.44H167.982V87.432H166.366V95H168.094V90.648C168.094 89.512 168.878 88.712 169.886 88.712C170.782 88.712 171.31 89.336 171.31 90.488V95H173.054V90.152ZM176.431 91.4L179.487 95H181.743L178.159 90.84L181.423 87.432H179.343L176.431 90.616V83.8H174.687V95H176.431V91.4ZM188.656 90.136C188.656 88.232 187.568 87.192 185.6 87.192C183.92 87.192 182.72 87.976 182.288 89.32L184.032 89.48C184.24 88.92 184.736 88.568 185.488 88.568C186.384 88.568 186.928 89.112 186.928 90.056V90.712C186.624 90.536 185.952 90.376 185.248 90.376C183.264 90.376 182.048 91.32 182.048 92.872C182.048 94.232 183.152 95.224 184.704 95.224C185.648 95.224 186.576 94.808 186.96 94.184H187.008V95H188.656V90.136ZM183.792 92.728C183.792 92.04 184.4 91.608 185.44 91.608C186.064 91.608 186.688 91.768 186.96 91.976V92.568C186.96 93.24 186.128 93.864 185.168 93.864C184.336 93.864 183.792 93.416 183.792 92.728ZM197.977 91.224C197.977 88.808 196.425 87.192 194.393 87.192C193.257 87.192 192.409 87.72 192.025 88.472V83.8H190.281V95H191.897V93.896H191.945C192.441 94.808 193.465 95.24 194.441 95.24C196.473 95.24 197.977 93.608 197.977 91.224ZM196.233 91.224C196.233 91.912 196.041 92.504 195.657 92.984C195.273 93.464 194.745 93.704 194.089 93.704C192.793 93.704 191.961 92.68 191.961 91.224C191.961 89.752 192.793 88.712 194.089 88.712C195.417 88.712 196.233 89.8 196.233 91.224ZM199.211 95H200.955V83.8H199.211V95ZM207.952 92.728C207.6 93.448 207.008 93.8 206.176 93.8C204.96 93.8 204.144 92.936 203.968 91.672H209.712V91.24C209.68 88.632 208.032 87.192 205.968 87.192C203.76 87.192 202.208 88.936 202.208 91.24C202.208 93.528 203.84 95.24 206.16 95.24C207.68 95.24 208.768 94.552 209.408 93.16L207.952 92.728ZM206 88.536C206.976 88.536 207.824 89.144 207.904 90.488H203.984C204.176 89.224 204.896 88.536 206 88.536Z" fill="#86C5B0"/>
<path d="M232.941 97.5H244.173V95.052H236.709L240.549 91.404C243.117 88.98 244.077 87.396 244.077 85.164C244.077 82.668 241.917 80.34 238.485 80.34C234.981 80.34 233.061 82.836 232.725 85.812L235.341 86.052C235.533 84.396 236.421 82.812 238.509 82.812C240.357 82.812 241.293 84.156 241.293 85.452C241.293 86.772 240.621 87.852 238.701 89.748L232.941 95.172V97.5ZM252.377 97.86C256.265 97.86 258.737 94.356 258.737 89.1C258.737 83.844 256.217 80.34 252.305 80.34C248.417 80.34 245.945 83.844 245.945 89.1C245.945 94.356 248.417 97.86 252.377 97.86ZM252.377 95.412C249.977 95.412 248.705 92.844 248.705 89.1C248.705 85.38 249.953 82.788 252.305 82.788C254.705 82.788 255.977 85.38 255.977 89.1C255.977 92.844 254.705 95.412 252.377 95.412Z" fill="#86C5B0"/>
<path d="M266.749 89.7C268.861 89.7 270.445 87.924 270.445 85.02C270.445 82.068 268.861 80.34 266.749 80.34C264.637 80.34 263.053 82.068 263.053 85.02C263.053 87.924 264.637 89.7 266.749 89.7ZM276.229 80.7L265.141 97.5H266.821L277.933 80.7H276.229ZM266.749 88.116C265.501 88.116 264.733 87.012 264.733 85.02C264.733 83.028 265.501 81.924 266.749 81.924C267.973 81.924 268.765 83.028 268.765 85.02C268.765 87.012 267.973 88.116 266.749 88.116ZM276.349 97.86C278.485 97.86 280.045 96.084 280.045 93.18C280.045 90.228 278.485 88.5 276.349 88.5C274.237 88.5 272.653 90.228 272.653 93.18C272.653 96.084 274.237 97.86 276.349 97.86ZM276.349 96.276C275.125 96.276 274.333 95.172 274.333 93.18C274.333 91.188 275.125 90.084 276.349 90.084C277.573 90.084 278.365 91.188 278.365 93.18C278.365 95.172 277.573 96.276 276.349 96.276Z" fill="#86C5B0" fill-opacity="0.65"/>
<defs>
<linearGradient id="paint0_linear" x1="73" y1="92" x2="48" y2="35" gradientUnits="userSpaceOnUse">
<stop offset="0.069099" stop-color="#B4A88E"/>
<stop offset="0.956003" stop-color="#7E7666"/>
</linearGradient>
<linearGradient id="paint1_linear" x1="7" y1="55" x2="82.5" y2="116" gradientUnits="userSpaceOnUse">
<stop offset="0.165448" stop-color="#69C0DD"/>
<stop offset="0.978136" stop-color="#173843"/>
</linearGradient>
<linearGradient id="paint2_linear" x1="45.5" y1="30.5" x2="28" y2="67" gradientUnits="userSpaceOnUse">
<stop stop-color="#86C5B0"/>
<stop offset="0.994065" stop-color="#487D6B"/>
</linearGradient>
</defs>
</svg>
