<svg width="257" height="108" viewBox="0 0 257 108" fill="none" xmlns="http://www.w3.org/2000/svg">
<path d="M47.6001 27.8447C52.8625 27.8447 58.0437 29.1425 62.6848 31.6232C67.3258 34.1039 71.2835 37.6909 74.2071 42.0665C77.1308 46.442 78.9302 51.4711 79.446 56.7082C79.9618 61.9453 79.1781 67.2287 77.1642 72.0906C75.1504 76.9524 71.9686 81.2426 67.9007 84.5811C63.8328 87.9195 59.0043 90.2032 53.843 91.2299C48.6817 92.2565 43.3468 91.9944 38.311 90.4668C33.2751 88.9392 28.6938 86.1932 24.9727 82.4721" stroke="url(#paint0_linear)" stroke-width="32"/>
<path d="M24.8 83C21.3184 79.4003 18.7457 74.971 17.3085 70.102C15.8713 65.2329 15.6135 60.0732 16.5578 55.077C17.0349 52.5528 17.8114 50.1095 18.8633 47.8" stroke="url(#paint1_linear)" stroke-width="32"/>
<path d="M35.0323 30.415C39.0431 28.7022 43.3617 27.8273 47.7229 27.8441" stroke="url(#paint2_angular)" stroke-width="32"/>
<path d="M48.0588 27.7964C42.8146 27.786 37.6482 29.0645 33.0142 31.5196C28.3802 33.9747 24.4205 37.531 21.4837 41.8758C19.9809 44.0988 18.7696 46.4935 17.871 49.0007" stroke="url(#paint3_angular)" stroke-width="32"/>
<path d="M48.0588 27.7964C42.8146 27.786 37.6482 29.0645 33.0142 31.5196C28.3802 33.9747 24.4205 37.531 21.4837 41.8758C19.9809 44.0988 18.7696 46.4935 17.871 49.0007" stroke="url(#paint4_linear)" stroke-width="32"/>
<path d="M122.096 18.236H120.064L115.872 29.5H117.808L118.816 26.604H123.296L124.32 29.5H126.288L122.096 18.236ZM121.104 20.284L122.752 24.956H119.408L121.04 20.284H121.104ZM139.593 18.3H136.873L133.673 26.716H133.609L130.425 18.3H127.593V29.5H129.417V20.668H129.481L132.809 29.5H134.377L137.705 20.668H137.769V29.5H139.593V18.3ZM141.416 23.916C141.416 27.452 143.8 29.74 146.968 29.74C148.104 29.74 149.096 29.436 149.928 28.844C150.76 28.236 151.32 27.404 151.624 26.348L149.848 25.9C149.384 27.228 148.296 28.028 146.904 28.028C144.776 28.028 143.272 26.236 143.272 23.9C143.272 21.564 144.776 19.772 146.92 19.772C148.504 19.772 149.512 20.78 149.832 21.804L151.72 21.516C151.064 19.34 149.272 18.06 146.92 18.06C143.752 18.06 141.416 20.348 141.416 23.916Z" fill="#A6B6A2"/>
<path d="M209.232 14.7V17.148H217.68L209.712 31.5H212.76L220.464 17.172V14.7H209.232ZM227.683 31.86C231.571 31.86 234.043 28.356 234.043 23.1C234.043 17.844 231.523 14.34 227.611 14.34C223.723 14.34 221.251 17.844 221.251 23.1C221.251 28.356 223.723 31.86 227.683 31.86ZM227.683 29.412C225.283 29.412 224.011 26.844 224.011 23.1C224.011 19.38 225.259 16.788 227.611 16.788C230.011 16.788 231.283 19.38 231.283 23.1C231.283 26.844 230.011 29.412 227.683 29.412Z" fill="#A6B6A2"/>
<path d="M242.04 23.7C244.152 23.7 245.736 21.924 245.736 19.02C245.736 16.068 244.152 14.34 242.04 14.34C239.928 14.34 238.344 16.068 238.344 19.02C238.344 21.924 239.928 23.7 242.04 23.7ZM251.52 14.7L240.432 31.5H242.112L253.224 14.7H251.52ZM242.04 22.116C240.792 22.116 240.024 21.012 240.024 19.02C240.024 17.028 240.792 15.924 242.04 15.924C243.264 15.924 244.056 17.028 244.056 19.02C244.056 21.012 243.264 22.116 242.04 22.116ZM251.64 31.86C253.776 31.86 255.336 30.084 255.336 27.18C255.336 24.228 253.776 22.5 251.64 22.5C249.528 22.5 247.944 24.228 247.944 27.18C247.944 30.084 249.528 31.86 251.64 31.86ZM251.64 30.276C250.416 30.276 249.624 29.172 249.624 27.18C249.624 25.188 250.416 24.084 251.64 24.084C252.864 24.084 253.656 25.188 253.656 27.18C253.656 29.172 252.864 30.276 251.64 30.276Z" fill="#A6B6A2" fill-opacity="0.65"/>
<path d="M116.016 49.3V50.98H119.36V60.5H121.184V50.98H124.512V49.3H116.016ZM134.192 60.5L131.152 55.652C132.672 55.22 133.616 54.084 133.616 52.596C133.616 50.404 131.888 49.3 129.92 49.3H125.984V60.5H127.808V55.796H129.184L132.064 60.5H134.192ZM131.744 52.628C131.744 53.46 131.184 54.292 129.632 54.292H127.808V50.98H129.616C131.216 50.98 131.744 51.844 131.744 52.628ZM140.894 49.236H138.862L134.67 60.5H136.606L137.614 57.604H142.094L143.118 60.5H145.086L140.894 49.236ZM139.902 51.284L141.55 55.956H138.206L139.838 51.284H139.902ZM145.174 54.916C145.174 58.452 147.558 60.74 150.726 60.74C151.862 60.74 152.854 60.436 153.686 59.844C154.518 59.236 155.078 58.404 155.382 57.348L153.606 56.9C153.142 58.228 152.054 59.028 150.662 59.028C148.534 59.028 147.03 57.236 147.03 54.9C147.03 52.564 148.534 50.772 150.678 50.772C152.262 50.772 153.27 51.78 153.59 52.804L155.478 52.516C154.822 50.34 153.03 49.06 150.678 49.06C147.51 49.06 145.174 51.348 145.174 54.916ZM158.879 55.188L163.535 60.5H165.967L160.799 54.628L165.567 49.3H163.391L158.879 54.42V49.3H157.055V60.5H158.879V55.188ZM167.173 49.3V60.5H174.613V58.836H168.997V55.7H173.253V54.02H168.997V50.964H174.613V49.3H167.173ZM184.826 60.5L181.786 55.652C183.306 55.22 184.25 54.084 184.25 52.596C184.25 50.404 182.522 49.3 180.554 49.3H176.618V60.5H178.442V55.796H179.818L182.698 60.5H184.826ZM182.378 52.628C182.378 53.46 181.818 54.292 180.266 54.292H178.442V50.98H180.25C181.85 50.98 182.378 51.844 182.378 52.628Z" fill="#DDA86F"/>
<path d="M212.512 50.884L216.808 48.532V62.5H219.472V45.7H217.072L212.2 48.196L212.512 50.884ZM228.301 62.86C231.925 62.86 234.517 60.316 234.517 56.86C234.517 53.548 232.285 51.268 229.093 51.268C227.437 51.268 226.213 51.892 225.613 52.684V48.148H233.629V45.7H223.117V55.3H225.445C225.901 54.268 227.029 53.668 228.301 53.668C230.293 53.668 231.685 55.084 231.685 57.1C231.685 58.036 231.373 58.852 230.749 59.5C230.149 60.148 229.333 60.46 228.325 60.46C226.813 60.46 225.493 59.596 225.085 58.228L222.517 58.924C222.997 61.228 225.397 62.86 228.301 62.86Z" fill="#DDA86F"/>
<path d="M242.04 54.7C244.152 54.7 245.736 52.924 245.736 50.02C245.736 47.068 244.152 45.34 242.04 45.34C239.928 45.34 238.344 47.068 238.344 50.02C238.344 52.924 239.928 54.7 242.04 54.7ZM251.52 45.7L240.432 62.5H242.112L253.224 45.7H251.52ZM242.04 53.116C240.792 53.116 240.024 52.012 240.024 50.02C240.024 48.028 240.792 46.924 242.04 46.924C243.264 46.924 244.056 48.028 244.056 50.02C244.056 52.012 243.264 53.116 242.04 53.116ZM251.64 62.86C253.776 62.86 255.336 61.084 255.336 58.18C255.336 55.228 253.776 53.5 251.64 53.5C249.528 53.5 247.944 55.228 247.944 58.18C247.944 61.084 249.528 62.86 251.64 62.86ZM251.64 61.276C250.416 61.276 249.624 60.172 249.624 58.18C249.624 56.188 250.416 55.084 251.64 55.084C252.864 55.084 253.656 56.188 253.656 58.18C253.656 60.172 252.864 61.276 251.64 61.276Z" fill="#DDA86F" fill-opacity="0.65"/>
<path d="M116.368 85.416C116.368 88.952 118.752 91.24 121.92 91.24C123.056 91.24 124.048 90.936 124.88 90.344C125.712 89.736 126.272 88.904 126.576 87.848L124.8 87.4C124.336 88.728 123.248 89.528 121.856 89.528C119.728 89.528 118.224 87.736 118.224 85.4C118.224 83.064 119.728 81.272 121.872 81.272C123.456 81.272 124.464 82.28 124.784 83.304L126.672 83.016C126.016 80.84 124.224 79.56 121.872 79.56C118.704 79.56 116.368 81.848 116.368 85.416ZM128.249 91H135.033V89.336H130.073V79.8H128.249V91ZM146.157 79.8H144.333V88.248L138.461 79.736H136.429V91H138.253V82.552L144.125 91.064H146.157V79.8Z" fill="#7FCCC6"/>
<path d="M212.512 81.884L216.808 79.532V93.5H219.472V76.7H217.072L212.2 79.196L212.512 81.884ZM228.301 93.86C231.925 93.86 234.517 91.316 234.517 87.86C234.517 84.548 232.285 82.268 229.093 82.268C227.437 82.268 226.213 82.892 225.613 83.684V79.148H233.629V76.7H223.117V86.3H225.445C225.901 85.268 227.029 84.668 228.301 84.668C230.293 84.668 231.685 86.084 231.685 88.1C231.685 89.036 231.373 89.852 230.749 90.5C230.149 91.148 229.333 91.46 228.325 91.46C226.813 91.46 225.493 90.596 225.085 89.228L222.517 89.924C222.997 92.228 225.397 93.86 228.301 93.86Z" fill="#7FCCC6"/>
<path d="M242.04 85.7C244.152 85.7 245.736 83.924 245.736 81.02C245.736 78.068 244.152 76.34 242.04 76.34C239.928 76.34 238.344 78.068 238.344 81.02C238.344 83.924 239.928 85.7 242.04 85.7ZM251.52 76.7L240.432 93.5H242.112L253.224 76.7H251.52ZM242.04 84.116C240.792 84.116 240.024 83.012 240.024 81.02C240.024 79.028 240.792 77.924 242.04 77.924C243.264 77.924 244.056 79.028 244.056 81.02C244.056 83.012 243.264 84.116 242.04 84.116ZM251.64 93.86C253.776 93.86 255.336 92.084 255.336 89.18C255.336 86.228 253.776 84.5 251.64 84.5C249.528 84.5 247.944 86.228 247.944 89.18C247.944 92.084 249.528 93.86 251.64 93.86ZM251.64 92.276C250.416 92.276 249.624 91.172 249.624 89.18C249.624 87.188 250.416 86.084 251.64 86.084C252.864 86.084 253.656 87.188 253.656 89.18C253.656 91.172 252.864 92.276 251.64 92.276Z" fill="#7FCCC6" fill-opacity="0.65"/>
<defs>
<linearGradient id="paint0_linear" x1="41" y1="88" x2="52" y2="34.5" gradientUnits="userSpaceOnUse">
<stop stop-color="#C8D5C5"/>
<stop offset="0.72291" stop-color="#8FA18A"/>
</linearGradient>
<linearGradient id="paint1_linear" x1="42" y1="94.5" x2="12.5" y2="65" gradientUnits="userSpaceOnUse">
<stop stop-color="#584633"/>
<stop offset="0.933205" stop-color="#DDA86F"/>
</linearGradient>
<radialGradient id="paint2_angular" cx="0" cy="0" r="1" gradientUnits="userSpaceOnUse" gradientTransform="translate(47.725 59.8975) rotate(-115.694) scale(29.4077 29.7869)">
<stop offset="0.947278" stop-color="#7FCCC6"/>
<stop offset="0.994065" stop-color="#7FCCC6" stop-opacity="0.3"/>
</radialGradient>
<radialGradient id="paint3_angular" cx="0" cy="0" r="1" gradientUnits="userSpaceOnUse" gradientTransform="translate(47.5999 61.5) rotate(-117.387) scale(46.7386 50.1087)">
<stop offset="0.0668455" stop-color="#7FCCC6"/>
<stop offset="0.895921" stop-color="#41807B"/>
<stop offset="0.962081" stop-color="#5AAAA4"/>
</radialGradient>
<linearGradient id="paint4_linear" x1="29.5" y1="57" x2="43" y2="29" gradientUnits="userSpaceOnUse">
<stop stop-color="#41807B"/>
<stop offset="0.962081" stop-color="#5AAAA4"/>
</linearGradient>
</defs>
</svg>
