<svg width="551" height="253" viewBox="0 0 551 253" fill="none" xmlns="http://www.w3.org/2000/svg">
<g filter="url(#filter0_b)">
<path d="M84.2017 59.676C84.2017 57.75 82.8517 56.4 80.3317 56.4H76.1197V69H80.6017C81.9877 69 83.0317 68.676 83.7157 68.01C84.3997 67.344 84.7417 66.48 84.7417 65.454C84.7417 64.014 83.9137 62.7 82.0417 62.484C83.4997 62.196 84.2017 60.972 84.2017 59.676ZM80.1877 57.93C81.8437 57.93 82.4917 58.866 82.4917 59.874C82.4917 60.936 81.8617 61.818 80.4397 61.818H77.7577V57.93H80.1877ZM83.0497 65.346C83.0497 65.904 82.8517 66.408 82.4557 66.84C82.0597 67.272 81.4297 67.488 80.5657 67.488H77.7577V63.24H80.4937C81.4117 63.24 82.0777 63.456 82.4557 63.87C82.8517 64.284 83.0497 64.788 83.0497 65.346ZM93.9192 63.474C93.9192 61.458 92.7132 60.288 90.6432 60.288C88.8432 60.288 87.5472 61.134 87.1152 62.628L88.6812 62.772C88.9512 61.998 89.5992 61.548 90.5352 61.548C91.6692 61.548 92.3532 62.232 92.3532 63.438V64.32C91.9752 64.086 91.1652 63.906 90.3192 63.906C88.1592 63.906 86.7912 64.95 86.7912 66.66C86.7912 68.19 88.0152 69.252 89.7612 69.252C90.8952 69.252 91.9392 68.748 92.3892 68.01H92.4252V69H93.9192V63.474ZM88.3752 66.534C88.3752 65.616 89.1672 65.04 90.4812 65.04C91.2552 65.04 91.9752 65.238 92.3892 65.508V66.3C92.3892 67.182 91.3092 68.01 90.1212 68.01C89.0952 68.01 88.3752 67.398 88.3752 66.534ZM103.632 63.6C103.632 61.53 102.498 60.288 100.644 60.288C99.42 60.288 98.43 60.882 97.944 61.8H97.872V60.558H96.414V69H97.98V64.14C97.98 62.7 98.952 61.674 100.248 61.674C101.4 61.674 102.066 62.484 102.066 63.942V69H103.632V63.6ZM107.718 64.896L111.588 69H113.64L109.284 64.392L113.208 60.558H111.318L107.718 64.158V56.4H106.152V69H107.718V64.896ZM117.679 69.27C119.569 69.27 120.883 68.226 120.883 66.57C120.883 63.186 116.131 64.806 116.131 62.682C116.131 62.052 116.617 61.494 117.625 61.494C118.507 61.494 119.245 62.016 119.335 62.754L120.793 62.466C120.559 61.188 119.245 60.288 117.589 60.288C115.789 60.288 114.565 61.278 114.565 62.79C114.565 66.138 119.317 64.572 119.317 66.66C119.317 67.47 118.777 68.082 117.715 68.082C116.707 68.082 115.933 67.56 115.717 66.714L114.259 67.002C114.619 68.388 115.933 69.27 117.679 69.27Z" fill="#6B7376"/>
<rect x="46" y="37" width="104" height="52" rx="26" stroke="#6B7376" stroke-width="2"/>
</g>
<g filter="url(#filter1_b)">
<path d="M38.9088 123.676C38.9088 121.75 37.5588 120.4 35.0388 120.4H30.8268V133H35.3088C36.6948 133 37.7388 132.676 38.4228 132.01C39.1068 131.344 39.4488 130.48 39.4488 129.454C39.4488 128.014 38.6208 126.7 36.7488 126.484C38.2068 126.196 38.9088 124.972 38.9088 123.676ZM34.8948 121.93C36.5508 121.93 37.1988 122.866 37.1988 123.874C37.1988 124.936 36.5688 125.818 35.1468 125.818H32.4648V121.93H34.8948ZM37.7568 129.346C37.7568 129.904 37.5588 130.408 37.1628 130.84C36.7668 131.272 36.1368 131.488 35.2728 131.488H32.4648V127.24H35.2008C36.1188 127.24 36.7848 127.456 37.1628 127.87C37.5588 128.284 37.7568 128.788 37.7568 129.346ZM41.8222 133H43.3882V128.842C43.3882 126.898 44.3602 125.89 45.7102 125.89C45.9802 125.89 46.2142 125.926 46.3942 125.998V124.486C46.2322 124.414 45.9982 124.36 45.7102 124.36C44.6842 124.36 43.7842 124.954 43.3522 125.944H43.2802V124.558H41.8222V133ZM47.2743 128.77C47.2743 131.488 49.1463 133.27 51.5763 133.27C54.0063 133.27 55.8783 131.47 55.8783 128.77C55.8783 126.052 54.0063 124.288 51.5763 124.288C49.1463 124.288 47.2743 126.034 47.2743 128.77ZM48.8583 128.77C48.8583 127.888 49.1103 127.15 49.5963 126.556C50.0823 125.962 50.7483 125.674 51.5763 125.674C52.4043 125.674 53.0703 125.962 53.5563 126.556C54.0423 127.15 54.2943 127.888 54.2943 128.77C54.2943 130.57 53.2323 131.884 51.5763 131.884C49.9203 131.884 48.8583 130.57 48.8583 128.77ZM59.4722 128.896L63.3422 133H65.3942L61.0382 128.392L64.9622 124.558H63.0722L59.4722 128.158V120.4H57.9062V133H59.4722V128.896ZM72.4063 130.606C71.9563 131.506 71.2183 131.956 70.1743 131.956C68.6083 131.956 67.5823 130.804 67.4383 129.166H74.0623V128.698C73.9903 125.818 72.1363 124.288 69.9583 124.288C67.5103 124.288 65.8543 126.286 65.8543 128.788C65.8543 131.344 67.5823 133.27 70.1743 133.27C71.8483 133.27 73.0363 132.514 73.7383 131.002L72.4063 130.606ZM69.9943 125.512C70.5883 125.512 71.1283 125.71 71.6143 126.124C72.1003 126.52 72.3703 127.168 72.4243 128.068H67.4563C67.6543 126.484 68.5543 125.512 69.9943 125.512ZM76.0644 133H77.6304V128.842C77.6304 126.898 78.6024 125.89 79.9524 125.89C80.2224 125.89 80.4564 125.926 80.6364 125.998V124.486C80.4744 124.414 80.2404 124.36 79.9524 124.36C78.9264 124.36 78.0264 124.954 77.5944 125.944H77.5224V124.558H76.0644V133ZM84.9725 133.27C86.8625 133.27 88.1765 132.226 88.1765 130.57C88.1765 127.186 83.4245 128.806 83.4245 126.682C83.4245 126.052 83.9105 125.494 84.9185 125.494C85.8005 125.494 86.5385 126.016 86.6285 126.754L88.0865 126.466C87.8525 125.188 86.5385 124.288 84.8825 124.288C83.0825 124.288 81.8585 125.278 81.8585 126.79C81.8585 130.138 86.6105 128.572 86.6105 130.66C86.6105 131.47 86.0705 132.082 85.0085 132.082C84.0005 132.082 83.2265 131.56 83.0105 130.714L81.5525 131.002C81.9125 132.388 83.2265 133.27 84.9725 133.27Z" fill="#6B7376"/>
<rect x="1" y="101" width="116" height="52" rx="26" stroke="#6B7376" stroke-width="2"/>
</g>
<g filter="url(#filter2_b)">
<path d="M214.265 20.274H212.429L207.641 33H209.387L210.701 29.382H215.957L217.271 33H219.053L214.265 20.274ZM213.383 22.164L215.471 27.888H211.241L213.311 22.164H213.383ZM223.427 33.27C225.317 33.27 226.631 32.226 226.631 30.57C226.631 27.186 221.879 28.806 221.879 26.682C221.879 26.052 222.365 25.494 223.373 25.494C224.255 25.494 224.993 26.016 225.083 26.754L226.541 26.466C226.307 25.188 224.993 24.288 223.337 24.288C221.537 24.288 220.313 25.278 220.313 26.79C220.313 30.138 225.065 28.572 225.065 30.66C225.065 31.47 224.525 32.082 223.463 32.082C222.455 32.082 221.681 31.56 221.465 30.714L220.007 31.002C220.367 32.388 221.681 33.27 223.427 33.27ZM231.477 33.27C233.367 33.27 234.681 32.226 234.681 30.57C234.681 27.186 229.929 28.806 229.929 26.682C229.929 26.052 230.415 25.494 231.423 25.494C232.305 25.494 233.043 26.016 233.133 26.754L234.591 26.466C234.357 25.188 233.043 24.288 231.387 24.288C229.587 24.288 228.363 25.278 228.363 26.79C228.363 30.138 233.115 28.572 233.115 30.66C233.115 31.47 232.575 32.082 231.513 32.082C230.505 32.082 229.731 31.56 229.515 30.714L228.057 31.002C228.417 32.388 229.731 33.27 231.477 33.27ZM242.624 30.606C242.174 31.506 241.436 31.956 240.392 31.956C238.826 31.956 237.8 30.804 237.656 29.166H244.28V28.698C244.208 25.818 242.354 24.288 240.176 24.288C237.728 24.288 236.072 26.286 236.072 28.788C236.072 31.344 237.8 33.27 240.392 33.27C242.066 33.27 243.254 32.514 243.956 31.002L242.624 30.606ZM240.212 25.512C240.806 25.512 241.346 25.71 241.832 26.124C242.318 26.52 242.588 27.168 242.642 28.068H237.674C237.872 26.484 238.772 25.512 240.212 25.512ZM249.541 33.18C250.135 33.18 250.693 33.054 250.981 32.91L250.783 31.65C250.549 31.776 250.225 31.848 249.829 31.848C248.803 31.848 248.335 31.344 248.335 29.958V25.908H250.909V24.558H248.335V21.84L246.769 22.146V24.558H245.131V25.908H246.769V30.228C246.769 32.37 247.867 33.18 249.541 33.18ZM269.817 20.4H267.351L263.373 30.48H263.301L259.323 20.4H256.785V33H258.423V22.596H258.495L262.581 33H264.003L268.089 22.596H268.161V33H269.817V20.4ZM279.647 27.474C279.647 25.458 278.441 24.288 276.371 24.288C274.571 24.288 273.275 25.134 272.843 26.628L274.409 26.772C274.679 25.998 275.327 25.548 276.263 25.548C277.397 25.548 278.081 26.232 278.081 27.438V28.32C277.703 28.086 276.893 27.906 276.047 27.906C273.887 27.906 272.519 28.95 272.519 30.66C272.519 32.19 273.743 33.252 275.489 33.252C276.623 33.252 277.667 32.748 278.117 32.01H278.153V33H279.647V27.474ZM274.103 30.534C274.103 29.616 274.895 29.04 276.209 29.04C276.983 29.04 277.703 29.238 278.117 29.508V30.3C278.117 31.182 277.037 32.01 275.849 32.01C274.823 32.01 274.103 31.398 274.103 30.534ZM289.36 27.6C289.36 25.53 288.226 24.288 286.372 24.288C285.148 24.288 284.158 24.882 283.672 25.8H283.6V24.558H282.142V33H283.708V28.14C283.708 26.7 284.68 25.674 285.976 25.674C287.128 25.674 287.794 26.484 287.794 27.942V33H289.36V27.6ZM298.684 27.474C298.684 25.458 297.478 24.288 295.408 24.288C293.608 24.288 292.312 25.134 291.88 26.628L293.446 26.772C293.716 25.998 294.364 25.548 295.3 25.548C296.434 25.548 297.118 26.232 297.118 27.438V28.32C296.74 28.086 295.93 27.906 295.084 27.906C292.924 27.906 291.556 28.95 291.556 30.66C291.556 32.19 292.78 33.252 294.526 33.252C295.66 33.252 296.704 32.748 297.154 32.01H297.19V33H298.684V27.474ZM293.14 30.534C293.14 29.616 293.932 29.04 295.246 29.04C296.02 29.04 296.74 29.238 297.154 29.508V30.3C297.154 31.182 296.074 32.01 294.886 32.01C293.86 32.01 293.14 31.398 293.14 30.534ZM300.621 28.5C300.621 31.02 302.331 32.694 304.437 32.694C305.715 32.694 306.723 32.154 307.155 31.29V32.748C307.155 34.386 306.273 35.322 304.815 35.322C303.681 35.322 302.763 34.746 302.565 33.936L300.981 34.278C301.341 35.646 302.835 36.6 304.797 36.6C307.299 36.6 308.703 35.088 308.703 32.406V24.558H307.191V25.566H307.137C306.615 24.792 305.769 24.288 304.491 24.288C302.349 24.288 300.621 25.908 300.621 28.5ZM302.205 28.5C302.205 26.772 303.285 25.656 304.707 25.656C306.201 25.656 307.227 26.79 307.227 28.5C307.227 30.174 306.201 31.326 304.707 31.326C303.285 31.326 302.205 30.228 302.205 28.5ZM317.296 30.606C316.846 31.506 316.108 31.956 315.064 31.956C313.498 31.956 312.472 30.804 312.328 29.166H318.952V28.698C318.88 25.818 317.026 24.288 314.848 24.288C312.4 24.288 310.744 26.286 310.744 28.788C310.744 31.344 312.472 33.27 315.064 33.27C316.738 33.27 317.926 32.514 318.628 31.002L317.296 30.606ZM314.884 25.512C315.478 25.512 316.018 25.71 316.504 26.124C316.99 26.52 317.26 27.168 317.314 28.068H312.346C312.544 26.484 313.444 25.512 314.884 25.512ZM320.954 33H322.52V28.842C322.52 26.898 323.492 25.89 324.842 25.89C325.112 25.89 325.346 25.926 325.526 25.998V24.486C325.364 24.414 325.13 24.36 324.842 24.36C323.816 24.36 322.916 24.954 322.484 25.944H322.412V24.558H320.954V33ZM329.862 33.27C331.752 33.27 333.066 32.226 333.066 30.57C333.066 27.186 328.314 28.806 328.314 26.682C328.314 26.052 328.8 25.494 329.808 25.494C330.69 25.494 331.428 26.016 331.518 26.754L332.976 26.466C332.742 25.188 331.428 24.288 329.772 24.288C327.972 24.288 326.748 25.278 326.748 26.79C326.748 30.138 331.5 28.572 331.5 30.66C331.5 31.47 330.96 32.082 329.898 32.082C328.89 32.082 328.116 31.56 327.9 30.714L326.442 31.002C326.802 32.388 328.116 33.27 329.862 33.27Z" fill="#847658"/>
<rect x="179" y="1" width="183" height="52" rx="26" stroke="#847658" stroke-width="2"/>
</g>
<g filter="url(#filter3_b)">
<path d="M202.066 88.4V101H203.704V95.474H208.582V93.944H203.704V89.912H210.184V88.4H202.066ZM217.668 95.474C217.668 93.458 216.462 92.288 214.392 92.288C212.592 92.288 211.296 93.134 210.864 94.628L212.43 94.772C212.7 93.998 213.348 93.548 214.284 93.548C215.418 93.548 216.102 94.232 216.102 95.438V96.32C215.724 96.086 214.914 95.906 214.068 95.906C211.908 95.906 210.54 96.95 210.54 98.66C210.54 100.19 211.764 101.252 213.51 101.252C214.644 101.252 215.688 100.748 216.138 100.01H216.174V101H217.668V95.474ZM212.124 98.534C212.124 97.616 212.916 97.04 214.23 97.04C215.004 97.04 215.724 97.238 216.138 97.508V98.3C216.138 99.182 215.058 100.01 213.87 100.01C212.844 100.01 212.124 99.398 212.124 98.534ZM232.565 95.528C232.565 93.53 231.449 92.288 229.649 92.288C228.425 92.288 227.417 92.918 226.859 93.98C226.553 92.972 225.563 92.288 224.285 92.288C223.115 92.288 222.125 92.918 221.693 93.71H221.621V92.558H220.163V101H221.729V96.032C221.729 94.718 222.665 93.674 223.817 93.674C224.951 93.674 225.581 94.52 225.581 95.906V101H227.147V96.032C227.147 95.366 227.345 94.808 227.759 94.358C228.173 93.908 228.659 93.674 229.253 93.674C230.351 93.674 230.999 94.52 230.999 95.906V101H232.565V95.528ZM236.653 88.4H235.087V90.344H236.653V88.4ZM236.653 92.558H235.087V101H236.653V92.558ZM239.323 101H240.889V88.4H239.323V101ZM250.886 92.558H249.32L246.89 98.876L244.244 92.558H242.534L246.044 100.73L244.496 104.51H246.062L250.886 92.558ZM268.612 94.7C268.612 90.812 265.858 88.13 262.366 88.13C258.856 88.13 256.102 90.812 256.102 94.7C256.102 98.588 258.856 101.27 262.366 101.27C265.858 101.27 268.612 98.588 268.612 94.7ZM266.92 94.7C266.92 97.688 264.886 99.722 262.366 99.722C259.864 99.722 257.794 97.688 257.794 94.7C257.794 91.694 259.864 89.678 262.366 89.678C264.886 89.678 266.92 91.694 266.92 94.7ZM271.523 93.908V101H273.107V93.908H276.617V101H278.201V93.908H280.613V92.558H278.201V91.262C278.201 90.2 278.651 89.498 279.785 89.498C280.091 89.498 280.379 89.552 280.613 89.606V88.274C280.397 88.202 279.965 88.13 279.479 88.13C277.589 88.13 276.617 89.3 276.617 91.118V92.558H273.107V91.262C273.107 90.2 273.557 89.498 274.691 89.498C274.997 89.498 275.285 89.552 275.519 89.606V88.274C275.303 88.202 274.871 88.13 274.385 88.13C272.495 88.13 271.523 89.3 271.523 91.118V92.558H269.903V93.908H271.523ZM283.481 88.4H281.915V90.344H283.481V88.4ZM283.481 92.558H281.915V101H283.481V92.558ZM289.607 92.288C287.249 92.288 285.521 94.106 285.521 96.77C285.521 99.344 287.141 101.27 289.697 101.27C291.551 101.27 292.847 100.316 293.405 98.606L291.929 98.228C291.569 99.236 290.849 99.884 289.643 99.884C287.987 99.884 287.105 98.534 287.105 96.788C287.105 95.006 287.987 93.674 289.643 93.674C290.849 93.674 291.587 94.304 291.929 95.33L293.459 95.096C292.937 93.224 291.641 92.288 289.607 92.288ZM301.249 98.606C300.799 99.506 300.061 99.956 299.017 99.956C297.451 99.956 296.425 98.804 296.281 97.166H302.905V96.698C302.833 93.818 300.979 92.288 298.801 92.288C296.353 92.288 294.697 94.286 294.697 96.788C294.697 99.344 296.425 101.27 299.017 101.27C300.691 101.27 301.879 100.514 302.581 99.002L301.249 98.606ZM298.837 93.512C299.431 93.512 299.971 93.71 300.457 94.124C300.943 94.52 301.213 95.168 301.267 96.068H296.299C296.497 94.484 297.397 93.512 298.837 93.512ZM307.733 101.27C309.623 101.27 310.937 100.226 310.937 98.57C310.937 95.186 306.185 96.806 306.185 94.682C306.185 94.052 306.671 93.494 307.679 93.494C308.561 93.494 309.299 94.016 309.389 94.754L310.847 94.466C310.613 93.188 309.299 92.288 307.643 92.288C305.843 92.288 304.619 93.278 304.619 94.79C304.619 98.138 309.371 96.572 309.371 98.66C309.371 99.47 308.831 100.082 307.769 100.082C306.761 100.082 305.987 99.56 305.771 98.714L304.313 99.002C304.673 100.388 305.987 101.27 307.733 101.27Z" fill="#847658"/>
<rect x="172" y="69" width="168" height="52" rx="26" stroke="#847658" stroke-width="2"/>
</g>
<g filter="url(#filter4_b)">
<path d="M381.053 122.4V135H382.691V129.474H387.569V127.944H382.691V123.912H389.171V122.4H381.053ZM392.859 122.4H391.293V124.344H392.859V122.4ZM392.859 126.558H391.293V135H392.859V126.558ZM402.747 129.6C402.747 127.53 401.613 126.288 399.759 126.288C398.535 126.288 397.545 126.882 397.059 127.8H396.987V126.558H395.529V135H397.095V130.14C397.095 128.7 398.067 127.674 399.363 127.674C400.515 127.674 401.181 128.484 401.181 129.942V135H402.747V129.6ZM412.072 129.474C412.072 127.458 410.866 126.288 408.796 126.288C406.996 126.288 405.7 127.134 405.268 128.628L406.834 128.772C407.104 127.998 407.752 127.548 408.688 127.548C409.822 127.548 410.506 128.232 410.506 129.438V130.32C410.128 130.086 409.318 129.906 408.472 129.906C406.312 129.906 404.944 130.95 404.944 132.66C404.944 134.19 406.168 135.252 407.914 135.252C409.048 135.252 410.092 134.748 410.542 134.01H410.578V135H412.072V129.474ZM406.528 132.534C406.528 131.616 407.32 131.04 408.634 131.04C409.408 131.04 410.128 131.238 410.542 131.508V132.3C410.542 133.182 409.462 134.01 408.274 134.01C407.248 134.01 406.528 133.398 406.528 132.534ZM421.784 129.6C421.784 127.53 420.65 126.288 418.796 126.288C417.572 126.288 416.582 126.882 416.096 127.8H416.024V126.558H414.566V135H416.132V130.14C416.132 128.7 417.104 127.674 418.4 127.674C419.552 127.674 420.218 128.484 420.218 129.942V135H421.784V129.6ZM427.761 126.288C425.403 126.288 423.675 128.106 423.675 130.77C423.675 133.344 425.295 135.27 427.851 135.27C429.705 135.27 431.001 134.316 431.559 132.606L430.083 132.228C429.723 133.236 429.003 133.884 427.797 133.884C426.141 133.884 425.259 132.534 425.259 130.788C425.259 129.006 426.141 127.674 427.797 127.674C429.003 127.674 429.741 128.304 430.083 129.33L431.613 129.096C431.091 127.224 429.795 126.288 427.761 126.288ZM435.046 122.4H433.48V124.344H435.046V122.4ZM435.046 126.558H433.48V135H435.046V126.558ZM444.521 129.474C444.521 127.458 443.315 126.288 441.245 126.288C439.445 126.288 438.149 127.134 437.717 128.628L439.283 128.772C439.553 127.998 440.201 127.548 441.137 127.548C442.271 127.548 442.955 128.232 442.955 129.438V130.32C442.577 130.086 441.767 129.906 440.921 129.906C438.761 129.906 437.393 130.95 437.393 132.66C437.393 134.19 438.617 135.252 440.363 135.252C441.497 135.252 442.541 134.748 442.991 134.01H443.027V135H444.521V129.474ZM438.977 132.534C438.977 131.616 439.769 131.04 441.083 131.04C441.857 131.04 442.577 131.238 442.991 131.508V132.3C442.991 133.182 441.911 134.01 440.723 134.01C439.697 134.01 438.977 133.398 438.977 132.534ZM447.016 135H448.582V122.4H447.016V135ZM460.842 122.274H459.006L454.218 135H455.964L457.278 131.382H462.534L463.848 135H465.63L460.842 122.274ZM459.96 124.164L462.048 129.888H457.818L459.888 124.164H459.96ZM466.477 130.788C466.477 133.452 468.151 135.27 470.473 135.27C471.715 135.27 472.831 134.73 473.407 133.596H473.461V135H474.901V122.4H473.335V127.728C472.813 126.864 471.787 126.288 470.491 126.288C468.187 126.288 466.477 128.124 466.477 130.788ZM468.061 130.788C468.061 129.042 469.087 127.674 470.743 127.674C472.381 127.674 473.371 128.934 473.371 130.788C473.371 132.606 472.381 133.866 470.743 133.866C469.159 133.866 468.061 132.57 468.061 130.788ZM484.874 126.558H483.308L480.824 133.11H480.77L478.286 126.558H476.576L480.014 135.108H481.436L484.874 126.558ZM488.115 122.4H486.549V124.344H488.115V122.4ZM488.115 126.558H486.549V135H488.115V126.558ZM493.611 135.27C495.501 135.27 496.815 134.226 496.815 132.57C496.815 129.186 492.063 130.806 492.063 128.682C492.063 128.052 492.549 127.494 493.557 127.494C494.439 127.494 495.177 128.016 495.267 128.754L496.725 128.466C496.491 127.188 495.177 126.288 493.521 126.288C491.721 126.288 490.497 127.278 490.497 128.79C490.497 132.138 495.249 130.572 495.249 132.66C495.249 133.47 494.709 134.082 493.647 134.082C492.639 134.082 491.865 133.56 491.649 132.714L490.191 133.002C490.551 134.388 491.865 135.27 493.611 135.27ZM498.206 130.77C498.206 133.488 500.078 135.27 502.508 135.27C504.938 135.27 506.81 133.47 506.81 130.77C506.81 128.052 504.938 126.288 502.508 126.288C500.078 126.288 498.206 128.034 498.206 130.77ZM499.79 130.77C499.79 129.888 500.042 129.15 500.528 128.556C501.014 127.962 501.68 127.674 502.508 127.674C503.336 127.674 504.002 127.962 504.488 128.556C504.974 129.15 505.226 129.888 505.226 130.77C505.226 132.57 504.164 133.884 502.508 133.884C500.852 133.884 499.79 132.57 499.79 130.77ZM508.838 135H510.404V130.842C510.404 128.898 511.376 127.89 512.726 127.89C512.996 127.89 513.23 127.926 513.41 127.998V126.486C513.248 126.414 513.014 126.36 512.726 126.36C511.7 126.36 510.8 126.954 510.368 127.944H510.296V126.558H508.838V135ZM517.746 135.27C519.636 135.27 520.95 134.226 520.95 132.57C520.95 129.186 516.198 130.806 516.198 128.682C516.198 128.052 516.684 127.494 517.692 127.494C518.574 127.494 519.312 128.016 519.402 128.754L520.86 128.466C520.626 127.188 519.312 126.288 517.656 126.288C515.856 126.288 514.632 127.278 514.632 128.79C514.632 132.138 519.384 130.572 519.384 132.66C519.384 133.47 518.844 134.082 517.782 134.082C516.774 134.082 516 133.56 515.784 132.714L514.326 133.002C514.686 134.388 516 135.27 517.746 135.27Z" fill="#847658"/>
<rect x="351" y="103" width="199" height="52" rx="26" stroke="#847658" stroke-width="2"/>
</g>
<g filter="url(#filter5_b)">
<path d="M174.242 155.4H172.514L168.626 165.966H168.554L164.666 155.4H162.83L167.618 168.126H169.454L174.242 155.4ZM180.27 165.606C179.82 166.506 179.082 166.956 178.038 166.956C176.472 166.956 175.446 165.804 175.302 164.166H181.926V163.698C181.854 160.818 180 159.288 177.822 159.288C175.374 159.288 173.718 161.286 173.718 163.788C173.718 166.344 175.446 168.27 178.038 168.27C179.712 168.27 180.9 167.514 181.602 166.002L180.27 165.606ZM177.858 160.512C178.452 160.512 178.992 160.71 179.478 161.124C179.964 161.52 180.234 162.168 180.288 163.068H175.32C175.518 161.484 176.418 160.512 177.858 160.512ZM191.146 162.6C191.146 160.53 190.012 159.288 188.158 159.288C186.934 159.288 185.944 159.882 185.458 160.8H185.386V159.558H183.928V168H185.494V163.14C185.494 161.7 186.466 160.674 187.762 160.674C188.914 160.674 189.58 161.484 189.58 162.942V168H191.146V162.6ZM196.978 168.18C197.572 168.18 198.13 168.054 198.418 167.91L198.22 166.65C197.986 166.776 197.662 166.848 197.266 166.848C196.24 166.848 195.772 166.344 195.772 164.958V160.908H198.346V159.558H195.772V156.84L194.206 157.146V159.558H192.568V160.908H194.206V165.228C194.206 167.37 195.304 168.18 196.978 168.18ZM207.033 159.558H205.467V164.418C205.467 165.138 205.251 165.732 204.801 166.2C204.369 166.65 203.829 166.884 203.199 166.884C202.047 166.884 201.381 166.074 201.381 164.616V159.558H199.815V164.958C199.815 166.992 200.967 168.27 202.785 168.27C204.027 168.27 205.017 167.676 205.503 166.758H205.575V168H207.033V159.558ZM209.697 168H211.263V163.842C211.263 161.898 212.235 160.89 213.585 160.89C213.855 160.89 214.089 160.926 214.269 160.998V159.486C214.107 159.414 213.873 159.36 213.585 159.36C212.559 159.36 211.659 159.954 211.227 160.944H211.155V159.558H209.697V168ZM221.701 165.606C221.251 166.506 220.513 166.956 219.469 166.956C217.903 166.956 216.877 165.804 216.733 164.166H223.357V163.698C223.285 160.818 221.431 159.288 219.253 159.288C216.805 159.288 215.149 161.286 215.149 163.788C215.149 166.344 216.877 168.27 219.469 168.27C221.143 168.27 222.331 167.514 223.033 166.002L221.701 165.606ZM219.289 160.512C219.883 160.512 220.423 160.71 220.909 161.124C221.395 161.52 221.665 162.168 221.719 163.068H216.751C216.949 161.484 217.849 160.512 219.289 160.512ZM228.902 161.718C228.902 165.696 231.566 168.27 235.076 168.27C237.596 168.27 239.558 166.812 240.242 164.49L238.64 164.076C238.082 165.732 236.714 166.722 235.004 166.722C232.448 166.722 230.594 164.616 230.594 161.7C230.594 158.784 232.43 156.678 235.022 156.678C236.876 156.678 238.19 157.848 238.622 159.234L240.314 158.946C239.576 156.57 237.596 155.13 235.022 155.13C231.53 155.13 228.902 157.704 228.902 161.718ZM249.249 162.474C249.249 160.458 248.043 159.288 245.973 159.288C244.173 159.288 242.877 160.134 242.445 161.628L244.011 161.772C244.281 160.998 244.929 160.548 245.865 160.548C246.999 160.548 247.683 161.232 247.683 162.438V163.32C247.305 163.086 246.495 162.906 245.649 162.906C243.489 162.906 242.121 163.95 242.121 165.66C242.121 167.19 243.345 168.252 245.091 168.252C246.225 168.252 247.269 167.748 247.719 167.01H247.755V168H249.249V162.474ZM243.705 165.534C243.705 164.616 244.497 164.04 245.811 164.04C246.585 164.04 247.305 164.238 247.719 164.508V165.3C247.719 166.182 246.639 167.01 245.451 167.01C244.425 167.01 243.705 166.398 243.705 165.534ZM260.168 163.77C260.168 161.106 258.512 159.288 256.172 159.288C254.93 159.288 253.814 159.828 253.238 160.962H253.202V159.558H251.744V171.6H253.328V166.83C253.832 167.694 254.876 168.27 256.154 168.27C258.458 168.27 260.168 166.434 260.168 163.77ZM258.584 163.77C258.584 165.498 257.558 166.884 255.902 166.884C254.3 166.884 253.274 165.588 253.274 163.77C253.274 161.952 254.3 160.692 255.902 160.692C257.486 160.692 258.584 161.97 258.584 163.77ZM263.769 155.4H262.203V157.344H263.769V155.4ZM263.769 159.558H262.203V168H263.769V159.558ZM269.751 168.18C270.345 168.18 270.903 168.054 271.191 167.91L270.993 166.65C270.759 166.776 270.435 166.848 270.039 166.848C269.013 166.848 268.545 166.344 268.545 164.958V160.908H271.119V159.558H268.545V156.84L266.979 157.146V159.558H265.341V160.908H266.979V165.228C266.979 167.37 268.077 168.18 269.751 168.18ZM279.536 162.474C279.536 160.458 278.33 159.288 276.26 159.288C274.46 159.288 273.164 160.134 272.732 161.628L274.298 161.772C274.568 160.998 275.216 160.548 276.152 160.548C277.286 160.548 277.97 161.232 277.97 162.438V163.32C277.592 163.086 276.782 162.906 275.936 162.906C273.776 162.906 272.408 163.95 272.408 165.66C272.408 167.19 273.632 168.252 275.378 168.252C276.512 168.252 277.556 167.748 278.006 167.01H278.042V168H279.536V162.474ZM273.992 165.534C273.992 164.616 274.784 164.04 276.098 164.04C276.872 164.04 277.592 164.238 278.006 164.508V165.3C278.006 166.182 276.926 167.01 275.738 167.01C274.712 167.01 273.992 166.398 273.992 165.534ZM282.031 168H283.597V155.4H282.031V168ZM287.834 155.4H286.268V157.344H287.834V155.4ZM287.834 159.558H286.268V168H287.834V159.558ZM293.33 168.27C295.22 168.27 296.534 167.226 296.534 165.57C296.534 162.186 291.782 163.806 291.782 161.682C291.782 161.052 292.268 160.494 293.276 160.494C294.158 160.494 294.896 161.016 294.986 161.754L296.444 161.466C296.21 160.188 294.896 159.288 293.24 159.288C291.44 159.288 290.216 160.278 290.216 161.79C290.216 165.138 294.968 163.572 294.968 165.66C294.968 166.47 294.428 167.082 293.366 167.082C292.358 167.082 291.584 166.56 291.368 165.714L289.91 166.002C290.27 167.388 291.584 168.27 293.33 168.27ZM301.867 168.18C302.461 168.18 303.019 168.054 303.307 167.91L303.109 166.65C302.875 166.776 302.551 166.848 302.155 166.848C301.129 166.848 300.661 166.344 300.661 164.958V160.908H303.235V159.558H300.661V156.84L299.095 157.146V159.558H297.457V160.908H299.095V165.228C299.095 167.37 300.193 168.18 301.867 168.18ZM307.674 168.27C309.564 168.27 310.878 167.226 310.878 165.57C310.878 162.186 306.126 163.806 306.126 161.682C306.126 161.052 306.612 160.494 307.62 160.494C308.502 160.494 309.24 161.016 309.33 161.754L310.788 161.466C310.554 160.188 309.24 159.288 307.584 159.288C305.784 159.288 304.56 160.278 304.56 161.79C304.56 165.138 309.312 163.572 309.312 165.66C309.312 166.47 308.772 167.082 307.71 167.082C306.702 167.082 305.928 166.56 305.712 165.714L304.254 166.002C304.614 167.388 305.928 168.27 307.674 168.27Z" fill="#25464F"/>
<rect x="134" y="136" width="206" height="52" rx="26" stroke="#25464F" stroke-width="2"/>
</g>
<g filter="url(#filter6_b)">
<rect x="1" y="200" width="254" height="52" rx="26" fill="url(#paint0_linear)"/>
<path d="M35.6059 227.122C38.0539 227.122 39.6919 225.412 39.6919 223.27C39.6919 220.948 37.8739 219.4 35.4799 219.4H31.0699V232H32.7079V227.122H35.6059ZM37.9999 223.27C37.9999 224.44 37.1539 225.61 35.3539 225.61H32.7079V220.93H35.1919C37.1539 220.93 37.9999 222.1 37.9999 223.27ZM41.2568 232H42.8228V227.842C42.8228 225.898 43.7948 224.89 45.1448 224.89C45.4148 224.89 45.6488 224.926 45.8288 224.998V223.486C45.6668 223.414 45.4328 223.36 45.1448 223.36C44.1188 223.36 43.2188 223.954 42.7868 224.944H42.7148V223.558H41.2568V232ZM48.9048 219.4H47.3388V221.344H48.9048V219.4ZM48.9048 223.558H47.3388V232H48.9048V223.558ZM58.8832 223.558H57.3172L54.8332 230.11H54.7792L52.2952 223.558H50.5852L54.0232 232.108H55.4452L58.8832 223.558ZM66.7288 226.474C66.7288 224.458 65.5228 223.288 63.4528 223.288C61.6528 223.288 60.3568 224.134 59.9248 225.628L61.4908 225.772C61.7608 224.998 62.4088 224.548 63.3448 224.548C64.4788 224.548 65.1628 225.232 65.1628 226.438V227.32C64.7848 227.086 63.9748 226.906 63.1288 226.906C60.9688 226.906 59.6008 227.95 59.6008 229.66C59.6008 231.19 60.8248 232.252 62.5708 232.252C63.7048 232.252 64.7488 231.748 65.1988 231.01H65.2348V232H66.7288V226.474ZM61.1848 229.534C61.1848 228.616 61.9768 228.04 63.2908 228.04C64.0648 228.04 64.7848 228.238 65.1988 228.508V229.3C65.1988 230.182 64.1188 231.01 62.9308 231.01C61.9048 231.01 61.1848 230.398 61.1848 229.534ZM72.5356 232.18C73.1296 232.18 73.6876 232.054 73.9756 231.91L73.7776 230.65C73.5436 230.776 73.2196 230.848 72.8236 230.848C71.7976 230.848 71.3296 230.344 71.3296 228.958V224.908H73.9036V223.558H71.3296V220.84L69.7636 221.146V223.558H68.1256V224.908H69.7636V229.228C69.7636 231.37 70.8616 232.18 72.5356 232.18ZM81.3858 229.606C80.9358 230.506 80.1978 230.956 79.1538 230.956C77.5878 230.956 76.5618 229.804 76.4178 228.166H83.0418V227.698C82.9698 224.818 81.1158 223.288 78.9378 223.288C76.4898 223.288 74.8338 225.286 74.8338 227.788C74.8338 230.344 76.5618 232.27 79.1538 232.27C80.8278 232.27 82.0158 231.514 82.7178 230.002L81.3858 229.606ZM78.9738 224.512C79.5678 224.512 80.1078 224.71 80.5938 225.124C81.0798 225.52 81.3498 226.168 81.4038 227.068H76.4358C76.6338 225.484 77.5338 224.512 78.9738 224.512ZM89.3063 219.4V232H97.5323V230.488H90.9443V226.384H95.9303V224.872H90.9443V220.912H97.5323V219.4H89.3063ZM99.3905 227.77C99.3905 230.434 101.1 232.27 103.404 232.27C104.754 232.27 105.744 231.658 106.23 230.74V235.6H107.814V223.558H106.356V224.854H106.302C105.78 223.792 104.592 223.288 103.368 223.288C101.064 223.288 99.3905 225.106 99.3905 227.77ZM100.974 227.77C100.974 226.06 102 224.692 103.656 224.692C105.294 224.692 106.284 225.952 106.284 227.77C106.284 229.588 105.294 230.884 103.656 230.884C102 230.884 100.974 229.498 100.974 227.77ZM117.553 223.558H115.987V228.418C115.987 229.138 115.771 229.732 115.321 230.2C114.889 230.65 114.349 230.884 113.719 230.884C112.567 230.884 111.901 230.074 111.901 228.616V223.558H110.335V228.958C110.335 230.992 111.487 232.27 113.305 232.27C114.547 232.27 115.537 231.676 116.023 230.758H116.095V232H117.553V223.558ZM121.784 219.4H120.218V221.344H121.784V219.4ZM121.784 223.558H120.218V232H121.784V223.558ZM127.766 232.18C128.36 232.18 128.918 232.054 129.206 231.91L129.008 230.65C128.774 230.776 128.45 230.848 128.054 230.848C127.028 230.848 126.56 230.344 126.56 228.958V224.908H129.134V223.558H126.56V220.84L124.994 221.146V223.558H123.356V224.908H124.994V229.228C124.994 231.37 126.092 232.18 127.766 232.18ZM138.073 223.558H136.507L134.077 229.876L131.431 223.558H129.721L133.231 231.73L131.683 235.51H133.249L138.073 223.558ZM147.753 232.27C150.309 232.27 152.109 230.776 152.109 228.454C152.109 223.63 145.431 225.916 145.431 222.55C145.431 221.272 146.439 220.588 147.753 220.588C149.319 220.588 150.237 221.506 150.453 222.784L152.055 222.496C151.767 220.57 150.183 219.13 147.807 219.13C145.503 219.13 143.757 220.534 143.757 222.694C143.757 227.536 150.435 225.232 150.435 228.634C150.435 229.93 149.373 230.83 147.807 230.83C146.475 230.83 145.107 230.146 144.891 228.634L143.289 228.976C143.613 231.154 145.629 232.27 147.753 232.27ZM162.761 227.77C162.761 225.106 161.105 223.288 158.765 223.288C157.523 223.288 156.407 223.828 155.831 224.962H155.795V223.558H154.337V235.6H155.921V230.83C156.425 231.694 157.469 232.27 158.747 232.27C161.051 232.27 162.761 230.434 162.761 227.77ZM161.177 227.77C161.177 229.498 160.151 230.884 158.495 230.884C156.893 230.884 155.867 229.588 155.867 227.77C155.867 225.952 156.893 224.692 158.495 224.692C160.079 224.692 161.177 225.97 161.177 227.77ZM170.718 229.606C170.268 230.506 169.53 230.956 168.486 230.956C166.92 230.956 165.894 229.804 165.75 228.166H172.374V227.698C172.302 224.818 170.448 223.288 168.27 223.288C165.822 223.288 164.166 225.286 164.166 227.788C164.166 230.344 165.894 232.27 168.486 232.27C170.16 232.27 171.348 231.514 172.05 230.002L170.718 229.606ZM168.306 224.512C168.9 224.512 169.44 224.71 169.926 225.124C170.412 225.52 170.682 226.168 170.736 227.068H165.768C165.966 225.484 166.866 224.512 168.306 224.512ZM177.832 223.288C175.474 223.288 173.746 225.106 173.746 227.77C173.746 230.344 175.366 232.27 177.922 232.27C179.776 232.27 181.072 231.316 181.63 229.606L180.154 229.228C179.794 230.236 179.074 230.884 177.868 230.884C176.212 230.884 175.33 229.534 175.33 227.788C175.33 226.006 176.212 224.674 177.868 224.674C179.074 224.674 179.812 225.304 180.154 226.33L181.684 226.096C181.162 224.224 179.866 223.288 177.832 223.288ZM185.118 219.4H183.552V221.344H185.118V219.4ZM185.118 223.558H183.552V232H185.118V223.558ZM194.592 226.474C194.592 224.458 193.386 223.288 191.316 223.288C189.516 223.288 188.22 224.134 187.788 225.628L189.354 225.772C189.624 224.998 190.272 224.548 191.208 224.548C192.342 224.548 193.026 225.232 193.026 226.438V227.32C192.648 227.086 191.838 226.906 190.992 226.906C188.832 226.906 187.464 227.95 187.464 229.66C187.464 231.19 188.688 232.252 190.434 232.252C191.568 232.252 192.612 231.748 193.062 231.01H193.098V232H194.592V226.474ZM189.048 229.534C189.048 228.616 189.84 228.04 191.154 228.04C191.928 228.04 192.648 228.238 193.062 228.508V229.3C193.062 230.182 191.982 231.01 190.794 231.01C189.768 231.01 189.048 230.398 189.048 229.534ZM197.087 232H198.653V219.4H197.087V232ZM202.889 219.4H201.323V221.344H202.889V219.4ZM202.889 223.558H201.323V232H202.889V223.558ZM208.386 232.27C210.276 232.27 211.59 231.226 211.59 229.57C211.59 226.186 206.838 227.806 206.838 225.682C206.838 225.052 207.324 224.494 208.332 224.494C209.214 224.494 209.952 225.016 210.042 225.754L211.5 225.466C211.266 224.188 209.952 223.288 208.296 223.288C206.496 223.288 205.272 224.278 205.272 225.79C205.272 229.138 210.024 227.572 210.024 229.66C210.024 230.47 209.484 231.082 208.422 231.082C207.414 231.082 206.64 230.56 206.424 229.714L204.966 230.002C205.326 231.388 206.64 232.27 208.386 232.27ZM216.922 232.18C217.516 232.18 218.074 232.054 218.362 231.91L218.164 230.65C217.93 230.776 217.606 230.848 217.21 230.848C216.184 230.848 215.716 230.344 215.716 228.958V224.908H218.29V223.558H215.716V220.84L214.15 221.146V223.558H212.512V224.908H214.15V229.228C214.15 231.37 215.248 232.18 216.922 232.18ZM222.729 232.27C224.619 232.27 225.933 231.226 225.933 229.57C225.933 226.186 221.181 227.806 221.181 225.682C221.181 225.052 221.667 224.494 222.675 224.494C223.557 224.494 224.295 225.016 224.385 225.754L225.843 225.466C225.609 224.188 224.295 223.288 222.639 223.288C220.839 223.288 219.615 224.278 219.615 225.79C219.615 229.138 224.367 227.572 224.367 229.66C224.367 230.47 223.827 231.082 222.765 231.082C221.757 231.082 220.983 230.56 220.767 229.714L219.309 230.002C219.669 231.388 220.983 232.27 222.729 232.27Z" fill="#25464F"/>
<rect x="1" y="200" width="254" height="52" rx="26" stroke="#25464F" stroke-width="2"/>
</g>
<g filter="url(#filter7_b)">
<rect x="271" y="200" width="179" height="52" rx="26" fill="url(#paint1_linear)"/>
<path d="M305.635 227.122C308.083 227.122 309.721 225.412 309.721 223.27C309.721 220.948 307.903 219.4 305.509 219.4H301.099V232H302.737V227.122H305.635ZM308.029 223.27C308.029 224.44 307.183 225.61 305.383 225.61H302.737V220.93H305.221C307.183 220.93 308.029 222.1 308.029 223.27ZM311.286 232H312.852V227.842C312.852 225.898 313.824 224.89 315.174 224.89C315.444 224.89 315.678 224.926 315.858 224.998V223.486C315.696 223.414 315.462 223.36 315.174 223.36C314.148 223.36 313.248 223.954 312.816 224.944H312.744V223.558H311.286V232ZM316.738 227.77C316.738 230.488 318.61 232.27 321.04 232.27C323.47 232.27 325.342 230.47 325.342 227.77C325.342 225.052 323.47 223.288 321.04 223.288C318.61 223.288 316.738 225.034 316.738 227.77ZM318.322 227.77C318.322 226.888 318.574 226.15 319.06 225.556C319.546 224.962 320.212 224.674 321.04 224.674C321.868 224.674 322.534 224.962 323.02 225.556C323.506 226.15 323.758 226.888 323.758 227.77C323.758 229.57 322.696 230.884 321.04 230.884C319.384 230.884 318.322 229.57 318.322 227.77ZM328.936 219.4H327.37V221.344H328.936V219.4ZM326.074 235.51C327.928 235.51 328.936 234.412 328.936 232.342V223.558H327.37V232.198C327.37 233.296 326.992 234.106 325.768 234.106C325.624 234.106 325.408 234.07 325.282 234.052V235.438C325.552 235.456 325.84 235.51 326.074 235.51ZM337.528 229.606C337.078 230.506 336.34 230.956 335.296 230.956C333.73 230.956 332.704 229.804 332.56 228.166H339.184V227.698C339.112 224.818 337.258 223.288 335.08 223.288C332.632 223.288 330.976 225.286 330.976 227.788C330.976 230.344 332.704 232.27 335.296 232.27C336.97 232.27 338.158 231.514 338.86 230.002L337.528 229.606ZM335.116 224.512C335.71 224.512 336.25 224.71 336.736 225.124C337.222 225.52 337.492 226.168 337.546 227.068H332.578C332.776 225.484 333.676 224.512 335.116 224.512ZM344.642 223.288C342.284 223.288 340.556 225.106 340.556 227.77C340.556 230.344 342.176 232.27 344.732 232.27C346.586 232.27 347.882 231.316 348.44 229.606L346.964 229.228C346.604 230.236 345.884 230.884 344.678 230.884C343.022 230.884 342.14 229.534 342.14 227.788C342.14 226.006 343.022 224.674 344.678 224.674C345.884 224.674 346.622 225.304 346.964 226.33L348.494 226.096C347.972 224.224 346.676 223.288 344.642 223.288ZM353.674 232.18C354.268 232.18 354.826 232.054 355.114 231.91L354.916 230.65C354.682 230.776 354.358 230.848 353.962 230.848C352.936 230.848 352.468 230.344 352.468 228.958V224.908H355.042V223.558H352.468V220.84L350.902 221.146V223.558H349.264V224.908H350.902V229.228C350.902 231.37 352 232.18 353.674 232.18ZM360.918 219.4V232H362.556V226.474H367.434V224.944H362.556V220.912H369.036V219.4H360.918ZM372.723 219.4H371.157V221.344H372.723V219.4ZM372.723 223.558H371.157V232H372.723V223.558ZM382.612 226.6C382.612 224.53 381.478 223.288 379.624 223.288C378.4 223.288 377.41 223.882 376.924 224.8H376.852V223.558H375.394V232H376.96V227.14C376.96 225.7 377.932 224.674 379.228 224.674C380.38 224.674 381.046 225.484 381.046 226.942V232H382.612V226.6ZM391.936 226.474C391.936 224.458 390.73 223.288 388.66 223.288C386.86 223.288 385.564 224.134 385.132 225.628L386.698 225.772C386.968 224.998 387.616 224.548 388.552 224.548C389.686 224.548 390.37 225.232 390.37 226.438V227.32C389.992 227.086 389.182 226.906 388.336 226.906C386.176 226.906 384.808 227.95 384.808 229.66C384.808 231.19 386.032 232.252 387.778 232.252C388.912 232.252 389.956 231.748 390.406 231.01H390.442V232H391.936V226.474ZM386.392 229.534C386.392 228.616 387.184 228.04 388.498 228.04C389.272 228.04 389.992 228.238 390.406 228.508V229.3C390.406 230.182 389.326 231.01 388.138 231.01C387.112 231.01 386.392 230.398 386.392 229.534ZM401.649 226.6C401.649 224.53 400.515 223.288 398.661 223.288C397.437 223.288 396.447 223.882 395.961 224.8H395.889V223.558H394.431V232H395.997V227.14C395.997 225.7 396.969 224.674 398.265 224.674C399.417 224.674 400.083 225.484 400.083 226.942V232H401.649V226.6ZM407.625 223.288C405.267 223.288 403.539 225.106 403.539 227.77C403.539 230.344 405.159 232.27 407.715 232.27C409.569 232.27 410.865 231.316 411.423 229.606L409.947 229.228C409.587 230.236 408.867 230.884 407.661 230.884C406.005 230.884 405.123 229.534 405.123 227.788C405.123 226.006 406.005 224.674 407.661 224.674C408.867 224.674 409.605 225.304 409.947 226.33L411.477 226.096C410.955 224.224 409.659 223.288 407.625 223.288ZM419.267 229.606C418.817 230.506 418.079 230.956 417.035 230.956C415.469 230.956 414.443 229.804 414.299 228.166H420.923V227.698C420.851 224.818 418.997 223.288 416.819 223.288C414.371 223.288 412.715 225.286 412.715 227.788C412.715 230.344 414.443 232.27 417.035 232.27C418.709 232.27 419.897 231.514 420.599 230.002L419.267 229.606ZM416.855 224.512C417.449 224.512 417.989 224.71 418.475 225.124C418.961 225.52 419.231 226.168 419.285 227.068H414.317C414.515 225.484 415.415 224.512 416.855 224.512Z" fill="#25464F"/>
<rect x="271" y="200" width="179" height="52" rx="26" stroke="#25464F" stroke-width="2"/>
</g>
<defs>
<filter id="filter0_b" x="33" y="24" width="130" height="78" filterUnits="userSpaceOnUse" color-interpolation-filters="sRGB">
<feFlood flood-opacity="0" result="BackgroundImageFix"/>
<feGaussianBlur in="BackgroundImage" stdDeviation="6"/>
<feComposite in2="SourceAlpha" operator="in" result="effect1_backgroundBlur"/>
<feBlend mode="normal" in="SourceGraphic" in2="effect1_backgroundBlur" result="shape"/>
</filter>
<filter id="filter1_b" x="-12" y="88" width="142" height="78" filterUnits="userSpaceOnUse" color-interpolation-filters="sRGB">
<feFlood flood-opacity="0" result="BackgroundImageFix"/>
<feGaussianBlur in="BackgroundImage" stdDeviation="6"/>
<feComposite in2="SourceAlpha" operator="in" result="effect1_backgroundBlur"/>
<feBlend mode="normal" in="SourceGraphic" in2="effect1_backgroundBlur" result="shape"/>
</filter>
<filter id="filter2_b" x="166" y="-12" width="209" height="78" filterUnits="userSpaceOnUse" color-interpolation-filters="sRGB">
<feFlood flood-opacity="0" result="BackgroundImageFix"/>
<feGaussianBlur in="BackgroundImage" stdDeviation="6"/>
<feComposite in2="SourceAlpha" operator="in" result="effect1_backgroundBlur"/>
<feBlend mode="normal" in="SourceGraphic" in2="effect1_backgroundBlur" result="shape"/>
</filter>
<filter id="filter3_b" x="159" y="56" width="194" height="78" filterUnits="userSpaceOnUse" color-interpolation-filters="sRGB">
<feFlood flood-opacity="0" result="BackgroundImageFix"/>
<feGaussianBlur in="BackgroundImage" stdDeviation="6"/>
<feComposite in2="SourceAlpha" operator="in" result="effect1_backgroundBlur"/>
<feBlend mode="normal" in="SourceGraphic" in2="effect1_backgroundBlur" result="shape"/>
</filter>
<filter id="filter4_b" x="338" y="90" width="225" height="78" filterUnits="userSpaceOnUse" color-interpolation-filters="sRGB">
<feFlood flood-opacity="0" result="BackgroundImageFix"/>
<feGaussianBlur in="BackgroundImage" stdDeviation="6"/>
<feComposite in2="SourceAlpha" operator="in" result="effect1_backgroundBlur"/>
<feBlend mode="normal" in="SourceGraphic" in2="effect1_backgroundBlur" result="shape"/>
</filter>
<filter id="filter5_b" x="121" y="123" width="232" height="78" filterUnits="userSpaceOnUse" color-interpolation-filters="sRGB">
<feFlood flood-opacity="0" result="BackgroundImageFix"/>
<feGaussianBlur in="BackgroundImage" stdDeviation="6"/>
<feComposite in2="SourceAlpha" operator="in" result="effect1_backgroundBlur"/>
<feBlend mode="normal" in="SourceGraphic" in2="effect1_backgroundBlur" result="shape"/>
</filter>
<filter id="filter6_b" x="-12" y="187" width="280" height="78" filterUnits="userSpaceOnUse" color-interpolation-filters="sRGB">
<feFlood flood-opacity="0" result="BackgroundImageFix"/>
<feGaussianBlur in="BackgroundImage" stdDeviation="6"/>
<feComposite in2="SourceAlpha" operator="in" result="effect1_backgroundBlur"/>
<feBlend mode="normal" in="SourceGraphic" in2="effect1_backgroundBlur" result="shape"/>
</filter>
<filter id="filter7_b" x="258" y="187" width="205" height="78" filterUnits="userSpaceOnUse" color-interpolation-filters="sRGB">
<feFlood flood-opacity="0" result="BackgroundImageFix"/>
<feGaussianBlur in="BackgroundImage" stdDeviation="6"/>
<feComposite in2="SourceAlpha" operator="in" result="effect1_backgroundBlur"/>
<feBlend mode="normal" in="SourceGraphic" in2="effect1_backgroundBlur" result="shape"/>
</filter>
<linearGradient id="paint0_linear" x1="231.728" y1="252" x2="23.0149" y2="153.4" gradientUnits="userSpaceOnUse">
<stop stop-color="white" stop-opacity="0.15"/>
<stop offset="1" stop-color="white" stop-opacity="0"/>
</linearGradient>
<linearGradient id="paint1_linear" x1="433.599" y1="252" x2="271.639" y2="198.079" gradientUnits="userSpaceOnUse">
<stop stop-color="white" stop-opacity="0.15"/>
<stop offset="1" stop-color="white" stop-opacity="0"/>
</linearGradient>
</defs>
</svg>
