<svg width="359" height="239" viewBox="0 0 359 239" fill="none" xmlns="http://www.w3.org/2000/svg">
<g filter="url(#filter0_b)">
<rect x="83.8213" y="46" width="70.0192" height="37.9271" rx="18.9635" fill="#6B7376" fill-opacity="0.7"/>
<rect x="83.8213" y="46" width="70.0192" height="37.9271" rx="18.9635" fill="url(#paint0_linear)"/>
<path d="M111.638 61.8693C111.638 60.4645 110.654 59.4799 108.816 59.4799H105.744V68.6699H109.013C110.024 68.6699 110.785 68.4336 111.284 67.9478C111.783 67.4621 112.032 66.8319 112.032 66.0836C112.032 65.0333 111.428 64.0749 110.063 63.9174C111.126 63.7073 111.638 62.8146 111.638 61.8693ZM108.711 60.5958C109.919 60.5958 110.391 61.2785 110.391 62.0137C110.391 62.7883 109.932 63.4316 108.895 63.4316H106.938V60.5958H108.711ZM110.798 66.0048C110.798 66.4118 110.654 66.7794 110.365 67.0945C110.076 67.4096 109.617 67.5671 108.986 67.5671H106.938V64.4688H108.934C109.603 64.4688 110.089 64.6263 110.365 64.9283C110.654 65.2302 110.798 65.5978 110.798 66.0048ZM118.726 64.6394C118.726 63.169 117.846 62.3157 116.337 62.3157C115.024 62.3157 114.078 62.9327 113.763 64.0224L114.906 64.1274C115.102 63.5629 115.575 63.2347 116.258 63.2347C117.085 63.2347 117.584 63.7336 117.584 64.6132V65.2565C117.308 65.0858 116.717 64.9545 116.1 64.9545C114.525 64.9545 113.527 65.716 113.527 66.9632C113.527 68.0791 114.42 68.8537 115.693 68.8537C116.52 68.8537 117.282 68.4861 117.61 67.9478H117.636V68.6699H118.726V64.6394ZM114.682 66.8713C114.682 66.2017 115.26 65.7816 116.218 65.7816C116.783 65.7816 117.308 65.926 117.61 66.123V66.7006C117.61 67.3439 116.822 67.9478 115.956 67.9478C115.208 67.9478 114.682 67.5015 114.682 66.8713ZM125.81 64.7313C125.81 63.2216 124.983 62.3157 123.631 62.3157C122.738 62.3157 122.016 62.7489 121.662 63.4185H121.609V62.5126H120.546V68.6699H121.688V65.1252C121.688 64.0749 122.397 63.3266 123.342 63.3266C124.182 63.3266 124.668 63.9174 124.668 64.9808V68.6699H125.81V64.7313ZM128.791 65.6766L131.613 68.6699H133.11L129.933 65.309L132.795 62.5126H131.416L128.791 65.1383V59.4799H127.648V68.6699H128.791V65.6766Z" fill="white"/>
</g>
<g filter="url(#filter1_b)">
<rect x="51" y="92.6797" width="78.7716" height="37.9271" rx="18.9635" fill="#6B7376" fill-opacity="0.7"/>
<rect x="51" y="92.6797" width="78.7716" height="37.9271" rx="18.9635" fill="url(#paint1_linear)"/>
<path d="M78.6675 108.549C78.6675 107.144 77.6829 106.16 75.8449 106.16H72.7728V115.35H76.0418C77.0527 115.35 77.8142 115.113 78.313 114.628C78.8119 114.142 79.0614 113.512 79.0614 112.763C79.0614 111.713 78.4575 110.755 77.0921 110.597C78.1555 110.387 78.6675 109.494 78.6675 108.549ZM75.7398 107.276C76.9477 107.276 77.4203 107.958 77.4203 108.693C77.4203 109.468 76.9608 110.111 75.9236 110.111H73.9675V107.276H75.7398ZM77.8273 112.685C77.8273 113.091 77.6829 113.459 77.394 113.774C77.1052 114.089 76.6457 114.247 76.0155 114.247H73.9675V111.148H75.963C76.6326 111.148 77.1183 111.306 77.394 111.608C77.6829 111.91 77.8273 112.278 77.8273 112.685ZM80.7925 115.35H81.9347V112.317C81.9347 110.899 82.6436 110.164 83.6283 110.164C83.8252 110.164 83.9959 110.19 84.1272 110.243V109.14C84.009 109.087 83.8383 109.048 83.6283 109.048C82.88 109.048 82.2235 109.481 81.9084 110.203H81.8559V109.192H80.7925V115.35ZM84.769 112.264C84.769 114.247 86.1344 115.547 87.9068 115.547C89.6791 115.547 91.0445 114.234 91.0445 112.264C91.0445 110.282 89.6791 108.995 87.9068 108.995C86.1344 108.995 84.769 110.269 84.769 112.264ZM85.9243 112.264C85.9243 111.621 86.1081 111.083 86.4626 110.65C86.8171 110.216 87.3029 110.006 87.9068 110.006C88.5107 110.006 88.9964 110.216 89.3509 110.65C89.7054 111.083 89.8892 111.621 89.8892 112.264C89.8892 113.577 89.1146 114.536 87.9068 114.536C86.6989 114.536 85.9243 113.577 85.9243 112.264ZM93.6658 112.356L96.4885 115.35H97.9851L94.808 111.989L97.67 109.192H96.2915L93.6658 111.818V106.16H92.5236V115.35H93.6658V112.356ZM103.1 113.604C102.771 114.26 102.233 114.588 101.472 114.588C100.329 114.588 99.5811 113.748 99.476 112.553H104.307V112.212C104.255 110.111 102.903 108.995 101.314 108.995C99.5286 108.995 98.3207 110.453 98.3207 112.278C98.3207 114.142 99.5811 115.547 101.472 115.547C102.693 115.547 103.559 114.995 104.071 113.892L103.1 113.604ZM101.34 109.888C101.774 109.888 102.167 110.033 102.522 110.334C102.876 110.623 103.073 111.096 103.113 111.752H99.4892C99.6336 110.597 100.29 109.888 101.34 109.888ZM105.768 115.35H106.91V112.317C106.91 110.899 107.619 110.164 108.603 110.164C108.8 110.164 108.971 110.19 109.102 110.243V109.14C108.984 109.087 108.813 109.048 108.603 109.048C107.855 109.048 107.199 109.481 106.884 110.203H106.831V109.192H105.768V115.35Z" fill="white"/>
</g>
<g filter="url(#filter2_b)">
<rect x="166" y="42.729" width="127.639" height="37.9271" rx="18.9635" fill="#847658" fill-opacity="0.92"/>
<rect x="166" y="42.729" width="127.639" height="37.9271" rx="18.9635" fill="url(#paint2_linear)"/>
<path d="M191.739 56.117H190.4L186.908 65.3989H188.181L189.14 62.7601H192.973L193.932 65.3989H195.232L191.739 56.117ZM191.096 57.4955L192.619 61.6704H189.534L191.044 57.4955H191.096ZM198.421 65.5959C199.8 65.5959 200.758 64.8344 200.758 63.6266C200.758 61.1584 197.292 62.34 197.292 60.7908C197.292 60.3313 197.647 59.9243 198.382 59.9243C199.025 59.9243 199.564 60.305 199.629 60.8433L200.693 60.6332C200.522 59.7011 199.564 59.0447 198.356 59.0447C197.043 59.0447 196.15 59.7668 196.15 60.8696C196.15 63.3115 199.616 62.1693 199.616 63.6922C199.616 64.283 199.222 64.7294 198.448 64.7294C197.712 64.7294 197.148 64.3486 196.99 63.7316L195.927 63.9417C196.19 64.9526 197.148 65.5959 198.421 65.5959ZM204.293 65.5959C205.672 65.5959 206.63 64.8344 206.63 63.6266C206.63 61.1584 203.164 62.34 203.164 60.7908C203.164 60.3313 203.519 59.9243 204.254 59.9243C204.897 59.9243 205.436 60.305 205.501 60.8433L206.565 60.6332C206.394 59.7011 205.436 59.0447 204.228 59.0447C202.915 59.0447 202.022 59.7668 202.022 60.8696C202.022 63.3115 205.488 62.1693 205.488 63.6922C205.488 64.283 205.094 64.7294 204.32 64.7294C203.584 64.7294 203.02 64.3486 202.862 63.7316L201.799 63.9417C202.061 64.9526 203.02 65.5959 204.293 65.5959ZM212.423 63.6528C212.095 64.3093 211.557 64.6375 210.795 64.6375C209.653 64.6375 208.905 63.7972 208.8 62.6025H213.631V62.2612C213.579 60.1606 212.227 59.0447 210.638 59.0447C208.852 59.0447 207.645 60.502 207.645 62.3268C207.645 64.1911 208.905 65.5959 210.795 65.5959C212.016 65.5959 212.883 65.0445 213.395 63.9417L212.423 63.6528ZM210.664 59.9374C211.097 59.9374 211.491 60.0818 211.846 60.3838C212.2 60.6726 212.397 61.1453 212.437 61.8017H208.813C208.957 60.6464 209.614 59.9374 210.664 59.9374ZM217.469 65.5302C217.902 65.5302 218.309 65.4383 218.519 65.3333L218.375 64.4143C218.204 64.5062 217.968 64.5587 217.679 64.5587C216.93 64.5587 216.589 64.1911 216.589 63.1802V60.2263H218.466V59.2416H216.589V57.2592L215.447 57.4824V59.2416H214.252V60.2263H215.447V63.3771C215.447 64.9394 216.248 65.5302 217.469 65.5302ZM232.257 56.2089H230.458L227.557 63.5609H227.504L224.603 56.2089H222.752V65.3989H223.946V57.8106H223.999L226.979 65.3989H228.016L230.997 57.8106H231.049V65.3989H232.257V56.2089ZM239.427 61.3684C239.427 59.898 238.547 59.0447 237.037 59.0447C235.724 59.0447 234.779 59.6617 234.464 60.7514L235.606 60.8564C235.803 60.2919 236.276 59.9637 236.958 59.9637C237.785 59.9637 238.284 60.4626 238.284 61.3422V61.9855C238.009 61.8148 237.418 61.6835 236.801 61.6835C235.225 61.6835 234.228 62.445 234.228 63.6922C234.228 64.8081 235.12 65.5827 236.394 65.5827C237.221 65.5827 237.982 65.2151 238.311 64.6769H238.337V65.3989H239.427V61.3684ZM235.383 63.6003C235.383 62.9307 235.961 62.5106 236.919 62.5106C237.483 62.5106 238.009 62.655 238.311 62.852V63.4296C238.311 64.0729 237.523 64.6769 236.656 64.6769C235.908 64.6769 235.383 64.2305 235.383 63.6003ZM246.511 61.4603C246.511 59.9506 245.684 59.0447 244.331 59.0447C243.439 59.0447 242.717 59.4779 242.362 60.1475H242.31V59.2416H241.246V65.3989H242.388V61.8542C242.388 60.8039 243.097 60.0556 244.043 60.0556C244.883 60.0556 245.369 60.6464 245.369 61.7098V65.3989H246.511V61.4603ZM253.312 61.3684C253.312 59.898 252.432 59.0447 250.922 59.0447C249.609 59.0447 248.664 59.6617 248.349 60.7514L249.491 60.8564C249.688 60.2919 250.161 59.9637 250.843 59.9637C251.67 59.9637 252.169 60.4626 252.169 61.3422V61.9855C251.894 61.8148 251.303 61.6835 250.686 61.6835C249.11 61.6835 248.113 62.445 248.113 63.6922C248.113 64.8081 249.005 65.5827 250.279 65.5827C251.106 65.5827 251.867 65.2151 252.196 64.6769H252.222V65.3989H253.312V61.3684ZM249.268 63.6003C249.268 62.9307 249.846 62.5106 250.804 62.5106C251.368 62.5106 251.894 62.655 252.196 62.852V63.4296C252.196 64.0729 251.408 64.6769 250.541 64.6769C249.793 64.6769 249.268 64.2305 249.268 63.6003ZM254.724 62.1168C254.724 63.9548 255.971 65.1757 257.507 65.1757C258.44 65.1757 259.175 64.7819 259.49 64.1517V65.2151C259.49 66.4098 258.847 67.0925 257.783 67.0925C256.956 67.0925 256.286 66.6724 256.142 66.0816L254.987 66.3311C255.249 67.3288 256.339 68.0246 257.77 68.0246C259.595 68.0246 260.619 66.9218 260.619 64.9657V59.2416H259.516V59.9768H259.477C259.096 59.4123 258.479 59.0447 257.547 59.0447C255.985 59.0447 254.724 60.2263 254.724 62.1168ZM255.88 62.1168C255.88 60.8564 256.667 60.0425 257.704 60.0425C258.794 60.0425 259.542 60.8696 259.542 62.1168C259.542 63.3377 258.794 64.178 257.704 64.178C256.667 64.178 255.88 63.3771 255.88 62.1168ZM266.887 63.6528C266.558 64.3093 266.02 64.6375 265.259 64.6375C264.116 64.6375 263.368 63.7972 263.263 62.6025H268.094V62.2612C268.042 60.1606 266.69 59.0447 265.101 59.0447C263.316 59.0447 262.108 60.502 262.108 62.3268C262.108 64.1911 263.368 65.5959 265.259 65.5959C266.48 65.5959 267.346 65.0445 267.858 63.9417L266.887 63.6528ZM265.127 59.9374C265.561 59.9374 265.954 60.0818 266.309 60.3838C266.663 60.6726 266.86 61.1453 266.9 61.8017H263.276C263.421 60.6464 264.077 59.9374 265.127 59.9374ZM269.555 65.3989H270.697V62.3662C270.697 60.9483 271.406 60.2131 272.39 60.2131C272.587 60.2131 272.758 60.2394 272.889 60.2919V59.1891C272.771 59.1366 272.601 59.0972 272.39 59.0972C271.642 59.0972 270.986 59.5304 270.671 60.2525H270.618V59.2416H269.555V65.3989Z" fill="white"/>
<rect x="166" y="42.729" width="127.639" height="37.9271" rx="18.9635" stroke="#847658"/>
</g>
<g filter="url(#filter3_b)">
<rect x="139" y="93.4087" width="116.699" height="37.9271" rx="18.9635" fill="#847658" fill-opacity="0.92"/>
<rect x="139" y="93.4087" width="116.699" height="37.9271" rx="18.9635" fill="url(#paint3_linear)"/>
<path d="M160.947 106.889V116.079H162.142V112.048H165.7V110.932H162.142V107.991H166.868V106.889H160.947ZM172.327 112.048C172.327 110.578 171.447 109.724 169.938 109.724C168.625 109.724 167.679 110.341 167.364 111.431L168.507 111.536C168.704 110.972 169.176 110.643 169.859 110.643C170.686 110.643 171.185 111.142 171.185 112.022V112.665C170.909 112.495 170.318 112.363 169.701 112.363C168.126 112.363 167.128 113.125 167.128 114.372C167.128 115.488 168.021 116.262 169.294 116.262C170.121 116.262 170.883 115.895 171.211 115.357H171.237V116.079H172.327V112.048ZM168.283 114.28C168.283 113.61 168.861 113.19 169.819 113.19C170.384 113.19 170.909 113.335 171.211 113.532V114.109C171.211 114.753 170.423 115.357 169.557 115.357C168.809 115.357 168.283 114.91 168.283 114.28ZM183.192 112.088C183.192 110.63 182.378 109.724 181.065 109.724C180.173 109.724 179.437 110.184 179.03 110.958C178.807 110.223 178.085 109.724 177.153 109.724C176.3 109.724 175.578 110.184 175.263 110.762H175.21V109.921H174.147V116.079H175.289V112.455C175.289 111.497 175.972 110.735 176.812 110.735C177.639 110.735 178.098 111.352 178.098 112.363V116.079H179.241V112.455C179.241 111.969 179.385 111.562 179.687 111.234C179.989 110.906 180.343 110.735 180.777 110.735C181.577 110.735 182.05 111.352 182.05 112.363V116.079H183.192V112.088ZM186.174 106.889H185.032V108.306H186.174V106.889ZM186.174 109.921H185.032V116.079H186.174V109.921ZM188.121 116.079H189.264V106.889H188.121V116.079ZM196.555 109.921H195.412L193.64 114.529L191.71 109.921H190.463L193.023 115.882L191.894 118.639H193.036L196.555 109.921ZM209.484 111.484C209.484 108.648 207.475 106.692 204.928 106.692C202.368 106.692 200.359 108.648 200.359 111.484C200.359 114.319 202.368 116.276 204.928 116.276C207.475 116.276 209.484 114.319 209.484 111.484ZM208.25 111.484C208.25 113.663 206.766 115.146 204.928 115.146C203.103 115.146 201.593 113.663 201.593 111.484C201.593 109.291 203.103 107.821 204.928 107.821C206.766 107.821 208.25 109.291 208.25 111.484ZM211.607 110.906V116.079H212.762V110.906H215.322V116.079H216.477V110.906H218.237V109.921H216.477V108.976C216.477 108.201 216.806 107.689 217.633 107.689C217.856 107.689 218.066 107.729 218.237 107.768V106.797C218.079 106.744 217.764 106.692 217.409 106.692C216.031 106.692 215.322 107.545 215.322 108.871V109.921H212.762V108.976C212.762 108.201 213.09 107.689 213.917 107.689C214.14 107.689 214.351 107.729 214.521 107.768V106.797C214.364 106.744 214.049 106.692 213.694 106.692C212.316 106.692 211.607 107.545 211.607 108.871V109.921H210.425V110.906H211.607ZM220.329 106.889H219.186V108.306H220.329V106.889ZM220.329 109.921H219.186V116.079H220.329V109.921ZM224.797 109.724C223.077 109.724 221.817 111.05 221.817 112.993C221.817 114.871 222.998 116.276 224.863 116.276C226.215 116.276 227.16 115.58 227.567 114.333L226.491 114.057C226.228 114.792 225.703 115.265 224.823 115.265C223.615 115.265 222.972 114.28 222.972 113.007C222.972 111.707 223.615 110.735 224.823 110.735C225.703 110.735 226.241 111.195 226.491 111.943L227.607 111.772C227.226 110.407 226.281 109.724 224.797 109.724ZM233.288 114.333C232.96 114.989 232.422 115.317 231.66 115.317C230.518 115.317 229.77 114.477 229.665 113.282H234.496V112.941C234.443 110.84 233.091 109.724 231.503 109.724C229.717 109.724 228.509 111.182 228.509 113.007C228.509 114.871 229.77 116.276 231.66 116.276C232.881 116.276 233.748 115.724 234.26 114.621L233.288 114.333ZM231.529 110.617C231.962 110.617 232.356 110.762 232.71 111.063C233.065 111.352 233.262 111.825 233.301 112.481H229.678C229.822 111.326 230.479 110.617 231.529 110.617Z" fill="white"/>
<rect x="139" y="93.4087" width="116.699" height="37.9271" rx="18.9635" stroke="#847658"/>
</g>
<g filter="url(#filter4_b)">
<rect x="191" y="140" width="139.309" height="37.9271" rx="18.9635" fill="#847658" fill-opacity="0.92"/>
<rect x="191" y="140" width="139.309" height="37.9271" rx="18.9635" fill="url(#paint4_linear)"/>
<path d="M212.938 153.48V162.67H214.133V158.639H217.691V157.524H214.133V154.583H218.859V153.48H212.938ZM221.549 153.48H220.406V154.898H221.549V153.48ZM221.549 156.513H220.406V162.67H221.549V156.513ZM228.761 158.731C228.761 157.222 227.934 156.316 226.582 156.316C225.689 156.316 224.967 156.749 224.612 157.418H224.56V156.513H223.496V162.67H224.638V159.125C224.638 158.075 225.347 157.327 226.293 157.327C227.133 157.327 227.619 157.917 227.619 158.981V162.67H228.761V158.731ZM235.562 158.639C235.562 157.169 234.682 156.316 233.172 156.316C231.859 156.316 230.914 156.933 230.599 158.022L231.741 158.127C231.938 157.563 232.411 157.235 233.093 157.235C233.921 157.235 234.419 157.734 234.419 158.613V159.256C234.144 159.086 233.553 158.955 232.936 158.955C231.361 158.955 230.363 159.716 230.363 160.963C230.363 162.079 231.255 162.854 232.529 162.854C233.356 162.854 234.118 162.486 234.446 161.948H234.472V162.67H235.562V158.639ZM231.518 160.871C231.518 160.202 232.096 159.782 233.054 159.782C233.619 159.782 234.144 159.926 234.446 160.123V160.701C234.446 161.344 233.658 161.948 232.792 161.948C232.043 161.948 231.518 161.501 231.518 160.871ZM242.646 158.731C242.646 157.222 241.819 156.316 240.467 156.316C239.574 156.316 238.852 156.749 238.497 157.418H238.445V156.513H237.381V162.67H238.524V159.125C238.524 158.075 239.232 157.327 240.178 157.327C241.018 157.327 241.504 157.917 241.504 158.981V162.67H242.646V158.731ZM247.005 156.316C245.285 156.316 244.025 157.642 244.025 159.585C244.025 161.462 245.206 162.867 247.07 162.867C248.423 162.867 249.368 162.171 249.775 160.924L248.698 160.648C248.436 161.383 247.911 161.856 247.031 161.856C245.823 161.856 245.18 160.871 245.18 159.598C245.18 158.298 245.823 157.327 247.031 157.327C247.911 157.327 248.449 157.786 248.698 158.534L249.814 158.364C249.434 156.998 248.488 156.316 247.005 156.316ZM252.319 153.48H251.177V154.898H252.319V153.48ZM252.319 156.513H251.177V162.67H252.319V156.513ZM259.229 158.639C259.229 157.169 258.349 156.316 256.84 156.316C255.527 156.316 254.582 156.933 254.266 158.022L255.409 158.127C255.606 157.563 256.078 157.235 256.761 157.235C257.588 157.235 258.087 157.734 258.087 158.613V159.256C257.811 159.086 257.22 158.955 256.603 158.955C255.028 158.955 254.03 159.716 254.03 160.963C254.03 162.079 254.923 162.854 256.196 162.854C257.023 162.854 257.785 162.486 258.113 161.948H258.139V162.67H259.229V158.639ZM255.185 160.871C255.185 160.202 255.763 159.782 256.721 159.782C257.286 159.782 257.811 159.926 258.113 160.123V160.701C258.113 161.344 257.325 161.948 256.459 161.948C255.711 161.948 255.185 161.501 255.185 160.871ZM261.049 162.67H262.191V153.48H261.049V162.67ZM271.133 153.388H269.794L266.302 162.67H267.576L268.534 160.031H272.367L273.326 162.67H274.626L271.133 153.388ZM270.49 154.767L272.013 158.941H268.928L270.438 154.767H270.49ZM275.243 159.598C275.243 161.541 276.464 162.867 278.158 162.867C279.064 162.867 279.878 162.473 280.298 161.646H280.337V162.67H281.388V153.48H280.245V157.366C279.865 156.736 279.116 156.316 278.171 156.316C276.491 156.316 275.243 157.655 275.243 159.598ZM276.399 159.598C276.399 158.324 277.147 157.327 278.355 157.327C279.55 157.327 280.272 158.246 280.272 159.598C280.272 160.924 279.55 161.843 278.355 161.843C277.2 161.843 276.399 160.898 276.399 159.598ZM288.662 156.513H287.519L285.708 161.291H285.668L283.857 156.513H282.609L285.117 162.749H286.154L288.662 156.513ZM291.025 153.48H289.883V154.898H291.025V153.48ZM291.025 156.513H289.883V162.67H291.025V156.513ZM295.034 162.867C296.412 162.867 297.371 162.105 297.371 160.898C297.371 158.429 293.905 159.611 293.905 158.062C293.905 157.602 294.259 157.195 294.995 157.195C295.638 157.195 296.176 157.576 296.242 158.114L297.305 157.904C297.134 156.972 296.176 156.316 294.968 156.316C293.655 156.316 292.763 157.038 292.763 158.141C292.763 160.582 296.229 159.44 296.229 160.963C296.229 161.554 295.835 162 295.06 162C294.325 162 293.76 161.62 293.603 161.003L292.539 161.213C292.802 162.224 293.76 162.867 295.034 162.867ZM298.385 159.585C298.385 161.567 299.751 162.867 301.523 162.867C303.295 162.867 304.661 161.554 304.661 159.585C304.661 157.602 303.295 156.316 301.523 156.316C299.751 156.316 298.385 157.589 298.385 159.585ZM299.541 159.585C299.541 158.941 299.724 158.403 300.079 157.97C300.433 157.537 300.919 157.327 301.523 157.327C302.127 157.327 302.613 157.537 302.967 157.97C303.322 158.403 303.505 158.941 303.505 159.585C303.505 160.898 302.731 161.856 301.523 161.856C300.315 161.856 299.541 160.898 299.541 159.585ZM306.14 162.67H307.282V159.637C307.282 158.219 307.991 157.484 308.976 157.484C309.173 157.484 309.343 157.51 309.474 157.563V156.46C309.356 156.408 309.186 156.368 308.976 156.368C308.227 156.368 307.571 156.801 307.256 157.524H307.203V156.513H306.14V162.67Z" fill="white"/>
<rect x="191" y="140" width="139.309" height="37.9271" rx="18.9635" stroke="#847658"/>
</g>
<g filter="url(#filter5_b)">
<rect x="50.5059" y="142" width="130.557" height="37.9271" rx="18.9635" fill="#25464F" fill-opacity="0.9"/>
<rect x="50.5059" y="142" width="130.557" height="37.9271" rx="18.9635" fill="url(#paint5_linear)"/>
<path d="M79.7217 155.48H78.4614L75.6256 163.186H75.5731L72.7373 155.48H71.3982L74.8904 164.762H76.2295L79.7217 155.48ZM84.1184 162.924C83.7902 163.58 83.2519 163.908 82.4904 163.908C81.3482 163.908 80.5999 163.068 80.4949 161.874H85.3262V161.532C85.2737 159.432 83.9214 158.316 82.3329 158.316C80.5474 158.316 79.3396 159.773 79.3396 161.598C79.3396 163.462 80.5999 164.867 82.4904 164.867C83.7114 164.867 84.5779 164.315 85.0899 163.213L84.1184 162.924ZM82.3591 159.208C82.7924 159.208 83.1862 159.353 83.5407 159.655C83.8952 159.944 84.0921 160.416 84.1315 161.073H80.508C80.6524 159.917 81.3088 159.208 82.3591 159.208ZM92.051 160.731C92.051 159.222 91.2239 158.316 89.8717 158.316C88.9789 158.316 88.2568 158.749 87.9024 159.418H87.8499V158.513H86.7864V164.67H87.9286V161.125C87.9286 160.075 88.6376 159.327 89.5828 159.327C90.4231 159.327 90.9088 159.917 90.9088 160.981V164.67H92.051V160.731ZM96.3049 164.801C96.7381 164.801 97.1451 164.709 97.3552 164.604L97.2108 163.685C97.0401 163.777 96.8038 163.83 96.5149 163.83C95.7666 163.83 95.4253 163.462 95.4253 162.451V159.497H97.3027V158.513H95.4253V156.53L94.2831 156.753V158.513H93.0884V159.497H94.2831V162.648C94.2831 164.21 95.0839 164.801 96.3049 164.801ZM103.639 158.513H102.496V162.057C102.496 162.582 102.339 163.016 102.011 163.357C101.696 163.685 101.302 163.856 100.842 163.856C100.002 163.856 99.5163 163.265 99.5163 162.202V158.513H98.3741V162.451C98.3741 163.935 99.2143 164.867 100.54 164.867C101.446 164.867 102.168 164.434 102.523 163.764H102.575V164.67H103.639V158.513ZM105.582 164.67H106.724V161.637C106.724 160.219 107.433 159.484 108.418 159.484C108.615 159.484 108.785 159.51 108.917 159.563V158.46C108.798 158.408 108.628 158.368 108.418 158.368C107.669 158.368 107.013 158.801 106.698 159.524H106.645V158.513H105.582V164.67ZM114.337 162.924C114.009 163.58 113.471 163.908 112.709 163.908C111.567 163.908 110.819 163.068 110.714 161.874H115.545V161.532C115.493 159.432 114.14 158.316 112.552 158.316C110.766 158.316 109.558 159.773 109.558 161.598C109.558 163.462 110.819 164.867 112.709 164.867C113.93 164.867 114.797 164.315 115.309 163.213L114.337 162.924ZM112.578 159.208C113.011 159.208 113.405 159.353 113.76 159.655C114.114 159.944 114.311 160.416 114.35 161.073H110.727C110.871 159.917 111.528 159.208 112.578 159.208ZM119.589 160.088C119.589 162.989 121.532 164.867 124.092 164.867C125.93 164.867 127.361 163.803 127.86 162.11L126.692 161.808C126.285 163.016 125.287 163.738 124.04 163.738C122.175 163.738 120.823 162.202 120.823 160.075C120.823 157.948 122.162 156.412 124.053 156.412C125.405 156.412 126.363 157.265 126.678 158.276L127.913 158.066C127.374 156.333 125.93 155.283 124.053 155.283C121.506 155.283 119.589 157.16 119.589 160.088ZM134.43 160.639C134.43 159.169 133.55 158.316 132.04 158.316C130.728 158.316 129.782 158.933 129.467 160.022L130.609 160.127C130.806 159.563 131.279 159.235 131.962 159.235C132.789 159.235 133.288 159.734 133.288 160.613V161.256C133.012 161.086 132.421 160.955 131.804 160.955C130.229 160.955 129.231 161.716 129.231 162.963C129.231 164.079 130.124 164.854 131.397 164.854C132.224 164.854 132.986 164.486 133.314 163.948H133.34V164.67H134.43V160.639ZM130.386 162.871C130.386 162.202 130.964 161.782 131.922 161.782C132.487 161.782 133.012 161.926 133.314 162.123V162.701C133.314 163.344 132.526 163.948 131.66 163.948C130.911 163.948 130.386 163.501 130.386 162.871ZM142.394 161.585C142.394 159.642 141.186 158.316 139.479 158.316C138.573 158.316 137.759 158.71 137.339 159.537H137.313V158.513H136.249V167.296H137.405V163.817C137.772 164.447 138.534 164.867 139.466 164.867C141.146 164.867 142.394 163.528 142.394 161.585ZM141.238 161.585C141.238 162.845 140.49 163.856 139.282 163.856C138.114 163.856 137.365 162.911 137.365 161.585C137.365 160.259 138.114 159.34 139.282 159.34C140.437 159.34 141.238 160.272 141.238 161.585ZM145.02 155.48H143.878V156.898H145.02V155.48ZM145.02 158.513H143.878V164.67H145.02V158.513ZM149.383 164.801C149.817 164.801 150.224 164.709 150.434 164.604L150.289 163.685C150.119 163.777 149.882 163.83 149.593 163.83C148.845 163.83 148.504 163.462 148.504 162.451V159.497H150.381V158.513H148.504V156.53L147.362 156.753V158.513H146.167V159.497H147.362V162.648C147.362 164.21 148.162 164.801 149.383 164.801ZM156.52 160.639C156.52 159.169 155.641 158.316 154.131 158.316C152.818 158.316 151.873 158.933 151.558 160.022L152.7 160.127C152.897 159.563 153.369 159.235 154.052 159.235C154.879 159.235 155.378 159.734 155.378 160.613V161.256C155.102 161.086 154.512 160.955 153.895 160.955C152.319 160.955 151.321 161.716 151.321 162.963C151.321 164.079 152.214 164.854 153.488 164.854C154.315 164.854 155.076 164.486 155.404 163.948H155.431V164.67H156.52V160.639ZM152.477 162.871C152.477 162.202 153.054 161.782 154.013 161.782C154.577 161.782 155.102 161.926 155.404 162.123V162.701C155.404 163.344 154.617 163.948 153.75 163.948C153.002 163.948 152.477 163.501 152.477 162.871ZM158.34 164.67H159.482V155.48H158.34V164.67Z" fill="white"/>
</g>
<g filter="url(#filter6_b)">
<rect x="23.5" y="192.679" width="121.075" height="37.9271" rx="18.9635" fill="#25464F" fill-opacity="0.9"/>
<rect x="23.5" y="192.679" width="121.075" height="37.9271" rx="18.9635" fill="url(#paint6_linear)"/>
<path d="M48.8155 211.791C50.601 211.791 51.7957 210.544 51.7957 208.982C51.7957 207.288 50.4697 206.159 48.7236 206.159H45.5071V215.349H46.7018V211.791H48.8155ZM50.5616 208.982C50.5616 209.835 49.9446 210.688 48.6317 210.688H46.7018V207.275H48.5136C49.9446 207.275 50.5616 208.128 50.5616 208.982ZM52.9371 215.349H54.0793V212.316C54.0793 210.899 54.7882 210.163 55.7729 210.163C55.9698 210.163 56.1405 210.19 56.2717 210.242V209.139C56.1536 209.087 55.9829 209.047 55.7729 209.047C55.0245 209.047 54.3681 209.481 54.053 210.203H54.0005V209.192H52.9371V215.349ZM58.5153 206.159H57.3731V207.577H58.5153V206.159ZM58.5153 209.192H57.3731V215.349H58.5153V209.192ZM65.7932 209.192H64.651L62.8392 213.971H62.7998L60.9881 209.192H59.7409L62.2484 215.428H63.2856L65.7932 209.192ZM71.5155 211.319C71.5155 209.848 70.6359 208.995 69.1261 208.995C67.8132 208.995 66.868 209.612 66.5529 210.702L67.6951 210.807C67.892 210.242 68.3646 209.914 69.0473 209.914C69.8744 209.914 70.3733 210.413 70.3733 211.292V211.936C70.0976 211.765 69.5068 211.634 68.8898 211.634C67.3143 211.634 66.3166 212.395 66.3166 213.642C66.3166 214.758 67.2093 215.533 68.4828 215.533C69.3099 215.533 70.0713 215.165 70.3996 214.627H70.4258V215.349H71.5155V211.319ZM67.4719 213.551C67.4719 212.881 68.0495 212.461 69.0079 212.461C69.5724 212.461 70.0976 212.605 70.3996 212.802V213.38C70.3996 214.023 69.6118 214.627 68.7453 214.627C67.997 214.627 67.4719 214.181 67.4719 213.551ZM75.7508 215.48C76.184 215.48 76.591 215.389 76.8011 215.283L76.6567 214.364C76.486 214.456 76.2497 214.509 75.9608 214.509C75.2125 214.509 74.8712 214.141 74.8712 213.13V210.176H76.7486V209.192H74.8712V207.209L73.729 207.433V209.192H72.5343V210.176H73.729V213.327C73.729 214.89 74.5298 215.48 75.7508 215.48ZM82.2059 213.603C81.8776 214.259 81.3394 214.588 80.5779 214.588C79.4357 214.588 78.6874 213.747 78.5824 212.553H83.4137V212.211C83.3612 210.111 82.0089 208.995 80.4204 208.995C78.6349 208.995 77.427 210.452 77.427 212.277C77.427 214.141 78.6874 215.546 80.5779 215.546C81.7989 215.546 82.6654 214.995 83.1774 213.892L82.2059 213.603ZM80.4466 209.888C80.8799 209.888 81.2737 210.032 81.6282 210.334C81.9827 210.623 82.1796 211.095 82.219 211.752H78.5955C78.7399 210.597 79.3963 209.888 80.4466 209.888ZM87.9827 206.159V215.349H93.9825V214.246H89.1774V211.253H92.8141V210.15H89.1774V207.262H93.9825V206.159H87.9827ZM95.3378 212.264C95.3378 214.207 96.5851 215.546 98.2655 215.546C99.2502 215.546 99.9722 215.1 100.327 214.43V217.975H101.482V209.192H100.419V210.137H100.379C99.9985 209.362 99.132 208.995 98.2393 208.995C96.5588 208.995 95.3378 210.321 95.3378 212.264ZM96.4932 212.264C96.4932 211.017 97.2415 210.019 98.4493 210.019C99.644 210.019 100.366 210.938 100.366 212.264C100.366 213.59 99.644 214.535 98.4493 214.535C97.2415 214.535 96.4932 213.524 96.4932 212.264ZM108.585 209.192H107.443V212.737C107.443 213.262 107.286 213.695 106.957 214.036C106.642 214.364 106.248 214.535 105.789 214.535C104.949 214.535 104.463 213.944 104.463 212.881V209.192H103.321V213.13C103.321 214.614 104.161 215.546 105.487 215.546C106.393 215.546 107.115 215.113 107.469 214.443H107.522V215.349H108.585V209.192ZM111.671 206.159H110.529V207.577H111.671V206.159ZM111.671 209.192H110.529V215.349H111.671V209.192ZM116.034 215.48C116.467 215.48 116.874 215.389 117.084 215.283L116.94 214.364C116.769 214.456 116.533 214.509 116.244 214.509C115.496 214.509 115.154 214.141 115.154 213.13V210.176H117.032V209.192H115.154V207.209L114.012 207.433V209.192H112.818V210.176H114.012V213.327C114.012 214.89 114.813 215.48 116.034 215.48ZM123.552 209.192H122.409L120.637 213.8L118.707 209.192H117.46L120.02 215.152L118.891 217.909H120.033L123.552 209.192Z" fill="white"/>
</g>
<g filter="url(#filter7_b)">
<rect x="150.41" y="192.679" width="130.557" height="37.9271" rx="18.9635" fill="#25464F" fill-opacity="0.9"/>
<rect x="150.41" y="192.679" width="130.557" height="37.9271" rx="18.9635" fill="url(#paint7_linear)"/>
<path d="M175.672 211.791C177.457 211.791 178.652 210.544 178.652 208.982C178.652 207.288 177.326 206.159 175.58 206.159H172.363V215.349H173.558V211.791H175.672ZM177.418 208.982C177.418 209.835 176.801 210.688 175.488 210.688H173.558V207.275H175.37C176.801 207.275 177.418 208.128 177.418 208.982ZM179.793 215.349H180.935V212.316C180.935 210.899 181.644 210.163 182.629 210.163C182.826 210.163 182.996 210.19 183.128 210.242V209.139C183.01 209.087 182.839 209.047 182.629 209.047C181.881 209.047 181.224 209.481 180.909 210.203H180.857V209.192H179.793V215.349ZM183.77 212.264C183.77 214.246 185.135 215.546 186.907 215.546C188.68 215.546 190.045 214.233 190.045 212.264C190.045 210.281 188.68 208.995 186.907 208.995C185.135 208.995 183.77 210.268 183.77 212.264ZM184.925 212.264C184.925 211.621 185.109 211.082 185.463 210.649C185.818 210.216 186.303 210.006 186.907 210.006C187.511 210.006 187.997 210.216 188.352 210.649C188.706 211.082 188.89 211.621 188.89 212.264C188.89 213.577 188.115 214.535 186.907 214.535C185.7 214.535 184.925 213.577 184.925 212.264ZM192.666 206.159H191.524V207.577H192.666V206.159ZM190.579 217.909C191.931 217.909 192.666 217.108 192.666 215.599V209.192H191.524V215.494C191.524 216.294 191.249 216.885 190.356 216.885C190.251 216.885 190.093 216.859 190.001 216.846V217.857C190.198 217.87 190.408 217.909 190.579 217.909ZM198.933 213.603C198.605 214.259 198.067 214.588 197.305 214.588C196.163 214.588 195.415 213.747 195.31 212.553H200.141V212.211C200.089 210.111 198.736 208.995 197.148 208.995C195.362 208.995 194.155 210.452 194.155 212.277C194.155 214.141 195.415 215.546 197.305 215.546C198.526 215.546 199.393 214.995 199.905 213.892L198.933 213.603ZM197.174 209.888C197.607 209.888 198.001 210.032 198.356 210.334C198.71 210.623 198.907 211.095 198.946 211.752H195.323C195.467 210.597 196.124 209.888 197.174 209.888ZM204.122 208.995C202.402 208.995 201.142 210.321 201.142 212.264C201.142 214.141 202.324 215.546 204.188 215.546C205.54 215.546 206.485 214.85 206.892 213.603L205.816 213.327C205.553 214.063 205.028 214.535 204.148 214.535C202.941 214.535 202.297 213.551 202.297 212.277C202.297 210.977 202.941 210.006 204.148 210.006C205.028 210.006 205.566 210.465 205.816 211.214L206.932 211.043C206.551 209.678 205.606 208.995 204.122 208.995ZM210.71 215.48C211.143 215.48 211.55 215.389 211.76 215.283L211.615 214.364C211.445 214.456 211.209 214.509 210.92 214.509C210.171 214.509 209.83 214.141 209.83 213.13V210.176H211.707V209.192H209.83V207.209L208.688 207.433V209.192H207.493V210.176H208.688V213.327C208.688 214.89 209.489 215.48 210.71 215.48ZM215.993 206.159V215.349H217.187V211.319H220.745V210.203H217.187V207.262H221.914V206.159H215.993ZM224.603 206.159H223.461V207.577H224.603V206.159ZM224.603 209.192H223.461V215.349H224.603V209.192ZM231.815 211.411C231.815 209.901 230.988 208.995 229.636 208.995C228.743 208.995 228.021 209.428 227.667 210.098H227.614V209.192H226.551V215.349H227.693V211.804C227.693 210.754 228.402 210.006 229.347 210.006C230.188 210.006 230.673 210.597 230.673 211.66V215.349H231.815V211.411ZM238.616 211.319C238.616 209.848 237.737 208.995 236.227 208.995C234.914 208.995 233.969 209.612 233.654 210.702L234.796 210.807C234.993 210.242 235.465 209.914 236.148 209.914C236.975 209.914 237.474 210.413 237.474 211.292V211.936C237.198 211.765 236.608 211.634 235.991 211.634C234.415 211.634 233.417 212.395 233.417 213.642C233.417 214.758 234.31 215.533 235.584 215.533C236.411 215.533 237.172 215.165 237.5 214.627H237.527V215.349H238.616V211.319ZM234.573 213.551C234.573 212.881 235.15 212.461 236.109 212.461C236.673 212.461 237.198 212.605 237.5 212.802V213.38C237.5 214.023 236.713 214.627 235.846 214.627C235.098 214.627 234.573 214.181 234.573 213.551ZM245.701 211.411C245.701 209.901 244.873 208.995 243.521 208.995C242.628 208.995 241.906 209.428 241.552 210.098H241.499V209.192H240.436V215.349H241.578V211.804C241.578 210.754 242.287 210.006 243.232 210.006C244.073 210.006 244.558 210.597 244.558 211.66V215.349H245.701V211.411ZM250.059 208.995C248.34 208.995 247.079 210.321 247.079 212.264C247.079 214.141 248.261 215.546 250.125 215.546C251.477 215.546 252.423 214.85 252.83 213.603L251.753 213.327C251.49 214.063 250.965 214.535 250.086 214.535C248.878 214.535 248.235 213.551 248.235 212.277C248.235 210.977 248.878 210.006 250.086 210.006C250.965 210.006 251.504 210.465 251.753 211.214L252.869 211.043C252.488 209.678 251.543 208.995 250.059 208.995ZM258.551 213.603C258.222 214.259 257.684 214.588 256.923 214.588C255.78 214.588 255.032 213.747 254.927 212.553H259.758V212.211C259.706 210.111 258.354 208.995 256.765 208.995C254.98 208.995 253.772 210.452 253.772 212.277C253.772 214.141 255.032 215.546 256.923 215.546C258.144 215.546 259.01 214.995 259.522 213.892L258.551 213.603ZM256.791 209.888C257.225 209.888 257.618 210.032 257.973 210.334C258.327 210.623 258.524 211.095 258.564 211.752H254.94C255.085 210.597 255.741 209.888 256.791 209.888Z" fill="white"/>
</g>
<defs>
<filter id="filter0_b" x="75.0689" y="37.2476" width="87.524" height="55.4319" filterUnits="userSpaceOnUse" color-interpolation-filters="sRGB">
<feFlood flood-opacity="0" result="BackgroundImageFix"/>
<feGaussianBlur in="BackgroundImage" stdDeviation="4.3762"/>
<feComposite in2="SourceAlpha" operator="in" result="effect1_backgroundBlur"/>
<feBlend mode="normal" in="SourceGraphic" in2="effect1_backgroundBlur" result="shape"/>
</filter>
<filter id="filter1_b" x="42.2476" y="83.9273" width="96.2764" height="55.4319" filterUnits="userSpaceOnUse" color-interpolation-filters="sRGB">
<feFlood flood-opacity="0" result="BackgroundImageFix"/>
<feGaussianBlur in="BackgroundImage" stdDeviation="4.3762"/>
<feComposite in2="SourceAlpha" operator="in" result="effect1_backgroundBlur"/>
<feBlend mode="normal" in="SourceGraphic" in2="effect1_backgroundBlur" result="shape"/>
</filter>
<filter id="filter2_b" x="157.248" y="33.9766" width="145.144" height="55.4319" filterUnits="userSpaceOnUse" color-interpolation-filters="sRGB">
<feFlood flood-opacity="0" result="BackgroundImageFix"/>
<feGaussianBlur in="BackgroundImage" stdDeviation="4.3762"/>
<feComposite in2="SourceAlpha" operator="in" result="effect1_backgroundBlur"/>
<feBlend mode="normal" in="SourceGraphic" in2="effect1_backgroundBlur" result="shape"/>
</filter>
<filter id="filter3_b" x="130.248" y="84.6563" width="134.203" height="55.4319" filterUnits="userSpaceOnUse" color-interpolation-filters="sRGB">
<feFlood flood-opacity="0" result="BackgroundImageFix"/>
<feGaussianBlur in="BackgroundImage" stdDeviation="4.3762"/>
<feComposite in2="SourceAlpha" operator="in" result="effect1_backgroundBlur"/>
<feBlend mode="normal" in="SourceGraphic" in2="effect1_backgroundBlur" result="shape"/>
</filter>
<filter id="filter4_b" x="182.248" y="131.248" width="156.814" height="55.4319" filterUnits="userSpaceOnUse" color-interpolation-filters="sRGB">
<feFlood flood-opacity="0" result="BackgroundImageFix"/>
<feGaussianBlur in="BackgroundImage" stdDeviation="4.3762"/>
<feComposite in2="SourceAlpha" operator="in" result="effect1_backgroundBlur"/>
<feBlend mode="normal" in="SourceGraphic" in2="effect1_backgroundBlur" result="shape"/>
</filter>
<filter id="filter5_b" x="41.7535" y="133.248" width="148.061" height="55.4319" filterUnits="userSpaceOnUse" color-interpolation-filters="sRGB">
<feFlood flood-opacity="0" result="BackgroundImageFix"/>
<feGaussianBlur in="BackgroundImage" stdDeviation="4.3762"/>
<feComposite in2="SourceAlpha" operator="in" result="effect1_backgroundBlur"/>
<feBlend mode="normal" in="SourceGraphic" in2="effect1_backgroundBlur" result="shape"/>
</filter>
<filter id="filter6_b" x="14.7476" y="183.927" width="138.58" height="55.4319" filterUnits="userSpaceOnUse" color-interpolation-filters="sRGB">
<feFlood flood-opacity="0" result="BackgroundImageFix"/>
<feGaussianBlur in="BackgroundImage" stdDeviation="4.3762"/>
<feComposite in2="SourceAlpha" operator="in" result="effect1_backgroundBlur"/>
<feBlend mode="normal" in="SourceGraphic" in2="effect1_backgroundBlur" result="shape"/>
</filter>
<filter id="filter7_b" x="141.658" y="183.927" width="148.061" height="55.4319" filterUnits="userSpaceOnUse" color-interpolation-filters="sRGB">
<feFlood flood-opacity="0" result="BackgroundImageFix"/>
<feGaussianBlur in="BackgroundImage" stdDeviation="4.3762"/>
<feComposite in2="SourceAlpha" operator="in" result="effect1_backgroundBlur"/>
<feBlend mode="normal" in="SourceGraphic" in2="effect1_backgroundBlur" result="shape"/>
</filter>
<linearGradient id="paint0_linear" x1="86.3741" y1="63.5048" x2="154.978" y2="78.8398" gradientUnits="userSpaceOnUse">
<stop stop-color="white" stop-opacity="0"/>
<stop offset="0.863378" stop-color="white" stop-opacity="0.15"/>
</linearGradient>
<linearGradient id="paint1_linear" x1="53.8719" y1="110.184" x2="130.087" y2="129.351" gradientUnits="userSpaceOnUse">
<stop stop-color="white" stop-opacity="0"/>
<stop offset="0.863378" stop-color="white" stop-opacity="0.15"/>
</linearGradient>
<linearGradient id="paint2_linear" x1="281.944" y1="80.6561" x2="165.944" y2="42.8996" gradientUnits="userSpaceOnUse">
<stop stop-color="white" stop-opacity="0.15"/>
<stop offset="1" stop-color="white" stop-opacity="0"/>
</linearGradient>
<linearGradient id="paint3_linear" x1="245.006" y1="131.336" x2="137.256" y2="99.2704" gradientUnits="userSpaceOnUse">
<stop stop-color="white" stop-opacity="0.15"/>
<stop offset="1" stop-color="white" stop-opacity="0"/>
</linearGradient>
<linearGradient id="paint4_linear" x1="317.545" y1="177.927" x2="193.217" y2="133.76" gradientUnits="userSpaceOnUse">
<stop stop-color="white" stop-opacity="0.15"/>
<stop offset="1" stop-color="white" stop-opacity="0"/>
</linearGradient>
<linearGradient id="paint5_linear" x1="169.1" y1="179.927" x2="50.9723" y2="140.599" gradientUnits="userSpaceOnUse">
<stop stop-color="white" stop-opacity="0.15"/>
<stop offset="1" stop-color="white" stop-opacity="0"/>
</linearGradient>
<linearGradient id="paint6_linear" x1="133.482" y1="230.606" x2="22.3808" y2="196.304" gradientUnits="userSpaceOnUse">
<stop stop-color="white" stop-opacity="0.15"/>
<stop offset="1" stop-color="white" stop-opacity="0"/>
</linearGradient>
<linearGradient id="paint7_linear" x1="269.005" y1="230.606" x2="150.877" y2="191.278" gradientUnits="userSpaceOnUse">
<stop stop-color="white" stop-opacity="0.15"/>
<stop offset="1" stop-color="white" stop-opacity="0"/>
</linearGradient>
</defs>
</svg>
