<svg width="652" height="41" viewBox="0 0 652 41" fill="none" xmlns="http://www.w3.org/2000/svg">
<path d="M43.8333 20.3902H39.1667L34.5 31.0568L29.8333 9.72351L25.1667 20.3902H20.5" stroke="white" stroke-width="2.66667"/>
<path d="M62.004 21.7301C64.164 21.7301 65.716 20.1941 65.716 18.2101C65.716 16.0181 63.972 14.6901 61.844 14.6901H57.86V25.8901H59.684V21.7301H62.004ZM63.828 18.2101C63.828 19.1861 63.156 20.0501 61.7 20.0501H59.684V16.3701H61.524C63.188 16.3701 63.828 17.2661 63.828 18.2101ZM73.7098 18.3221H71.9658V22.6741C71.9658 23.8101 71.1978 24.6101 70.1898 24.6101C69.2778 24.6101 68.7498 23.9861 68.7498 22.8181V18.3221H67.0218V23.1701C67.0218 25.0101 68.0618 26.1301 69.6778 26.1301C70.7498 26.1301 71.6298 25.6021 72.0298 24.8821H72.1098V25.8901H73.7098V18.3221ZM75.7744 25.8901H77.5184V14.6901H75.7744V25.8901ZM82.2589 26.1301C84.0509 26.1301 85.2669 25.1701 85.2669 23.6341C85.2669 20.5941 81.1229 21.9701 81.1229 20.2901C81.1229 19.7941 81.5069 19.3941 82.2589 19.3941C82.9469 19.3941 83.5069 19.7941 83.5869 20.3541L85.2029 20.0181C84.9309 18.8661 83.7469 18.0821 82.2109 18.0821C80.5309 18.0821 79.3949 19.0101 79.3949 20.4181C79.3949 23.4581 83.5389 22.0821 83.5389 23.7621C83.5389 24.4021 83.1229 24.8341 82.3069 24.8341C81.5229 24.8341 80.8829 24.4021 80.6909 23.7461L79.1069 24.0661C79.4749 25.3621 80.6429 26.1301 82.2589 26.1301ZM92.0693 23.6181C91.7173 24.3381 91.1253 24.6901 90.2933 24.6901C89.0773 24.6901 88.2613 23.8261 88.0853 22.5621H93.8293V22.1301C93.7973 19.5221 92.1493 18.0821 90.0853 18.0821C87.8773 18.0821 86.3253 19.8261 86.3253 22.1301C86.3253 24.4181 87.9573 26.1301 90.2773 26.1301C91.7973 26.1301 92.8853 25.4421 93.5253 24.0501L92.0693 23.6181ZM90.1173 19.4261C91.0933 19.4261 91.9413 20.0341 92.0213 21.3781H88.1013C88.2933 20.1141 89.0133 19.4261 90.1173 19.4261Z" fill="white"/>
<rect x="2.3094" y="-3.97364e-08" width="13.3333" height="13.3333" transform="matrix(0.866025 -0.5 0.866025 0.5 129.142 16.2115)" stroke="white" stroke-width="2.66667"/>
<rect opacity="0.45" x="2.3094" y="-3.97364e-08" width="13.3333" height="13.3333" transform="matrix(0.866025 -0.5 0.866025 0.5 129.142 21.5448)" stroke="white" stroke-width="2.66667"/>
<rect x="2.3094" y="-3.97364e-08" width="13.3333" height="13.3333" transform="matrix(0.866025 -0.5 0.866025 0.5 129.142 26.8782)" stroke="white" stroke-width="2.66667"/>
<path d="M174.004 21.7301C176.164 21.7301 177.716 20.1941 177.716 18.2101C177.716 16.0181 175.972 14.6901 173.844 14.6901H169.86V25.8901H171.684V21.7301H174.004ZM175.828 18.2101C175.828 19.1861 175.156 20.0501 173.7 20.0501H171.684V16.3701H173.524C175.188 16.3701 175.828 17.2661 175.828 18.2101ZM178.946 25.8901H180.674V22.3541C180.674 20.5781 181.522 19.8581 182.674 19.8581C182.914 19.8581 183.106 19.8901 183.25 19.9541V18.2741C183.106 18.1941 182.898 18.1621 182.658 18.1621C181.762 18.1621 180.978 18.6581 180.594 19.5381H180.562V18.3221H178.946V25.8901ZM183.95 22.0981C183.95 24.5941 185.71 26.1301 187.87 26.1301C190.03 26.1301 191.822 24.5941 191.822 22.0981C191.822 19.6181 190.03 18.0821 187.87 18.0821C185.71 18.0821 183.95 19.5861 183.95 22.0981ZM185.694 22.0981C185.694 20.6261 186.574 19.6021 187.87 19.6021C189.198 19.6021 190.062 20.6261 190.062 22.0981C190.062 23.5861 189.198 24.5941 187.87 24.5941C186.574 24.5941 185.694 23.5861 185.694 22.0981ZM192.888 22.1141C192.888 24.4981 194.408 26.1301 196.424 26.1301C197.432 26.1301 198.44 25.7141 198.936 24.7381H198.984V25.8901H200.584V14.6901H198.84V19.2981C198.44 18.5941 197.592 18.0821 196.456 18.0821C194.44 18.0821 192.888 19.6981 192.888 22.1141ZM194.632 22.1141C194.632 20.6901 195.448 19.6021 196.776 19.6021C198.104 19.6021 198.888 20.6421 198.888 22.1141C198.888 23.5701 198.104 24.5941 196.776 24.5941C195.48 24.5941 194.632 23.5381 194.632 22.1141ZM209.241 18.3221H207.497V22.6741C207.497 23.8101 206.729 24.6101 205.721 24.6101C204.809 24.6101 204.281 23.9861 204.281 22.8181V18.3221H202.553V23.1701C202.553 25.0101 203.593 26.1301 205.209 26.1301C206.281 26.1301 207.161 25.6021 207.561 24.8821H207.641V25.8901H209.241V18.3221ZM214.554 18.0821C212.442 18.0821 210.81 19.6661 210.81 22.0981C210.81 24.4341 212.314 26.1301 214.65 26.1301C216.33 26.1301 217.562 25.2501 218.026 23.6981L216.394 23.2981C216.122 24.0821 215.546 24.5941 214.602 24.5941C213.274 24.5941 212.554 23.5221 212.554 22.0981C212.554 20.6741 213.274 19.6021 214.602 19.6021C215.546 19.6021 216.154 20.0981 216.41 20.9141L218.106 20.6581C217.642 18.9461 216.458 18.0821 214.554 18.0821ZM222.613 26.0501C223.173 26.0501 223.653 25.9541 223.909 25.8261L223.717 24.4341C223.525 24.5461 223.269 24.5941 222.949 24.5941C222.133 24.5941 221.733 24.2101 221.733 23.1061V19.7941H223.829V18.3221H221.733V15.9061L219.989 16.2421V18.3221H218.613V19.7941H219.989V23.3941C219.989 25.3621 221.061 26.0501 222.613 26.0501ZM236.189 14.6901V19.4901H230.653V14.6901H228.829V25.8901H230.653V21.1701H236.189V25.8901H238.013V14.6901H236.189ZM246.991 18.3221H245.247V22.6741C245.247 23.8101 244.479 24.6101 243.471 24.6101C242.559 24.6101 242.031 23.9861 242.031 22.8181V18.3221H240.303V23.1701C240.303 25.0101 241.343 26.1301 242.959 26.1301C244.031 26.1301 244.911 25.6021 245.311 24.8821H245.391V25.8901H246.991V18.3221ZM256.752 22.1141C256.752 19.6981 255.2 18.0821 253.168 18.0821C252.032 18.0821 251.184 18.6101 250.8 19.3621V14.6901H249.056V25.8901H250.672V24.7861H250.72C251.216 25.6981 252.24 26.1301 253.216 26.1301C255.248 26.1301 256.752 24.4981 256.752 22.1141ZM255.008 22.1141C255.008 22.8021 254.816 23.3941 254.432 23.8741C254.048 24.3541 253.52 24.5941 252.864 24.5941C251.568 24.5941 250.736 23.5701 250.736 22.1141C250.736 20.6421 251.568 19.6021 252.864 19.6021C254.192 19.6021 255.008 20.6901 255.008 22.1141Z" fill="white"/>
<rect x="1.1547" y="2" width="13.3333" height="13.3333" transform="matrix(0.866025 0.5 -2.20305e-08 1 293.988 11.8128)" stroke="white" stroke-width="2.66667"/>
<rect x="1.1547" y="2" width="13.3333" height="13.3333" transform="matrix(0.866025 0.5 -2.20305e-08 1 309.988 3.81279)" stroke="white" stroke-width="2.66667"/>
<rect opacity="0.45" x="1.1547" y="2" width="13.3333" height="13.3333" transform="matrix(0.866025 0.5 -2.20305e-08 1 301.988 7.81279)" stroke="white" stroke-width="2.66667"/>
<path d="M336.78 25.9541H338.732L341.34 17.4741H341.404L344.012 25.9541H345.964L348.86 14.6901H346.988L344.972 22.8981H344.876L342.364 14.6901H340.492L337.98 22.8981H337.9L335.868 14.6901H333.82L336.78 25.9541ZM348.716 22.0981C348.716 24.5941 350.476 26.1301 352.636 26.1301C354.796 26.1301 356.588 24.5941 356.588 22.0981C356.588 19.6181 354.796 18.0821 352.636 18.0821C350.476 18.0821 348.716 19.5861 348.716 22.0981ZM350.46 22.0981C350.46 20.6261 351.34 19.6021 352.636 19.6021C353.964 19.6021 354.828 20.6261 354.828 22.0981C354.828 23.5861 353.964 24.5941 352.636 24.5941C351.34 24.5941 350.46 23.5861 350.46 22.0981ZM358.149 25.8901H359.877V22.3541C359.877 20.5781 360.725 19.8581 361.877 19.8581C362.117 19.8581 362.309 19.8901 362.453 19.9541V18.2741C362.309 18.1941 362.101 18.1621 361.861 18.1621C360.965 18.1621 360.181 18.6581 359.797 19.5381H359.765V18.3221H358.149V25.8901ZM365.393 22.2901L368.449 25.8901H370.705L367.121 21.7301L370.385 18.3221H368.305L365.393 21.5061V14.6901H363.649V25.8901H365.393V22.2901ZM372.366 19.7941V25.8901H374.11V19.7941H376.094V18.3221H374.11V17.3941C374.11 16.4981 374.494 15.9541 375.39 15.9541C375.646 15.9541 375.886 16.0021 376.094 16.0501V14.5781C375.886 14.5141 375.486 14.4501 375.054 14.4501C373.278 14.4501 372.366 15.4901 372.366 17.2341V18.3221H371.006V19.7941H372.366ZM377.054 25.8901H378.798V14.6901H377.054V25.8901ZM380.325 22.0981C380.325 24.5941 382.085 26.1301 384.245 26.1301C386.405 26.1301 388.197 24.5941 388.197 22.0981C388.197 19.6181 386.405 18.0821 384.245 18.0821C382.085 18.0821 380.325 19.5861 380.325 22.0981ZM382.069 22.0981C382.069 20.6261 382.949 19.6021 384.245 19.6021C385.573 19.6021 386.437 20.6261 386.437 22.0981C386.437 23.5861 385.573 24.5941 384.245 24.5941C382.949 24.5941 382.069 23.5861 382.069 22.0981ZM400.292 18.3221H398.628L397.108 23.5381H397.06L395.444 18.3221H393.844L392.196 23.5381H392.148L390.628 18.3221H388.788L391.22 25.9541H392.884L394.58 20.5461L396.26 25.9541H397.86L400.292 18.3221ZM404.243 26.1301C406.035 26.1301 407.251 25.1701 407.251 23.6341C407.251 20.5941 403.107 21.9701 403.107 20.2901C403.107 19.7941 403.491 19.3941 404.243 19.3941C404.931 19.3941 405.491 19.7941 405.571 20.3541L407.187 20.0181C406.915 18.8661 405.731 18.0821 404.195 18.0821C402.515 18.0821 401.379 19.0101 401.379 20.4181C401.379 23.4581 405.523 22.0821 405.523 23.7621C405.523 24.4021 405.107 24.8341 404.291 24.8341C403.507 24.8341 402.867 24.4021 402.675 23.7461L401.091 24.0661C401.459 25.3621 402.627 26.1301 404.243 26.1301Z" fill="white"/>
<rect x="2.3094" y="-3.97364e-08" width="13.3333" height="13.3333" transform="matrix(0.866025 -0.5 0.866025 0.5 449.142 18.8782)" stroke="white" stroke-width="2.66667"/>
<rect opacity="0.45" x="2.3094" y="-3.97364e-08" width="10.6667" height="10.6667" transform="matrix(0.866025 -0.5 0.866025 0.5 451.809 24.2115)" stroke="white" stroke-width="2.66667"/>
<path d="M493.316 26.1301C495.652 26.1301 497.284 24.7381 497.284 22.6581C497.284 18.3381 491.524 20.2581 491.524 17.5701C491.524 16.6101 492.292 16.0501 493.332 16.0501C494.532 16.0501 495.284 16.7541 495.46 17.7781L497.236 17.4581C496.948 15.6981 495.508 14.4501 493.38 14.4501C491.236 14.4501 489.668 15.7461 489.668 17.7301C489.668 22.0341 495.412 20.1301 495.412 22.8501C495.412 23.8581 494.596 24.5461 493.364 24.5461C492.26 24.5461 491.204 23.9541 491.012 22.8181L489.236 23.2021C489.556 25.0581 491.316 26.1301 493.316 26.1301ZM501.988 26.0501C502.548 26.0501 503.028 25.9541 503.284 25.8261L503.092 24.4341C502.9 24.5461 502.644 24.5941 502.324 24.5941C501.508 24.5941 501.108 24.2101 501.108 23.1061V19.7941H503.204V18.3221H501.108V15.9061L499.364 16.2421V18.3221H497.988V19.7941H499.364V23.3941C499.364 25.3621 500.436 26.0501 501.988 26.0501ZM504.509 25.8901H506.237V22.3541C506.237 20.5781 507.085 19.8581 508.237 19.8581C508.477 19.8581 508.669 19.8901 508.813 19.9541V18.2741C508.669 18.1941 508.461 18.1621 508.221 18.1621C507.325 18.1621 506.541 18.6581 506.157 19.5381H506.125V18.3221H504.509V25.8901ZM516.585 18.3221H514.841V22.6741C514.841 23.8101 514.073 24.6101 513.065 24.6101C512.153 24.6101 511.625 23.9861 511.625 22.8181V18.3221H509.897V23.1701C509.897 25.0101 510.937 26.1301 512.553 26.1301C513.625 26.1301 514.505 25.6021 514.905 24.8821H514.985V25.8901H516.585V18.3221ZM521.897 18.0821C519.785 18.0821 518.153 19.6661 518.153 22.0981C518.153 24.4341 519.657 26.1301 521.993 26.1301C523.673 26.1301 524.905 25.2501 525.369 23.6981L523.737 23.2981C523.465 24.0821 522.889 24.5941 521.945 24.5941C520.617 24.5941 519.897 23.5221 519.897 22.0981C519.897 20.6741 520.617 19.6021 521.945 19.6021C522.889 19.6021 523.497 20.0981 523.753 20.9141L525.449 20.6581C524.985 18.9461 523.801 18.0821 521.897 18.0821ZM529.957 26.0501C530.517 26.0501 530.997 25.9541 531.253 25.8261L531.061 24.4341C530.869 24.5461 530.613 24.5941 530.293 24.5941C529.477 24.5941 529.077 24.2101 529.077 23.1061V19.7941H531.173V18.3221H529.077V15.9061L527.333 16.2421V18.3221H525.957V19.7941H527.333V23.3941C527.333 25.3621 528.405 26.0501 529.957 26.0501ZM539.054 18.3221H537.31V22.6741C537.31 23.8101 536.542 24.6101 535.534 24.6101C534.622 24.6101 534.094 23.9861 534.094 22.8181V18.3221H532.366V23.1701C532.366 25.0101 533.406 26.1301 535.022 26.1301C536.094 26.1301 536.974 25.6021 537.374 24.8821H537.454V25.8901H539.054V18.3221ZM541.118 25.8901H542.846V22.3541C542.846 20.5781 543.694 19.8581 544.846 19.8581C545.086 19.8581 545.278 19.8901 545.422 19.9541V18.2741C545.278 18.1941 545.07 18.1621 544.83 18.1621C543.934 18.1621 543.15 18.6581 542.766 19.5381H542.734V18.3221H541.118V25.8901ZM548.362 14.6901H546.618V16.5301H548.362V14.6901ZM548.362 18.3221H546.618V25.8901H548.362V18.3221ZM557.119 21.0421C557.119 19.1861 556.111 18.0821 554.463 18.0821C553.375 18.0821 552.511 18.5781 552.079 19.3301H552.047V18.3221H550.431V25.8901H552.159V21.5381C552.159 20.4021 552.943 19.6021 553.951 19.6021C554.847 19.6021 555.375 20.2261 555.375 21.3781V25.8901H557.119V21.0421ZM558.655 21.8581C558.655 24.1941 560.239 25.6341 562.079 25.6341C563.151 25.6341 563.983 25.1861 564.351 24.4661V25.6021C564.351 26.9461 563.631 27.6981 562.479 27.6981C561.567 27.6981 560.847 27.2501 560.671 26.6101L558.911 26.9941C559.279 28.2261 560.639 29.0901 562.447 29.0901C564.767 29.0901 566.079 27.6981 566.079 25.2181V18.3221H564.383V19.1541H564.335C563.887 18.5301 563.231 18.0821 562.079 18.0821C560.271 18.0821 558.655 19.4901 558.655 21.8581ZM560.399 21.8581C560.399 20.4021 561.295 19.5861 562.399 19.5861C563.599 19.5861 564.415 20.4661 564.415 21.8581C564.415 23.2181 563.599 24.1141 562.399 24.1141C561.295 24.1141 560.399 23.2821 560.399 21.8581ZM580.052 25.8901L577.012 21.0421C578.532 20.6101 579.476 19.4741 579.476 17.9861C579.476 15.7941 577.748 14.6901 575.78 14.6901H571.844V25.8901H573.668V21.1861H575.044L577.924 25.8901H580.052ZM577.604 18.0181C577.604 18.8501 577.044 19.6821 575.492 19.6821H573.668V16.3701H575.476C577.076 16.3701 577.604 17.2341 577.604 18.0181ZM586.397 23.6181C586.045 24.3381 585.453 24.6901 584.621 24.6901C583.405 24.6901 582.589 23.8261 582.413 22.5621H588.157V22.1301C588.125 19.5221 586.477 18.0821 584.413 18.0821C582.205 18.0821 580.653 19.8261 580.653 22.1301C580.653 24.4181 582.285 26.1301 584.605 26.1301C586.125 26.1301 587.213 25.4421 587.853 24.0501L586.397 23.6181ZM584.445 19.4261C585.421 19.4261 586.269 20.0341 586.349 21.3781H582.429C582.621 20.1141 583.341 19.4261 584.445 19.4261ZM589.216 22.0981C589.216 24.4981 590.768 26.1301 592.784 26.1301C593.936 26.1301 594.768 25.6021 595.168 24.8501V29.0901H596.912V18.3221H595.296V19.4261H595.248C594.784 18.4821 593.728 18.0821 592.752 18.0821C590.704 18.0821 589.216 19.6981 589.216 22.0981ZM590.96 22.0981C590.96 21.4101 591.152 20.8181 591.536 20.3381C591.92 19.8581 592.448 19.6181 593.104 19.6181C594.432 19.6181 595.216 20.6421 595.216 22.0981C595.216 23.5701 594.432 24.6101 593.104 24.6101C592.448 24.6101 591.92 24.3701 591.536 23.8901C591.152 23.3941 590.96 22.8021 590.96 22.0981ZM605.569 18.3221H603.825V22.6741C603.825 23.8101 603.057 24.6101 602.049 24.6101C601.137 24.6101 600.609 23.9861 600.609 22.8181V18.3221H598.881V23.1701C598.881 25.0101 599.921 26.1301 601.537 26.1301C602.609 26.1301 603.489 25.6021 603.889 24.8821H603.969V25.8901H605.569V18.3221ZM612.882 23.6181C612.53 24.3381 611.938 24.6901 611.106 24.6901C609.89 24.6901 609.074 23.8261 608.898 22.5621H614.642V22.1301C614.61 19.5221 612.962 18.0821 610.898 18.0821C608.69 18.0821 607.138 19.8261 607.138 22.1301C607.138 24.4181 608.77 26.1301 611.09 26.1301C612.61 26.1301 613.698 25.4421 614.338 24.0501L612.882 23.6181ZM610.93 19.4261C611.906 19.4261 612.754 20.0341 612.834 21.3781H608.914C609.106 20.1141 609.826 19.4261 610.93 19.4261ZM618.868 26.1301C620.66 26.1301 621.876 25.1701 621.876 23.6341C621.876 20.5941 617.732 21.9701 617.732 20.2901C617.732 19.7941 618.116 19.3941 618.868 19.3941C619.556 19.3941 620.116 19.7941 620.196 20.3541L621.812 20.0181C621.54 18.8661 620.356 18.0821 618.82 18.0821C617.14 18.0821 616.004 19.0101 616.004 20.4181C616.004 23.4581 620.148 22.0821 620.148 23.7621C620.148 24.4021 619.732 24.8341 618.916 24.8341C618.132 24.8341 617.492 24.4021 617.3 23.7461L615.716 24.0661C616.084 25.3621 617.252 26.1301 618.868 26.1301ZM626.551 26.0501C627.111 26.0501 627.591 25.9541 627.847 25.8261L627.655 24.4341C627.463 24.5461 627.207 24.5941 626.887 24.5941C626.071 24.5941 625.671 24.2101 625.671 23.1061V19.7941H627.767V18.3221H625.671V15.9061L623.927 16.2421V18.3221H622.551V19.7941H623.927V23.3941C623.927 25.3621 624.999 26.0501 626.551 26.0501ZM631.743 26.1301C633.535 26.1301 634.751 25.1701 634.751 23.6341C634.751 20.5941 630.607 21.9701 630.607 20.2901C630.607 19.7941 630.991 19.3941 631.743 19.3941C632.431 19.3941 632.991 19.7941 633.071 20.3541L634.687 20.0181C634.415 18.8661 633.231 18.0821 631.695 18.0821C630.015 18.0821 628.879 19.0101 628.879 20.4181C628.879 23.4581 633.023 22.0821 633.023 23.7621C633.023 24.4021 632.607 24.8341 631.791 24.8341C631.007 24.8341 630.367 24.4021 630.175 23.7461L628.591 24.0661C628.959 25.3621 630.127 26.1301 631.743 26.1301Z" fill="white"/>
</svg>
