<svg width="129" height="167" viewBox="0 0 129 167" fill="none" xmlns="http://www.w3.org/2000/svg">
<g filter="url(#filter0_d)">
<rect x="43.5" y="16.4634" width="42" height="20" rx="10" fill="url(#paint0_linear)"/>
<path d="M58.6732 26.4061L62.0382 20.7701H60.3072L57.967 24.8551H57.8978L55.5575 20.7701H53.7158L57.0946 26.4061V30.4634H58.6732V26.4061ZM60.8463 27.1815C60.8463 29.3417 62.3695 30.6711 64.239 30.6711C66.1084 30.6711 67.6593 29.3417 67.6593 27.1815C67.6593 25.0351 66.1084 23.7058 64.239 23.7058C62.3695 23.7058 60.8463 25.0075 60.8463 27.1815ZM62.3557 27.1815C62.3557 25.9075 63.1173 25.0213 64.239 25.0213C65.3883 25.0213 66.1361 25.9075 66.1361 27.1815C66.1361 28.4693 65.3883 29.3417 64.239 29.3417C63.1173 29.3417 62.3557 28.4693 62.3557 27.1815ZM74.5636 23.9135H73.0542V27.68C73.0542 28.6632 72.3895 29.3556 71.5171 29.3556C70.7278 29.3556 70.2708 28.8155 70.2708 27.8047V23.9135H68.7753V28.1093C68.7753 29.7018 69.6754 30.6711 71.074 30.6711C72.0018 30.6711 72.7634 30.2141 73.1096 29.591H73.1788V30.4634H74.5636V23.9135Z" fill="#446168"/>
</g>
<g filter="url(#filter1_d)">
<circle cx="64.5" cy="86.9268" r="32" fill="url(#paint1_linear)"/>
</g>
<g filter="url(#filter2_d)">
<path fill-rule="evenodd" clip-rule="evenodd" d="M64.5 83.9268C67.8137 83.9268 70.5 81.2405 70.5 77.9268C70.5 74.613 67.8137 71.9268 64.5 71.9268C61.1863 71.9268 58.5 74.613 58.5 77.9268C58.5 81.2405 61.1863 83.9268 64.5 83.9268ZM64.5 85.9268C59.1263 85.9268 54.606 89.9548 53.9892 95.293L53.5 99.5268C60.5614 102.351 68.4386 102.351 75.5 99.5268L75.0108 95.293C74.394 89.9548 69.8737 85.9268 64.5 85.9268Z" fill="url(#paint2_linear)"/>
</g>
<defs>
<filter id="filter0_d" x="11.5" y="0.463379" width="106" height="84" filterUnits="userSpaceOnUse" color-interpolation-filters="sRGB">
<feFlood flood-opacity="0" result="BackgroundImageFix"/>
<feColorMatrix in="SourceAlpha" type="matrix" values="0 0 0 0 0 0 0 0 0 0 0 0 0 0 0 0 0 0 127 0"/>
<feOffset dy="16"/>
<feGaussianBlur stdDeviation="16"/>
<feColorMatrix type="matrix" values="0 0 0 0 0 0 0 0 0 0 0 0 0 0 0 0 0 0 0.03 0"/>
<feBlend mode="normal" in2="BackgroundImageFix" result="effect1_dropShadow"/>
<feBlend mode="normal" in="SourceGraphic" in2="effect1_dropShadow" result="shape"/>
</filter>
<filter id="filter1_d" x="0.5" y="38.9268" width="128" height="128" filterUnits="userSpaceOnUse" color-interpolation-filters="sRGB">
<feFlood flood-opacity="0" result="BackgroundImageFix"/>
<feColorMatrix in="SourceAlpha" type="matrix" values="0 0 0 0 0 0 0 0 0 0 0 0 0 0 0 0 0 0 127 0"/>
<feOffset dy="16"/>
<feGaussianBlur stdDeviation="16"/>
<feColorMatrix type="matrix" values="0 0 0 0 0 0 0 0 0 0 0 0 0 0 0 0 0 0 0.03 0"/>
<feBlend mode="normal" in2="BackgroundImageFix" result="effect1_dropShadow"/>
<feBlend mode="normal" in="SourceGraphic" in2="effect1_dropShadow" result="shape"/>
</filter>
<filter id="filter2_d" x="21.5" y="55.9268" width="86" height="93.7184" filterUnits="userSpaceOnUse" color-interpolation-filters="sRGB">
<feFlood flood-opacity="0" result="BackgroundImageFix"/>
<feColorMatrix in="SourceAlpha" type="matrix" values="0 0 0 0 0 0 0 0 0 0 0 0 0 0 0 0 0 0 127 0"/>
<feOffset dy="16"/>
<feGaussianBlur stdDeviation="16"/>
<feColorMatrix type="matrix" values="0 0 0 0 0 0 0 0 0 0 0 0 0 0 0 0 0 0 0.03 0"/>
<feBlend mode="normal" in2="BackgroundImageFix" result="effect1_dropShadow"/>
<feBlend mode="normal" in="SourceGraphic" in2="effect1_dropShadow" result="shape"/>
</filter>
<linearGradient id="paint0_linear" x1="51.5" y1="13.5005" x2="65" y2="55.5005" gradientUnits="userSpaceOnUse">
<stop stop-color="white"/>
<stop offset="1" stop-color="white" stop-opacity="0.41"/>
</linearGradient>
<linearGradient id="paint1_linear" x1="64.5" y1="54.9268" x2="64.5" y2="118.927" gradientUnits="userSpaceOnUse">
<stop stop-opacity="0.15"/>
<stop offset="1" stop-color="white" stop-opacity="0.07"/>
</linearGradient>
<linearGradient id="paint2_linear" x1="57.6905" y1="67.5241" x2="91.9725" y2="105.122" gradientUnits="userSpaceOnUse">
<stop stop-color="white"/>
<stop offset="1" stop-color="white" stop-opacity="0"/>
</linearGradient>
</defs>
</svg>
