<svg width="72" height="71" viewBox="0 0 72 71" fill="none" xmlns="http://www.w3.org/2000/svg">
<path fill-rule="evenodd" clip-rule="evenodd" d="M5.96972 0.0612183L5.96972 6.06122L0.969727 6.06122L0.969727 7.06122L5.96972 7.06122L5.96972 18.0612H0.969727L0.969727 19.0612H5.96972L5.96972 30.0612H0.969727L0.969727 31.0612H5.96972L5.96972 42.0612H0.969727L0.969727 43.0612H5.96972L5.96972 54.0612H0.969727L0.969727 55.0612H5.96972L5.96972 65.5612H0.969727V66.5612H5.96972L5.96972 70.5918H6.96972L6.96972 66.5612H17.9697V70.5918H18.9697V66.5612H29.9697V70.5918H30.9697V66.5612L41.9697 66.5613V70.5918H42.9697V66.5613H53.9697V70.5918H54.9697V66.5613H65.9698V70.5918H66.9698V66.5613H71.5003V65.5613H66.9698V55.0612H71.5003V54.0612H66.9698V43.0612H71.5003V42.0612H66.9698V31.0612H71.5003V30.0612H66.9698V19.0612H71.5003V18.0612H66.9698V7.06122L71.5003 7.06122V6.06122L66.9698 6.06122V0.0612183L65.9698 0.0612183V6.06122L54.9698 6.06122V0.0612183L53.9698 0.0612183V6.06122L42.9697 6.06122V0.0612183L41.9697 0.0612183V6.06122L30.9697 6.06122V0.0612183L29.9697 0.0612183V6.06122L18.9697 6.06122V0.0612183L17.9697 0.0612183V6.06122L6.96972 6.06122L6.96972 0.0612183L5.96972 0.0612183ZM65.9698 65.5613V55.0612L54.9697 55.0612L54.9697 65.5613H65.9698ZM53.9697 65.5613L53.9697 55.0612L42.9697 55.0612L42.9697 65.5613H53.9697ZM41.9697 65.5613L41.9697 55.0612H30.9697L30.9697 65.5612L41.9697 65.5613ZM29.9697 65.5612L29.9697 55.0612H18.9697L18.9697 65.5612H29.9697ZM17.9697 65.5612L17.9697 55.0612H6.96972L6.96972 65.5612H17.9697ZM17.9697 54.0612H6.96972L6.96972 43.0612H17.9697V54.0612ZM29.9697 54.0612H18.9697V43.0612H29.9697V54.0612ZM41.9697 54.0612H30.9697V43.0612H41.9697V54.0612ZM53.9697 54.0612L42.9697 54.0612V43.0612L53.9697 43.0612V54.0612ZM65.9698 54.0612L54.9697 54.0612V43.0612L65.9698 43.0612V54.0612ZM65.9698 42.0612V31.0612L54.9698 31.0612L54.9697 42.0612L65.9698 42.0612ZM53.9697 42.0612L53.9698 31.0612H42.9697L42.9697 42.0612L53.9697 42.0612ZM41.9697 42.0612L41.9697 31.0612L30.9697 31.0612L30.9697 42.0612H41.9697ZM29.9697 42.0612L29.9697 31.0612H18.9697L18.9697 42.0612H29.9697ZM17.9697 42.0612L17.9697 31.0612L6.96972 31.0612L6.96972 42.0612H17.9697ZM17.9697 30.0612L6.96972 30.0612L6.96972 19.0612L17.9697 19.0612V30.0612ZM29.9697 30.0612H18.9697V19.0612H29.9697V30.0612ZM41.9697 30.0612L30.9697 30.0612V19.0612L41.9697 19.0612V30.0612ZM53.9698 30.0612H42.9697V19.0612H53.9698V30.0612ZM65.9698 30.0612L54.9698 30.0612V19.0612L65.9698 19.0612V30.0612ZM65.9698 18.0612V7.06122L54.9698 7.06122V18.0612L65.9698 18.0612ZM53.9698 18.0612V7.06122L42.9697 7.06122V18.0612H53.9698ZM41.9697 18.0612V7.06122L30.9697 7.06122L30.9697 18.0612L41.9697 18.0612ZM29.9697 18.0612L29.9697 7.06122L18.9697 7.06122L18.9697 18.0612H29.9697ZM17.9697 18.0612L17.9697 7.06122L6.96972 7.06122L6.96972 18.0612L17.9697 18.0612Z" fill="white" fill-opacity="0.5"/>
<path fill-rule="evenodd" clip-rule="evenodd" d="M20.5894 22.0612H21.167H51.167H51.7445L52.0331 22.5615L67.0331 48.5615L67.8984 50.0612H66.167H6.16696H4.43555L5.30077 48.5615L20.3008 22.5615L20.5894 22.0612ZM21.7445 24.0612L7.89837 48.0612H64.4356L50.5894 24.0612H21.7445Z" fill="white"/>
</svg>
