<svg width="71" height="72" viewBox="0 0 71 72" fill="none" xmlns="http://www.w3.org/2000/svg">
<path fill-rule="evenodd" clip-rule="evenodd" d="M5.2041 0.530609L5.2041 6.53061L0.204102 6.53061L0.204102 7.53061L5.2041 7.53061L5.2041 18.5306H0.204102L0.204102 19.5306H5.2041L5.2041 30.5306H0.204102L0.204102 31.5306H5.2041L5.2041 42.5306H0.204102L0.204102 43.5306H5.2041L5.2041 54.5306H0.204102L0.204102 55.5306H5.2041L5.2041 66.0306H0.204102L0.204102 67.0306H5.2041L5.2041 71.0612H6.2041L6.2041 67.0306H17.2041V71.0612H18.2041V67.0306H29.2041V71.0612H30.2041V67.0306L41.2041 67.0306V71.0612H42.2041V67.0306H53.2041V71.0612H54.2041V67.0306H65.2041V71.0612H66.2041V67.0306H70.7347V66.0306H66.2041L66.2041 55.5306H70.7347V54.5306H66.2041V43.5306H70.7347V42.5306H66.2041V31.5306H70.7347V30.5306H66.2041V19.5306H70.7347V18.5306H66.2041V7.53061L70.7347 7.53061V6.53061L66.2041 6.53061V0.530609H65.2041V6.53061L54.2041 6.53061V0.530609H53.2041V6.53061L42.2041 6.53061V0.530609H41.2041V6.53061L30.2041 6.53061V0.530609H29.2041V6.53061L18.2041 6.53061V0.530609H17.2041V6.53061L6.2041 6.53061L6.2041 0.530609L5.2041 0.530609ZM65.2041 66.0306L65.2041 55.5306L54.2041 55.5306L54.2041 66.0306H65.2041ZM53.2041 66.0306L53.2041 55.5306L42.2041 55.5306L42.2041 66.0306H53.2041ZM41.2041 66.0306L41.2041 55.5306H30.2041L30.2041 66.0306L41.2041 66.0306ZM29.2041 66.0306L29.2041 55.5306H18.2041L18.2041 66.0306H29.2041ZM17.2041 66.0306L17.2041 55.5306H6.2041L6.2041 66.0306H17.2041ZM17.2041 54.5306H6.2041L6.2041 43.5306H17.2041V54.5306ZM29.2041 54.5306H18.2041V43.5306H29.2041V54.5306ZM41.2041 54.5306H30.2041V43.5306H41.2041V54.5306ZM53.2041 54.5306L42.2041 54.5306V43.5306L53.2041 43.5306V54.5306ZM65.2041 54.5306L54.2041 54.5306V43.5306L65.2041 43.5306V54.5306ZM65.2041 42.5306V31.5306L54.2041 31.5306L54.2041 42.5306L65.2041 42.5306ZM53.2041 42.5306L53.2041 31.5306H42.2041V42.5306L53.2041 42.5306ZM41.2041 42.5306V31.5306L30.2041 31.5306L30.2041 42.5306H41.2041ZM29.2041 42.5306L29.2041 31.5306H18.2041L18.2041 42.5306H29.2041ZM17.2041 42.5306L17.2041 31.5306L6.2041 31.5306L6.2041 42.5306H17.2041ZM17.2041 30.5306L6.2041 30.5306L6.2041 19.5306L17.2041 19.5306V30.5306ZM29.2041 30.5306H18.2041V19.5306H29.2041V30.5306ZM41.2041 30.5306L30.2041 30.5306V19.5306L41.2041 19.5306V30.5306ZM53.2041 30.5306H42.2041V19.5306H53.2041V30.5306ZM65.2041 30.5306L54.2041 30.5306V19.5306L65.2041 19.5306V30.5306ZM65.2041 18.5306V7.53061L54.2041 7.53061V18.5306L65.2041 18.5306ZM53.2041 18.5306V7.53061L42.2041 7.53061V18.5306H53.2041ZM41.2041 18.5306V7.53061L30.2041 7.53061L30.2041 18.5306L41.2041 18.5306ZM29.2041 18.5306L29.2041 7.53061L18.2041 7.53061L18.2041 18.5306H29.2041ZM17.2041 18.5306L17.2041 7.53061L6.2041 7.53061L6.2041 18.5306L17.2041 18.5306Z" fill="white" fill-opacity="0.5"/>
<path fill-rule="evenodd" clip-rule="evenodd" d="M54.7354 24.473V19.6097H52.7354V24.4449C44.3816 35.8838 27.2649 35.9562 18.781 24.5026L18.7354 24.4409V19.6097H16.7354V24.4691L5.52052 41.6097H4.73535V43.6097H6.49804L6.57244 43.6585L6.60435 43.6097H16.7354L16.7354 55.6097H18.7354L18.7354 43.6097H52.7354V55.6097H54.7354V43.6097H64.8686L64.8988 43.656L64.9697 43.6097H65.7354V43.1097L66.5718 42.5635L54.7354 24.473ZM7.91291 41.6097L16.7354 28.1256L16.7354 41.6097H7.91291ZM18.7354 27.5859L18.7354 41.6097H22.7354V31.06C21.3032 30.0818 19.959 28.9239 18.7354 27.5859ZM24.7354 32.2801V41.6097H28.7354V33.9769C27.362 33.5424 26.0219 32.9769 24.7354 32.2801ZM30.7354 34.5124V41.6097H34.7354V35.0362C33.3925 34.9775 32.0535 34.803 30.7354 34.5124ZM40.7354 41.6097H36.7354V35.038C38.0789 34.9817 39.4178 34.8095 40.7354 34.5215V41.6097ZM42.7354 41.6097H46.7354V32.2995C45.4498 32.9938 44.1096 33.5572 42.7354 33.9896V41.6097ZM52.7354 41.6097H48.7354V31.0818C50.1699 30.1033 51.5143 28.9445 52.7354 27.6057V41.6097ZM54.7354 41.6097V28.1223L63.56 41.6097H54.7354Z" fill="white"/>
</svg>
