<svg width="71" height="72" viewBox="0 0 71 72" fill="none" xmlns="http://www.w3.org/2000/svg">
<path fill-rule="evenodd" clip-rule="evenodd" d="M5.26562 0.530609L5.26562 6.53061L0.265625 6.53061L0.265625 7.53061L5.26562 7.53061L5.26562 18.5306H0.265625L0.265625 19.5306H5.26562L5.26562 30.5306H0.265625L0.265625 31.5306H5.26562L5.26562 42.5306H0.265625L0.265625 43.5306H5.26562L5.26562 54.5306H0.265625L0.265625 55.5306H5.26562L5.26562 66.0306H0.265625L0.265625 67.0306H5.26562L5.26562 71.0612H6.26562L6.26562 67.0306H17.2656V71.0612H18.2656V67.0306H29.2656V71.0612H30.2656V67.0306L41.2656 67.0306V71.0612H42.2656V67.0306H53.2656V71.0612H54.2656V67.0306H65.2657V71.0612H66.2657V67.0306H70.7962V66.0306H66.2657L66.2657 55.5306H70.7962V54.5306H66.2657V43.5306H70.7962V42.5306H66.2657V31.5306H70.7962V30.5306H66.2657V19.5306H70.7962V18.5306H66.2657V7.53061L70.7962 7.53061V6.53061L66.2657 6.53061V0.530609H65.2657V6.53061L54.2657 6.53061V0.530609H53.2657V6.53061L42.2656 6.53061V0.530609H41.2656V6.53061L30.2656 6.53061V0.530609H29.2656V6.53061L18.2656 6.53061V0.530609H17.2656V6.53061L6.26562 6.53061L6.26562 0.530609L5.26562 0.530609ZM65.2657 66.0306L65.2657 55.5306L54.2657 55.5306L54.2656 66.0306H65.2657ZM53.2656 66.0306L53.2657 55.5306L42.2656 55.5306L42.2656 66.0306H53.2656ZM41.2656 66.0306L41.2656 55.5306H30.2656L30.2656 66.0306L41.2656 66.0306ZM29.2656 66.0306L29.2656 55.5306H18.2656L18.2656 66.0306H29.2656ZM17.2656 66.0306L17.2656 55.5306H6.26562L6.26562 66.0306H17.2656ZM17.2656 54.5306H6.26562L6.26562 43.5306H17.2656V54.5306ZM29.2656 54.5306H18.2656V43.5306H29.2656V54.5306ZM41.2656 54.5306H30.2656V43.5306H41.2656V54.5306ZM53.2657 54.5306L42.2656 54.5306V43.5306L53.2657 43.5306V54.5306ZM65.2657 54.5306L54.2657 54.5306V43.5306L65.2657 43.5306V54.5306ZM65.2657 42.5306V31.5306L54.2657 31.5306L54.2657 42.5306L65.2657 42.5306ZM53.2657 42.5306L53.2657 31.5306H42.2656V42.5306L53.2657 42.5306ZM41.2656 42.5306V31.5306L30.2656 31.5306L30.2656 42.5306H41.2656ZM29.2656 42.5306L29.2656 31.5306H18.2656L18.2656 42.5306H29.2656ZM17.2656 42.5306L17.2656 31.5306L6.26562 31.5306L6.26562 42.5306H17.2656ZM17.2656 30.5306L6.26562 30.5306L6.26562 19.5306L17.2656 19.5306V30.5306ZM29.2656 30.5306H18.2656V19.5306H29.2656V30.5306ZM41.2656 30.5306L30.2656 30.5306V19.5306L41.2656 19.5306V30.5306ZM53.2657 30.5306H42.2656V19.5306H53.2657V30.5306ZM65.2657 30.5306L54.2657 30.5306V19.5306L65.2657 19.5306V30.5306ZM65.2657 18.5306V7.53061L54.2657 7.53061V18.5306L65.2657 18.5306ZM53.2657 18.5306V7.53061L42.2656 7.53061V18.5306H53.2657ZM41.2656 18.5306V7.53061L30.2656 7.53061L30.2656 18.5306L41.2656 18.5306ZM29.2656 18.5306L29.2656 7.53061L18.2656 7.53061L18.2656 18.5306H29.2656ZM17.2656 18.5306L17.2656 7.53061L6.26562 7.53061L6.26562 18.5306L17.2656 18.5306Z" fill="white" fill-opacity="0.5"/>
<path d="M11.7969 37.6097V36.6097H10.7969V37.6097H11.7969ZM35.7969 37.6097H36.7969V36.6097H35.7969V37.6097ZM35.7969 61.6097V62.6097H36.7969V61.6097H35.7969ZM11.7969 61.6097H10.7969V62.6097H11.7969V61.6097ZM11.7969 38.6097H35.7969V36.6097H11.7969V38.6097ZM34.7969 37.6097V61.6097H36.7969V37.6097H34.7969ZM35.7969 60.6097H11.7969V62.6097H35.7969V60.6097ZM12.7969 61.6097V37.6097H10.7969V61.6097H12.7969Z" fill="white"/>
<path d="M23.7969 24.6097V23.6097H22.7969V24.6097H23.7969ZM47.7969 24.6097H48.7969V23.6097H47.7969V24.6097ZM47.7969 48.6097V49.6097H48.7969V48.6097H47.7969ZM23.7969 48.6097H22.7969V49.6097H23.7969V48.6097ZM23.7969 25.6097H47.7969V23.6097H23.7969V25.6097ZM46.7969 24.6097V48.6097H48.7969V24.6097H46.7969ZM47.7969 47.6097H23.7969V49.6097H47.7969V47.6097ZM24.7969 48.6097V24.6097H22.7969V48.6097H24.7969Z" fill="white"/>
<path d="M36.7969 12.6097V11.6097H35.7969V12.6097H36.7969ZM60.7969 12.6097H61.7969V11.6097H60.7969V12.6097ZM60.7969 36.6097V37.6097H61.7969V36.6097H60.7969ZM36.7969 36.6097H35.7969V37.6097H36.7969V36.6097ZM36.7969 13.6097H60.7969V11.6097H36.7969V13.6097ZM59.7969 12.6097V36.6097H61.7969V12.6097H59.7969ZM60.7969 35.6097H36.7969V37.6097H60.7969V35.6097ZM37.7969 36.6097V12.6097H35.7969V36.6097H37.7969Z" fill="white"/>
</svg>
