<svg width="71" height="71" viewBox="0 0 71 71" fill="none" xmlns="http://www.w3.org/2000/svg">
<path fill-rule="evenodd" clip-rule="evenodd" d="M5.46973 0L5.46973 6L0.469727 6L0.469727 7L5.46973 7L5.46973 18H0.469727L0.469727 19H5.46973L5.46972 30H0.469727L0.469727 31H5.46972L5.46972 42H0.469727L0.469727 43H5.46972L5.46972 54H0.469727L0.469727 55H5.46972L5.46972 65.5H0.469727L0.469727 66.5H5.46972L5.46972 70.5306H6.46972L6.46972 66.5H17.4697V70.5306H18.4697V66.5H29.4697V70.5306H30.4697V66.5L41.4697 66.5V70.5306H42.4697V66.5H53.4697V70.5306H54.4697V66.5H65.4698V70.5306H66.4698V66.5H71.0003V65.5H66.4698L66.4698 55H71.0003V54H66.4698V43H71.0003V42H66.4698V31H71.0003V30H66.4698V19H71.0003V18H66.4698V7.00001L71.0003 7.00001V6.00001L66.4698 6.00001V0L65.4698 0V6.00001L54.4698 6V0L53.4698 0V6L42.4697 6V0L41.4697 0V6L30.4697 6V0L29.4697 0V6L18.4697 6V0L17.4697 0V6L6.46973 6L6.46973 0L5.46973 0ZM65.4698 65.5L65.4698 55L54.4698 55L54.4697 65.5H65.4698ZM53.4697 65.5L53.4698 55L42.4697 55L42.4697 65.5H53.4697ZM41.4697 65.5L41.4697 55H30.4697L30.4697 65.5L41.4697 65.5ZM29.4697 65.5L29.4697 55H18.4697L18.4697 65.5H29.4697ZM17.4697 65.5L17.4697 55H6.46972L6.46972 65.5H17.4697ZM17.4697 54H6.46972L6.46972 43H17.4697V54ZM29.4697 54H18.4697V43H29.4697V54ZM41.4697 54H30.4697V43H41.4697V54ZM53.4698 54L42.4697 54V43L53.4698 43V54ZM65.4698 54L54.4698 54V43L65.4698 43V54ZM65.4698 42V31L54.4698 31L54.4698 42L65.4698 42ZM53.4698 42L53.4698 31H42.4697V42L53.4698 42ZM41.4697 42V31L30.4697 31L30.4697 42H41.4697ZM29.4697 42L29.4697 31H18.4697L18.4697 42H29.4697ZM17.4697 42L17.4697 31L6.46972 31L6.46972 42H17.4697ZM17.4697 30L6.46972 30L6.46973 19L17.4697 19V30ZM29.4697 30H18.4697V19H29.4697V30ZM41.4697 30L30.4697 30V19L41.4697 19V30ZM53.4698 30H42.4697V19H53.4698V30ZM65.4698 30L54.4698 30V19L65.4698 19V30ZM65.4698 18V7.00001L54.4698 7V18L65.4698 18ZM53.4698 18V7L42.4697 7V18H53.4698ZM41.4697 18V7L30.4697 7L30.4697 18L41.4697 18ZM29.4697 18L29.4697 7L18.4697 7L18.4697 18H29.4697ZM17.4697 18L17.4697 7L6.46973 7L6.46973 18L17.4697 18Z" fill="white" fill-opacity="0.5"/>
<mask id="path-2-inside-1" fill="white">
<path fill-rule="evenodd" clip-rule="evenodd" d="M30.667 24.6097C30.667 28.4757 27.533 31.6097 23.667 31.6097C19.801 31.6097 16.667 28.4757 16.667 24.6097C16.667 20.7437 19.801 17.6097 23.667 17.6097C27.533 17.6097 30.667 20.7437 30.667 24.6097ZM54.667 48.6097C54.667 52.4757 51.533 55.6097 47.667 55.6097C43.801 55.6097 40.667 52.4757 40.667 48.6097C40.667 44.7437 43.801 41.6097 47.667 41.6097C51.533 41.6097 54.667 44.7437 54.667 48.6097ZM53.667 17.6097L17.667 53.6097L19.0812 55.024L55.0812 19.024L53.667 17.6097Z"/>
</mask>
<path d="M17.667 53.6097L16.2528 52.1955L14.8386 53.6097L16.2528 55.024L17.667 53.6097ZM53.667 17.6097L55.0812 16.1955L53.667 14.7813L52.2528 16.1955L53.667 17.6097ZM19.0812 55.024L17.667 56.4382L19.0812 57.8524L20.4954 56.4382L19.0812 55.024ZM55.0812 19.024L56.4954 20.4382L57.9096 19.024L56.4954 17.6097L55.0812 19.024ZM23.667 33.6097C28.6376 33.6097 32.667 29.5803 32.667 24.6097H28.667C28.667 27.3712 26.4284 29.6097 23.667 29.6097V33.6097ZM14.667 24.6097C14.667 29.5803 18.6964 33.6097 23.667 33.6097V29.6097C20.9056 29.6097 18.667 27.3712 18.667 24.6097H14.667ZM23.667 15.6097C18.6964 15.6097 14.667 19.6392 14.667 24.6097H18.667C18.667 21.8483 20.9056 19.6097 23.667 19.6097V15.6097ZM32.667 24.6097C32.667 19.6392 28.6376 15.6097 23.667 15.6097V19.6097C26.4284 19.6097 28.667 21.8483 28.667 24.6097H32.667ZM47.667 57.6097C52.6376 57.6097 56.667 53.5803 56.667 48.6097H52.667C52.667 51.3712 50.4284 53.6097 47.667 53.6097V57.6097ZM38.667 48.6097C38.667 53.5803 42.6964 57.6097 47.667 57.6097V53.6097C44.9056 53.6097 42.667 51.3712 42.667 48.6097H38.667ZM47.667 39.6097C42.6964 39.6097 38.667 43.6392 38.667 48.6097H42.667C42.667 45.8483 44.9056 43.6097 47.667 43.6097V39.6097ZM56.667 48.6097C56.667 43.6392 52.6376 39.6097 47.667 39.6097V43.6097C50.4284 43.6097 52.667 45.8483 52.667 48.6097H56.667ZM19.0812 55.024L55.0812 19.024L52.2528 16.1955L16.2528 52.1955L19.0812 55.024ZM20.4954 53.6097L19.0812 52.1955L16.2528 55.024L17.667 56.4382L20.4954 53.6097ZM53.667 17.6097L17.667 53.6097L20.4954 56.4382L56.4954 20.4382L53.667 17.6097ZM52.2528 19.024L53.667 20.4382L56.4954 17.6097L55.0812 16.1955L52.2528 19.024Z" fill="white" mask="url(#path-2-inside-1)"/>
</svg>
