<svg width="72" height="71" viewBox="0 0 72 71" fill="none" xmlns="http://www.w3.org/2000/svg">
<path fill-rule="evenodd" clip-rule="evenodd" d="M5.5 0.0612183L5.5 6.06122L0.5 6.06122L0.5 7.06122L5.5 7.06122L5.5 18.0612H0.5L0.5 19.0612H5.5L5.5 30.0612H0.5L0.5 31.0612H5.5L5.5 42.0612H0.5L0.5 43.0612H5.5L5.5 54.0612H0.5L0.5 55.0612H5.5L5.49999 65.5612H0.5V66.5612H5.49999L5.49999 70.5918H6.49999L6.49999 66.5612H17.5V70.5918H18.5V66.5612H29.5V70.5918H30.5V66.5612L41.5 66.5613V70.5918H42.5V66.5613H53.5V70.5918H54.5V66.5613H65.5V70.5918H66.5V66.5613H71.0306V65.5613H66.5L66.5 55.0612H71.0306V54.0612H66.5V43.0612H71.0306V42.0612H66.5V31.0612H71.0306V30.0612H66.5V19.0612H71.0306V18.0612H66.5V7.06122L71.0306 7.06122V6.06122L66.5 6.06122V0.0612183L65.5 0.0612183V6.06122L54.5 6.06122V0.0612183L53.5 0.0612183V6.06122L42.5 6.06122V0.0612183L41.5 0.0612183V6.06122L30.5 6.06122V0.0612183L29.5 0.0612183V6.06122L18.5 6.06122V0.0612183L17.5 0.0612183V6.06122L6.5 6.06122L6.5 0.0612183L5.5 0.0612183ZM65.5 65.5613L65.5 55.0612L54.5 55.0612L54.5 65.5613H65.5ZM53.5 65.5613L53.5 55.0612L42.5 55.0612L42.5 65.5613H53.5ZM41.5 65.5613L41.5 55.0612H30.5L30.5 65.5612L41.5 65.5613ZM29.5 65.5612L29.5 55.0612H18.5L18.5 65.5612H29.5ZM17.5 65.5612L17.5 55.0612H6.5L6.49999 65.5612H17.5ZM17.5 54.0612H6.5L6.5 43.0612H17.5V54.0612ZM29.5 54.0612H18.5V43.0612H29.5V54.0612ZM41.5 54.0612H30.5V43.0612H41.5V54.0612ZM53.5 54.0612L42.5 54.0612V43.0612L53.5 43.0612V54.0612ZM65.5 54.0612L54.5 54.0612V43.0612L65.5 43.0612V54.0612ZM65.5 42.0612V31.0612L54.5 31.0612L54.5 42.0612L65.5 42.0612ZM53.5 42.0612L53.5 31.0612H42.5V42.0612L53.5 42.0612ZM41.5 42.0612V31.0612L30.5 31.0612L30.5 42.0612H41.5ZM29.5 42.0612L29.5 31.0612H18.5L18.5 42.0612H29.5ZM17.5 42.0612L17.5 31.0612L6.5 31.0612L6.5 42.0612H17.5ZM17.5 30.0612L6.5 30.0612L6.5 19.0612L17.5 19.0612V30.0612ZM29.5 30.0612H18.5V19.0612H29.5V30.0612ZM41.5 30.0612L30.5 30.0612V19.0612L41.5 19.0612V30.0612ZM53.5 30.0612H42.5V19.0612H53.5V30.0612ZM65.5 30.0612L54.5 30.0612V19.0612L65.5 19.0612V30.0612ZM65.5 18.0612V7.06122L54.5 7.06122V18.0612L65.5 18.0612ZM53.5 18.0612V7.06122L42.5 7.06122V18.0612H53.5ZM41.5 18.0612V7.06122L30.5 7.06122L30.5 18.0612L41.5 18.0612ZM29.5 18.0612L29.5 7.06122L18.5 7.06122L18.5 18.0612H29.5ZM17.5 18.0612L17.5 7.06122L6.5 7.06122L6.5 18.0612L17.5 18.0612Z" fill="white" fill-opacity="0.5"/>
<path d="M54.5023 20.1203C54.3704 19.584 53.8288 19.2561 53.2925 19.388L44.5528 21.5371C44.0165 21.669 43.6887 22.2106 43.8205 22.747C43.9524 23.2833 44.4941 23.6111 45.0304 23.4792L52.799 21.5689L54.7093 29.3375C54.8412 29.8738 55.3828 30.2017 55.9191 30.0698C56.4554 29.9379 56.7833 29.3962 56.6514 28.8599L54.5023 20.1203ZM29.5088 33.1427L30.3409 33.6974L29.5088 33.1427ZM41.6852 37.9995L31.3486 31.9698L30.3409 33.6974L40.6775 39.7271L41.6852 37.9995ZM28.6768 32.588L17.1992 49.8044L18.8633 50.9138L30.3409 33.6974L28.6768 32.588ZM52.6758 19.8413L41.6852 37.9995L43.3962 39.0351L54.3868 20.8769L52.6758 19.8413ZM31.3486 31.9698C30.4347 31.4367 29.2637 31.7076 28.6768 32.588L30.3409 33.6974L30.3409 33.6974L31.3486 31.9698ZM40.6775 39.7271C41.6207 40.2773 42.8308 39.9693 43.3962 39.0351L41.6852 37.9995L40.6775 39.7271Z" fill="white"/>
</svg>
