 <svg width="71" height="71" viewBox="0 0 71 71" fill="none" xmlns="http://www.w3.org/2000/svg">
<path fill-rule="evenodd" clip-rule="evenodd" d="M5 0L5 6L0 6L0 7L5 7L5 18H0L0 19H5L5 30H0L0 31H5L5 42H0L0 43H5L5 54H0L0 55H5L4.99999 65.5H0L0 66.5H4.99999L4.99999 70.5306H5.99999L5.99999 66.5H17V70.5306H18V66.5H29V70.5306H30V66.5L41 66.5V70.5306H42V66.5H53V70.5306H54V66.5H65V70.5306H66V66.5H70.5306V65.5H66L66 55H70.5306V54H66V43H70.5306V42H66V31H70.5306V30H66V19H70.5306V18H66V7.00001L70.5306 7.00001V6.00001L66 6.00001V0L65 0V6.00001L54 6V0L53 0V6L42 6V0L41 0V6L30 6V0L29 0V6L18 6V0L17 0V6L6 6L6 0L5 0ZM65 65.5L65 55L54 55L54 65.5H65ZM53 65.5L53 55L42 55L42 65.5H53ZM41 65.5L41 55H30L30 65.5L41 65.5ZM29 65.5L29 55H18L18 65.5H29ZM17 65.5L17 55H6L5.99999 65.5H17ZM17 54H6L6 43H17V54ZM29 54H18V43H29V54ZM41 54H30V43H41V54ZM53 54L42 54V43L53 43V54ZM65 54L54 54V43L65 43V54ZM65 42V31L54 31L54 42L65 42ZM53 42L53 31H42V42L53 42ZM41 42V31L30 31L30 42H41ZM29 42L29 31H18L18 42H29ZM17 42L17 31L6 31L6 42H17ZM17 30L6 30L6 19L17 19V30ZM29 30H18V19H29V30ZM41 30L30 30V19L41 19V30ZM53 30H42V19H53V30ZM65 30L54 30V19L65 19V30ZM65 18V7.00001L54 7V18L65 18ZM53 18V7L42 7V18H53ZM41 18V7L30 7L30 18L41 18ZM29 18L29 7L18 7L18 18H29ZM17 18L17 7L6 7L6 18L17 18Z" fill="white" fill-opacity="0.5"/>
<path fill-rule="evenodd" clip-rule="evenodd" d="M52.8027 8.60974V41.6097H54.8027V8.60974H52.8027ZM16.8027 25.6097L16.8518 49.2195L18.8518 49.2154L18.8027 25.6056L16.8027 25.6097ZM28.8027 42.6097L28.8027 19.6097H30.8027L30.8027 42.6097H28.8027ZM40.8027 18.6097L40.8027 55.6097H42.8027L42.8027 18.6097H40.8027Z" fill="white"/>
</svg>
