<svg width="72" height="72" viewBox="0 0 72 72" fill="none" xmlns="http://www.w3.org/2000/svg">
<path fill-rule="evenodd" clip-rule="evenodd" d="M5.73437 0.530609L5.73437 6.53061L0.734375 6.53061L0.734375 7.53061L5.73437 7.53061L5.73437 18.5306H0.734375L0.734375 19.5306H5.73437L5.73437 30.5306H0.734375L0.734375 31.5306H5.73437L5.73437 42.5306H0.734375L0.734375 43.5306H5.73437L5.73437 54.5306H0.734375L0.734375 55.5306H5.73437L5.73437 66.0306H0.734375V67.0306H5.73437L5.73437 71.0612H6.73437L6.73437 67.0306H17.7344V71.0612H18.7344V67.0306H29.7344V71.0612H30.7344V67.0306L41.7344 67.0306V71.0612H42.7344V67.0306H53.7344V71.0612H54.7344V67.0306H65.7344V71.0612H66.7344V67.0306H71.265V66.0306H66.7344V55.5306H71.265V54.5306H66.7344V43.5306H71.265V42.5306H66.7344V31.5306H71.265V30.5306H66.7344V19.5306H71.265V18.5306H66.7344V7.53061L71.265 7.53061V6.53061L66.7344 6.53061V0.530609H65.7344V6.53061L54.7344 6.53061V0.530609H53.7344V6.53061L42.7344 6.53061V0.530609H41.7344V6.53061L30.7344 6.53061V0.530609H29.7344V6.53061L18.7344 6.53061V0.530609H17.7344V6.53061L6.73437 6.53061L6.73437 0.530609L5.73437 0.530609ZM65.7344 66.0306V55.5306L54.7344 55.5306L54.7344 66.0306H65.7344ZM53.7344 66.0306L53.7344 55.5306L42.7344 55.5306L42.7344 66.0306H53.7344ZM41.7344 66.0306L41.7344 55.5306H30.7344L30.7344 66.0306L41.7344 66.0306ZM29.7344 66.0306L29.7344 55.5306H18.7344L18.7344 66.0306H29.7344ZM17.7344 66.0306L17.7344 55.5306H6.73437L6.73437 66.0306H17.7344ZM17.7344 54.5306H6.73437L6.73437 43.5306H17.7344V54.5306ZM29.7344 54.5306H18.7344V43.5306H29.7344V54.5306ZM41.7344 54.5306H30.7344V43.5306H41.7344V54.5306ZM53.7344 54.5306L42.7344 54.5306V43.5306L53.7344 43.5306V54.5306ZM65.7344 54.5306L54.7344 54.5306V43.5306L65.7344 43.5306V54.5306ZM65.7344 42.5306V31.5306L54.7344 31.5306L54.7344 42.5306L65.7344 42.5306ZM53.7344 42.5306L53.7344 31.5306H42.7344L42.7344 42.5306L53.7344 42.5306ZM41.7344 42.5306L41.7344 31.5306L30.7344 31.5306L30.7344 42.5306H41.7344ZM29.7344 42.5306L29.7344 31.5306H18.7344L18.7344 42.5306H29.7344ZM17.7344 42.5306L17.7344 31.5306L6.73437 31.5306L6.73437 42.5306H17.7344ZM17.7344 30.5306L6.73437 30.5306L6.73437 19.5306L17.7344 19.5306V30.5306ZM29.7344 30.5306H18.7344V19.5306H29.7344V30.5306ZM41.7344 30.5306L30.7344 30.5306V19.5306L41.7344 19.5306V30.5306ZM53.7344 30.5306H42.7344V19.5306H53.7344V30.5306ZM65.7344 30.5306L54.7344 30.5306V19.5306L65.7344 19.5306V30.5306ZM65.7344 18.5306V7.53061L54.7344 7.53061V18.5306L65.7344 18.5306ZM53.7344 18.5306V7.53061L42.7344 7.53061V18.5306H53.7344ZM41.7344 18.5306V7.53061L30.7344 7.53061L30.7344 18.5306L41.7344 18.5306ZM29.7344 18.5306L29.7344 7.53061L18.7344 7.53061L18.7344 18.5306H29.7344ZM17.7344 18.5306L17.7344 7.53061L6.73437 7.53061L6.73437 18.5306L17.7344 18.5306Z" fill="#7C9891" fill-opacity="0.5"/>
<path fill-rule="evenodd" clip-rule="evenodd" d="M34.9848 17.9056C35.7265 17.2875 36.8039 17.2875 37.5456 17.9056L66.9054 42.3721L65.625 43.9086L36.2652 19.442L6.90537 43.9086L5.625 42.3721L34.9848 17.9056Z" fill="#B7C7C3"/>
</svg>
