<svg xmlns="http://www.w3.org/2000/svg" width="1691" height="1172" viewBox="0 0 1691 1172" fill="none"><defs><linearGradient id="Gradient-0" x1="636" y1="944" x2="636" y2="1040" gradientUnits="userSpaceOnUse"><stop offset="0" stop-color="#637e77"/><stop offset="1" stop-color="#637e77" stop-opacity=".59"/></linearGradient><linearGradient id="Gradient-1" x1="636" y1="896" x2="636" y2="992" gradientUnits="userSpaceOnUse"><stop offset="0" stop-color="#637e77"/><stop offset="1" stop-color="#637e77" stop-opacity=".59"/></linearGradient><linearGradient id="Gradient-2" x1="26.5" y1="0" x2="1691" y2="1172" gradientUnits="userSpaceOnUse"><stop offset="0" stop-color="#202424"/><stop offset="1" stop-color="#363e3d"/></linearGradient><linearGradient id="Gradient-3" x1="1472.5" y1="223" x2="1472.5" y2="319" gradientUnits="userSpaceOnUse"><stop offset="0" stop-color="#637e77"/><stop offset="1" stop-color="#637e77" stop-opacity=".59"/></linearGradient><linearGradient id="Gradient-4" x1="635" y1="752" x2="635" y2="848" gradientUnits="userSpaceOnUse"><stop offset="0" stop-color="#637e77"/><stop offset="1" stop-color="#637e77" stop-opacity=".59"/></linearGradient><linearGradient id="Gradient-5" x1="635" y1="800" x2="635" y2="896" gradientUnits="userSpaceOnUse"><stop offset="0" stop-color="#637e77"/><stop offset="1" stop-color="#637e77" stop-opacity=".59"/></linearGradient><linearGradient id="Gradient-6" x1="1472.5" y1="175" x2="1472.5" y2="271" gradientUnits="userSpaceOnUse"><stop offset="0" stop-color="#637e77"/><stop offset="1" stop-color="#637e77" stop-opacity=".59"/></linearGradient><linearGradient id="Gradient-7" x1="1472.5" y1="127" x2="1472.5" y2="223" gradientUnits="userSpaceOnUse"><stop offset="0" stop-color="#637e77"/><stop offset="1" stop-color="#637e77" stop-opacity=".59"/></linearGradient><linearGradient id="Gradient-8" x1="1222.5" y1="512" x2="1222.5" y2="608" gradientUnits="userSpaceOnUse"><stop offset="0" stop-color="#637e77"/><stop offset="1" stop-color="#637e77" stop-opacity=".59"/></linearGradient><linearGradient id="Gradient-9" x1="1307" y1="414" x2="1307" y2="510" gradientUnits="userSpaceOnUse"><stop offset="0" stop-color="#637e77"/><stop offset="1" stop-color="#637e77" stop-opacity=".59"/></linearGradient><linearGradient id="Gradient-10" x1="1307" y1="366" x2="1307" y2="462" gradientUnits="userSpaceOnUse"><stop offset="0" stop-color="#637e77"/><stop offset="1" stop-color="#637e77" stop-opacity=".59"/></linearGradient><linearGradient id="Gradient-11" x1="1307" y1="318" x2="1307" y2="414" gradientUnits="userSpaceOnUse"><stop offset="0" stop-color="#637e77"/><stop offset="1" stop-color="#637e77" stop-opacity=".59"/></linearGradient><linearGradient id="Gradient-12" x1="1307" y1="462" x2="1307" y2="558" gradientUnits="userSpaceOnUse"><stop offset="0" stop-color="#637e77"/><stop offset="1" stop-color="#637e77" stop-opacity=".59"/></linearGradient><linearGradient id="Gradient-13" x1="1306.5" y1="752" x2="1306.5" y2="848" gradientUnits="userSpaceOnUse"><stop offset="0" stop-color="#637e77"/><stop offset="1" stop-color="#637e77" stop-opacity=".59"/></linearGradient><linearGradient id="Gradient-14" x1="1306.5" y1="656" x2="1306.5" y2="752" gradientUnits="userSpaceOnUse"><stop offset="0" stop-color="#637e77"/><stop offset="1" stop-color="#637e77" stop-opacity=".59"/></linearGradient><linearGradient id="Gradient-15" x1="1306.5" y1="704" x2="1306.5" y2="800" gradientUnits="userSpaceOnUse"><stop offset="0" stop-color="#637e77"/><stop offset="1" stop-color="#637e77" stop-opacity=".59"/></linearGradient><linearGradient id="Gradient-16" x1="1306.5" y1="800" x2="1306.5" y2="896" gradientUnits="userSpaceOnUse"><stop offset="0" stop-color="#637e77"/><stop offset="1" stop-color="#637e77" stop-opacity=".59"/></linearGradient><linearGradient id="Gradient-17" x1="971" y1="750" x2="971" y2="846" gradientUnits="userSpaceOnUse"><stop offset="0" stop-color="#637e77"/><stop offset="1" stop-color="#637e77" stop-opacity=".59"/></linearGradient><linearGradient id="Gradient-18" x1="1390.5" y1="560" x2="1390.5" y2="656" gradientUnits="userSpaceOnUse"><stop offset="0" stop-color="#637e77"/><stop offset="1" stop-color="#637e77" stop-opacity=".59"/></linearGradient><linearGradient id="Gradient-19" x1="1390" y1="512" x2="1390" y2="608" gradientUnits="userSpaceOnUse"><stop offset="0" stop-color="#637e77"/><stop offset="1" stop-color="#637e77" stop-opacity=".59"/></linearGradient><linearGradient id="Gradient-20" x1="1472.5" y1="367" x2="1472.5" y2="463" gradientUnits="userSpaceOnUse"><stop offset="0" stop-color="#637e77"/><stop offset="1" stop-color="#637e77" stop-opacity=".59"/></linearGradient><linearGradient id="Gradient-21" x1="1473" y1="319" x2="1473" y2="415" gradientUnits="userSpaceOnUse"><stop offset="0" stop-color="#637e77"/><stop offset="1" stop-color="#637e77" stop-opacity=".59"/></linearGradient><linearGradient id="Gradient-22" x1="1474.5" y1="560" x2="1474.5" y2="656" gradientUnits="userSpaceOnUse"><stop offset="0" stop-color="#637e77"/><stop offset="1" stop-color="#637e77" stop-opacity=".59"/></linearGradient><linearGradient id="Gradient-23" x1="216" y1="798" x2="216" y2="894" gradientUnits="userSpaceOnUse"><stop offset="0" stop-color="#637e77"/><stop offset="1" stop-color="#637e77" stop-opacity=".59"/></linearGradient><linearGradient id="Gradient-24" x1="300" y1="750" x2="300" y2="846" gradientUnits="userSpaceOnUse"><stop offset="0" stop-color="#637e77"/><stop offset="1" stop-color="#637e77" stop-opacity=".59"/></linearGradient><linearGradient id="Gradient-25" x1="300" y1="798" x2="300" y2="894" gradientUnits="userSpaceOnUse"><stop offset="0" stop-color="#637e77"/><stop offset="1" stop-color="#637e77" stop-opacity=".59"/></linearGradient><linearGradient id="Gradient-26" x1="971" y1="846" x2="971" y2="942" gradientUnits="userSpaceOnUse"><stop offset="0" stop-color="#637e77"/><stop offset="1" stop-color="#637e77" stop-opacity=".59"/></linearGradient><linearGradient id="Gradient-27" x1="971" y1="798" x2="971" y2="894" gradientUnits="userSpaceOnUse"><stop offset="0" stop-color="#637e77"/><stop offset="1" stop-color="#637e77" stop-opacity=".59"/></linearGradient><linearGradient id="Gradient-28" x1="1055" y1="798" x2="1055" y2="894" gradientUnits="userSpaceOnUse"><stop offset="0" stop-color="#637e77"/><stop offset="1" stop-color="#637e77" stop-opacity=".59"/></linearGradient><linearGradient id="Gradient-29" x1="971" y1="894" x2="971" y2="990" gradientUnits="userSpaceOnUse"><stop offset="0" stop-color="#637e77"/><stop offset="1" stop-color="#637e77" stop-opacity=".59"/></linearGradient><linearGradient id="Gradient-30" x1="216" y1="990" x2="216" y2="1086" gradientUnits="userSpaceOnUse"><stop offset="0" stop-color="#637e77"/><stop offset="1" stop-color="#637e77" stop-opacity=".59"/></linearGradient><linearGradient id="Gradient-31" x1="216" y1="942" x2="216" y2="1038" gradientUnits="userSpaceOnUse"><stop offset="0" stop-color="#637e77"/><stop offset="1" stop-color="#637e77" stop-opacity=".59"/></linearGradient><linearGradient id="Gradient-32" x1="300" y1="942" x2="300" y2="1038" gradientUnits="userSpaceOnUse"><stop offset="0" stop-color="#637e77"/><stop offset="1" stop-color="#637e77" stop-opacity=".59"/></linearGradient><linearGradient id="Gradient-33" x1="216" y1="1038" x2="216" y2="1134" gradientUnits="userSpaceOnUse"><stop offset="0" stop-color="#637e77"/><stop offset="1" stop-color="#637e77" stop-opacity=".59"/></linearGradient><linearGradient id="Gradient-34" x1="1139" y1="846" x2="1139" y2="942" gradientUnits="userSpaceOnUse"><stop offset="0" stop-color="#637e77"/><stop offset="1" stop-color="#637e77" stop-opacity=".59"/></linearGradient><linearGradient id="Gradient-35" x1="1139" y1="750" x2="1139" y2="846" gradientUnits="userSpaceOnUse"><stop offset="0" stop-color="#637e77"/><stop offset="1" stop-color="#637e77" stop-opacity=".59"/></linearGradient><linearGradient id="Gradient-36" x1="1139" y1="798" x2="1139" y2="894" gradientUnits="userSpaceOnUse"><stop offset="0" stop-color="#637e77"/><stop offset="1" stop-color="#637e77" stop-opacity=".59"/></linearGradient><linearGradient id="Gradient-37" x1="1558" y1="512" x2="1558" y2="608" gradientUnits="userSpaceOnUse"><stop offset="0" stop-color="#637e77"/><stop offset="1" stop-color="#637e77" stop-opacity=".59"/></linearGradient><linearGradient id="Gradient-38" x1="1474.5" y1="656" x2="1474.5" y2="752" gradientUnits="userSpaceOnUse"><stop offset="0" stop-color="#637e77"/><stop offset="1" stop-color="#637e77" stop-opacity=".59"/></linearGradient><linearGradient id="Gradient-39" x1="1474.5" y1="608" x2="1474.5" y2="704" gradientUnits="userSpaceOnUse"><stop offset="0" stop-color="#637e77"/><stop offset="1" stop-color="#637e77" stop-opacity=".59"/></linearGradient><linearGradient id="Gradient-40" x1="1558" y1="608" x2="1558" y2="704" gradientUnits="userSpaceOnUse"><stop offset="0" stop-color="#637e77"/><stop offset="1" stop-color="#637e77" stop-opacity=".59"/></linearGradient><linearGradient id="Gradient-41" x1="1558" y1="560" x2="1558" y2="656" gradientUnits="userSpaceOnUse"><stop offset="0" stop-color="#637e77"/><stop offset="1" stop-color="#637e77" stop-opacity=".59"/></linearGradient></defs><style>
@keyframes a0_t { 0% { transform: translate(0px,0px); } 19.898% { transform: translate(0px,0px); } 100% { transform: translate(0px,0px); } }
@keyframes a1_t { 0% { transform: translate(1691px,0px); } 47.959% { transform: translate(1691px,0px); animation-timing-function: cubic-bezier(.9,0,.1,1); } 94.388% { transform: translate(1430.5px,175px); } 100% { transform: translate(1430.5px,175px); } }
@keyframes a2_t { 0% { transform: translate(1097px,-743px); } 4.082% { transform: translate(1097px,-743px); animation-timing-function: cubic-bezier(.9,0,.1,1); } 44.898% { transform: translate(1096.5px,464px); } 100% { transform: translate(1096.5px,464px); } }
@keyframes a3_t { 0% { transform: translate(761px,1398px); } 19.388% { transform: translate(761px,1398px); animation-timing-function: cubic-bezier(.9,0,.1,1); } 65.306% { transform: translate(761px,752px); } 100% { transform: translate(761px,752px); } }
@keyframes a4_t { 0% { transform: translate(-756px,430px); animation-timing-function: cubic-bezier(.9,0,.1,1); } 23.469% { transform: translate(0px,0px); } 100% { transform: translate(0px,0px); } }
@keyframes a5_t { 0% { transform: translate(-205px,366px); } 35.714% { transform: translate(-205px,366px); animation-timing-function: cubic-bezier(.9,0,.1,1); } 75.51% { transform: translate(342px,702px); } 100% { transform: translate(342px,702px); } }
@keyframes a6_t { 0% { transform: translate(-163px,1421px); } 9.694% { transform: translate(-163px,1421px); animation-timing-function: cubic-bezier(.9,0,.1,1); } 33.673% { transform: translate(593px,992px); } 100% { transform: translate(593px,992px); } }
@keyframes a7_t { 0% { transform: translate(1879px,-216px); } 26.02% { transform: translate(1879px,-216px); animation-timing-function: cubic-bezier(.9,0,.1,1); } 62.245% { transform: translate(1265px,127px); } 100% { transform: translate(1265px,127px); } }
@keyframes a8_t { 0% { transform: translate(1180.5px,-553px); } 46.939% { transform: translate(1180.5px,-553px); animation-timing-function: cubic-bezier(.9,0,.1,1); } 100% { transform: translate(1180.5px,176px); } }
@keyframes a9_t { 0% { transform: translate(1096.5px,-970px); } 41.837% { transform: translate(1096.5px,-970px); animation-timing-function: cubic-bezier(.9,0,.1,1); } 84.184% { transform: translate(1096.5px,224px); } 100% { transform: translate(1096.5px,224px); } }
@keyframes a10_t { 0% { transform: translate(2511.5px,-239.5px); } 60.204% { transform: translate(2511.5px,-239.5px); animation-timing-function: cubic-bezier(.9,0,.1,1); } 95.918% { transform: translate(1598.5px,271px); } 100% { transform: translate(1598.5px,271px); } }
@keyframes a11_t { 0% { transform: translate(1902px,1040px); } 9.694% { transform: translate(1902px,1040px); animation-timing-function: cubic-bezier(.9,0,.1,1); } 51.02% { transform: translate(1180.5px,512px); } 100% { transform: translate(1180.5px,512px); } }
@keyframes a12_t { 0% { transform: translate(1264.5px,1230px); } 62.245% { transform: translate(1264.5px,1230px); animation-timing-function: cubic-bezier(.9,0,.1,1); } 92.347% { transform: translate(1264.5px,270px); } 100% { transform: translate(1264.5px,270px); } }
@keyframes a13_t { 0% { transform: translate(845px,1373px); } 34.694% { transform: translate(845px,1373px); animation-timing-function: cubic-bezier(.9,0,.1,1); } 89.286% { transform: translate(845px,702px); } 100% { transform: translate(845px,702px); } }
@keyframes a14_t { 0% { transform: translate(425px,1328px); } 23.98% { transform: translate(425px,1328px); animation-timing-function: cubic-bezier(.9,0,.1,1); } 63.776% { transform: translate(425px,750px); } 100% { transform: translate(425px,750px); } }
@keyframes a15_t { 0% { transform: translate(929px,1302px); } 7.143% { transform: translate(929px,1302px); animation-timing-function: cubic-bezier(.9,0,.1,1); } 40.816% { transform: translate(929px,654px); } 100% { transform: translate(929px,654px); } }
@keyframes a16_t { 0% { transform: translate(1348px,-503px); } 23.98% { transform: translate(1348px,-503px); animation-timing-function: cubic-bezier(.9,0,.1,1); } 44.388% { transform: translate(1348px,272px); } 100% { transform: translate(1348px,272px); } }
@keyframes a17_t { 0% { transform: translate(1430.5px,1808px); } 9.694% { transform: translate(1430.5px,1808px); animation-timing-function: cubic-bezier(.9,0,.1,1); } 30.102% { transform: translate(1430.5px,319px); } 100% { transform: translate(1430.5px,319px); } }
@keyframes a18_t { 0% { transform: translate(-778px,1230px); } 1.531% { transform: translate(-778px,1230px); animation-timing-function: cubic-bezier(.9,0,.1,1); } 23.98% { transform: translate(5px,798px); } 100% { transform: translate(5px,798px); } }
@keyframes a19_t { 0% { transform: translate(-1581px,914px); } 16.837% { transform: translate(-1581px,914px); animation-timing-function: cubic-bezier(.9,0,.1,1); } 54.082% { transform: translate(0px,0px); } 100% { transform: translate(0px,0px); } }
@keyframes a20_t { 0% { transform: translate(-525.5px,1040px); } 9.694% { transform: translate(-525.5px,1040px); animation-timing-function: cubic-bezier(.9,0,.1,1); } 30.102% { transform: translate(89px,702px); } 100% { transform: translate(89px,702px); } }
@keyframes a21_t { 0% { transform: translate(2387px,-24px); animation-timing-function: cubic-bezier(.9,0,.1,1); } 20.408% { transform: translate(929px,798px); } 100% { transform: translate(929px,798px); } }
@keyframes a22_t { 0% { transform: translate(-272.5px,1302px); } 14.796% { transform: translate(-272.5px,1302px); animation-timing-function: cubic-bezier(.9,0,.1,1); } 35.204% { transform: translate(509px,848px); } 100% { transform: translate(509px,848px); } }
@keyframes a23_t { 0% { transform: translate(-567px,1328px); } 23.469% { transform: translate(-567px,1328px); animation-timing-function: cubic-bezier(.8,0,.2,1); } 43.877% { transform: translate(90px,942px); } 100% { transform: translate(90px,942px); } }
@keyframes a24_t { 0% { transform: translate(1817px,990px); } 7.143% { transform: translate(1817px,990px); animation-timing-function: cubic-bezier(.8,0,.2,1); } 27.551% { transform: translate(1097px,654px); } 100% { transform: translate(1097px,654px); } }
@keyframes a25_t { 0% { transform: translate(2004px,-18px); } 19.388% { transform: translate(2004px,-18px); animation-timing-function: cubic-bezier(.8,0,.2,1); } 44.388% { transform: translate(1515px,271px); } 100% { transform: translate(1515px,271px); } }
@keyframes a26_t { 0% { transform: translate(1817px,327px); } 9.694% { transform: translate(1817px,327px); animation-timing-function: cubic-bezier(.8,0,.2,1); } 39.286% { transform: translate(1348px,560px); } 100% { transform: translate(1348px,560px); } }
</style><g opacity=".8" transform="translate(594,944) translate(-594,-944)" style="animation: 19.6s linear both a0_t;"><path d="M678 992l-84-48v96l84-48Z" fill="url(#Gradient-0)"/><path d="M510 992l84-48v96l-84-48Z" fill="#a3b3af"/><path d="M678 896l-84-48v96l84-48Z" fill="#7b9690"/><path d="M510 896l84-48v96l-84-48Z" fill="#7b9690"/><path d="M594 944l84-48v96l-84-48Z" fill="url(#Gradient-1)"/><path d="M594 944l-84-48v96l84-48Z" fill="#a3b3af"/></g><g transform="translate(-315,0)"><rect width="1691" height="1172" fill="url(#Gradient-2)" transform="translate(315,0)"/><path d="M497 1177l1534-876" stroke="#fff" stroke-opacity=".12" stroke-width="3"/><path d="M1748 1172v-1172" stroke="#fff" stroke-opacity=".12" stroke-width="3"/><path d="M1664 1172v-1172" stroke="#fff" stroke-opacity=".12" stroke-width="3"/><path d="M1580 1172v-1172" stroke="#fff" stroke-opacity=".12" stroke-width="3"/><path d="M1496 1172v-1172" stroke="#fff" stroke-opacity=".12" stroke-width="3"/><path d="M1412 1172v-1172" stroke="#fff" stroke-opacity=".12" stroke-width="3"/><path d="M844 1172l1186-677" stroke="#fff" stroke-opacity=".12" stroke-width="3"/><path d="M1012 1172l1018-583" stroke="#fff" stroke-opacity=".12" stroke-width="3"/><path d="M1177 1172l855-488" stroke="#fff" stroke-opacity=".12" stroke-width="3"/><path d="M676 1172l1354-773" stroke="#fff" stroke-opacity=".12" stroke-width="3"/><path d="M335 1172l1695-967" stroke="#fff" stroke-opacity=".12" stroke-width="3"/><path d="M0 1172l2030-1158" stroke="#fff" stroke-opacity=".12" stroke-width="2"/><path d="M169 1172l1861-1063" stroke="#fff" stroke-opacity=".12" stroke-width="3"/></g><g transform="translate(1775,72) translate(-84,-72)" style="animation: 19.6s linear both a1_t;"><path opacity=".7" d="M84 48l84-48v96l-84-48Z" fill="#182022"/><path opacity=".7" d="M168 96l-84-48v96l84-48Z" fill="#182022"/><path opacity=".7" d="M1430.5 271l84-48v96l-84-48Z" fill="url(#Gradient-3)" transform="translate(-1430.5,-175)"/></g><g transform="translate(1139,-623) translate(-42,-120)" style="animation: 19.6s linear both a2_t;"><path d="M0 192l84-48v96l-84-48Z" fill="#a3b3af"/><path d="M0 96l84-48v96l-84-48Z" fill="#7b9690"/><path d="M84 48l-84-48v96l84-48Z" fill="#a3b3af"/><path d="M84 144l-84-48v96l84-48Z" fill="#a3b3af"/></g><g transform="translate(803,1542) translate(-42,-144)" style="animation: 19.6s linear both a3_t;"><path d="M0 96l84-48v96l-84-48Z" fill="#151c1f" fill-opacity=".65"/><path d="M0 192l84-48v96l-84-48Z" fill="#151c1f" fill-opacity=".65"/><path d="M84 240l-84-48v96l84-48Z" fill="#394140"/><path d="M84 48l-84-48v96l84-48Z" fill="#151c1f" fill-opacity=".65"/><path d="M84 144l-84-48v96l84-48Z" fill="#151c1f" fill-opacity=".65"/></g><g opacity=".4" transform="translate(-79,1302) translate(-677,-872)" style="animation: 19.6s linear both a4_t;"><path d="M677 992l84-48v96l-84-48Z" fill="#25464f" fill-opacity=".45"/><path d="M677 800l84-48v96l-84-48Z" fill="#25464f" fill-opacity=".45"/><path d="M677 800l-84-48v96l84-48Z" fill="url(#Gradient-4)"/><path d="M677 896l84-48v96l-84-48Z" fill="#25464f" fill-opacity=".45"/><path d="M761 848l-84-48v96l84-48Z" fill="#25464f" fill-opacity=".45"/><path d="M761 944l-84-48v96l84-48Z" fill="#25464f" fill-opacity=".45"/><path d="M593 848l84-48v96l-84-48Z" fill="url(#Gradient-5)"/><path d="M761 752l-84-48v96l84-48Z" fill="#394140"/><path d="M593 752l84-48v96l-84-48Z" fill="#394140"/></g><g transform="translate(-163,534) translate(-42,-168)" style="animation: 19.6s linear both a5_t;"><path d="M0 288l84-48v96l-84-48Z" fill="#25464f" fill-opacity=".45"/><path d="M0 96l84-48v96l-84-48Z" fill="#25464f" fill-opacity=".45"/><path d="M0 192l84-48v96l-84-48Z" fill="#25464f" fill-opacity=".45"/><path d="M84 144l-84-48v96l84-48Z" fill="#25464f" fill-opacity=".45"/><path d="M84 240l-84-48v96l84-48Z" fill="#25464f" fill-opacity=".45"/><path d="M84 48l-84-48v96l84-48Z" fill="#394140"/></g><g transform="translate(-79,1469) translate(-84,-48)" style="animation: 19.6s linear both a6_t;"><path d="M168 48l-84-48v96l84-48Z" fill="#3a5257"/><path d="M0 48l84-48v96l-84-48Z" fill="#3a5257"/></g><g transform="translate(2045.8,-119.5) translate(-166.8,-96.5)" style="animation: 19.6s linear both a7_t;"><path opacity=".7" d="M1514.5 223l-84-48v96l84-48Z" fill="url(#Gradient-6)" transform="translate(-1265,-127)"/><path opacity=".7" d="M81.5 96l84-48v96l-84-48Z" fill="#25464f" fill-opacity=".45"/><path opacity=".7" d="M333.5 48l-84-48v96l84-48Z" fill="#182022"/><path d="M1430.5 175l84-48v96l-84-48Z" fill="url(#Gradient-7)" transform="translate(-1265,-127)"/><path d="M167 145l-84-48v96l84-48Z" fill="#151c1f" fill-opacity=".65"/><path d="M0 143l84-48v96l-84-48Z" fill="#151c1f" fill-opacity=".65"/><path d="M84 95l-84-48v96l84-48Z" fill="#151c1f" fill-opacity=".65"/></g><g transform="translate(1222.5,-361) translate(-42,-192)" style="animation: 19.6s linear both a8_t;"><path d="M84 288l-84-48v96l84-48Z" fill="#394140"/><path d="M84 96l-84-48v96l84-48Z" fill="#394140"/><path d="M84 192l-84-48v96l84-48Z" fill="#394140"/><path d="M0 144l84-48v96l-84-48Z" fill="#394140"/><path d="M0 240l84-48v96l-84-48Z" fill="#394140"/><path d="M0 48l84-48v96l-84-48Z" fill="#1d2021"/><path d="M0 336l84-48v96l-84-48Z" fill="#394140"/></g><g transform="translate(1138.5,-826) translate(-42,-144)" style="animation: 19.6s linear both a9_t;"><path d="M0 240l84-48v96l-84-48Z" fill="#394140"/><path d="M0 48l84-48v96l-84-48Z" fill="#1d2021"/><path d="M0 144l84-48v96l-84-48Z" fill="#394140"/><path d="M84 96l-84-48v96l84-48Z" fill="#394140"/><path d="M84 192l-84-48v96l84-48Z" fill="#394140"/></g><g transform="translate(2554.2,-71) translate(-42.8,-168.5)" style="animation: 19.6s linear both a10_t;"><path opacity=".7" d="M0 96l84-48v96l-84-48Z" fill="#151c1f" fill-opacity=".65"/><path opacity=".7" d="M84.5 48l-84-48v96l84-48Z" fill="#151c1f" fill-opacity=".65"/><path d="M85.5 145l-84-48v96l84-48Z" fill="#151c1f" fill-opacity=".65"/><path d="M85.5 241l-84-48v96l84-48Z" fill="#151c1f" fill-opacity=".65"/><path d="M1.5 289l84-48v96l-84-48Z" fill="#151c1f" fill-opacity=".65"/><path d="M1.5 193l84-48v96l-84-48Z" fill="#151c1f" fill-opacity=".65"/></g><g transform="translate(1944,1256) translate(-42,-216)" style="animation: 19.6s linear both a11_t;"><path d="M84 144l-84-48v96l84-48Z" fill="#151c1f" fill-opacity=".65"/><path d="M84 240l-84-48v96l84-48Z" fill="#151c1f" fill-opacity=".65"/><path d="M84 336l-84-48v96l84-48Z" fill="#151c1f" fill-opacity=".65"/><path d="M0 288l84-48v96l-84-48Z" fill="#151c1f" fill-opacity=".65"/><path d="M0 384l84-48v96l-84-48Z" fill="#151c1f" fill-opacity=".65"/><path d="M0 192l84-48v96l-84-48Z" fill="#151c1f" fill-opacity=".65"/><path d="M1264.5 560l-84-48v96l84-48Z" fill="url(#Gradient-8)" transform="translate(-1180.5,-512)"/><path d="M0 96l84-48v96l-84-48Z" fill="#151c1f" fill-opacity=".65"/></g><g transform="translate(1306.8,1543) translate(-42.2,-313)" style="animation: 19.6s linear both a12_t;"><path d="M1265 462l84-48v96l-84-48Z" fill="url(#Gradient-9)" transform="translate(-1264.5,-270)"/><path d="M1349 414l-84-48v96l84-48Z" fill="url(#Gradient-10)" transform="translate(-1264.5,-270)"/><path d="M1265 366l84-48v96l-84-48Z" fill="url(#Gradient-11)" transform="translate(-1264.5,-270)"/><path d="M84.5 48l-84-48v96l84-48Z" fill="#637e77" fill-opacity=".45"/><path d="M1349 510l-84-48v96l84-48Z" fill="url(#Gradient-12)" transform="translate(-1264.5,-270)"/><path d="M84 338l-84-48v96l84-48Z" fill="#151c1f" fill-opacity=".65"/><path d="M0 290l84-48v96l-84-48Z" fill="#151c1f" fill-opacity=".65"/><path d="M1348.5 800l-84-48v96l84-48Z" fill="url(#Gradient-13)" transform="translate(-1264.5,-270)"/><path d="M1348.5 704l-84-48v96l84-48Z" fill="url(#Gradient-14)" transform="translate(-1264.5,-270)"/><path d="M0 386l84-48v96l-84-48Z" fill="#637e77" fill-opacity=".45"/><path d="M1264.5 752l84-48v96l-84-48Z" fill="url(#Gradient-15)" transform="translate(-1264.5,-270)"/><path d="M1264.5 848l84-48v96l-84-48Z" fill="url(#Gradient-16)" transform="translate(-1264.5,-270)"/></g><g transform="translate(887,1493) translate(-42,-120)" style="animation: 19.6s linear both a13_t;"><path d="M84 48l-84-48v96l84-48Z" fill="#151c1f" fill-opacity=".65"/><path d="M84 144l-84-48v96l84-48Z" fill="#151c1f" fill-opacity=".65"/><path d="M0 192l84-48v96l-84-48Z" fill="#394140"/><path d="M0 96l84-48v96l-84-48Z" fill="#151c1f" fill-opacity=".65"/></g><g transform="translate(467,1448) translate(-42,-120)" style="animation: 19.6s linear both a14_t;"><path d="M84 48l-84-48v96l84-48Z" fill="#151c1f" fill-opacity=".65"/><path d="M84 144l-84-48v96l84-48Z" fill="#151c1f" fill-opacity=".65"/><path d="M0 192l84-48v96l-84-48Z" fill="#394140"/><path d="M0 96l84-48v96l-84-48Z" fill="#151c1f" fill-opacity=".65"/></g><g transform="translate(1013,1398) translate(-84,-96)" style="animation: 19.6s linear both a15_t;"><path d="M84 144l84-48v96l-84-48Z" fill="#526561"/><path d="M84 48l84-48v96l-84-48Z" fill="#394140"/><path d="M1013 798l-84-48v96l84-48Z" fill="url(#Gradient-17)" transform="translate(-929,-654)"/><path d="M0 96l84-48v96l-84-48Z" fill="#637e77" fill-opacity=".45"/><path d="M168 96l-84-48v96l84-48Z" fill="#394140"/></g><g transform="translate(1390.5,-288) translate(-42.5,-215)" style="animation: 19.6s linear both a16_t;"><path d="M0 48l84-48v96l-84-48Z" fill="#151c1f" fill-opacity=".65"/><path d="M0 144l84-48v96l-84-48Z" fill="#151c1f" fill-opacity=".65"/><path d="M84 192l-84-48v96l84-48Z" fill="#394140"/><path d="M84 96l-84-48v96l84-48Z" fill="#151c1f" fill-opacity=".65"/><path d="M1348.5 608l84-48v96l-84-48Z" fill="url(#Gradient-18)" transform="translate(-1348,-272)"/><path d="M85 382l-84-48v96l84-48Z" fill="#465451"/><path d="M1432 560l-84-48v96l84-48Z" fill="url(#Gradient-19)" transform="translate(-1348,-272)"/><path d="M0 240l84-48v96l-84-48Z" fill="#637e77" fill-opacity=".45"/></g><g transform="translate(1473.5,1976.5) translate(-43,-168.5)" style="animation: 19.6s linear both a17_t;"><path opacity=".7" d="M1514.5 415l-84-48v96l84-48Z" fill="url(#Gradient-20)" transform="translate(-1430.5,-319)"/><path opacity=".7" d="M1431 367l84-48v96l-84-48Z" fill="url(#Gradient-21)" transform="translate(-1430.5,-319)"/><path d="M1516.5 608l-84-48v96l84-48Z" fill="url(#Gradient-22)" transform="translate(-1430.5,-319)"/><path d="M1.5 145l84-48v96l-84-48Z" fill="#546763"/><path d="M1.5 241l84-48v96l-84-48Z" fill="#526561"/><path d="M85.5 193l-84-48v96l84-48Z" fill="#394140"/></g><g transform="translate(-651.5,1325.5) translate(-126.5,-95.5)" style="animation: 19.6s linear both a18_t;"><path d="M0 95l84-48v96l-84-48Z" fill="#394140"/><path d="M258 846l-84-48v96l84-48Z" fill="url(#Gradient-23)" transform="translate(-5,-798)"/><path d="M85 48l84-48v96l-84-48Z" fill="#526561"/><path d="M84 143l-84-48v96l84-48Z" fill="#394140"/><path d="M168 95l-84-48v96l84-48Z" fill="#192123"/></g><g opacity=".45" transform="translate(-610,1592) translate(-971,-678)" style="animation: 19.6s linear both a19_t;"><path d="M845 702l84-48v96l-84-48Z" fill="#7b9690" fill-opacity=".5"/><path d="M1013 702l-84-48v96l84-48Z" fill="#7b9690" fill-opacity=".5"/><path d="M929 654l84-48v96l-84-48Z" fill="#7b9690" fill-opacity=".5"/><path d="M1097 654l-84-48v96l84-48Z" fill="#1d2021"/></g><g transform="translate(-399,1184) translate(-126.5,-144)" style="animation: 19.6s linear both a20_t;"><path d="M342 798l-84-48v96l84-48Z" fill="url(#Gradient-24)" transform="translate(-89,-702)"/><path d="M258 846l84-48v96l-84-48Z" fill="url(#Gradient-25)" transform="translate(-89,-702)"/><path d="M169 48l84-48v96l-84-48Z" fill="#394140"/><path d="M0 240l84-48v96l-84-48Z" fill="#526561"/><path d="M168 240l-84-48v96l84-48Z" fill="#7b9690" fill-opacity=".5"/><path d="M84 192l84-48v96l-84-48Z" fill="#7b9690" fill-opacity=".5"/><path d="M252 192l-84-48v96l84-48Z" fill="#1d2021"/></g><g transform="translate(2471,72) translate(-84,-96)" style="animation: 19.6s linear both a21_t;"><path d="M1013 894l-84-48v96l84-48Z" fill="url(#Gradient-26)" transform="translate(-929,-798)"/><path d="M84 96l84-48v96l-84-48Z" fill="#151c1f" fill-opacity=".35"/><path d="M929 846l84-48v96l-84-48Z" fill="url(#Gradient-27)" transform="translate(-929,-798)"/><path d="M1097 846l-84-48v96l84-48Z" fill="url(#Gradient-28)" transform="translate(-929,-798)"/><path d="M929 942l84-48v96l-84-48Z" fill="url(#Gradient-29)" transform="translate(-929,-798)"/><path d="M168 144l-84-48v96l84-48Z" fill="#151c1f" fill-opacity=".65"/></g><g transform="translate(-188.5,1398) translate(-84,-96)" style="animation: 19.6s linear both a22_t;"><path d="M1013 894l-84-48v96l84-48Z" fill="url(#Gradient-26)" transform="translate(-929,-798)"/><path d="M84 96l84-48v96l-84-48Z" fill="#151c1f" fill-opacity=".35"/><path d="M929 846l84-48v96l-84-48Z" fill="url(#Gradient-27)" transform="translate(-929,-798)"/><path d="M1097 846l-84-48v96l84-48Z" fill="url(#Gradient-28)" transform="translate(-929,-798)"/><path d="M929 942l84-48v96l-84-48Z" fill="url(#Gradient-29)" transform="translate(-929,-798)"/><path d="M168 144l-84-48v96l84-48Z" fill="#151c1f" fill-opacity=".65"/></g><g transform="translate(-441,1448) translate(-126,-120)" style="animation: 19.6s linear both a23_t;"><path d="M168 192l-84-48v96l84-48Z" fill="#3a5257"/><path d="M0 192l84-48v96l-84-48Z" fill="#3a5257"/><path d="M258 1038l-84-48v96l84-48Z" fill="url(#Gradient-30)" transform="translate(-90,-942)"/><path d="M168 96l84-48v96l-84-48Z" fill="#151c1f" fill-opacity=".35"/><path d="M174 990l84-48v96l-84-48Z" fill="url(#Gradient-31)" transform="translate(-90,-942)"/><path d="M342 990l-84-48v96l84-48Z" fill="url(#Gradient-32)" transform="translate(-90,-942)"/><path d="M174 1086l84-48v96l-84-48Z" fill="url(#Gradient-33)" transform="translate(-90,-942)"/><path d="M252 144l-84-48v96l84-48Z" fill="#151c1f" fill-opacity=".65"/></g><g transform="translate(1859,1134) translate(-42,-144)" style="animation: 19.6s linear both a24_t;"><path d="M1181 894l-84-48v96l84-48Z" fill="url(#Gradient-34)" transform="translate(-1097,-654)"/><path d="M84 48l-84-48v96l84-48Z" fill="#1d2021"/><path d="M1181 798l-84-48v96l84-48Z" fill="url(#Gradient-35)" transform="translate(-1097,-654)"/><path d="M0 96l84-48v96l-84-48Z" fill="#526561"/><path d="M1097 846l84-48v96l-84-48Z" fill="url(#Gradient-36)" transform="translate(-1097,-654)"/></g><g transform="translate(2047,150.5) translate(-43,-168.5)" style="animation: 19.6s linear both a25_t;"><path opacity=".7" d="M0 48l84-48v96l-84-48Z" fill="#182022"/><path opacity=".7" d="M84 96l-84-48v96l84-48Z" fill="#182022"/><path d="M2 145l84-48v96l-84-48Z" fill="#151c1f" fill-opacity=".65"/><path d="M85 193l-84-48v96l84-48Z" fill="#1d2021"/><path d="M1600 560l-84-48v96l84-48Z" fill="url(#Gradient-37)" transform="translate(-1515,-271)"/><path d="M1 241l84-48v96l-84-48Z" fill="#526561"/></g><g transform="translate(1985,495) translate(-168,-168)" style="animation: 19.6s linear both a26_t;"><path d="M336 48l-84-48v96l84-48Z" fill="#151c1f" fill-opacity=".65"/><path d="M252 96l84-48v96l-84-48Z" fill="#151c1f" fill-opacity=".65"/><path d="M1 240l84-48v96l-84-48Z" fill="#293230"/><path d="M0 143l84-47v94l-84-47Z" fill="#323d3a"/><path d="M84.5 192l-84-48v96l84-48Z" fill="#7b9690"/><path d="M85 288l-84-48v96l84-48Z" fill="#151c1f" fill-opacity=".65"/><path d="M168.5 240l-84-48v96l84-48Z" fill="#151c1f" fill-opacity=".65"/><path d="M1516.5 704l-84-48v96l84-48Z" fill="url(#Gradient-38)" transform="translate(-1348,-560)"/><path d="M1432.5 656l84-48v96l-84-48Z" fill="url(#Gradient-39)" transform="translate(-1348,-560)"/><path d="M84.5 192l84-48v96l-84-48Z" fill="#293230"/><path d="M1600 656l-84-48v96l84-48Z" fill="url(#Gradient-40)" transform="translate(-1348,-560)"/><path d="M1516 608l84-48v96l-84-48Z" fill="url(#Gradient-41)" transform="translate(-1348,-560)"/></g></svg>