<svg width="480" height="515" viewBox="280 000 480 515" fill="none" xmlns="http://www.w3.org/2000/svg">
<path fill-rule="evenodd" clip-rule="evenodd" d="M0.889014 591.582L1000.56 22.0389L1000.36 21.6826L0.686035 591.226L0.889014 591.582ZM1014.92 77.2149L117.342 589.763L117.138 589.407L1014.71 76.8589L1014.92 77.2149ZM93.5598 613.956L991.543 101.408L991.34 101.052L93.3566 613.6L93.5598 613.956ZM1060.02 210.887L162.446 723.435L162.243 723.079L1059.82 210.531L1060.02 210.887ZM138.664 776.33L1036.65 263.782L1036.44 263.426L138.46 775.974L138.664 776.33ZM178.847 823.484L1076.83 310.937L1076.63 310.581L178.644 823.128L178.847 823.484ZM108.731 684.071L1006.71 171.524L1006.51 171.168L108.528 683.715L108.731 684.071ZM1030.09 148.56L132.513 661.108L132.31 660.752L1029.88 148.204L1030.09 148.56Z" fill="url(#paint0_linear)"/>
<rect width="94.7188" height="100.049" rx="6.15057" transform="matrix(0.866025 0.5 -2.20305e-08 1 553.521 0.948242)" fill="#847658"/>
<rect width="94.7188" height="100.049" rx="6.15057" transform="matrix(0.866025 0.5 -2.20305e-08 1 553.521 0.948242)" fill="url(#paint1_linear)" style="mix-blend-mode:soft-light"/>
<path d="M579.7 40.1326L579.238 39.3125L579.238 37.0675L580.108 37.5698C581.511 38.3797 582.47 38.0619 582.47 36.7908C582.47 35.7042 581.795 34.4023 580.836 33.6642L577.694 31.8498L577.694 31.9011L578.164 32.7263L578.164 38.6923L577.694 38.9742L577.694 39.0255L579.7 40.1838L579.7 40.1326ZM579.389 33.1363C580.614 33.8436 581.404 35.1096 581.404 36.2885C581.404 37.3238 580.801 37.5801 579.798 37.0009L579.238 36.678L579.238 33.0492L579.389 33.1363ZM585.014 43.2107L584.587 42.5136L584.587 35.1124L584.499 35.0612L583.114 34.7434L583.114 34.7844L583.62 35.5584L583.62 41.955L583.194 42.16L583.194 42.201L585.014 43.2517L585.014 43.2107ZM588.911 45.6556C589.222 45.835 589.515 45.7889 589.63 45.5275L589.63 45.4762L589.133 44.9739L589.133 41.5091C589.133 40.7813 588.583 39.9817 587.739 39.4948C586.772 38.9361 586.123 39.177 585.99 40.156L586.026 40.1867C586.301 39.7408 586.825 39.6845 587.366 39.9971C587.863 40.2841 588.165 40.7557 588.165 41.2375L588.165 41.9243L587.242 41.791C586.132 41.6116 585.653 41.8577 585.653 42.5855C585.653 43.2723 586.097 44.0309 586.709 44.3845C587.198 44.6664 587.704 44.651 588.139 44.3691L588.201 44.405C588.236 44.9278 588.512 45.425 588.911 45.6556ZM586.55 42.7444C586.55 42.2728 586.86 42.0832 587.473 42.1601L588.165 42.2523L588.165 44.0462C587.926 44.2359 587.615 44.2307 587.322 44.0616C586.869 43.8002 586.55 43.2467 586.55 42.7444ZM591.546 47.1771C592.114 47.5051 592.629 47.4333 592.887 46.9669L592.851 46.9157C592.629 47.0335 592.381 47.013 592.105 46.8542C591.715 46.6286 591.475 46.2237 591.475 45.6804L591.475 42.2771L592.691 42.9793L592.754 42.5436L591.475 41.8056L591.475 40.842L591.324 40.7548L589.868 41.2981L589.868 41.3494L590.499 41.7133L590.499 45.6907C590.614 46.3416 591.04 46.8849 591.546 47.1771ZM595.293 49.1352L594.716 48.3715L594.716 44.1481L595.772 44.7581L595.834 44.3224L594.938 43.8047C594.503 43.5536 594.281 43.1692 594.281 42.6566C594.281 42.3286 594.334 42.0621 594.45 41.8724C594.565 41.6725 594.698 41.6059 594.849 41.6623L595.977 42.8873L596.021 42.9129L596.021 41.816C595.906 41.6777 595.684 41.5188 595.506 41.4163C594.601 40.8935 593.864 41.5546 593.757 42.9898L593.1 43.164L593.1 43.2153L593.748 43.5895L593.748 47.8129L593.322 47.9974L593.322 48.0486L595.293 49.1865L595.293 49.1352ZM598.188 51.0118C599.493 51.7652 600.408 51.1246 600.408 49.4844C600.408 47.8955 599.555 46.3169 598.295 45.589C596.999 44.8407 596.075 45.4865 596.075 47.1164C596.075 48.6951 596.936 50.2891 598.188 51.0118ZM598.348 50.7453C597.602 50.3147 597.087 48.9616 597.087 47.383C597.087 46.0196 597.487 45.4814 598.135 45.8556C598.889 46.2912 599.396 47.629 599.396 49.2179C599.396 50.5813 599.014 51.1297 598.348 50.7453ZM601.043 52.4547L601.043 52.506L602.898 53.5772L602.898 53.526L602.436 52.8289L602.436 49.4461C602.498 49.3077 602.614 49.2103 602.774 49.1693C602.933 49.1283 603.075 49.1386 603.2 49.2103C603.235 49.2308 603.262 49.2462 603.28 49.2667L604.07 50.3379L604.114 50.3635L604.114 49.0822C604.034 48.9643 603.857 48.8003 603.653 48.6824C603.218 48.4312 602.88 48.5337 602.463 49.0309L602.419 49.0053L602.356 47.9341L602.276 47.8879L600.963 47.5907L600.963 47.6419L601.469 48.4159L601.469 52.2702L601.043 52.4547ZM609.018 57.0492L608.601 56.388L608.601 52.8924L608.601 52.8001C608.938 52.6259 609.267 52.631 609.586 52.8155C610.039 53.0769 610.323 53.5895 610.323 54.1533L610.323 57.3618L609.897 57.5668L609.897 57.6181L611.717 58.6688L611.717 58.6176L611.291 57.941L611.291 54.4454C611.291 53.6356 610.811 52.8155 610.092 52.4004C609.586 52.1082 609.151 52.1338 608.592 52.4772L608.556 52.4567C608.414 51.8007 607.997 51.1907 607.402 50.8473C606.914 50.5654 606.417 50.5859 605.929 50.9088L605.884 50.8832L605.822 49.935L605.742 49.8889L604.428 49.5916L604.428 49.6429L604.934 50.4168L604.934 54.2712L604.508 54.4557L604.508 54.5069L606.328 55.5577L606.328 55.5064L605.902 54.8298L605.902 51.242C606.248 51.0729 606.577 51.078 606.896 51.2625C607.349 51.5239 607.624 52.0211 607.624 52.5849L607.624 55.8037L607.207 56.0036L607.207 56.0548L609.018 57.1004L609.018 57.0492ZM585.338 55.3876L584.992 54.6341L582.719 46.7512L581.52 46.0592L581.52 46.1105L581.831 47.1202L579.94 51.5332L579.514 52.0253L579.514 52.0765L581.103 52.994L581.103 52.9427L580.402 51.7998L580.81 50.7952L583.349 52.261L583.837 53.9678L583.394 54.2651L583.394 54.3164L585.338 55.4388L585.338 55.3876ZM583.216 51.7844L580.943 50.4723L582.062 47.766L583.216 51.7844ZM585.63 53.2809C585.63 54.7365 586.394 56.2126 587.459 56.8277C587.947 57.1096 588.285 57.0788 588.738 56.7252L588.791 56.7559L588.88 57.6375L590.229 58.0065L590.229 57.9553L589.759 57.2121L589.759 50.0979L589.67 50.0467L588.285 49.7289L588.285 49.7699L588.782 50.549L588.782 52.2711C588.631 52.0917 588.303 51.8201 587.992 51.6407C586.678 50.8821 585.63 51.5792 585.63 53.2809ZM586.554 53.2604C586.554 51.979 587.131 51.5331 587.992 52.0302C588.32 52.2199 588.587 52.4557 588.782 52.7427L588.782 56.3818C588.604 56.556 588.347 56.5817 588.001 56.3818C587.14 55.8846 586.554 54.593 586.554 53.2604ZM590.398 53.1834L590.398 53.2346L590.744 53.8753L592.404 59.5185L592.768 59.7286L592.795 59.6312L592.839 59.7696L594.428 56.1562L594.827 55.7923L594.827 55.741L593.567 55.0132L593.567 55.0644L594.082 55.9563L592.999 58.6728L591.809 54.4904L592.2 54.2751L592.2 54.2239L590.398 53.1834ZM596.053 55.0441C596.399 55.244 596.639 55.1363 596.639 54.7263C596.639 54.3162 596.399 53.9318 596.053 53.7319C595.698 53.5269 595.458 53.6346 595.458 54.0446C595.458 54.4546 595.698 54.839 596.053 55.0441ZM596.958 62.107L596.532 61.4202L596.532 56.5715L596.443 56.5202L595.058 56.2024L595.058 56.2434L595.565 57.0174L595.565 60.8615L595.138 61.0562L595.138 61.0972L596.958 62.148L596.958 62.107ZM599.133 63.5571C599.674 63.8697 600.109 63.9671 600.438 63.839C600.766 63.7108 600.935 63.3879 600.935 62.8651C600.935 61.0815 598.627 60.3332 598.627 58.9595C598.627 58.4367 598.964 58.2932 599.434 58.5649C599.559 58.6366 599.665 58.7186 599.763 58.816L600.633 60.1896L600.677 60.2153L600.677 59.2414C600.384 58.9083 599.923 58.529 599.505 58.2881C598.999 57.9959 598.582 57.9088 598.271 58.0369C597.961 58.1548 597.801 58.4624 597.801 58.9441C597.801 60.7278 600.1 61.4915 600.1 62.8446C600.1 63.4187 599.736 63.5981 599.213 63.2957C599.062 63.2085 598.92 63.0855 598.786 62.9266L597.721 61.307L597.677 61.2814L597.677 62.3372C597.979 62.7165 598.662 63.2854 599.133 63.5571ZM603.6 66.1364C604.905 66.8899 605.82 66.2492 605.82 64.609C605.82 63.0201 604.967 61.4415 603.707 60.7137C602.411 59.9654 601.487 60.6112 601.487 62.2411C601.487 63.8197 602.348 65.4137 603.6 66.1364ZM603.76 65.8699C603.014 65.4394 602.499 64.0862 602.499 62.5076C602.499 61.1442 602.899 60.606 603.547 60.9802C604.302 61.4159 604.808 62.7536 604.808 64.3425C604.808 65.7059 604.426 66.2543 603.76 65.8699ZM606.455 67.5794L606.455 67.6306L608.31 68.7019L608.31 68.6506L607.848 67.9535L607.848 64.5707C607.91 64.4323 608.026 64.3349 608.186 64.2939C608.345 64.2529 608.488 64.2632 608.612 64.3349C608.647 64.3554 608.674 64.3708 608.692 64.3913L609.482 65.4626L609.526 65.4882L609.526 64.2068C609.446 64.0889 609.269 63.9249 609.065 63.807C608.63 63.5559 608.292 63.6584 607.875 64.1556L607.831 64.1299L607.768 63.0587L607.689 63.0126L606.375 62.7153L606.375 62.7666L606.881 63.5405L606.881 67.3949L606.455 67.5794Z" fill="white"/>
<g filter="url(#filter0_d)">
<path d="M592.371 72.5977L593.584 70.9846L593.082 70.6947L592.172 71.9605L592.147 71.9462L591.238 69.6299L590.701 69.3199L591.914 72.3336L591.914 74.0386L592.371 74.3026L592.371 72.5977ZM593.256 73.4643C593.256 74.3311 593.773 75.1979 594.444 75.5854C595.115 75.9729 595.632 75.6973 595.632 74.8362C595.632 73.9694 595.115 73.1083 594.444 72.7209C593.773 72.3334 593.256 72.5917 593.256 73.4643ZM593.693 73.7168C593.693 73.4356 593.763 73.2404 593.897 73.1284C594.031 73.0165 594.215 73.0309 594.444 73.1629C594.672 73.2949 594.856 73.493 594.991 73.7599C595.125 74.0268 595.194 74.3024 595.194 74.5837C595.194 75.1577 594.901 75.4074 594.444 75.1434C593.986 74.8793 593.693 74.2909 593.693 73.7168ZM598.096 74.9157L597.664 74.6659L597.664 76.2159C597.664 76.4455 597.604 76.6005 597.48 76.678C597.36 76.7526 597.211 76.7411 597.037 76.6407C596.719 76.457 596.535 76.0925 596.535 75.6275L596.535 74.0144L596.102 73.7647L596.102 75.4868C596.102 76.1355 596.421 76.7268 596.923 77.0167C597.266 77.2147 597.539 77.1832 597.673 76.9679L597.693 76.9794L597.693 77.3755L598.096 77.608L598.096 74.9157Z" fill="white"/>
<rect x="0.177552" y="0.307529" width="17.2216" height="7.79072" rx="3.89536" transform="matrix(0.866025 0.5 -2.20305e-08 1 586.924 65.2354)" stroke="white" stroke-width="0.410038" stroke-dasharray="1.23 1.23"/>
</g>
<g filter="url(#filter1_d)">
<circle r="12.9162" transform="matrix(0.866025 0.5 -2.20305e-08 1 594.535 98.4348)" stroke="white" stroke-width="0.410038" stroke-dasharray="1.23 1.23"/>
</g>
<path fill-rule="evenodd" clip-rule="evenodd" d="M594.535 97.2031C595.712 97.8825 596.666 97.3317 596.666 95.973C596.666 94.6142 595.712 92.962 594.535 92.2826C593.358 91.6032 592.405 92.154 592.405 93.5127C592.405 94.8715 593.358 96.5237 594.535 97.2031ZM594.535 98.0238C592.627 96.9221 591.022 97.647 590.803 99.7094L590.629 101.345C593.136 103.951 595.934 105.566 598.441 105.856L598.267 104.019C598.048 101.704 596.443 99.1255 594.535 98.0238Z" fill="white"/>
<rect x="0.355103" y="0.615057" width="80.0599" height="115.601" rx="5.74053" transform="matrix(0.866025 0.5 -2.20305e-08 1 557.669 145.513)" fill="white" fill-opacity="0.9"/>
<path d="M576.343 181.563L575.826 180.645L575.826 173.963L576.343 173.641L576.343 173.584L574.096 172.287L574.096 172.344L574.623 173.268L574.623 179.95L574.096 180.266L574.096 180.323L576.343 181.621L576.343 181.563ZM578.926 183.284C579.532 183.634 580.019 183.743 580.387 183.6C580.755 183.456 580.944 183.094 580.944 182.509C580.944 180.511 578.359 179.673 578.359 178.135C578.359 177.549 578.737 177.388 579.264 177.693C579.403 177.773 579.522 177.865 579.632 177.974L580.606 179.512L580.656 179.541L580.656 178.45C580.328 178.077 579.811 177.652 579.343 177.383C578.776 177.055 578.309 176.958 577.961 177.101C577.613 177.233 577.434 177.578 577.434 178.117C577.434 180.115 580.009 180.97 580.009 182.486C580.009 183.129 579.602 183.33 579.015 182.991C578.846 182.894 578.687 182.756 578.538 182.578L577.345 180.764L577.295 180.735L577.295 181.918C577.633 182.342 578.399 182.98 578.926 183.284ZM583.283 185.8C583.89 186.15 584.377 186.259 584.745 186.115C585.113 185.972 585.301 185.61 585.301 185.025C585.301 183.027 582.716 182.189 582.716 180.65C582.716 180.065 583.094 179.904 583.621 180.208C583.76 180.289 583.88 180.381 583.989 180.49L584.963 182.028L585.013 182.057L585.013 180.966C584.685 180.593 584.168 180.168 583.701 179.898C583.134 179.571 582.667 179.474 582.319 179.617C581.971 179.749 581.792 180.094 581.792 180.633C581.792 182.631 584.367 183.486 584.367 185.002C584.367 185.645 583.959 185.846 583.373 185.507C583.203 185.409 583.044 185.271 582.895 185.094L581.702 183.28L581.652 183.251L581.652 184.433C581.99 184.858 582.756 185.495 583.283 185.8ZM587.7 188.35C588.307 188.7 588.883 188.688 589.43 188.327L589.49 188.361L589.589 189.441L591.081 189.842L591.081 189.785L590.554 188.953L590.554 183.855L590.454 183.798L588.903 183.442L588.903 183.499L589.46 184.372L589.46 187.954C589.052 188.132 588.665 188.114 588.277 187.891C587.75 187.586 587.422 187.007 587.422 186.375L587.422 182.047L587.322 181.989L585.771 181.633L585.771 181.691L586.338 182.558L586.338 186.059C586.338 186.943 586.895 187.885 587.7 188.35ZM595.423 192.809C595.771 193.01 596.099 192.958 596.228 192.665L596.228 192.608L595.672 192.045L595.672 188.165C595.672 187.349 595.055 186.454 594.111 185.909C593.027 185.283 592.301 185.553 592.152 186.649L592.192 186.683C592.5 186.184 593.086 186.121 593.693 186.471C594.25 186.793 594.588 187.321 594.588 187.86L594.588 188.63L593.554 188.48C592.311 188.279 591.774 188.555 591.774 189.37C591.774 190.139 592.271 190.989 592.957 191.385C593.504 191.701 594.071 191.683 594.558 191.368L594.628 191.408C594.667 191.993 594.976 192.55 595.423 192.809ZM592.778 189.548C592.778 189.02 593.126 188.807 593.812 188.894L594.588 188.997L594.588 191.006C594.319 191.219 593.971 191.213 593.643 191.023C593.136 190.731 592.778 190.111 592.778 189.548ZM598.315 189.748C598.732 189.576 599.14 189.604 599.528 189.828C600.075 190.144 600.413 190.73 600.413 191.361L600.413 194.955L599.935 195.184L599.935 195.242L601.964 196.413L601.964 196.355L601.496 195.603L601.496 191.688C601.496 190.781 600.93 189.846 600.104 189.369C599.488 189.013 598.901 189.019 598.345 189.375L598.295 189.346L598.225 188.284L598.136 188.232L596.664 187.9L596.664 187.957L597.231 188.824L597.231 193.141L596.754 193.347L596.754 193.405L598.792 194.582L598.792 194.524L598.315 193.766L598.315 189.748ZM604.774 198.207C605.768 198.781 606.484 198.506 606.722 197.53L606.673 197.467C606.344 197.886 605.887 197.92 605.31 197.587C604.227 196.961 603.431 195.434 603.431 193.953C603.431 192.702 604.028 192.048 604.764 192.472C604.853 192.524 604.962 192.599 605.072 192.696L606.344 194.602L606.404 194.637L606.404 193.328C606.056 192.909 605.579 192.53 605.131 192.271C603.61 191.393 602.546 192.099 602.546 193.982C602.546 195.739 603.461 197.449 604.774 198.207ZM609.454 200.91C610.608 201.576 611.423 201.208 611.652 199.974L611.602 199.911C611.174 200.525 610.598 200.628 609.872 200.209C608.758 199.566 608.003 198.085 607.983 196.501L611.592 198.585C611.324 196.742 610.608 195.433 609.504 194.796C608.152 194.015 607.098 194.773 607.098 196.599C607.098 198.367 608.062 200.106 609.454 200.91ZM609.275 195.066C609.922 195.439 610.3 196.197 610.528 197.603L607.993 196.139C608.072 195.049 608.55 194.647 609.275 195.066ZM575.978 195.352L575.461 194.434L575.461 191.92L576.435 192.482C578.006 193.389 579.08 193.033 579.08 191.61C579.08 190.393 578.324 188.934 577.251 188.108L573.731 186.076L573.731 186.133L574.258 187.057L574.258 193.739L573.731 194.055L573.731 194.112L575.978 195.41L575.978 195.352ZM575.63 187.517C577.002 188.309 577.887 189.727 577.887 191.047C577.887 192.207 577.211 192.494 576.087 191.845L575.461 191.483L575.461 187.419L575.63 187.517ZM581.929 198.8L581.452 198.019L581.452 189.73L581.353 189.672L579.802 189.317L579.802 189.362L580.368 190.229L580.368 197.393L579.891 197.623L579.891 197.669L581.929 198.846L581.929 198.8ZM586.294 201.538C586.642 201.739 586.97 201.687 587.1 201.395L587.1 201.337L586.543 200.775L586.543 196.894C586.543 196.079 585.926 195.183 584.982 194.638C583.898 194.012 583.172 194.282 583.023 195.379L583.063 195.413C583.371 194.914 583.958 194.85 584.564 195.201C585.121 195.522 585.459 196.05 585.459 196.59L585.459 197.359L584.425 197.21C583.182 197.009 582.645 197.284 582.645 198.1C582.645 198.869 583.142 199.718 583.829 200.115C584.375 200.43 584.942 200.413 585.429 200.097L585.499 200.138C585.539 200.723 585.847 201.28 586.294 201.538ZM583.65 198.278C583.65 197.749 583.998 197.537 584.684 197.623L585.459 197.727L585.459 199.736C585.191 199.948 584.843 199.942 584.515 199.753C584.008 199.46 583.65 198.84 583.65 198.278ZM589.246 203.242C589.882 203.61 590.459 203.529 590.747 203.007L590.707 202.949C590.459 203.081 590.18 203.059 589.872 202.881C589.435 202.628 589.166 202.174 589.166 201.566L589.166 197.754L590.528 198.541L590.598 198.053L589.166 197.226L589.166 196.147L588.997 196.049L587.367 196.658L587.367 196.715L588.073 197.123L588.073 201.577C588.202 202.307 588.679 202.915 589.246 203.242ZM593.442 205.435L592.796 204.58L592.796 199.85L593.979 200.533L594.049 200.045L593.044 199.465C592.557 199.184 592.309 198.753 592.309 198.179C592.309 197.812 592.368 197.513 592.498 197.301C592.627 197.077 592.776 197.003 592.945 197.066L594.208 198.438L594.257 198.466L594.257 197.238C594.128 197.083 593.88 196.905 593.681 196.79C592.667 196.205 591.841 196.945 591.722 198.552L590.986 198.748L590.986 198.805L591.712 199.224L591.712 203.954L591.235 204.161L591.235 204.218L593.442 205.493L593.442 205.435ZM596.685 207.537C598.146 208.381 599.17 207.663 599.17 205.826C599.17 204.047 598.216 202.279 596.804 201.464C595.352 200.626 594.318 201.349 594.318 203.174C594.318 204.942 595.283 206.728 596.685 207.537ZM596.864 207.239C596.029 206.756 595.452 205.241 595.452 203.473C595.452 201.946 595.899 201.343 596.625 201.762C597.47 202.25 598.037 203.748 598.037 205.528C598.037 207.055 597.609 207.669 596.864 207.239ZM599.882 209.153L599.882 209.211L601.96 210.41L601.96 210.353L601.443 209.572L601.443 205.784C601.512 205.629 601.642 205.519 601.821 205.474C601.999 205.428 602.159 205.439 602.298 205.519C602.338 205.542 602.367 205.56 602.387 205.583L603.272 206.782L603.322 206.811L603.322 205.376C603.232 205.244 603.034 205.06 602.805 204.928C602.318 204.647 601.94 204.762 601.473 205.319L601.423 205.29L601.353 204.09L601.264 204.038L599.792 203.705L599.792 203.763L600.359 204.63L600.359 208.947L599.882 209.153ZM608.814 214.299L608.347 213.558L608.347 209.643L608.347 209.54C608.725 209.345 609.093 209.351 609.451 209.557C609.958 209.85 610.276 210.424 610.276 211.056L610.276 214.649L609.799 214.879L609.799 214.936L611.837 216.113L611.837 216.056L611.36 215.298L611.36 211.383C611.36 210.476 610.823 209.557 610.017 209.092C609.451 208.765 608.963 208.794 608.337 209.178L608.297 209.155C608.138 208.421 607.671 207.738 607.005 207.353C606.458 207.037 605.901 207.06 605.354 207.422L605.304 207.393L605.235 206.331L605.145 206.279L603.674 205.946L603.674 206.004L604.241 206.871L604.241 211.188L603.763 211.394L603.763 211.452L605.802 212.628L605.802 212.571L605.324 211.813L605.324 207.795C605.712 207.606 606.08 207.611 606.438 207.818C606.945 208.111 607.253 208.668 607.253 209.299L607.253 212.904L606.786 213.128L606.786 213.185L608.814 214.356L608.814 214.299Z" fill="#847658"/>
<g filter="url(#filter2_d)">
<path d="M587.75 224.78L592.643 224.461L597.536 230.43L592.643 230.749L587.75 224.78Z" stroke="#847658" stroke-width="0.820076"/>
<path d="M587.75 221.956L592.643 221.637L597.536 227.605L592.643 227.924L587.75 221.956Z" stroke="#847658" stroke-width="0.820076"/>
<path d="M587.75 227.606L592.643 227.288L597.536 233.256L592.643 233.575L587.75 227.606Z" stroke="#847658" stroke-width="0.820076"/>
<rect x="0.177552" y="0.307529" width="25.8324" height="25.8324" rx="12.9162" transform="matrix(0.866025 0.5 -2.20305e-08 1 581.304 207.836)" stroke="#847658" stroke-width="0.410038" stroke-dasharray="1.23 1.23"/>
</g>
<path d="M584.315 246.481C584.315 245.252 583.594 244.055 582.505 243.427L581.471 242.83L581.471 246.848L582.441 247.408C583.465 247.999 584.315 247.898 584.315 246.481ZM583.843 246.208C583.843 247.155 583.306 247.425 582.525 246.974L581.924 246.627L581.924 243.579L582.52 243.923C583.311 244.379 583.843 245.266 583.843 246.208ZM586.541 249.011C586.416 249.227 586.212 249.252 585.924 249.086C585.492 248.836 585.208 248.305 585.168 247.76L586.998 248.816L586.998 248.667C586.978 247.737 586.466 246.953 585.864 246.606C585.188 246.216 584.731 246.589 584.731 247.387C584.731 248.202 585.208 249.092 585.924 249.505C586.386 249.772 586.715 249.72 586.908 249.35L586.541 249.011ZM585.874 247.002C586.038 247.097 586.188 247.246 586.322 247.456C586.456 247.659 586.531 247.909 586.546 248.205L585.173 247.413C585.228 246.939 585.477 246.772 585.874 247.002ZM587.327 248.886C587.327 249.735 587.79 250.582 588.431 250.952C588.774 251.15 589.082 251.156 589.241 250.886L589.256 250.895L589.256 251.343L589.654 251.572L589.654 247.554L589.221 247.304L589.221 249.003C589.077 248.645 588.794 248.297 588.436 248.091C587.799 247.723 587.327 248.036 587.327 248.886ZM587.765 249.138C587.765 248.581 588.048 248.309 588.505 248.573C588.958 248.834 589.231 249.394 589.231 249.985C589.231 250.565 588.958 250.809 588.505 250.547C588.068 250.295 587.765 249.706 587.765 249.138ZM590.773 248.2L590.34 247.95L590.34 248.57L590.773 248.82L590.773 248.2ZM590.773 249.526L590.34 249.276L590.34 251.968L590.773 252.218L590.773 249.526ZM592.415 250.388C591.764 250.012 591.286 250.316 591.286 251.166C591.286 251.987 591.734 252.859 592.44 253.267C592.952 253.562 593.31 253.465 593.464 253.008L593.056 252.653C592.957 252.917 592.758 253.008 592.425 252.816C591.968 252.552 591.724 251.981 591.724 251.424C591.724 250.856 591.968 250.572 592.425 250.836C592.758 251.028 592.962 251.347 593.056 251.728L593.479 251.898C593.335 251.217 592.977 250.712 592.415 250.388ZM595.824 253.372C595.824 252.729 595.491 252.164 594.919 251.834C594.422 251.547 594.064 251.61 593.945 252.018L594.378 252.313C594.452 252.109 594.631 252.069 594.89 252.218C595.203 252.399 595.392 252.727 595.392 253.111L595.392 253.392C595.287 253.258 595.064 253.071 594.83 252.936C594.233 252.592 593.856 252.706 593.856 253.252C593.856 253.74 594.194 254.274 594.676 254.552C594.989 254.733 595.277 254.739 595.402 254.575L595.412 254.581L595.412 254.896L595.824 255.135L595.824 253.372ZM594.293 253.464C594.293 253.171 594.512 253.114 594.875 253.324C595.088 253.447 595.287 253.625 595.402 253.777L595.402 254.03C595.402 254.311 595.103 254.403 594.775 254.213C594.492 254.05 594.293 253.74 594.293 253.464ZM597.378 256.089C597.542 256.184 597.696 256.233 597.776 256.233L597.721 255.799C597.657 255.802 597.567 255.774 597.458 255.71C597.174 255.547 597.045 255.311 597.045 254.869L597.045 253.578L597.756 253.988L597.756 253.558L597.045 253.147L597.045 252.28L596.613 252.128L596.613 252.898L596.16 252.636L596.16 253.067L596.613 253.328L596.613 254.706C596.613 255.389 596.916 255.822 597.378 256.089ZM599.773 256.651C599.649 256.866 599.445 256.892 599.156 256.726C598.724 256.476 598.441 255.945 598.401 255.4L600.23 256.456L600.23 256.307C600.21 255.377 599.698 254.593 599.097 254.246C598.421 253.855 597.963 254.228 597.963 255.026C597.963 255.842 598.441 256.731 599.156 257.145C599.619 257.412 599.947 257.36 600.141 256.99L599.773 256.651ZM599.107 254.642C599.271 254.737 599.42 254.886 599.554 255.095C599.688 255.299 599.763 255.549 599.778 255.844L598.406 255.052C598.46 254.579 598.709 254.412 599.107 254.642ZM600.56 256.525C600.56 257.375 601.022 258.222 601.663 258.592C602.006 258.79 602.314 258.796 602.474 258.526L602.488 258.535L602.488 258.982L602.886 259.212L602.886 255.194L602.454 254.944L602.454 256.643C602.31 256.284 602.026 255.937 601.668 255.73C601.032 255.363 600.56 255.676 600.56 256.525ZM600.997 256.778C600.997 256.221 601.28 255.948 601.738 256.212C602.19 256.474 602.464 257.033 602.464 257.625C602.464 258.204 602.19 258.448 601.738 258.187C601.3 257.935 600.997 257.346 600.997 256.778ZM576.947 251.276L577.434 251.557L578.299 248.813L578.319 248.825L579.184 252.568L579.671 252.849L580.601 249.327L580.134 249.057L579.428 251.819L579.403 251.804L578.558 248.148L578.091 247.878L577.245 250.559L577.221 250.544L576.51 246.965L576.003 246.672L576.947 251.276ZM581.046 253.603L581.479 253.852L581.479 252.302C581.479 251.843 581.747 251.671 582.105 251.878C582.423 252.061 582.607 252.426 582.607 252.891L582.607 254.504L583.04 254.754L583.04 253.031C583.04 252.371 582.727 251.794 582.215 251.499C581.891 251.312 581.603 251.341 581.479 251.545L581.479 249.834L581.046 249.584L581.046 253.603ZM584.119 251.358L583.686 251.108L583.686 251.728L584.119 251.978L584.119 251.358ZM584.119 252.684L583.686 252.435L583.686 255.127L584.119 255.377L584.119 252.684ZM585.721 256.359C585.885 256.454 586.04 256.503 586.119 256.503L586.064 256.069C586 256.072 585.91 256.043 585.801 255.98C585.518 255.817 585.388 255.581 585.388 255.139L585.388 253.848L586.099 254.258L586.099 253.828L585.388 253.417L585.388 252.55L584.956 252.398L584.956 253.167L584.503 252.906L584.503 253.337L584.956 253.598L584.956 254.976C584.956 255.659 585.259 256.092 585.721 256.359ZM588.116 256.921C587.992 257.136 587.788 257.162 587.5 256.995C587.067 256.746 586.784 256.215 586.744 255.669L588.573 256.726L588.573 256.576C588.553 255.646 588.041 254.863 587.44 254.516C586.764 254.125 586.306 254.498 586.306 255.296C586.306 256.111 586.784 257.001 587.5 257.415C587.962 257.681 588.29 257.63 588.484 257.26L588.116 256.921ZM587.45 254.912C587.614 255.006 587.763 255.156 587.897 255.365C588.031 255.569 588.106 255.819 588.121 256.114L586.749 255.322C586.804 254.848 587.052 254.682 587.45 254.912ZM589.986 257.363L589.986 256.967L588.842 256.307L588.842 256.703L589.986 257.363ZM590.5 259.061L592.568 260.255L592.568 259.773L590.953 258.84L590.953 255.304L590.5 255.042L590.5 259.061ZM594.857 259.814C594.857 259.171 594.524 258.605 593.952 258.275C593.455 257.988 593.097 258.051 592.978 258.459L593.41 258.755C593.485 258.551 593.664 258.511 593.922 258.66C594.235 258.841 594.424 259.168 594.424 259.553L594.424 259.834C594.32 259.699 594.096 259.512 593.863 259.378C593.266 259.033 592.888 259.148 592.888 259.693C592.888 260.181 593.226 260.715 593.708 260.993C594.022 261.174 594.31 261.18 594.434 261.016L594.444 261.022L594.444 261.338L594.857 261.576L594.857 259.814ZM593.326 259.906C593.326 259.613 593.544 259.555 593.907 259.765C594.121 259.888 594.32 260.066 594.434 260.219L594.434 260.471C594.434 260.752 594.136 260.844 593.808 260.655C593.524 260.491 593.326 260.181 593.326 259.906ZM597.823 261.945C597.823 261.09 597.355 260.24 596.714 259.87C596.351 259.661 596.068 259.692 595.934 259.907L595.934 258.179L595.496 257.927L595.496 261.945L595.899 262.178L595.899 261.764L595.914 261.773C596.068 262.189 596.386 262.545 596.724 262.74C597.36 263.108 597.823 262.795 597.823 261.945ZM597.385 261.693C597.385 262.232 597.107 262.514 596.645 262.247C596.202 261.991 595.919 261.426 595.919 260.846C595.919 260.255 596.202 260.016 596.645 260.272C597.107 260.539 597.385 261.136 597.385 261.693ZM599.951 263.754C599.827 263.969 599.623 263.995 599.335 263.829C598.902 263.579 598.619 263.048 598.579 262.503L600.409 263.559L600.409 263.41C600.389 262.48 599.877 261.696 599.275 261.349C598.599 260.958 598.142 261.331 598.142 262.129C598.142 262.945 598.619 263.834 599.335 264.248C599.797 264.515 600.125 264.463 600.319 264.093L599.951 263.754ZM599.285 261.745C599.449 261.839 599.598 261.989 599.733 262.198C599.867 262.402 599.941 262.652 599.956 262.947L598.584 262.155C598.639 261.682 598.887 261.515 599.285 261.745ZM600.912 265.072L601.344 265.322L601.344 261.303L600.912 261.054L600.912 265.072ZM602.032 265.719L602.465 265.969L602.465 261.95L602.032 261.701L602.032 265.719ZM604.788 266.547C604.664 266.762 604.46 266.788 604.172 266.621C603.739 266.371 603.456 265.84 603.416 265.295L605.246 266.351L605.246 266.202C605.226 265.272 604.714 264.489 604.112 264.141C603.436 263.751 602.979 264.124 602.979 264.922C602.979 265.737 603.456 266.627 604.172 267.04C604.634 267.307 604.962 267.255 605.156 266.885L604.788 266.547ZM604.122 264.537C604.286 264.632 604.435 264.781 604.569 264.991C604.704 265.195 604.778 265.444 604.793 265.74L603.421 264.948C603.476 264.474 603.724 264.308 604.122 264.537ZM605.575 266.421C605.575 267.27 606.037 268.117 606.678 268.487C607.022 268.686 607.33 268.691 607.489 268.421L607.504 268.43L607.504 268.878L607.901 269.107L607.901 265.089L607.469 264.839L607.469 266.539C607.325 266.18 607.041 265.832 606.683 265.626C606.047 265.258 605.575 265.571 605.575 266.421ZM606.012 266.673C606.012 266.117 606.296 265.844 606.753 266.108C607.205 266.369 607.479 266.929 607.479 267.52C607.479 268.1 607.205 268.344 606.753 268.083C606.316 267.83 606.012 267.242 606.012 266.673ZM577.039 256.28C577.039 255.04 576.278 253.745 575.314 253.188C574.344 252.629 573.584 253.045 573.584 254.285C573.584 255.525 574.344 256.819 575.314 257.379C576.278 257.936 577.039 257.52 577.039 256.28ZM576.572 256.01C576.572 256.963 576.01 257.287 575.314 256.885C574.623 256.486 574.051 255.508 574.051 254.555C574.051 253.596 574.623 253.283 575.314 253.682C576.01 254.084 576.572 255.051 576.572 256.01ZM577.793 256.463L577.793 258.724L578.231 258.977L578.231 256.715L579.2 257.275L579.2 259.537L579.638 259.789L579.638 257.528L580.304 257.912L580.304 257.482L579.638 257.097L579.638 256.684C579.638 256.345 579.762 256.193 580.075 256.374C580.16 256.422 580.239 256.486 580.304 256.54L580.304 256.115C580.244 256.058 580.125 255.966 579.99 255.889C579.468 255.587 579.2 255.805 579.2 256.385L579.2 256.844L578.231 256.285L578.231 255.871C578.231 255.533 578.355 255.381 578.668 255.561C578.753 255.61 578.832 255.673 578.897 255.728L578.897 255.303C578.837 255.246 578.718 255.154 578.584 255.076C578.062 254.775 577.793 254.993 577.793 255.573L577.793 256.032L577.346 255.774L577.346 256.204L577.793 256.463ZM581.523 259.477L581.523 259.081L580.379 258.421L580.379 258.817L581.523 259.477ZM584.27 259.49C584.27 258.876 583.897 258.23 583.201 257.828L582.037 257.156L582.037 261.175L583.275 261.889C583.658 262.111 583.946 262.174 584.135 262.07C584.324 261.967 584.419 261.746 584.419 261.419C584.419 260.96 584.19 260.408 583.673 260.041C584.076 260.182 584.27 259.903 584.27 259.49ZM583.161 258.293C583.618 258.557 583.797 258.959 583.797 259.28C583.797 259.619 583.623 259.8 583.23 259.573L582.49 259.146L582.49 257.906L583.161 258.293ZM583.951 261.115C583.951 261.292 583.897 261.422 583.787 261.496C583.678 261.571 583.504 261.539 583.265 261.402L582.49 260.954L582.49 259.599L583.245 260.035C583.499 260.182 583.683 260.357 583.787 260.549C583.897 260.744 583.951 260.937 583.951 261.115ZM586.904 262.222C586.904 261.579 586.571 261.014 585.999 260.684C585.502 260.397 585.144 260.46 585.024 260.867L585.457 261.163C585.532 260.959 585.711 260.919 585.969 261.068C586.282 261.249 586.471 261.576 586.471 261.961L586.471 262.242C586.367 262.107 586.143 261.921 585.909 261.786C585.313 261.441 584.935 261.556 584.935 262.101C584.935 262.589 585.273 263.123 585.755 263.402C586.068 263.583 586.357 263.588 586.481 263.425L586.491 263.43L586.491 263.746L586.904 263.984L586.904 262.222ZM585.372 262.314C585.372 262.021 585.591 261.964 585.954 262.173C586.168 262.297 586.367 262.475 586.481 262.627L586.481 262.879C586.481 263.161 586.183 263.252 585.855 263.063C585.571 262.899 585.372 262.589 585.372 262.314ZM587.543 264.354L587.976 264.603L587.976 260.585L587.543 260.335L587.543 264.354ZM590.543 264.323C590.543 263.68 590.209 263.115 589.638 262.784C589.141 262.497 588.783 262.561 588.663 262.968L589.096 263.264C589.17 263.06 589.349 263.02 589.608 263.169C589.921 263.35 590.11 263.677 590.11 264.062L590.11 264.343C590.006 264.208 589.782 264.022 589.548 263.887C588.952 263.542 588.574 263.657 588.574 264.202C588.574 264.69 588.912 265.224 589.394 265.503C589.707 265.683 589.996 265.689 590.12 265.526L590.13 265.531L590.13 265.847L590.543 266.085L590.543 264.323ZM589.011 264.415C589.011 264.122 589.23 264.065 589.593 264.274C589.807 264.398 590.006 264.576 590.12 264.728L590.12 264.98C590.12 265.262 589.822 265.353 589.494 265.164C589.21 265 589.011 264.69 589.011 264.415ZM593.175 265.883C593.175 265.223 592.862 264.646 592.35 264.351C592.012 264.155 591.739 264.187 591.604 264.402L591.585 264.391L591.585 263.995L591.182 263.762L591.182 266.454L591.614 266.704L591.614 265.154C591.614 264.695 591.883 264.523 592.241 264.729C592.559 264.913 592.743 265.278 592.743 265.743L592.743 267.356L593.175 267.605L593.175 265.883ZM594.776 265.751C594.125 265.375 593.648 265.679 593.648 266.529C593.648 267.35 594.095 268.223 594.801 268.63C595.313 268.926 595.671 268.828 595.825 268.372L595.418 268.016C595.318 268.28 595.119 268.372 594.786 268.179C594.329 267.915 594.085 267.344 594.085 266.787C594.085 266.219 594.329 265.935 594.786 266.199C595.119 266.391 595.323 266.71 595.418 267.092L595.84 267.261C595.696 266.581 595.338 266.076 594.776 265.751ZM597.942 269.594C597.818 269.809 597.614 269.835 597.326 269.668C596.893 269.419 596.61 268.888 596.57 268.342L598.399 269.399L598.399 269.249C598.379 268.319 597.867 267.536 597.266 267.189C596.59 266.798 596.132 267.171 596.132 267.969C596.132 268.784 596.61 269.674 597.326 270.088C597.788 270.354 598.116 270.303 598.31 269.933L597.942 269.594ZM597.276 267.585C597.44 267.679 597.589 267.829 597.723 268.038C597.857 268.242 597.932 268.492 597.947 268.787L596.575 267.995C596.63 267.522 596.878 267.355 597.276 267.585ZM601.064 272.246C601.77 272.654 602.267 272.464 602.267 271.724C602.267 270.185 600.423 269.849 600.423 268.776C600.423 268.368 600.701 268.311 601.064 268.52C601.497 268.77 601.75 269.209 601.81 269.651L602.252 269.815C602.173 269.155 601.735 268.443 601.079 268.064C600.443 267.697 599.96 267.866 599.96 268.555C599.96 270.099 601.805 270.429 601.805 271.514C601.805 271.927 601.512 272.045 601.079 271.795C600.711 271.583 600.333 271.147 600.274 270.63L599.831 270.484C599.921 271.23 600.478 271.907 601.064 272.246ZM602.833 273.181L603.265 273.431L603.265 271.881C603.265 271.422 603.534 271.249 603.892 271.456C604.21 271.64 604.394 272.004 604.394 272.469L604.394 274.082L604.826 274.332L604.826 272.61C604.826 271.95 604.513 271.373 604.001 271.077C603.678 270.891 603.39 270.919 603.265 271.123L603.265 269.412L602.833 269.163L602.833 273.181ZM607.108 274.886C606.984 275.101 606.78 275.127 606.492 274.961C606.059 274.711 605.776 274.18 605.736 273.635L607.566 274.691L607.566 274.542C607.546 273.612 607.034 272.828 606.432 272.481C605.756 272.09 605.299 272.464 605.299 273.261C605.299 274.077 605.776 274.966 606.492 275.38C606.954 275.647 607.282 275.595 607.476 275.225L607.108 274.886ZM606.442 272.877C606.606 272.972 606.755 273.121 606.89 273.33C607.024 273.534 607.098 273.784 607.113 274.079L605.741 273.287C605.796 272.814 606.044 272.647 606.442 272.877ZM609.704 276.385C609.58 276.6 609.376 276.626 609.088 276.46C608.656 276.21 608.372 275.679 608.332 275.134L610.162 276.19L610.162 276.041C610.142 275.111 609.63 274.327 609.028 273.98C608.352 273.589 607.895 273.962 607.895 274.76C607.895 275.576 608.372 276.465 609.088 276.879C609.55 277.146 609.878 277.094 610.072 276.724L609.704 276.385ZM609.038 274.376C609.202 274.47 609.352 274.62 609.486 274.829C609.62 275.033 609.695 275.283 609.709 275.578L608.337 274.786C608.392 274.313 608.641 274.146 609.038 274.376ZM611.565 278.28C611.729 278.375 611.883 278.424 611.963 278.424L611.908 277.99C611.844 277.993 611.754 277.964 611.645 277.901C611.361 277.738 611.232 277.502 611.232 277.06L611.232 275.769L611.943 276.179L611.943 275.749L611.232 275.338L611.232 274.471L610.8 274.319L610.8 275.088L610.347 274.827L610.347 275.258L610.8 275.519L610.8 276.897C610.8 277.58 611.103 278.013 611.565 278.28Z" fill="#847658"/>
<rect x="0.355103" y="0.615057" width="80.0599" height="115.601" rx="5.74053" transform="matrix(0.866025 0.5 -2.20305e-08 1 557.669 145.513)" stroke="#847658" stroke-width="0.820076" stroke-dasharray="2.46 1.23"/>
<rect width="72.9209" height="100.407" rx="7.29209" transform="matrix(0.866025 0.5 -2.20305e-08 1 446.501 233.262)" fill="#7C9891"/>
<rect width="72.9209" height="100.407" rx="7.29209" transform="matrix(0.866025 0.5 -2.20305e-08 1 446.501 233.262)" fill="url(#paint2_linear)" style="mix-blend-mode:soft-light"/>
<path d="M468.265 255.818C468.265 257.553 469.279 259.261 470.625 260.039C471.108 260.317 471.53 260.412 471.884 260.325C472.237 260.231 472.475 259.96 472.604 259.516L471.85 258.861C471.652 259.399 471.19 259.524 470.598 259.183C469.694 258.66 469.054 257.412 469.054 256.265C469.054 255.119 469.694 254.608 470.605 255.134C471.278 255.523 471.707 256.265 471.843 256.846L472.645 257.168C472.366 255.939 471.605 254.871 470.605 254.294C469.258 253.517 468.265 254.066 468.265 255.818ZM473.384 256.016L473.384 261.513L476.546 263.339L476.546 262.522L474.159 261.144L474.159 259.605L475.968 260.649L475.968 259.825L474.159 258.78L474.159 257.281L476.546 258.659L476.546 257.842L473.384 256.016ZM477.467 263.871L480.35 265.535L480.35 264.719L478.242 263.502L478.242 258.821L477.467 258.373L477.467 263.871ZM481.012 265.917L483.895 267.582L483.895 266.765L481.787 265.548L481.787 260.868L481.012 260.42L481.012 265.917ZM485.604 264.768L486.821 264.701L486.821 269.271L487.576 269.707L487.576 264.21L486.896 263.817L485.515 263.837L485.604 264.768Z" fill="white" fill-opacity="0.65"/>
<path d="M462.41 271.708C463.599 272.395 464.395 271.895 464.395 270.693C464.395 269.391 463.511 268.013 462.348 267.341L460.206 266.104L460.206 273.172L461.002 273.632L461.002 270.895L462.41 271.708ZM463.573 270.219C463.573 270.875 463.162 271.294 462.287 270.789L461.002 270.047L461.002 267.422L462.209 268.119C463.162 268.669 463.573 269.563 463.573 270.219ZM465.067 275.979L465.828 276.418L465.828 274.086C465.828 272.995 466.3 272.702 466.956 273.081C467.087 273.157 467.201 273.242 467.288 273.333L467.288 272.485C467.21 272.399 467.096 272.303 466.956 272.223C466.458 271.935 466.02 272.016 465.811 272.45L465.776 272.43L465.776 271.652L465.067 271.243L465.067 275.979ZM467.628 275.085C467.628 276.609 468.538 278.134 469.718 278.815C470.899 279.497 471.808 279.012 471.808 277.498C471.808 275.973 470.899 274.459 469.718 273.777C468.538 273.096 467.628 273.55 467.628 275.085ZM468.398 275.529C468.398 275.034 468.52 274.691 468.756 274.494C468.992 274.297 469.316 274.322 469.718 274.555C470.12 274.787 470.444 275.135 470.68 275.605C470.916 276.074 471.039 276.559 471.039 277.053C471.039 278.063 470.523 278.502 469.718 278.038C468.914 277.573 468.398 276.539 468.398 275.529ZM472.4 277.849C472.4 279.344 473.213 280.833 474.341 281.484C474.944 281.833 475.486 281.843 475.766 281.368L475.792 281.383L475.792 282.171L476.492 282.575L476.492 275.507L475.731 275.068L475.731 278.056C475.478 277.425 474.979 276.814 474.35 276.451C473.23 275.805 472.4 276.355 472.4 277.849ZM473.169 278.294C473.169 277.314 473.668 276.835 474.472 277.299C475.268 277.759 475.749 278.743 475.749 279.783C475.749 280.803 475.268 281.232 474.472 280.772C473.703 280.328 473.169 279.293 473.169 278.294ZM481.135 280.52L480.375 280.081L480.375 282.807C480.375 283.211 480.27 283.484 480.051 283.62C479.841 283.751 479.579 283.731 479.273 283.554C478.713 283.231 478.39 282.59 478.39 281.772L478.39 278.935L477.629 278.496L477.629 281.525C477.629 282.666 478.189 283.706 479.072 284.216C479.675 284.564 480.156 284.508 480.392 284.13L480.427 284.15L480.427 284.847L481.135 285.256L481.135 280.52ZM484.021 282.035C482.876 281.374 482.036 281.909 482.036 283.403C482.036 284.847 482.823 286.381 484.065 287.098C484.965 287.618 485.595 287.447 485.866 286.644L485.149 286.018C484.974 286.482 484.624 286.644 484.039 286.306C483.234 285.841 482.806 284.837 482.806 283.857C482.806 282.858 483.234 282.358 484.039 282.822C484.624 283.161 484.983 283.721 485.149 284.392L485.892 284.69C485.639 283.494 485.009 282.605 484.021 282.035ZM488.321 289.505C488.61 289.672 488.881 289.758 489.021 289.758L488.924 288.995C488.811 289 488.653 288.95 488.461 288.839C487.963 288.551 487.735 288.137 487.735 287.36L487.735 285.088L488.986 285.81L488.986 285.053L487.735 284.331L487.735 282.806L486.975 282.539L486.975 283.891L486.179 283.432L486.179 284.189L486.975 284.649L486.975 287.072C486.975 288.273 487.508 289.036 488.321 289.505ZM494.253 285.691L493.361 285.176L491.035 290.971L491.883 291.461L492.522 289.8L495.075 291.274L495.713 293.672L496.579 294.172L494.253 285.691ZM493.825 286.504L494.839 290.3L492.784 289.114L493.79 286.483L493.825 286.504Z" fill="white"/>
<path d="M469.009 298.767L478.077 298.176L487.145 309.237L478.077 309.828L469.009 298.767Z" stroke="white" stroke-width="1.68279"/>
<path opacity="0.6" d="M471.265 304.223L478.078 303.779L484.891 312.09L478.078 312.534L471.265 304.223Z" stroke="white" stroke-width="1.68279"/>
<rect width="59.4586" height="22.4374" rx="6.17023" transform="matrix(0.866025 0.5 -2.20305e-08 1 452.33 307.866)" fill="#F8F8F3"/>
<path d="M460.869 326.996C462.145 327.733 463.037 327.369 463.037 326.057C463.037 323.331 459.889 322.725 459.889 321.029C459.889 320.423 460.309 320.312 460.877 320.64C461.533 321.019 461.944 321.7 462.04 322.402L463.011 322.76C462.854 321.559 462.067 320.317 460.904 319.645C459.732 318.969 458.875 319.292 458.875 320.544C458.875 323.26 462.014 323.871 462.014 325.587C462.014 326.223 461.568 326.4 460.895 326.011C460.292 325.663 459.714 324.956 459.61 324.179L458.639 323.861C458.814 325.133 459.776 326.365 460.869 326.996ZM469.649 327.138L468.739 326.613L467.909 329.425L467.882 329.41L466.999 325.608L466.125 325.103L465.224 327.875L465.198 327.86L464.367 324.089L463.362 323.508L464.691 329.091L465.6 329.617L466.527 326.739L467.445 330.682L468.32 331.187L469.649 327.138ZM471.248 325.769L470.295 325.219L470.295 326.38L471.248 326.93L471.248 325.769ZM471.248 328.061L470.295 327.511L470.295 332.286L471.248 332.837L471.248 328.061ZM473.751 334.433C474.73 334.999 475.395 334.777 475.395 333.807C475.395 331.889 473.13 331.45 473.13 330.39C473.13 330.077 473.34 329.945 473.751 330.183C474.127 330.4 474.433 330.829 474.477 331.207L475.36 331.505C475.211 330.693 474.564 329.824 473.725 329.34C472.807 328.809 472.186 329.037 472.186 329.925C472.186 331.844 474.45 332.283 474.45 333.343C474.45 333.747 474.223 333.888 473.777 333.631C473.349 333.383 472.999 332.909 472.894 332.434L472.028 332.136C472.23 333.07 472.868 333.923 473.751 334.433ZM477.617 336.665C478.596 337.231 479.261 337.009 479.261 336.039C479.261 334.121 476.996 333.682 476.996 332.622C476.996 332.309 477.206 332.177 477.617 332.415C477.993 332.632 478.299 333.061 478.343 333.44L479.226 333.737C479.077 332.925 478.43 332.056 477.591 331.572C476.673 331.042 476.052 331.269 476.052 332.157C476.052 334.076 478.317 334.515 478.317 335.575C478.317 335.979 478.089 336.12 477.643 335.863C477.215 335.615 476.865 335.141 476.76 334.666L475.895 334.368C476.096 335.302 476.734 336.156 477.617 336.665ZM481.955 331.951L481.955 339.018L482.952 339.594L482.952 332.526L481.955 331.951ZM486.25 341.649C487.526 342.387 488.418 342.023 488.418 340.71C488.418 337.984 485.27 337.379 485.27 335.682C485.27 335.076 485.69 334.965 486.258 335.294C486.914 335.672 487.325 336.354 487.421 337.055L488.392 337.414C488.235 336.212 487.448 334.97 486.285 334.299C485.113 333.623 484.256 333.946 484.256 335.198C484.256 337.914 487.395 338.525 487.395 340.241C487.395 340.877 486.949 341.054 486.276 340.665C485.673 340.317 485.095 339.61 484.99 338.832L484.02 338.514C484.195 339.787 485.157 341.018 486.25 341.649ZM489.448 336.277L489.448 343.345L490.445 343.92L490.445 336.852L489.448 336.277ZM497.171 340.735L496.174 340.16L496.174 345.491L492.965 338.267L491.854 337.626L491.854 344.734L492.851 345.309L492.851 339.978L496.06 347.202L497.171 347.844L497.171 340.735Z" fill="#7C9891"/>
<rect width="72.9209" height="100.407" rx="7.29209" transform="matrix(0.866025 0.5 -2.20305e-08 1 515.482 273.088)" fill="#6D93A1"/>
<rect width="72.9209" height="100.407" rx="7.29209" transform="matrix(0.866025 0.5 -2.20305e-08 1 515.482 273.088)" fill="url(#paint3_linear)" style="mix-blend-mode:soft-light"/>
<path d="M536.672 295.313C536.672 297.048 537.685 298.756 539.032 299.534C539.515 299.813 539.936 299.907 540.29 299.82C540.644 299.726 540.882 299.455 541.011 299.012L540.256 298.356C540.059 298.894 539.596 299.019 539.005 298.678C538.1 298.156 537.461 296.907 537.461 295.76C537.461 294.614 538.1 294.103 539.011 294.63C539.685 295.018 540.113 295.76 540.249 296.342L541.052 296.664C540.773 295.435 540.011 294.367 539.011 293.789C537.665 293.012 536.672 293.562 536.672 295.313ZM541.79 295.511L541.79 301.009L544.953 302.834L544.953 302.018L542.565 300.64L542.565 299.1L544.374 300.145L544.374 299.32L542.565 298.276L542.565 296.776L544.953 298.154L544.953 297.337L541.79 295.511ZM545.873 303.366L548.757 305.031L548.757 304.214L546.648 302.997L546.648 298.316L545.873 297.869L545.873 303.366ZM549.418 305.413L552.302 307.077L552.302 306.261L550.193 305.043L550.193 300.363L549.418 299.915L549.418 305.413ZM554.214 308.182L557.397 310.019L557.397 309.218L555.282 307.997L556.37 307.432C557.098 307.059 557.37 306.697 557.37 305.967C557.37 305.15 556.757 304.035 555.785 303.474C554.792 302.9 554.248 303.403 554.153 304.322L554.894 304.828C554.948 304.318 555.2 303.945 555.792 304.286C556.315 304.589 556.581 305.182 556.581 305.606C556.581 306.038 556.39 306.281 555.846 306.587L554.214 307.42L554.214 308.182Z" fill="white" fill-opacity="0.65"/>
<path d="M531.595 311.653C532.785 312.339 533.58 311.839 533.58 310.638C533.58 309.335 532.697 307.957 531.534 307.286L529.392 306.049L529.392 313.117L530.188 313.576L530.188 310.84L531.595 311.653ZM532.758 310.163C532.758 310.82 532.347 311.239 531.473 310.734L530.188 309.992L530.188 307.367L531.394 308.063C532.347 308.613 532.758 309.507 532.758 310.163ZM534.253 315.923L535.014 316.362L535.014 314.03C535.014 312.94 535.486 312.647 536.142 313.025C536.273 313.101 536.386 313.187 536.474 313.278L536.474 312.43C536.395 312.344 536.282 312.248 536.142 312.167C535.643 311.879 535.206 311.96 534.996 312.394L534.961 312.374L534.961 311.597L534.253 311.188L534.253 315.923ZM536.814 315.029C536.814 316.554 537.723 318.078 538.904 318.76C540.084 319.441 540.994 318.957 540.994 317.442C540.994 315.918 540.084 314.403 538.904 313.722C537.723 313.04 536.814 313.494 536.814 315.029ZM537.583 315.473C537.583 314.979 537.706 314.635 537.942 314.438C538.178 314.242 538.502 314.267 538.904 314.499C539.306 314.731 539.63 315.08 539.866 315.549C540.102 316.019 540.224 316.503 540.224 316.998C540.224 318.008 539.708 318.447 538.904 317.982C538.099 317.518 537.583 316.483 537.583 315.473ZM541.585 317.794C541.585 319.288 542.398 320.777 543.526 321.429C544.13 321.777 544.672 321.787 544.952 321.313L544.978 321.328L544.978 322.115L545.678 322.519L545.678 315.451L544.917 315.012L544.917 318.001C544.663 317.37 544.165 316.759 543.535 316.395C542.416 315.749 541.585 316.3 541.585 317.794ZM542.355 318.238C542.355 317.259 542.853 316.779 543.658 317.244C544.453 317.703 544.934 318.687 544.934 319.727C544.934 320.747 544.453 321.176 543.658 320.717C542.888 320.273 542.355 319.238 542.355 318.238ZM550.321 320.465L549.56 320.026L549.56 322.752C549.56 323.156 549.455 323.428 549.237 323.564C549.027 323.696 548.765 323.676 548.459 323.499C547.899 323.176 547.575 322.535 547.575 321.717L547.575 318.88L546.815 318.44L546.815 321.469C546.815 322.61 547.374 323.65 548.257 324.16C548.861 324.508 549.342 324.453 549.578 324.074L549.613 324.095L549.613 324.791L550.321 325.2L550.321 320.465ZM553.207 321.979C552.061 321.318 551.222 321.853 551.222 323.347C551.222 324.791 552.009 326.326 553.25 327.043C554.151 327.563 554.781 327.391 555.052 326.589L554.335 325.963C554.16 326.427 553.81 326.589 553.224 326.25C552.42 325.786 551.991 324.781 551.991 323.802C551.991 322.802 552.42 322.302 553.224 322.767C553.81 323.105 554.169 323.665 554.335 324.337L555.078 324.635C554.824 323.438 554.195 322.55 553.207 321.979ZM557.507 329.45C557.795 329.616 558.066 329.702 558.206 329.702L558.11 328.94C557.996 328.945 557.839 328.894 557.647 328.783C557.148 328.496 556.921 328.082 556.921 327.304L556.921 325.032L558.171 325.754L558.171 324.997L556.921 324.275L556.921 322.751L556.16 322.483L556.16 323.836L555.364 323.377L555.364 324.134L556.16 324.593L556.16 327.016C556.16 328.218 556.694 328.98 557.507 329.45ZM564.777 328.316C564.777 327.236 564.121 326.1 562.897 325.393L560.851 324.212L560.851 331.279L563.028 332.536C563.701 332.925 564.208 333.036 564.541 332.854C564.873 332.673 565.039 332.284 565.039 331.708C565.039 330.901 564.637 329.931 563.727 329.285C564.436 329.533 564.777 329.043 564.777 328.316ZM562.827 326.211C563.631 326.675 563.946 327.382 563.946 327.947C563.946 328.543 563.64 328.861 562.949 328.462L561.646 327.71L561.646 325.529L562.827 326.211ZM564.217 331.173C564.217 331.486 564.121 331.713 563.928 331.845C563.736 331.976 563.43 331.92 563.01 331.678L561.646 330.891L561.646 328.508L562.975 329.275C563.421 329.533 563.745 329.841 563.928 330.179C564.121 330.522 564.217 330.86 564.217 331.173Z" fill="white"/>
<path d="M537.99 338.593L547.057 338.002L556.125 349.063L547.057 349.654L537.99 338.593Z" stroke="white" stroke-width="1.68279"/>
<path opacity="0.6" d="M540.246 344.049L547.059 343.605L553.872 351.916L547.059 352.36L540.246 344.049Z" stroke="white" stroke-width="1.68279"/>
<rect width="59.4586" height="22.4374" rx="6.17023" transform="matrix(0.866025 0.5 -2.20305e-08 1 521.311 347.692)" fill="#F8F8F3"/>
<path d="M529.849 366.822C531.126 367.559 532.018 367.196 532.018 365.883C532.018 363.157 528.87 362.551 528.87 360.855C528.87 360.249 529.29 360.138 529.858 360.466C530.514 360.845 530.925 361.526 531.021 362.228L531.992 362.586C531.834 361.385 531.047 360.143 529.884 359.472C528.713 358.795 527.856 359.118 527.856 360.37C527.856 363.086 530.995 363.697 530.995 365.413C530.995 366.05 530.549 366.226 529.876 365.838C529.272 365.489 528.695 364.782 528.59 364.005L527.62 363.687C527.795 364.959 528.756 366.191 529.849 366.822ZM538.63 366.964L537.72 366.439L536.889 369.251L536.863 369.236L535.98 365.434L535.106 364.929L534.205 367.701L534.179 367.686L533.348 363.915L532.343 363.334L533.672 368.918L534.581 369.443L535.508 366.565L536.426 370.508L537.3 371.013L538.63 366.964ZM540.228 365.595L539.275 365.045L539.275 366.206L540.228 366.756L540.228 365.595ZM540.228 367.887L539.275 367.337L539.275 372.113L540.228 372.663L540.228 367.887ZM542.732 374.26C543.711 374.825 544.376 374.603 544.376 373.634C544.376 371.715 542.111 371.276 542.111 370.216C542.111 369.903 542.321 369.772 542.732 370.009C543.108 370.226 543.414 370.655 543.457 371.034L544.341 371.331C544.192 370.519 543.545 369.65 542.705 369.166C541.787 368.636 541.167 368.863 541.167 369.751C541.167 371.67 543.431 372.109 543.431 373.169C543.431 373.573 543.204 373.714 542.758 373.457C542.329 373.209 541.98 372.735 541.875 372.26L541.009 371.963C541.21 372.896 541.849 373.75 542.732 374.26ZM546.598 376.492C547.577 377.057 548.242 376.835 548.242 375.866C548.242 373.947 545.977 373.508 545.977 372.448C545.977 372.135 546.187 372.004 546.598 372.241C546.974 372.458 547.28 372.887 547.324 373.266L548.207 373.564C548.058 372.751 547.411 371.883 546.572 371.398C545.653 370.868 545.033 371.095 545.033 371.983C545.033 373.902 547.297 374.341 547.297 375.401C547.297 375.805 547.07 375.946 546.624 375.689C546.196 375.442 545.846 374.967 545.741 374.493L544.875 374.195C545.076 375.129 545.715 375.982 546.598 376.492ZM550.936 371.777L550.936 378.845L551.932 379.42L551.932 372.352L550.936 371.777ZM555.23 381.476C556.507 382.213 557.399 381.849 557.399 380.537C557.399 377.811 554.251 377.205 554.251 375.508C554.251 374.903 554.671 374.792 555.239 375.12C555.895 375.498 556.306 376.18 556.402 376.882L557.373 377.24C557.215 376.039 556.428 374.797 555.265 374.125C554.094 373.449 553.237 373.772 553.237 375.024C553.237 377.74 556.376 378.351 556.376 380.067C556.376 380.703 555.93 380.88 555.257 380.491C554.653 380.143 554.076 379.436 553.971 378.659L553.001 378.341C553.175 379.613 554.137 380.845 555.23 381.476ZM558.429 376.103L558.429 383.171L559.426 383.746L559.426 376.679L558.429 376.103ZM566.151 380.562L565.154 379.986L565.154 385.317L561.945 378.093L560.835 377.452L560.835 384.56L561.832 385.135L561.832 379.804L565.041 387.029L566.151 387.67L566.151 380.562Z" fill="#6D93A1"/>
<rect width="72.9209" height="100.407" rx="7.29209" transform="matrix(0.866025 0.5 -2.20305e-08 1 584.462 312.914)" fill="#847658" fill-opacity="0.7"/>
<rect width="72.9209" height="100.407" rx="7.29209" transform="matrix(0.866025 0.5 -2.20305e-08 1 584.462 312.914)" fill="url(#paint4_linear)" style="mix-blend-mode:soft-light"/>
<path d="M605.653 335.139C605.653 336.875 606.666 338.583 608.012 339.36C608.495 339.639 608.917 339.733 609.271 339.647C609.624 339.552 609.862 339.281 609.992 338.838L609.237 338.182C609.039 338.72 608.577 338.846 607.985 338.504C607.081 337.982 606.441 336.733 606.441 335.587C606.441 334.44 607.081 333.93 607.992 334.456C608.665 334.845 609.094 335.587 609.23 336.168L610.032 336.49C609.753 335.261 608.992 334.193 607.992 333.616C606.645 332.838 605.653 333.388 605.653 335.139ZM610.771 335.338L610.771 340.835L613.933 342.661L613.933 341.844L611.546 340.466L611.546 338.926L613.355 339.971L613.355 339.146L611.546 338.102L611.546 336.602L613.933 337.98L613.933 337.163L610.771 335.338ZM614.854 343.192L617.737 344.857L617.737 344.04L615.629 342.823L615.629 338.143L614.854 337.695L614.854 343.192ZM618.399 345.239L621.282 346.904L621.282 346.087L619.174 344.87L619.174 340.189L618.399 339.742L618.399 345.239ZM624.752 349.025C625.799 349.629 626.452 349.205 626.452 348.129C626.452 347.218 625.956 346.264 625.269 345.868C625.249 345.856 625.235 345.856 625.215 345.844L625.215 345.813C625.276 345.793 625.357 345.738 625.473 345.671L626.377 345.094L626.377 344.348L623.195 342.511L623.195 343.312L625.466 344.623L624.16 345.416L624.16 346.123C624.344 346.048 624.548 346.08 624.766 346.205C625.303 346.516 625.65 347.093 625.65 347.697C625.65 348.302 625.317 348.565 624.738 348.231C624.222 347.933 623.807 347.301 623.759 346.739L623.025 346.417C623.065 347.368 623.814 348.483 624.752 349.025Z" fill="white" fill-opacity="0.65"/>
<path d="M600.132 351.222C601.321 351.909 602.117 351.409 602.117 350.208C602.117 348.905 601.234 347.527 600.071 346.856L597.928 345.619L597.928 352.686L598.724 353.146L598.724 350.41L600.132 351.222ZM601.295 349.733C601.295 350.389 600.884 350.808 600.01 350.304L598.724 349.561L598.724 346.936L599.931 347.633C600.884 348.183 601.295 349.077 601.295 349.733ZM602.79 355.493L603.55 355.932L603.55 353.6C603.55 352.509 604.023 352.217 604.678 352.595C604.81 352.671 604.923 352.757 605.011 352.848L605.011 352C604.932 351.914 604.818 351.818 604.678 351.737C604.18 351.449 603.743 351.53 603.533 351.964L603.498 351.944L603.498 351.167L602.79 350.758L602.79 355.493ZM605.351 354.599C605.351 356.123 606.26 357.648 607.441 358.33C608.621 359.011 609.53 358.527 609.53 357.012C609.53 355.487 608.621 353.973 607.441 353.291C606.26 352.61 605.351 353.064 605.351 354.599ZM606.12 355.043C606.12 354.548 606.243 354.205 606.479 354.008C606.715 353.811 607.038 353.837 607.441 354.069C607.843 354.301 608.166 354.649 608.402 355.119C608.638 355.588 608.761 356.073 608.761 356.568C608.761 357.577 608.245 358.017 607.441 357.552C606.636 357.088 606.12 356.053 606.12 355.043ZM610.122 357.364C610.122 358.858 610.935 360.347 612.063 360.999C612.666 361.347 613.209 361.357 613.488 360.882L613.515 360.898L613.515 361.685L614.214 362.089L614.214 355.021L613.453 354.582L613.453 357.571C613.2 356.94 612.701 356.329 612.072 355.965C610.953 355.319 610.122 355.869 610.122 357.364ZM610.891 357.808C610.891 356.829 611.39 356.349 612.194 356.813C612.99 357.273 613.471 358.257 613.471 359.297C613.471 360.317 612.99 360.746 612.194 360.287C611.425 359.842 610.891 358.808 610.891 357.808ZM618.858 360.035L618.097 359.595L618.097 362.321C618.097 362.725 617.992 362.998 617.773 363.134C617.564 363.266 617.301 363.245 616.995 363.069C616.436 362.746 616.112 362.104 616.112 361.287L616.112 358.449L615.351 358.01L615.351 361.039C615.351 362.18 615.911 363.22 616.794 363.73C617.397 364.078 617.878 364.023 618.115 363.644L618.149 363.664L618.149 364.361L618.858 364.77L618.858 360.035ZM621.743 361.549C620.598 360.888 619.759 361.423 619.759 362.917C619.759 364.361 620.545 365.896 621.787 366.613C622.688 367.133 623.317 366.961 623.588 366.158L622.871 365.532C622.697 365.997 622.347 366.158 621.761 365.82C620.956 365.356 620.528 364.351 620.528 363.372C620.528 362.372 620.956 361.872 621.761 362.337C622.347 362.675 622.705 363.235 622.871 363.907L623.615 364.205C623.361 363.008 622.731 362.12 621.743 361.549ZM626.043 369.02C626.332 369.186 626.603 369.272 626.743 369.272L626.647 368.51C626.533 368.515 626.376 368.464 626.183 368.353C625.685 368.065 625.458 367.651 625.458 366.874L625.458 364.602L626.708 365.324L626.708 364.567L625.458 363.845L625.458 362.32L624.697 362.053L624.697 363.406L623.901 362.946L623.901 363.704L624.697 364.163L624.697 366.586C624.697 367.788 625.23 368.55 626.043 369.02ZM629.037 367.123C629.037 369.355 630.332 371.546 632.037 372.53C633.261 373.237 634.214 372.969 634.546 371.859L633.768 371.177C633.497 371.95 632.832 372.121 632.002 371.642C630.76 370.925 629.859 369.224 629.859 367.588C629.859 365.952 630.751 365.286 632.01 366.013C632.911 366.533 633.549 367.558 633.759 368.456L634.581 368.769C634.223 367.229 633.261 365.866 632.01 365.144C630.314 364.165 629.037 364.872 629.037 367.123Z" fill="white"/>
<path d="M606.97 378.419L616.038 377.828L625.106 388.89L616.038 389.481L606.97 378.419Z" stroke="white" stroke-width="1.68279"/>
<path opacity="0.6" d="M609.227 383.875L616.039 383.431L622.852 391.742L616.039 392.186L609.227 383.875Z" stroke="white" stroke-width="1.68279"/>
<rect width="59.4586" height="22.4374" rx="6.17023" transform="matrix(0.866025 0.5 -2.20305e-08 1 590.292 387.519)" fill="#F8F8F3"/>
<path d="M598.83 406.648C600.107 407.385 600.999 407.022 600.999 405.709C600.999 402.983 597.851 402.377 597.851 400.681C597.851 400.075 598.27 399.964 598.839 400.292C599.495 400.671 599.906 401.352 600.002 402.054L600.972 402.413C600.815 401.211 600.028 399.969 598.865 399.298C597.693 398.621 596.836 398.944 596.836 400.196C596.836 402.912 599.976 403.523 599.976 405.24C599.976 405.876 599.53 406.052 598.856 405.664C598.253 405.315 597.676 404.609 597.571 403.831L596.6 403.513C596.775 404.785 597.737 406.017 598.83 406.648ZM607.61 406.79L606.701 406.265L605.87 409.077L605.844 409.062L604.961 405.26L604.086 404.756L603.186 407.527L603.159 407.512L602.329 403.741L601.323 403.16L602.652 408.744L603.562 409.269L604.489 406.391L605.407 410.334L606.281 410.839L607.61 406.79ZM609.209 405.421L608.256 404.871L608.256 406.032L609.209 406.582L609.209 405.421ZM609.209 407.713L608.256 407.163L608.256 411.939L609.209 412.489L609.209 407.713ZM611.712 414.086C612.692 414.651 613.356 414.429 613.356 413.46C613.356 411.541 611.092 411.102 611.092 410.042C611.092 409.729 611.301 409.598 611.712 409.835C612.088 410.052 612.394 410.481 612.438 410.86L613.321 411.158C613.173 410.345 612.526 409.477 611.686 408.992C610.768 408.462 610.147 408.689 610.147 409.578C610.147 411.496 612.412 411.935 612.412 412.995C612.412 413.399 612.185 413.54 611.739 413.283C611.31 413.036 610.96 412.561 610.855 412.087L609.99 411.789C610.191 412.723 610.829 413.576 611.712 414.086ZM615.579 416.318C616.558 416.883 617.222 416.661 617.222 415.692C617.222 413.773 614.958 413.334 614.958 412.274C614.958 411.961 615.168 411.83 615.579 412.067C615.955 412.284 616.261 412.713 616.304 413.092L617.187 413.39C617.039 412.577 616.392 411.709 615.552 411.224C614.634 410.694 614.013 410.921 614.013 411.81C614.013 413.728 616.278 414.167 616.278 415.227C616.278 415.631 616.051 415.773 615.605 415.515C615.176 415.268 614.827 414.793 614.722 414.319L613.856 414.021C614.057 414.955 614.695 415.808 615.579 416.318ZM619.916 411.603L619.916 418.671L620.913 419.246L620.913 412.179L619.916 411.603ZM624.211 421.302C625.488 422.039 626.38 421.675 626.38 420.363C626.38 417.637 623.232 417.031 623.232 415.335C623.232 414.729 623.651 414.618 624.22 414.946C624.876 415.325 625.287 416.006 625.383 416.708L626.353 417.066C626.196 415.865 625.409 414.623 624.246 413.951C623.074 413.275 622.217 413.598 622.217 414.85C622.217 417.566 625.357 418.177 625.357 419.893C625.357 420.529 624.911 420.706 624.237 420.317C623.634 419.969 623.057 419.262 622.952 418.485L621.981 418.167C622.156 419.439 623.118 420.671 624.211 421.302ZM627.41 415.929L627.41 422.997L628.406 423.573L628.406 416.505L627.41 415.929ZM635.132 420.388L634.135 419.812L634.135 425.143L630.926 417.919L629.816 417.278L629.816 424.386L630.812 424.962L630.812 419.631L634.021 426.855L635.132 427.496L635.132 420.388Z" fill="#847658"/>
<path d="M656.92 407.229C658.319 408.037 659.454 407.508 659.454 405.766C659.454 404.025 658.319 402.185 656.92 401.378C655.521 400.57 654.386 401.1 654.386 402.841C654.386 404.582 655.521 406.422 656.92 407.229ZM663.642 411.11C665.041 411.918 666.175 411.388 666.175 409.647C666.175 407.906 665.041 406.066 663.642 405.258C662.242 404.451 661.108 404.98 661.108 406.721C661.108 408.462 662.242 410.302 663.642 411.11ZM670.363 414.991C671.762 415.798 672.897 415.269 672.897 413.528C672.897 411.787 671.762 409.947 670.363 409.139C668.964 408.331 667.829 408.861 667.829 410.602C667.829 412.343 668.964 414.183 670.363 414.991Z" fill="#1D2021" fill-opacity="0.45"/>
<rect width="72.9209" height="100.407" rx="7.29209" transform="matrix(0.866025 0.5 -2.20305e-08 1 679.675 367.885)" fill="#6B7376"/>
<rect width="72.9209" height="100.407" rx="7.29209" transform="matrix(0.866025 0.5 -2.20305e-08 1 679.675 367.885)" fill="url(#paint5_linear)" style="mix-blend-mode:soft-light"/>
<path d="M700.503 389.9C700.503 391.636 701.517 393.344 702.863 394.121C703.346 394.4 703.768 394.494 704.122 394.408C704.475 394.314 704.713 394.043 704.842 393.599L704.088 392.943C703.89 393.481 703.428 393.607 702.836 393.265C701.932 392.743 701.292 391.495 701.292 390.348C701.292 389.201 701.932 388.691 702.843 389.217C703.516 389.606 703.945 390.348 704.081 390.929L704.883 391.251C704.604 390.022 703.843 388.954 702.843 388.377C701.496 387.599 700.503 388.149 700.503 389.9ZM705.622 390.099L705.622 395.596L708.784 397.422L708.784 396.605L706.397 395.227L706.397 393.688L708.206 394.732L708.206 393.908L706.397 392.863L706.397 391.363L708.784 392.742L708.784 391.925L705.622 390.099ZM709.705 397.953L712.588 399.618L712.588 398.802L710.48 397.584L710.48 392.904L709.705 392.456L709.705 397.953ZM713.25 400L716.133 401.665L716.133 400.848L714.025 399.631L714.025 394.951L713.25 394.503L713.25 400ZM720.433 401.281L721.956 399.53L721.058 399.011L719.963 400.303L718.868 397.747L717.971 397.229L719.474 400.727L717.835 402.647L718.732 403.166L719.943 401.721L721.174 404.575L722.065 405.09L720.433 401.281Z" fill="white" fill-opacity="0.65"/>
<path d="M695.131 406.07C696.321 406.756 697.116 406.257 697.116 405.055C697.116 403.753 696.233 402.374 695.07 401.703L692.928 400.466L692.928 407.534L693.724 407.993L693.724 405.257L695.131 406.07ZM696.294 404.581C696.294 405.237 695.883 405.656 695.009 405.151L693.724 404.409L693.724 401.784L694.93 402.48C695.883 403.031 696.294 403.924 696.294 404.581ZM697.789 410.34L698.55 410.78L698.55 408.447C698.55 407.357 699.022 407.064 699.678 407.443C699.809 407.518 699.923 407.604 700.01 407.695L700.01 406.847C699.931 406.761 699.818 406.665 699.678 406.584C699.179 406.297 698.742 406.377 698.532 406.812L698.497 406.791L698.497 406.014L697.789 405.605L697.789 410.34ZM700.35 409.446C700.35 410.971 701.259 412.496 702.44 413.177C703.62 413.859 704.53 413.374 704.53 411.859C704.53 410.335 703.62 408.82 702.44 408.139C701.259 407.457 700.35 407.912 700.35 409.446ZM701.12 409.891C701.12 409.396 701.242 409.053 701.478 408.856C701.714 408.659 702.038 408.684 702.44 408.916C702.842 409.148 703.166 409.497 703.402 409.966C703.638 410.436 703.76 410.92 703.76 411.415C703.76 412.425 703.244 412.864 702.44 412.4C701.635 411.935 701.12 410.9 701.12 409.891ZM705.121 412.211C705.121 413.705 705.935 415.195 707.063 415.846C707.666 416.194 708.208 416.204 708.488 415.73L708.514 415.745L708.514 416.533L709.214 416.936L709.214 409.869L708.453 409.429L708.453 412.418C708.199 411.787 707.701 411.176 707.071 410.813C705.952 410.167 705.121 410.717 705.121 412.211ZM705.891 412.655C705.891 411.676 706.389 411.196 707.194 411.661C707.989 412.12 708.47 413.105 708.47 414.145C708.47 415.164 707.989 415.594 707.194 415.134C706.424 414.69 705.891 413.655 705.891 412.655ZM713.857 414.882L713.096 414.443L713.096 417.169C713.096 417.573 712.992 417.845 712.773 417.982C712.563 418.113 712.301 418.093 711.995 417.916C711.435 417.593 711.112 416.952 711.112 416.134L711.112 413.297L710.351 412.858L710.351 415.887C710.351 417.028 710.91 418.068 711.794 418.577C712.397 418.926 712.878 418.87 713.114 418.492L713.149 418.512L713.149 419.208L713.857 419.617L713.857 414.882ZM716.743 416.397C715.597 415.735 714.758 416.27 714.758 417.765C714.758 419.209 715.545 420.743 716.787 421.46C717.687 421.98 718.317 421.808 718.588 421.006L717.871 420.38C717.696 420.844 717.346 421.006 716.76 420.668C715.956 420.203 715.527 419.198 715.527 418.219C715.527 417.219 715.956 416.72 716.76 417.184C717.346 417.522 717.705 418.083 717.871 418.754L718.614 419.052C718.36 417.856 717.731 416.967 716.743 416.397ZM721.043 423.867C721.331 424.034 721.602 424.119 721.742 424.119L721.646 423.357C721.533 423.362 721.375 423.312 721.183 423.201C720.684 422.913 720.457 422.499 720.457 421.721L720.457 419.45L721.707 420.172L721.707 419.414L720.457 418.692L720.457 417.168L719.696 416.9L719.696 418.253L718.901 417.794L718.901 418.551L719.696 419.01L719.696 421.434C719.696 422.635 720.23 423.398 721.043 423.867ZM729.572 421.623L728.767 421.158L728.767 426.853L725.27 419.068L724.387 418.558L724.387 425.697L725.182 426.156L725.182 420.461L728.689 428.251L729.572 428.761L729.572 421.623Z" fill="white"/>
<path d="M702.183 433.39L711.251 432.799L720.319 443.86L711.251 444.451L702.183 433.39Z" stroke="white" stroke-opacity="0.65" stroke-width="1.68279"/>
<path opacity="0.6" d="M704.439 438.846L711.252 438.402L718.065 446.713L711.252 447.157L704.439 438.846Z" stroke="white" stroke-opacity="0.65" stroke-width="1.68279"/>
<rect width="59.4586" height="22.4374" rx="6.17023" transform="matrix(0.866025 0.5 -2.20305e-08 1 685.505 442.489)" fill="#F8F8F3"/>
<path d="M694.043 461.619C695.32 462.356 696.212 461.992 696.212 460.68C696.212 457.954 693.064 457.348 693.064 455.652C693.064 455.046 693.483 454.935 694.052 455.263C694.708 455.642 695.119 456.323 695.215 457.025L696.185 457.383C696.028 456.182 695.241 454.94 694.078 454.268C692.906 453.592 692.049 453.915 692.049 455.167C692.049 457.883 695.188 458.494 695.188 460.21C695.188 460.846 694.743 461.023 694.069 460.634C693.466 460.286 692.889 459.579 692.784 458.802L691.813 458.484C691.988 459.756 692.95 460.988 694.043 461.619ZM702.823 461.761L701.914 461.236L701.083 464.048L701.057 464.033L700.174 460.231L699.299 459.726L698.399 462.498L698.372 462.483L697.542 458.712L696.536 458.131L697.865 463.715L698.775 464.24L699.701 461.362L700.62 465.305L701.494 465.81L702.823 461.761ZM704.422 460.392L703.469 459.842L703.469 461.003L704.422 461.553L704.422 460.392ZM704.422 462.684L703.469 462.134L703.469 466.909L704.422 467.46L704.422 462.684ZM706.925 469.056C707.905 469.622 708.569 469.4 708.569 468.43C708.569 466.512 706.304 466.073 706.304 465.013C706.304 464.7 706.514 464.568 706.925 464.806C707.301 465.023 707.607 465.452 707.651 465.831L708.534 466.128C708.386 465.316 707.738 464.447 706.899 463.963C705.981 463.433 705.36 463.66 705.36 464.548C705.36 466.467 707.625 466.906 707.625 467.966C707.625 468.37 707.397 468.511 706.952 468.254C706.523 468.006 706.173 467.532 706.068 467.057L705.203 466.759C705.404 467.693 706.042 468.547 706.925 469.056ZM710.791 471.289C711.771 471.854 712.435 471.632 712.435 470.663C712.435 468.744 710.171 468.305 710.171 467.245C710.171 466.932 710.38 466.801 710.791 467.038C711.167 467.255 711.473 467.684 711.517 468.063L712.4 468.36C712.252 467.548 711.605 466.679 710.765 466.195C709.847 465.665 709.226 465.892 709.226 466.78C709.226 468.699 711.491 469.138 711.491 470.198C711.491 470.602 711.264 470.743 710.818 470.486C710.389 470.238 710.039 469.764 709.935 469.289L709.069 468.992C709.27 469.925 709.908 470.779 710.791 471.289ZM715.129 466.574L715.129 473.642L716.126 474.217L716.126 467.149L715.129 466.574ZM719.424 476.273C720.701 477.01 721.592 476.646 721.592 475.334C721.592 472.607 718.445 472.002 718.445 470.305C718.445 469.7 718.864 469.588 719.433 469.917C720.088 470.295 720.499 470.977 720.596 471.678L721.566 472.037C721.409 470.835 720.622 469.594 719.459 468.922C718.287 468.246 717.43 468.569 717.43 469.821C717.43 472.537 720.569 473.148 720.569 474.864C720.569 475.5 720.123 475.677 719.45 475.288C718.847 474.94 718.27 474.233 718.165 473.456L717.194 473.137C717.369 474.41 718.331 475.641 719.424 476.273ZM722.622 470.9L722.622 477.968L723.619 478.543L723.619 471.476L722.622 470.9ZM730.345 475.359L729.348 474.783L729.348 480.114L726.139 472.89L725.028 472.249L725.028 479.357L726.025 479.932L726.025 474.601L729.234 481.825L730.345 482.467L730.345 475.359Z" fill="#6B7376"/>
<defs>
<filter id="filter0_d" x="573.779" y="58.7636" width="41.5119" height="43.259" filterUnits="userSpaceOnUse" color-interpolation-filters="sRGB">
<feFlood flood-opacity="0" result="BackgroundImageFix"/>
<feColorMatrix in="SourceAlpha" type="matrix" values="0 0 0 0 0 0 0 0 0 0 0 0 0 0 0 0 0 0 127 0" result="hardAlpha"/>
<feOffset dy="6.56061"/>
<feGaussianBlur stdDeviation="6.56061"/>
<feColorMatrix type="matrix" values="0 0 0 0 0 0 0 0 0 0 0 0 0 0 0 0 0 0 0.03 0"/>
<feBlend mode="normal" in2="BackgroundImageFix" result="effect1_dropShadow"/>
<feBlend mode="normal" in="SourceGraphic" in2="effect1_dropShadow" result="shape"/>
</filter>
<filter id="filter1_d" x="570.051" y="77.2011" width="48.9691" height="55.5888" filterUnits="userSpaceOnUse" color-interpolation-filters="sRGB">
<feFlood flood-opacity="0" result="BackgroundImageFix"/>
<feColorMatrix in="SourceAlpha" type="matrix" values="0 0 0 0 0 0 0 0 0 0 0 0 0 0 0 0 0 0 127 0" result="hardAlpha"/>
<feOffset dy="6.56061"/>
<feGaussianBlur stdDeviation="6.56061"/>
<feColorMatrix type="matrix" values="0 0 0 0 0 0 0 0 0 0 0 0 0 0 0 0 0 0 0.03 0"/>
<feBlend mode="normal" in2="BackgroundImageFix" result="effect1_dropShadow"/>
<feBlend mode="normal" in="SourceGraphic" in2="effect1_dropShadow" result="shape"/>
</filter>
<filter id="filter2_d" x="568.159" y="201.364" width="48.9691" height="65.6061" filterUnits="userSpaceOnUse" color-interpolation-filters="sRGB">
<feFlood flood-opacity="0" result="BackgroundImageFix"/>
<feColorMatrix in="SourceAlpha" type="matrix" values="0 0 0 0 0 0 0 0 0 0 0 0 0 0 0 0 0 0 127 0" result="hardAlpha"/>
<feOffset dy="6.56061"/>
<feGaussianBlur stdDeviation="6.56061"/>
<feColorMatrix type="matrix" values="0 0 0 0 0 0 0 0 0 0 0 0 0 0 0 0 0 0 0.03 0"/>
<feBlend mode="normal" in2="BackgroundImageFix" result="effect1_dropShadow"/>
<feBlend mode="normal" in="SourceGraphic" in2="effect1_dropShadow" result="shape"/>
</filter>
<linearGradient id="paint0_linear" x1="367.158" y1="549.606" x2="791.407" y2="275.676" gradientUnits="userSpaceOnUse">
<stop stop-color="#D7CDB7" stop-opacity="0"/>
<stop offset="0.0001" stop-color="#D7CDB7" stop-opacity="0.87"/>
<stop offset="0.479067" stop-color="#BAAE93"/>
<stop offset="1" stop-color="#978868" stop-opacity="0.47"/>
</linearGradient>
<linearGradient id="paint1_linear" x1="4.16164e-06" y1="-0.209846" x2="104.636" y2="88.1229" gradientUnits="userSpaceOnUse">
<stop stop-opacity="0"/>
<stop offset="0.199303" stop-opacity="0.36"/>
<stop offset="0.656862" stop-opacity="0.19"/>
<stop offset="1" stop-color="white" stop-opacity="0.69"/>
</linearGradient>
<linearGradient id="paint2_linear" x1="72.9209" y1="100.407" x2="-0.000319594" y2="0.000232108" gradientUnits="userSpaceOnUse">
<stop stop-color="white" stop-opacity="0.5"/>
<stop offset="0.419955" stop-color="#464646" stop-opacity="0.36"/>
<stop offset="0.826551" stop-opacity="0.5"/>
<stop offset="1" stop-opacity="0"/>
</linearGradient>
<linearGradient id="paint3_linear" x1="72.9209" y1="100.407" x2="-0.000319594" y2="0.000232108" gradientUnits="userSpaceOnUse">
<stop stop-color="white" stop-opacity="0.5"/>
<stop offset="0.419955" stop-color="#464646" stop-opacity="0.36"/>
<stop offset="0.826551" stop-opacity="0.5"/>
<stop offset="1" stop-opacity="0"/>
</linearGradient>
<linearGradient id="paint4_linear" x1="72.9209" y1="100.407" x2="-0.000319594" y2="0.000232108" gradientUnits="userSpaceOnUse">
<stop stop-color="white" stop-opacity="0.5"/>
<stop offset="0.419955" stop-color="#464646" stop-opacity="0.36"/>
<stop offset="0.826551" stop-opacity="0.5"/>
<stop offset="1" stop-opacity="0"/>
</linearGradient>
<linearGradient id="paint5_linear" x1="72.9209" y1="100.407" x2="-0.000319594" y2="0.000232108" gradientUnits="userSpaceOnUse">
<stop stop-color="white" stop-opacity="0.5"/>
<stop offset="0.419955" stop-color="#464646" stop-opacity="0.36"/>
<stop offset="0.826551" stop-opacity="0.5"/>
<stop offset="1" stop-opacity="0"/>
</linearGradient>
</defs>
</svg>
