<svg width="142" height="74" viewBox="0 0 142 74" fill="none" xmlns="http://www.w3.org/2000/svg">
<path fill-rule="evenodd" clip-rule="evenodd" d="M48.5799 45.4341C49.0084 45.1446 49.4743 44.8746 49.9713 44.6229C50.006 44.6053 50.0409 44.5878 50.0759 44.5704C50.5712 44.3241 51.0965 44.0955 51.6456 43.8834C51.6456 43.8834 51.6456 43.8834 51.6456 43.8834C53.3556 43.2229 55.2969 42.7218 57.2861 42.3422C62.7797 41.2937 68.6389 41.171 71.001 41.171C73.2557 41.171 78.6964 41.2828 83.9642 42.2047C86.1869 42.5938 88.3788 43.127 90.2876 43.857C90.5584 43.9605 90.8236 44.0681 91.0823 44.1797C91.3982 44.316 91.7045 44.4585 91.9999 44.6073C92.0964 44.6559 92.1917 44.7052 92.2858 44.7552C92.6878 44.9686 93.0677 45.1947 93.4221 45.4341C100.527 50.3289 101.475 65.3289 101.633 69.2762V69.9078C101.633 70.2817 101.58 70.6399 101.482 70.9758C101.34 71.4635 101.101 71.9039 100.786 72.2767C100.127 73.0561 99.1366 73.5394 98.001 73.5394H43.8431C42.8957 73.5394 41.9484 73.0657 41.3168 72.4341C41.2152 72.3325 41.1215 72.2283 41.0352 72.1218C40.7637 71.7866 40.5666 71.4288 40.4334 71.0589C40.2802 70.6333 40.2115 70.1916 40.2115 69.7499L40.2126 69.7292C40.3729 66.5221 41.175 50.4758 48.5799 45.4341ZM44.2274 69.5394H97.6326V69.3574C97.553 67.4301 97.2822 63.0517 96.2393 58.6284C95.1237 53.8967 93.3843 50.276 91.1674 48.7382C89.0829 47.3375 85.2635 46.353 80.926 45.7889C76.7645 45.2477 72.8103 45.171 71.001 45.171C69.1917 45.171 65.2375 45.2477 61.076 45.7889C56.7319 46.3538 52.9075 47.3405 50.8251 48.7446C49.7468 49.4809 48.6988 50.7737 47.7569 52.6789C46.8241 54.5657 46.1115 56.8178 45.58 59.1562C44.5937 63.4958 44.3242 67.6949 44.2274 69.5394ZM37.1928 69.5777C37.1928 69.5775 37.1928 69.5779 37.1928 69.5777C37.7442 62.3237 39.5755 50.6131 46.334 44.1719C46.613 43.906 46.9003 43.6491 47.1963 43.4019C47.1986 43.4 47.2008 43.3982 47.203 43.3963C47.61 43.0567 48.0334 42.7354 48.4737 42.4341C49.1053 41.9604 49.7368 41.6447 50.3684 41.3289C50.3683 41.3289 50.3684 41.3289 50.3684 41.3289C49.8667 41.1209 49.3432 40.9271 48.8029 40.7465C48.2002 40.5452 47.5766 40.3604 46.9387 40.1907C46.8776 40.1745 46.8163 40.1583 46.7549 40.1423C46.2775 40.0181 45.7927 39.9022 45.3032 39.7941C39.5016 38.5129 33.0423 38.3289 30.6316 38.3289C26.8421 38.3289 14.0526 38.6446 8.21053 42.592C0.789474 47.8025 0 63.7499 0 67.0657C0 68.0131 0.31579 68.9604 1.10526 69.7499C1.73684 70.3815 2.68421 70.8552 3.63158 70.8552H37.1053C37.127 70.5005 37.1517 70.1316 37.1799 69.7499C37.1836 69.6996 37.1874 69.6491 37.1913 69.5984C37.1918 69.5917 37.1923 69.5844 37.1928 69.5777ZM41.7778 43.1971C38.874 46.6735 37.0031 50.8801 35.7702 54.8722C34.4769 59.06 33.7945 63.3096 33.4225 66.8552H4.00112C4.01781 65.206 4.22932 60.8884 5.22676 56.4087C6.32376 51.4818 8.11457 47.5684 10.4803 45.886C12.568 44.4907 16.3795 43.5095 20.7066 42.9468C24.8681 42.4056 28.8223 42.3289 30.6316 42.3289C32.1053 42.3289 35.2681 42.4037 38.8149 42.7978C39.8032 42.9076 40.7982 43.0399 41.7778 43.1971ZM95.5132 44.3116C102.082 50.4623 104.159 61.3898 104.651 69.1555C104.653 69.1958 104.656 69.2361 104.658 69.2762C104.671 69.4892 104.683 69.6998 104.694 69.9078C104.71 70.2301 104.724 70.5461 104.736 70.8552H138.21C140.262 70.8552 141.841 69.2763 141.841 67.2237C141.999 66.9079 141.999 66.75 141.999 66.5921C141.841 62.4868 140.894 47.6447 133.631 42.75C127.788 38.8026 114.999 38.4868 111.21 38.4868C108.689 38.4868 102.244 38.6693 96.524 39.9361C95.9751 40.0576 95.4328 40.1892 94.9013 40.3315C94.7443 40.3736 94.5882 40.4166 94.4332 40.4605C94.0538 40.5681 93.6806 40.6814 93.3153 40.8008C93.2643 40.8174 93.2134 40.8342 93.1627 40.8511C92.5762 41.0467 92.0107 41.2582 91.4727 41.4868C91.7884 41.6447 92.1042 41.8421 92.42 42.0395C92.7358 42.2368 93.0516 42.4342 93.3674 42.5921C93.8214 42.9002 94.258 43.2287 94.6777 43.5758C94.6829 43.5801 94.6881 43.5844 94.6933 43.5888C94.9741 43.8215 95.2473 44.0626 95.5132 44.3116ZM108.483 66.8552H137.841V66.2794L137.97 66.0218C137.86 63.822 137.546 59.8726 136.59 55.9036C135.46 51.2107 133.69 47.6139 131.395 46.067L131.391 46.0643C129.31 44.6582 125.483 43.6702 121.134 43.1047C116.973 42.5636 113.019 42.4868 111.21 42.4868C109.653 42.4868 106.452 42.562 102.908 42.9558C101.966 43.0605 101.022 43.1854 100.094 43.3326C102.917 46.6552 104.796 50.6528 106.055 54.5458C107.413 58.7446 108.131 63.0748 108.483 66.8552ZM30 28.4605C36.6274 28.4605 42 23.0879 42 16.4604C42 9.83303 36.6274 4.46045 30 4.46045C23.3726 4.46045 18 9.83303 18 16.4604C18 23.0879 23.3726 28.4605 30 28.4605ZM112 29C118.627 29 124 23.6274 124 17C124 10.3726 118.627 5 112 5C105.373 5 100 10.3726 100 17C100 23.6274 105.373 29 112 29ZM71 31C77.6274 31 83 25.6274 83 19C83 12.3726 77.6274 7 71 7C64.3726 7 59 12.3726 59 19C59 25.6274 64.3726 31 71 31ZM30 32.4605C38.8366 32.4605 46 25.297 46 16.4604C46 7.62389 38.8366 0.460449 30 0.460449C21.1634 0.460449 14 7.62389 14 16.4604C14 25.297 21.1634 32.4605 30 32.4605ZM112 33C120.837 33 128 25.8365 128 17C128 8.16344 120.837 1 112 1C103.163 1 96 8.16344 96 17C96 25.8365 103.163 33 112 33ZM71 35C79.8366 35 87 27.8366 87 19C87 10.1634 79.8366 3 71 3C62.1634 3 55 10.1634 55 19C55 27.8366 62.1634 35 71 35Z" fill="#25464F" fill-opacity="0.65"/>
</svg>
