<svg width="142" height="124" viewBox="0 0 128 124" fill="none" xmlns="http://www.w3.org/2000/svg">
<path fill-rule="evenodd" clip-rule="evenodd" d="M124.429 0.946045C126.501 0.987585 127.699 0.99917 127.699 0.99917C127.699 0.99917 127.717 1.91479 127.717 4.23476V28.7851H122.279V10.2286L105.091 27.4177C118.479 42.7934 117.871 66.205 103.242 80.8367C95.8427 88.2363 86.0021 92.3103 75.5353 92.3103C69.1018 92.3103 62.9039 90.7707 57.3635 87.8654C52.6844 90.3259 47.45 91.8682 41.9018 92.2513V104.685H56.9481V110.123H41.9018V123.021L36.4632 123.054V110.123H21.4169V104.685H36.4632V92.2513C16.1217 90.8469 -0.000976562 73.8623 -0.000976562 53.1715C-0.000976562 31.5648 17.5744 13.988 39.1811 13.988C45.71 13.988 51.8708 15.5928 57.29 18.4286C62.8479 15.4982 69.0714 13.9447 75.5353 13.9447C85.0877 13.9447 94.1146 17.3513 101.244 23.5723L118.431 6.38464H99.8755V0.946045H124.429ZM51.8575 21.8967C47.9423 20.3042 43.663 19.4266 39.1825 19.4266C20.5748 19.4266 5.43762 34.5638 5.43762 53.1715C5.43762 71.7777 20.5734 86.9164 39.1811 86.9164C43.6901 86.9164 47.9954 86.0274 51.931 84.4156C50.4941 83.3274 49.1223 82.1331 47.8254 80.8367C32.5491 65.5589 32.5491 40.7004 47.8254 25.4212C49.1002 24.1464 50.4473 22.9703 51.8575 21.8967ZM57.3677 81.5855C55.3309 80.2802 53.4202 78.7452 51.668 76.9941C38.5117 63.835 38.5131 42.4271 51.668 29.2694C53.4019 27.5354 55.2914 26.0134 57.3051 24.7163C66.6917 30.7153 72.9274 41.2286 72.9274 53.1715C72.9274 65.0865 66.7193 75.5795 57.3677 81.5855ZM62.8061 84.4046C72.2527 77.2468 78.366 65.9117 78.366 53.1715C78.366 40.4026 72.2266 29.0404 62.7441 21.8821C66.7484 20.2442 71.0736 19.3862 75.5311 19.3862C84.5466 19.3862 93.0184 22.8964 99.3942 29.2694C112.548 42.4257 112.549 63.835 99.3942 76.9941C93.0212 83.3657 84.5481 86.8759 75.5339 86.8759C71.098 86.8759 66.7938 86.0264 62.8061 84.4046Z" fill="#25464F" fill-opacity="0.65"/>
</svg>
