<svg width="142" height="100" viewBox="0 0 100 100" fill="none" xmlns="http://www.w3.org/2000/svg">
<path fill-rule="evenodd" clip-rule="evenodd" d="M93.75 -0.000732422H47.9167C46.2591 -0.000732422 44.6693 0.657748 43.4972 1.82985C42.3251 3.00195 41.6667 4.59166 41.6667 6.24927V37.4993H6.25C4.5924 37.4993 3.00268 38.1577 1.83058 39.3298C0.65848 40.502 0 42.0917 0 43.7493V85.4159C0 87.0735 0.65848 88.6632 1.83058 89.8353C3.00268 91.0074 4.5924 91.6659 6.25 91.6659H10.4167V97.9159C10.4167 98.4685 10.6362 98.9984 11.0269 99.3891C11.4176 99.7798 11.9475 99.9993 12.5 99.9993C12.5335 99.9993 12.5648 99.9997 12.5944 100C12.6487 100.001 12.6979 100.002 12.7469 99.9994C13.2193 99.9769 13.6781 99.669 18.5575 96.395C20.2899 95.2325 22.5796 93.6962 25.625 91.6659H52.0833C53.7409 91.6659 55.3306 91.0074 56.5028 89.8353C57.6749 88.6632 58.3333 87.0735 58.3333 85.4159V54.1659H74.375C77.0815 55.9732 79.1916 57.3889 80.8445 58.4979C86.2913 62.1524 86.773 62.4755 87.2687 62.4988C87.3168 62.5011 87.365 62.5005 87.4179 62.4999C87.4439 62.4996 87.4711 62.4993 87.5 62.4993C88.0525 62.4993 88.5824 62.2798 88.9731 61.8891C89.3638 61.4984 89.5833 60.9685 89.5833 60.4159V54.1659H93.75C95.4076 54.1659 96.9973 53.5075 98.1694 52.3354C99.3415 51.1632 100 49.5735 100 47.9159V6.24927C100 4.59166 99.3415 3.00195 98.1694 1.82985C96.9973 0.657748 95.4076 -0.000732422 93.75 -0.000732422ZM54.1667 85.4159C54.1667 85.9685 53.9472 86.4984 53.5565 86.8891C53.1658 87.2798 52.6359 87.4993 52.0833 87.4993H25C24.9837 87.4993 24.9679 87.4992 24.9525 87.4992C24.879 87.499 24.814 87.4988 24.7493 87.5034C24.2481 87.5391 23.7673 87.8619 19.5649 90.6837C18.2849 91.5431 16.6596 92.6344 14.5833 94.0201V89.5826C14.5833 87.1551 11.9175 87.3157 9.30478 87.4731C7.43288 87.5858 5.58825 87.6969 4.77083 86.8534C4.7189 86.804 4.671 86.7682 4.62684 86.7353C4.5988 86.7144 4.57227 86.6946 4.54717 86.6731C4.10564 86.2954 4.10736 85.3995 4.13946 68.745C4.15107 62.7178 4.16667 54.6266 4.16667 43.7493C4.16667 43.1967 4.38616 42.6668 4.77686 42.2761C5.16756 41.8854 5.69747 41.6659 6.25 41.6659H41.6667V47.9159C41.6667 49.5735 42.3251 51.1632 43.4972 52.3354C44.6693 53.5075 46.2591 54.1659 47.9167 54.1659H54.1667V85.4159ZM95.8333 47.9159C95.8333 48.4685 95.6138 48.9984 95.2231 49.3891C94.8324 49.7798 94.3025 49.9993 93.75 49.9993H87.5C86.9475 49.9993 86.4176 50.2188 86.0269 50.6095C85.6362 51.0002 85.4167 51.5301 85.4167 52.0826V56.5201C83.1911 55.0379 81.4837 53.8926 80.1642 53.0075C76.2065 50.3525 75.7396 50.0393 75.2524 50.0036C75.1872 49.9988 75.1217 49.999 75.0474 49.9992C75.032 49.9992 75.0162 49.9993 75 49.9993H47.9167C47.3641 49.9993 46.8342 49.7798 46.4435 49.3891C46.0528 48.9984 45.8333 48.4685 45.8333 47.9159V6.24927C45.8333 5.69673 46.0528 5.16683 46.4435 4.77613C46.8342 4.38543 47.3641 4.16593 47.9167 4.16593H93.75C94.3025 4.16593 94.8324 4.38543 95.2231 4.77613C95.6138 5.16683 95.8333 5.69673 95.8333 6.24927V47.9159ZM31.408 53.536H26.704L18.448 76H22.928L24.72 70.688H33.296L35.088 76H39.664L31.408 53.536ZM29.072 58.24L32.048 66.88H26.032L28.944 58.24H29.072ZM69.5142 20.7571V17H73.2713V20.7571H80.7855V24.5142H78.8263C77.9377 26.9568 76.3686 29.1103 74.5078 30.9057C76.2872 32.0173 78.2512 32.7648 80.2132 33.4814L78.896 37C76.2802 36.053 73.6782 34.9996 71.3781 33.408C69.0881 34.999 66.4982 36.0579 63.8896 37L62.5724 33.4814C64.5442 32.7557 66.5259 32.0178 68.3218 30.9094C67.7309 30.3854 67.1992 29.803 66.6676 29.2206C66.492 29.0282 66.3164 28.8358 66.1387 28.6456L68.9088 26.1029C69.0978 26.3059 69.2847 26.511 69.4716 26.7162C70.0821 27.3864 70.6928 28.0569 71.3781 28.6529C72.7187 27.4735 73.91 26.1015 74.7426 24.5142H62V20.7571H69.5142Z" fill="#25464F" fill-opacity="0.65"/>
</svg>
