<svg width="142" height="94" viewBox="0 0 64 94" fill="none" xmlns="http://www.w3.org/2000/svg">
<path fill-rule="evenodd" clip-rule="evenodd" d="M9.37258 9.37258C15.3737 3.37142 23.5131 0 32 0C40.4869 0 48.6263 3.37142 54.6274 9.37258C60.6286 15.3737 64 23.5131 64 32C64 48.13 46.27 74.41 35.66 90.11L33.66 93.11C33.4777 93.3833 33.2309 93.6074 32.9413 93.7626C32.6518 93.9179 32.3285 93.9994 32 94C31.668 93.9989 31.3415 93.9151 31.0499 93.7562C30.7584 93.5973 30.511 93.3684 30.33 93.09C29.28 91.49 28.11 89.73 26.85 87.84L26.8222 87.798C16.132 71.6878 0 47.3766 0 32C0 23.5131 3.37142 15.3737 9.37258 9.37258ZM32.02 88.39L32.36 87.88L32.3784 87.8527C42.7205 72.5196 60 46.9012 60 32C60 24.5739 57.05 17.452 51.799 12.201C46.548 6.94999 39.4261 4 32 4C24.5739 4 17.452 6.94999 12.201 12.201C6.94999 17.452 4 24.5739 4 32C4 46.19 20.39 70.88 30.19 85.63L32.02 88.39ZM22.5553 17.865C25.351 15.997 28.6377 15 32 15C36.5087 15 40.8327 16.7911 44.0208 19.9792C47.2089 23.1673 49 27.4913 49 32C49 35.3623 48.003 38.6491 46.135 41.4447C44.267 44.2403 41.612 46.4193 38.5056 47.706C35.3993 48.9926 31.9811 49.3293 28.6835 48.6734C25.3858 48.0174 22.3567 46.3983 19.9792 44.0208C17.6017 41.6433 15.9826 38.6142 15.3267 35.3165C14.6707 32.0189 15.0074 28.6007 16.2941 25.4944C17.5807 22.388 19.7597 19.733 22.5553 17.865ZM24.7776 42.8091C26.9154 44.2376 29.4289 45 32 45C33.7072 45 35.3977 44.6637 36.9749 44.0104C38.5521 43.3571 39.9852 42.3995 41.1924 41.1924C42.3996 39.9852 43.3571 38.5521 44.0104 36.9749C44.6638 35.3977 45 33.7072 45 32C45 29.4288 44.2376 26.9154 42.8091 24.7776C41.3807 22.6397 39.3503 20.9735 36.9749 19.9896C34.5995 19.0056 31.9856 18.7482 29.4638 19.2498C26.9421 19.7514 24.6257 20.9895 22.8076 22.8076C20.9895 24.6257 19.7514 26.9421 19.2498 29.4638C18.7482 31.9856 19.0056 34.5994 19.9896 36.9749C20.9735 39.3503 22.6398 41.3806 24.7776 42.8091Z" fill="#25464F" fill-opacity="0.65"/>
</svg>
