<svg width="142" height="90" viewBox="0 0 90 90" fill="none" xmlns="http://www.w3.org/2000/svg">
<path d="M45 0C20.1709 0 0 20.1708 0 44.9999C0 69.8292 20.1709 90 45 90C69.8291 90 90 69.8292 90 44.9999C90 20.1708 69.8291 0 45 0ZM43 4.21875V22H28.5312C29.3223 19.6514 30.2177 17.4565 31.2188 15.5C34.5064 9.07407 38.679 5.15115 43 4.21875ZM47 4.21875C51.321 5.15115 55.4936 9.07407 58.7812 15.5C59.7823 17.4565 60.6777 19.6514 61.4688 22H47V4.21875ZM33.0938 5.78125C31.0447 7.94303 29.2197 10.6005 27.6562 13.6562C26.3669 16.1763 25.225 18.9789 24.2812 22H11.0625C16.2689 14.3346 24.0206 8.52882 33.0938 5.78125ZM56.9062 5.78125C65.9794 8.52882 73.7311 14.3346 78.9375 22H65.7188C64.775 18.9789 63.6331 16.1763 62.3438 13.6562C60.7803 10.6005 58.9553 7.94303 56.9062 5.78125ZM8.65625 26H23.1875C21.9165 31.2091 21.169 36.9533 21.0312 42.9999H4.0625C4.35803 36.8832 5.97327 31.1226 8.65625 26ZM27.3438 26H43V42.9999H25.0312C25.1796 36.8779 26.0078 31.1248 27.3438 26ZM47 26H62.6562C63.9922 31.1248 64.8204 36.8779 64.9688 42.9999H47V26ZM66.8125 26H81.3438C84.0267 31.1226 85.642 36.8832 85.9375 42.9999H68.9688C68.831 36.9533 68.0835 31.2091 66.8125 26ZM4.0625 46.9999H21.0312C21.1673 53.0552 21.9146 58.7908 23.1875 64H8.65625C5.97667 58.8754 4.35373 53.1178 4.0625 46.9999ZM25.0312 46.9999H43V64H27.3438C26.0078 58.8787 25.1775 53.1254 25.0312 46.9999ZM47 46.9999H64.9688C64.8224 53.1254 63.9922 58.8787 62.6562 64H47V46.9999ZM68.9688 46.9999H85.9375C85.6463 53.1178 84.0233 58.8754 81.3438 64H66.8125C68.0854 58.7908 68.8327 53.0552 68.9688 46.9999ZM11.0312 68H24.2812C25.225 71.0169 26.3669 73.7924 27.6562 76.3125C29.2156 79.3603 31.0511 82.0545 33.0938 84.2188C24.007 81.4668 16.2376 75.6828 11.0312 68ZM28.5312 68H43V85.7812C38.6794 84.8422 34.5062 80.8942 31.2188 74.4688C30.2177 72.5123 29.3223 70.3453 28.5312 68ZM47 68H61.4688C60.6777 70.3453 59.7823 72.5123 58.7812 74.4688C55.4938 80.8942 51.3206 84.8422 47 85.7812V68ZM65.7188 68H78.9688C73.7624 75.6828 65.993 81.4668 56.9062 84.2188C58.9489 82.0545 60.7844 79.3603 62.3438 76.3125C63.6331 73.7924 64.775 71.0169 65.7188 68Z" fill="#25464F" fill-opacity="0.65"/>
</svg>
