<svg xmlns="http://www.w3.org/2000/svg" width="1920" height="1080" viewBox="0 0 1920 1080" fill="none"><defs><radialGradient id="gmahve284c8bj3fg3t8avozo" cx="0" cy="0" r="1" fx="0" fy="0" gradientUnits="userSpaceOnUse" gradientTransform="matrix(-960 -1080 2066.3 -1836.7 1920 1080)"><stop offset="0" stop-color="#353939"/><stop offset="1" stop-color="#2d2a21" stop-opacity=".1"/></radialGradient><linearGradient id="qxr0qkvyyqzn26aemnutuuhc" x1="1520.2" y1="273" x2="1576.5" y2="659.2" gradientUnits="userSpaceOnUse"><stop offset="0" stop-color="#847658"/><stop offset="1" stop-color="#847658" stop-opacity="0"/></linearGradient><linearGradient id="i0bw25t9wukxwerury7tb6h9" x1="1633.5" y1="292.5" x2="1602" y2="813" gradientUnits="userSpaceOnUse"><stop offset="0" stop-color="#847658"/><stop offset="1" stop-color="#847658" stop-opacity="0"/></linearGradient><linearGradient id="qenbud3tcjq0w0ht0lrk3l0n" x1="1549.5" y1="220.5" x2="1635" y2="274.5" gradientUnits="userSpaceOnUse"><stop offset="0" stop-color="#847658"/><stop offset="1" stop-color="#847658" stop-opacity=".25"/></linearGradient><linearGradient id="vjooxwh2r42w84u3qirpmd73" x1="1549.5" y1="436.5" x2="1533" y2="895.5" gradientUnits="userSpaceOnUse"><stop offset="0" stop-color="#4e493d"/><stop offset="1" stop-color="#847658" stop-opacity="0"/></linearGradient><linearGradient id="xgof24si10490i47t3s1mteb" x1="1436.2" y1="417" x2="1492.5" y2="803.2" gradientUnits="userSpaceOnUse"><stop offset="0" stop-color="#847658"/><stop offset="1" stop-color="#847658" stop-opacity="0"/></linearGradient><linearGradient id="p9jj1ubdnb1ch3ulh8vdr9yt" x1="1465.5" y1="364.5" x2="1551" y2="418.5" gradientUnits="userSpaceOnUse"><stop offset="0" stop-color="#847658"/><stop offset="1" stop-color="#847658" stop-opacity=".25"/></linearGradient><linearGradient id="fltzcpo1pyb6lugfyozm6djb" x1="1465.5" y1="580.5" x2="1453.5" y2="924" gradientUnits="userSpaceOnUse"><stop offset="0" stop-color="#4e493d"/><stop offset="1" stop-color="#847658" stop-opacity="0"/></linearGradient><linearGradient id="vk1be6kntvckyqjseche8t13" x1="1352.2" y1="561" x2="1408.5" y2="947.2" gradientUnits="userSpaceOnUse"><stop offset="0" stop-color="#847658"/><stop offset="1" stop-color="#847658" stop-opacity="0"/></linearGradient><linearGradient id="jynetkr5nvli76r6x19fcuwp" x1="1381.5" y1="508.5" x2="1467" y2="562.5" gradientUnits="userSpaceOnUse"><stop offset="0" stop-color="#847658"/><stop offset="1" stop-color="#847658" stop-opacity=".25"/></linearGradient><linearGradient id="p2cmeyx9ggpjz1ilmxy44kxh" x1="1273.5" y1="741" x2="1324.5" y2="966.8" gradientUnits="userSpaceOnUse"><stop offset="0" stop-color="#847658"/><stop offset="1" stop-color="#847658" stop-opacity="0"/></linearGradient><linearGradient id="qe7ve408tvwl7isja9csanxc" x1="1381.5" y1="724.5" x2="1359.8" y2="924" gradientUnits="userSpaceOnUse"><stop offset="0" stop-color="#4e493d"/><stop offset="1" stop-color="#847658" stop-opacity="0"/></linearGradient><linearGradient id="nzvtv4zjkd3bb9220ct0wdxo" x1="1297.5" y1="652.5" x2="1383" y2="706.5" gradientUnits="userSpaceOnUse"><stop offset="0" stop-color="#847658"/><stop offset="1" stop-color="#847658" stop-opacity=".25"/></linearGradient></defs><style>
@keyframes xd26fwhpsiz1scvhfv2nme99_t { 0% { transform: translate(1507.5px,1080px); } 9.278% { transform: translate(1507.5px,1080px); animation-timing-function: cubic-bezier(.8,0,.2,1); } 22.165% { transform: translate(1507.5px,196.5px); } 100% { transform: translate(1507.5px,196.5px); } }
@keyframes nywb2jbmggt8duil45sw0hu9_t { 0% { transform: translate(1754px,1222px); } 9.278% { transform: translate(1754px,1222px); animation-timing-function: cubic-bezier(.8,0,.2,1); } 25.258% { transform: translate(1759.5px,340.5px); } 100% { transform: translate(1759.5px,340.5px); } }
@keyframes ta81j2ln44utlh8e4ngjypdh_t { 0% { transform: translate(1592px,1393px); } 12.371% { transform: translate(1592px,1393px); animation-timing-function: cubic-bezier(.8,0,.2,1); } 24.227% { transform: translate(1592px,438.4px); } 100% { transform: translate(1592px,438.4px); } }
@keyframes z9zg34xwg2yvqoabnhpq1zkv_t { 0% { transform: translate(1670px,1248px); } 12.371% { transform: translate(1670px,1248px); animation-timing-function: cubic-bezier(.8,0,.2,1); } 24.227% { transform: translate(1675.5px,292.5px); } 100% { transform: translate(1675.5px,292.5px); } }
@keyframes lc2v1hq0xp1amqi9j3spq1o4_t { 0% { transform: translate(1424px,1417px); } 9.278% { transform: translate(1424px,1417px); animation-timing-function: cubic-bezier(.8,0,.2,1); } 22.165% { transform: translate(1424px,533.5px); } 100% { transform: translate(1424px,533.5px); } }
@keyframes e7fvc3wfa8cgy0fybznx2ses_t { 0% { transform: translate(1423.5px,1080px); } 15.979% { transform: translate(1423.5px,1080px); animation-timing-function: cubic-bezier(.8,0,.6,1); } 29.897% { transform: translate(1423.5px,340.5px); } 100% { transform: translate(1423.5px,340.5px); } }
@keyframes al7aj0ivgvcnb2uy4ci2zgpm_t { 0% { transform: translate(1339.5px,1080px); } 14.433% { transform: translate(1339.5px,1080px); animation-timing-function: cubic-bezier(.8,0,.6,1); } 27.32% { transform: translate(1339.5px,484.5px); } 100% { transform: translate(1339.5px,484.5px); } }
@keyframes whlzfljkc8hipyn5kjqqr1wq_t { 0% { transform: translate(1255.5px,1080px); } 13.918% { transform: translate(1255.5px,1080px); animation-timing-function: cubic-bezier(.8,0,.6,1); } 25.258% { transform: translate(1255.5px,628.5px); } 100% { transform: translate(1255.5px,628.5px); } }
@keyframes ll4kuoo8ebymykx8r6r2jp8r_t { 0% { transform: translate(1171.5px,1516.5px); } 56.701% { transform: translate(1171.5px,1516.5px); animation-timing-function: cubic-bezier(.8,0,.2,1); } 90.722% { transform: translate(1171.5px,676.5px); } 100% { transform: translate(1171.5px,676.5px); } }
@keyframes t24gyr0xy1h4u1uvma72277c_t { 0% { transform: translate(1088px,1276.5px); } 72.68% { transform: translate(1088px,1276.5px); animation-timing-function: cubic-bezier(.8,0,.2,1); } 100% { transform: translate(1088px,436.5px); } }
@keyframes d0zxrravve9c4efzo6hb7sxh_t { 0% { transform: translate(1172px,1420.5px); } 66.495% { transform: translate(1172px,1420.5px); animation-timing-function: cubic-bezier(.8,0,.2,1); } 81.443% { transform: translate(1172px,580.5px); } 100% { transform: translate(1172px,580.5px); } }
@keyframes e1zxk26jia7gm5drbm6dqanu_t { 0% { transform: translate(1003.5px,1516.5px); } 56.701% { transform: translate(1003.5px,1516.5px); animation-timing-function: cubic-bezier(.8,0,.2,1); } 71.649% { transform: translate(1003.5px,676.5px); } 100% { transform: translate(1003.5px,676.5px); } }
@keyframes papj5zi7s8b81ni6t1ek7pw6_t { 0% { transform: translate(918.5px,1661.5px); } 47.423% { transform: translate(918.5px,1661.5px); animation-timing-function: cubic-bezier(.8,0,.2,1); } 62.371% { transform: translate(918.5px,821.5px); } 100% { transform: translate(918.5px,821.5px); } }
@keyframes oaw7ygy6x3yn8iztekknhrww_t { 0% { transform: translate(1088px,1804.5px); } 41.752% { transform: translate(1088px,1804.5px); animation-timing-function: cubic-bezier(.8,0,.2,1); } 56.701% { transform: translate(1088px,964.5px); } 100% { transform: translate(1088px,964.5px); } }
@keyframes x8tdt56n8ni87mm1urk694u4_t { 0% { transform: translate(920px,1372.5px); } 38.66% { transform: translate(920px,1372.5px); animation-timing-function: cubic-bezier(.8,0,.2,1); } 53.608% { transform: translate(920px,532.5px); } 100% { transform: translate(920px,532.5px); } }
@keyframes a9iuod6gtuzyaorbws7knyfc_t { 0% { transform: translate(835.5px,1322.5px); } 35.567% { transform: translate(835.5px,1322.5px); animation-timing-function: cubic-bezier(.8,0,.2,1); } 50.515% { transform: translate(835.5px,482.5px); } 100% { transform: translate(835.5px,482.5px); } }
@keyframes ti90ho5mjvopszre6nxy8q5n_t { 0% { transform: translate(751.5px,1466.5px); } 25.773% { transform: translate(751.5px,1466.5px); animation-timing-function: cubic-bezier(.8,0,.2,1); } 40.722% { transform: translate(751.5px,626.5px); } 100% { transform: translate(751.5px,626.5px); } }
@keyframes ne8gz29dr78l67qezejuxa07_t { 0% { transform: translate(667.5px,1803.5px); } 27.835% { transform: translate(667.5px,1803.5px); animation-timing-function: cubic-bezier(.8,0,.2,1); } 42.783% { transform: translate(667.5px,963.5px); } 100% { transform: translate(667.5px,963.5px); } }
@keyframes ftxihp4fb244t7z06v3vn3of_t { 0% { transform: translate(834.5px,1804.5px); } 26.289% { transform: translate(834.5px,1804.5px); animation-timing-function: cubic-bezier(.8,0,.2,1); } 41.237% { transform: translate(834.5px,964.5px); } 100% { transform: translate(834.5px,964.5px); } }
@keyframes c6ayxxk6v1rabjd8biep63tm_t { 0% { transform: translate(583.5px,1659.5px); } 11.856% { transform: translate(583.5px,1659.5px); animation-timing-function: cubic-bezier(.8,0,.2,1); } 26.804% { transform: translate(583.5px,819.5px); } 100% { transform: translate(583.5px,819.5px); } }
@keyframes jzkfp2b6numlov6nylui1p3g_t { 0% { transform: translate(499.5px,1612.5px); } 15.464% { transform: translate(499.5px,1612.5px); animation-timing-function: cubic-bezier(.8,0,.2,1); } 30.412% { transform: translate(499.5px,772.5px); } 100% { transform: translate(499.5px,772.5px); } }
@keyframes e6d0t4moytm3hey75ezoa06u_t { 0% { transform: translate(499.5px,1709.5px); } 23.196% { transform: translate(499.5px,1709.5px); animation-timing-function: cubic-bezier(.8,0,.2,1); } 38.144% { transform: translate(499.5px,869.5px); } 100% { transform: translate(499.5px,869.5px); } }
@keyframes pv0li5i3mqr1ybdxt0jkf1kr_t { 0% { transform: translate(331.5px,1707.5px); } 21.649% { transform: translate(331.5px,1707.5px); animation-timing-function: cubic-bezier(.8,0,.2,1); } 36.598% { transform: translate(331.5px,867.5px); } 100% { transform: translate(331.5px,867.5px); } }
@keyframes dei9zrebvxh2cwg6d5rp1lfx_t { 0% { transform: translate(499.5px,1805.5px); } 20.103% { transform: translate(499.5px,1805.5px); animation-timing-function: cubic-bezier(.8,0,.2,1); } 35.051% { transform: translate(499.5px,965.5px); } 100% { transform: translate(499.5px,965.5px); } }
@keyframes p6ath0cx82qipquivtil1r11_t { 0% { transform: translate(247.5px,1757.5px); } 17.526% { transform: translate(247.5px,1757.5px); animation-timing-function: cubic-bezier(.8,0,.2,1); } 32.474% { transform: translate(247.5px,917.5px); } 100% { transform: translate(247.5px,917.5px); } }
@keyframes m0es5szi2sg31xgmyfqqa8o3_t { 0% { transform: translate(415.5px,1853.5px); } 13.918% { transform: translate(415.5px,1853.5px); animation-timing-function: cubic-bezier(.8,0,.2,1); } 28.866% { transform: translate(415.5px,1013.5px); } 100% { transform: translate(415.5px,1013.5px); } }
@keyframes kkzkcw5ni3h62n16bm9ecrec_t { 0% { transform: translate(247.5px,1658.5px); } 13.402% { transform: translate(247.5px,1658.5px); animation-timing-function: cubic-bezier(.8,0,.2,1); } 28.351% { transform: translate(247.5px,818.5px); } 100% { transform: translate(247.5px,818.5px); } }
@keyframes xm8hnde5d731kw3zpvc7aaau_t { 0% { transform: translate(415.5px,1466.5px); } 11.34% { transform: translate(415.5px,1466.5px); animation-timing-function: cubic-bezier(.8,0,.2,1); } 26.289% { transform: translate(415.5px,626.5px); } 100% { transform: translate(415.5px,626.5px); } }
@keyframes vw5jphrptsr4a4loaun7hew3_t { 0% { transform: translate(583.5px,1276.5px); } 20.619% { transform: translate(583.5px,1276.5px); animation-timing-function: cubic-bezier(.8,0,.2,1); } 35.567% { transform: translate(583.5px,436.5px); } 100% { transform: translate(583.5px,436.5px); } }
</style><rect width="1920" height="1080" fill="#1d2021"/><rect width="1920" height="1080" fill="url(#gmahve284c8bj3fg3t8avozo)"/><g transform="translate(1256,0)"><path d="M336 1080v-1080" stroke="#fff" stroke-opacity=".15" stroke-width="3"/><path d="M252 1080v-1080" stroke="#fff" stroke-opacity=".15" stroke-width="3"/><path d="M168 1080v-1080" stroke="#fff" stroke-opacity=".15" stroke-width="3"/><path d="M84 1080v-825.4v-254.6" stroke="#fff" stroke-opacity=".15" stroke-width="3"/><path d="M0 1080v-1080" stroke="#fff" stroke-opacity=".15" stroke-width="3"/></g><g transform="translate(32,9)"><path d="M684 1071l1206-688" stroke="#fff" stroke-opacity=".15" stroke-width="3"/><path d="M509 1076l1381-788" stroke="#fff" stroke-opacity=".15" stroke-width="3"/><path d="M329 1083l1561-891" stroke="#fff" stroke-opacity=".15" stroke-width="3"/><path d="M146 1091l1744-996" stroke="#fff" stroke-opacity=".15" stroke-width="3"/><path d="M0 1078l1890-1078" stroke="#fff" stroke-opacity=".15" stroke-width="3"/></g><g transform="translate(1591.5,1416) translate(-84,-336)" style="animation: 19.4s linear both xd26fwhpsiz1scvhfv2nme99_t;"><path opacity=".5" d="M1507.5 244.5l84 48v576l-84-48v-576Z" fill="url(#qxr0qkvyyqzn26aemnutuuhc)" transform="translate(-1507.5,-196.5)"/><path opacity=".5" d="M1591.5 292.5l84-48v576l-84 48v-576Z" fill="url(#i0bw25t9wukxwerury7tb6h9)" fill-opacity=".45" transform="translate(-1507.5,-196.5)"/><path d="M1591.5 196.5l84 48l-84 48l-84-48l84-48Z" fill="url(#qenbud3tcjq0w0ht0lrk3l0n)" fill-opacity=".45" transform="translate(-1507.5,-196.5)"/></g><g transform="translate(1838,1558) translate(-84,-336)" style="animation: 19.4s linear both nywb2jbmggt8duil45sw0hu9_t;"><path opacity=".5" d="M1507.5 244.5l84 48v576l-84-48v-576Z" fill="url(#qxr0qkvyyqzn26aemnutuuhc)" transform="translate(-1507.5,-196.5)"/><path opacity=".5" d="M1591.5 292.5l84-48v576l-84 48v-576Z" fill="url(#i0bw25t9wukxwerury7tb6h9)" fill-opacity=".45" transform="translate(-1507.5,-196.5)"/><path d="M1591.5 196.5l84 48l-84 48l-84-48l84-48Z" fill="url(#qenbud3tcjq0w0ht0lrk3l0n)" fill-opacity=".45" transform="translate(-1507.5,-196.5)"/></g><g transform="translate(1676,1729) translate(-84,-336)" style="animation: 19.4s linear both ta81j2ln44utlh8e4ngjypdh_t;"><path opacity=".5" d="M1507.5 244.5l84 48v576l-84-48v-576Z" fill="url(#qxr0qkvyyqzn26aemnutuuhc)" transform="translate(-1507.5,-196.5)"/><path opacity=".5" d="M1591.5 292.5l84-48v576l-84 48v-576Z" fill="url(#i0bw25t9wukxwerury7tb6h9)" fill-opacity=".45" transform="translate(-1507.5,-196.5)"/><path d="M1591.5 196.5l84 48l-84 48l-84-48l84-48Z" fill="url(#qenbud3tcjq0w0ht0lrk3l0n)" fill-opacity=".45" transform="translate(-1507.5,-196.5)"/></g><g transform="translate(1754,1584) translate(-84,-336)" style="animation: 19.4s linear both z9zg34xwg2yvqoabnhpq1zkv_t;"><path opacity=".5" d="M1507.5 244.5l84 48v576l-84-48v-576Z" fill="url(#qxr0qkvyyqzn26aemnutuuhc)" transform="translate(-1507.5,-196.5)"/><path opacity=".5" d="M1591.5 292.5l84-48v576l-84 48v-576Z" fill="url(#i0bw25t9wukxwerury7tb6h9)" fill-opacity=".45" transform="translate(-1507.5,-196.5)"/><path d="M1591.5 196.5l84 48l-84 48l-84-48l84-48Z" fill="url(#qenbud3tcjq0w0ht0lrk3l0n)" fill-opacity=".45" transform="translate(-1507.5,-196.5)"/></g><g transform="translate(1508,1753) translate(-84,-336)" style="animation: 19.4s linear both lc2v1hq0xp1amqi9j3spq1o4_t;"><path opacity=".5" d="M1507.5 244.5l84 48v576l-84-48v-576Z" fill="url(#qxr0qkvyyqzn26aemnutuuhc)" transform="translate(-1507.5,-196.5)"/><path opacity=".5" d="M1591.5 292.5l84-48v576l-84 48v-576Z" fill="url(#i0bw25t9wukxwerury7tb6h9)" fill-opacity=".45" transform="translate(-1507.5,-196.5)"/><path d="M1591.5 196.5l84 48l-84 48l-84-48l84-48Z" fill="url(#qenbud3tcjq0w0ht0lrk3l0n)" fill-opacity=".45" transform="translate(-1507.5,-196.5)"/></g><g transform="translate(1507.5,1416) translate(-84,-336)" style="animation: 19.4s linear both e7fvc3wfa8cgy0fybznx2ses_t;"><path opacity=".5" d="M1507.5 436.5l84-48v576l-84 48v-576Z" fill="url(#vjooxwh2r42w84u3qirpmd73)" fill-opacity=".45" transform="translate(-1423.5,-340.5)"/><path opacity=".5" d="M1423.5 388.5l84 48v576l-84-48v-576Z" fill="url(#xgof24si10490i47t3s1mteb)" transform="translate(-1423.5,-340.5)"/><path d="M1507.5 340.5l84 48l-84 48l-84-48l84-48Z" fill="url(#p9jj1ubdnb1ch3ulh8vdr9yt)" fill-opacity=".45" transform="translate(-1423.5,-340.5)"/></g><g transform="translate(1423.5,1416) translate(-84,-336)" style="animation: 19.4s linear both al7aj0ivgvcnb2uy4ci2zgpm_t;"><path opacity=".5" d="M1423.5 580.5l84-48v576l-84 48v-576Z" fill="url(#fltzcpo1pyb6lugfyozm6djb)" fill-opacity=".45" transform="translate(-1339.5,-484.5)"/><path opacity=".5" d="M1339.5 532.5l84 48v576l-84-48v-576Z" fill="url(#vk1be6kntvckyqjseche8t13)" transform="translate(-1339.5,-484.5)"/><path d="M1423.5 484.5l84 48l-69.4 39.7l-14.6 8.3l-84-48l84-48Z" fill="url(#jynetkr5nvli76r6x19fcuwp)" fill-opacity=".45" transform="translate(-1339.5,-484.5)"/></g><g transform="translate(1339.5,1416) translate(-84,-336)" style="animation: 19.4s linear both whlzfljkc8hipyn5kjqqr1wq_t;"><path d="M1255.5 676.5l84 48v576l-84-48v-576Z" fill="url(#p2cmeyx9ggpjz1ilmxy44kxh)" opacity=".5" transform="translate(-1255.5,-628.5)"/><path d="M1339.5 724.5l84-48v576l-84 48v-576Z" fill="url(#qe7ve408tvwl7isja9csanxc)" fill-opacity=".45" opacity=".5" transform="translate(-1255.5,-628.5)"/><path d="M1339.5 628.5l84 48l-84 48l-84-48l84-48Z" fill="url(#nzvtv4zjkd3bb9220ct0wdxo)" fill-opacity=".45" transform="translate(-1255.5,-628.5)"/></g><g transform="translate(1255.5,1852.5) translate(-84,-336)" style="animation: 19.4s linear both ll4kuoo8ebymykx8r6r2jp8r_t;"><path opacity=".5" d="M1507.5 244.5l84 48v576l-84-48v-576Z" fill="url(#qxr0qkvyyqzn26aemnutuuhc)" transform="translate(-1507.5,-196.5)"/><path opacity=".5" d="M1591.5 292.5l84-48v576l-84 48v-576Z" fill="url(#i0bw25t9wukxwerury7tb6h9)" fill-opacity=".45" transform="translate(-1507.5,-196.5)"/><path d="M1591.5 196.5l84 48l-84 48l-84-48l84-48Z" fill="url(#qenbud3tcjq0w0ht0lrk3l0n)" fill-opacity=".45" transform="translate(-1507.5,-196.5)"/></g><g transform="translate(1172,1612.5) translate(-84,-336)" style="animation: 19.4s linear both t24gyr0xy1h4u1uvma72277c_t;"><path opacity=".5" d="M1507.5 436.5l84-48v576l-84 48v-576Z" fill="url(#vjooxwh2r42w84u3qirpmd73)" fill-opacity=".45" transform="translate(-1423.5,-340.5)"/><path opacity=".5" d="M1423.5 388.5l84 48v576l-84-48v-576Z" fill="url(#xgof24si10490i47t3s1mteb)" transform="translate(-1423.5,-340.5)"/><path d="M1507.5 340.5l84 48l-84 48l-84-48l84-48Z" fill="url(#p9jj1ubdnb1ch3ulh8vdr9yt)" fill-opacity=".45" transform="translate(-1423.5,-340.5)"/></g><g transform="translate(1256,1756.5) translate(-84,-336)" style="animation: 19.4s linear both d0zxrravve9c4efzo6hb7sxh_t;"><path opacity=".5" d="M1507.5 436.5l84-48v576l-84 48v-576Z" fill="url(#vjooxwh2r42w84u3qirpmd73)" fill-opacity=".45" transform="translate(-1423.5,-340.5)"/><path opacity=".5" d="M1423.5 388.5l84 48v576l-84-48v-576Z" fill="url(#xgof24si10490i47t3s1mteb)" transform="translate(-1423.5,-340.5)"/><path d="M1507.5 340.5l84 48l-84 48l-84-48l84-48Z" fill="url(#p9jj1ubdnb1ch3ulh8vdr9yt)" fill-opacity=".45" transform="translate(-1423.5,-340.5)"/></g><g transform="translate(1087.5,1852.5) translate(-84,-336)" style="animation: 19.4s linear both e1zxk26jia7gm5drbm6dqanu_t;"><path opacity=".5" d="M1423.5 580.5l84-48v576l-84 48v-576Z" fill="url(#fltzcpo1pyb6lugfyozm6djb)" fill-opacity=".45" transform="translate(-1339.5,-484.5)"/><path opacity=".5" d="M1339.5 532.5l84 48v576l-84-48v-576Z" fill="url(#vk1be6kntvckyqjseche8t13)" transform="translate(-1339.5,-484.5)"/><path d="M1423.5 484.5l84 48l-69.4 39.7l-14.6 8.3l-84-48l84-48Z" fill="url(#jynetkr5nvli76r6x19fcuwp)" fill-opacity=".45" transform="translate(-1339.5,-484.5)"/></g><g transform="translate(1002.5,1997.5) translate(-84,-336)" style="animation: 19.4s linear both papj5zi7s8b81ni6t1ek7pw6_t;"><path d="M1255.5 676.5l84 48v576l-84-48v-576Z" fill="url(#p2cmeyx9ggpjz1ilmxy44kxh)" opacity=".5" transform="translate(-1255.5,-628.5)"/><path d="M1339.5 724.5l84-48v576l-84 48v-576Z" fill="url(#qe7ve408tvwl7isja9csanxc)" fill-opacity=".45" opacity=".5" transform="translate(-1255.5,-628.5)"/><path d="M1339.5 628.5l84 48l-84 48l-84-48l84-48Z" fill="url(#nzvtv4zjkd3bb9220ct0wdxo)" fill-opacity=".45" transform="translate(-1255.5,-628.5)"/></g><g transform="translate(1172,2140.5) translate(-84,-336)" style="animation: 19.4s linear both oaw7ygy6x3yn8iztekknhrww_t;"><path d="M1255.5 676.5l84 48v576l-84-48v-576Z" fill="url(#p2cmeyx9ggpjz1ilmxy44kxh)" opacity=".5" transform="translate(-1255.5,-628.5)"/><path d="M1339.5 724.5l84-48v576l-84 48v-576Z" fill="url(#qe7ve408tvwl7isja9csanxc)" fill-opacity=".45" opacity=".5" transform="translate(-1255.5,-628.5)"/><path d="M1339.5 628.5l84 48l-84 48l-84-48l84-48Z" fill="url(#nzvtv4zjkd3bb9220ct0wdxo)" fill-opacity=".45" transform="translate(-1255.5,-628.5)"/></g><g transform="translate(1004,1708.5) translate(-84,-336)" style="animation: 19.4s linear both x8tdt56n8ni87mm1urk694u4_t;"><path opacity=".5" d="M1507.5 244.5l84 48v576l-84-48v-576Z" fill="url(#qxr0qkvyyqzn26aemnutuuhc)" transform="translate(-1507.5,-196.5)"/><path opacity=".5" d="M1591.5 292.5l84-48v576l-84 48v-576Z" fill="url(#i0bw25t9wukxwerury7tb6h9)" fill-opacity=".45" transform="translate(-1507.5,-196.5)"/><path d="M1591.5 196.5l84 48l-84 48l-84-48l84-48Z" fill="url(#qenbud3tcjq0w0ht0lrk3l0n)" fill-opacity=".45" transform="translate(-1507.5,-196.5)"/></g><g transform="translate(919.5,1658.5) translate(-84,-336)" style="animation: 19.4s linear both a9iuod6gtuzyaorbws7knyfc_t;"><path opacity=".5" d="M1507.5 436.5l84-48v576l-84 48v-576Z" fill="url(#vjooxwh2r42w84u3qirpmd73)" fill-opacity=".45" transform="translate(-1423.5,-340.5)"/><path opacity=".5" d="M1423.5 388.5l84 48v576l-84-48v-576Z" fill="url(#xgof24si10490i47t3s1mteb)" transform="translate(-1423.5,-340.5)"/><path d="M1507.5 340.5l84 48l-84 48l-84-48l84-48Z" fill="url(#p9jj1ubdnb1ch3ulh8vdr9yt)" fill-opacity=".45" transform="translate(-1423.5,-340.5)"/></g><g transform="translate(835.5,1802.5) translate(-84,-336)" style="animation: 19.4s linear both ti90ho5mjvopszre6nxy8q5n_t;"><path opacity=".5" d="M1423.5 580.5l84-48v576l-84 48v-576Z" fill="url(#fltzcpo1pyb6lugfyozm6djb)" fill-opacity=".45" transform="translate(-1339.5,-484.5)"/><path opacity=".5" d="M1339.5 532.5l84 48v576l-84-48v-576Z" fill="url(#vk1be6kntvckyqjseche8t13)" transform="translate(-1339.5,-484.5)"/><path d="M1423.5 484.5l84 48l-69.4 39.7l-14.6 8.3l-84-48l84-48Z" fill="url(#jynetkr5nvli76r6x19fcuwp)" fill-opacity=".45" transform="translate(-1339.5,-484.5)"/></g><g transform="translate(751.5,2139.5) translate(-84,-336)" style="animation: 19.4s linear both ne8gz29dr78l67qezejuxa07_t;"><path d="M1255.5 676.5l84 48v576l-84-48v-576Z" fill="url(#p2cmeyx9ggpjz1ilmxy44kxh)" opacity=".5" transform="translate(-1255.5,-628.5)"/><path d="M1339.5 724.5l84-48v576l-84 48v-576Z" fill="url(#qe7ve408tvwl7isja9csanxc)" fill-opacity=".45" opacity=".5" transform="translate(-1255.5,-628.5)"/><path d="M1339.5 628.5l84 48l-84 48l-84-48l84-48Z" fill="url(#nzvtv4zjkd3bb9220ct0wdxo)" fill-opacity=".45" transform="translate(-1255.5,-628.5)"/></g><g transform="translate(918.5,2140.5) translate(-84,-336)" style="animation: 19.4s linear both ftxihp4fb244t7z06v3vn3of_t;"><path d="M1255.5 676.5l84 48v576l-84-48v-576Z" fill="url(#p2cmeyx9ggpjz1ilmxy44kxh)" opacity=".5" transform="translate(-1255.5,-628.5)"/><path d="M1339.5 724.5l84-48v576l-84 48v-576Z" fill="url(#qe7ve408tvwl7isja9csanxc)" fill-opacity=".45" opacity=".5" transform="translate(-1255.5,-628.5)"/><path d="M1339.5 628.5l84 48l-84 48l-84-48l84-48Z" fill="url(#nzvtv4zjkd3bb9220ct0wdxo)" fill-opacity=".45" transform="translate(-1255.5,-628.5)"/></g><g transform="translate(667.5,1995.5) translate(-84,-336)" style="animation: 19.4s linear both c6ayxxk6v1rabjd8biep63tm_t;"><path d="M1255.5 676.5l84 48v576l-84-48v-576Z" fill="url(#p2cmeyx9ggpjz1ilmxy44kxh)" opacity=".5" transform="translate(-1255.5,-628.5)"/><path d="M1339.5 724.5l84-48v576l-84 48v-576Z" fill="url(#qe7ve408tvwl7isja9csanxc)" fill-opacity=".45" opacity=".5" transform="translate(-1255.5,-628.5)"/><path d="M1339.5 628.5l84 48l-84 48l-84-48l84-48Z" fill="url(#nzvtv4zjkd3bb9220ct0wdxo)" fill-opacity=".45" transform="translate(-1255.5,-628.5)"/></g><g transform="translate(583.5,1948.5) translate(-84,-336)" style="animation: 19.4s linear both jzkfp2b6numlov6nylui1p3g_t;"><path d="M1255.5 676.5l84 48v576l-84-48v-576Z" fill="url(#p2cmeyx9ggpjz1ilmxy44kxh)" opacity=".5" transform="translate(-1255.5,-628.5)"/><path d="M1339.5 724.5l84-48v576l-84 48v-576Z" fill="url(#qe7ve408tvwl7isja9csanxc)" fill-opacity=".45" opacity=".5" transform="translate(-1255.5,-628.5)"/><path d="M1339.5 628.5l84 48l-84 48l-84-48l84-48Z" fill="url(#nzvtv4zjkd3bb9220ct0wdxo)" fill-opacity=".45" transform="translate(-1255.5,-628.5)"/></g><g transform="translate(583.5,2045.5) translate(-84,-336)" style="animation: 19.4s linear both e6d0t4moytm3hey75ezoa06u_t;"><path d="M1255.5 676.5l84 48v576l-84-48v-576Z" fill="url(#p2cmeyx9ggpjz1ilmxy44kxh)" opacity=".5" transform="translate(-1255.5,-628.5)"/><path d="M1339.5 724.5l84-48v576l-84 48v-576Z" fill="url(#qe7ve408tvwl7isja9csanxc)" fill-opacity=".45" opacity=".5" transform="translate(-1255.5,-628.5)"/><path d="M1339.5 628.5l84 48l-84 48l-84-48l84-48Z" fill="url(#nzvtv4zjkd3bb9220ct0wdxo)" fill-opacity=".45" transform="translate(-1255.5,-628.5)"/></g><g transform="translate(415.5,2043.5) translate(-84,-336)" style="animation: 19.4s linear both pv0li5i3mqr1ybdxt0jkf1kr_t;"><path d="M1255.5 676.5l84 48v576l-84-48v-576Z" fill="url(#p2cmeyx9ggpjz1ilmxy44kxh)" opacity=".5" transform="translate(-1255.5,-628.5)"/><path d="M1339.5 724.5l84-48v576l-84 48v-576Z" fill="url(#qe7ve408tvwl7isja9csanxc)" fill-opacity=".45" opacity=".5" transform="translate(-1255.5,-628.5)"/><path d="M1339.5 628.5l84 48l-84 48l-84-48l84-48Z" fill="url(#nzvtv4zjkd3bb9220ct0wdxo)" fill-opacity=".45" transform="translate(-1255.5,-628.5)"/></g><g transform="translate(583.5,2141.5) translate(-84,-336)" style="animation: 19.4s linear both dei9zrebvxh2cwg6d5rp1lfx_t;"><path d="M1255.5 676.5l84 48v576l-84-48v-576Z" fill="url(#p2cmeyx9ggpjz1ilmxy44kxh)" opacity=".5" transform="translate(-1255.5,-628.5)"/><path d="M1339.5 724.5l84-48v576l-84 48v-576Z" fill="url(#qe7ve408tvwl7isja9csanxc)" fill-opacity=".45" opacity=".5" transform="translate(-1255.5,-628.5)"/><path d="M1339.5 628.5l84 48l-84 48l-84-48l84-48Z" fill="url(#nzvtv4zjkd3bb9220ct0wdxo)" fill-opacity=".45" transform="translate(-1255.5,-628.5)"/></g><g transform="translate(331.5,2093.5) translate(-84,-336)" style="animation: 19.4s linear both p6ath0cx82qipquivtil1r11_t;"><path d="M1255.5 676.5l84 48v576l-84-48v-576Z" fill="url(#p2cmeyx9ggpjz1ilmxy44kxh)" opacity=".5" transform="translate(-1255.5,-628.5)"/><path d="M1339.5 724.5l84-48v576l-84 48v-576Z" fill="url(#qe7ve408tvwl7isja9csanxc)" fill-opacity=".45" opacity=".5" transform="translate(-1255.5,-628.5)"/><path d="M1339.5 628.5l84 48l-84 48l-84-48l84-48Z" fill="url(#nzvtv4zjkd3bb9220ct0wdxo)" fill-opacity=".45" transform="translate(-1255.5,-628.5)"/></g><g transform="translate(499.5,2189.5) translate(-84,-336)" style="animation: 19.4s linear both m0es5szi2sg31xgmyfqqa8o3_t;"><path d="M1255.5 676.5l84 48v576l-84-48v-576Z" fill="url(#p2cmeyx9ggpjz1ilmxy44kxh)" opacity=".5" transform="translate(-1255.5,-628.5)"/><path d="M1339.5 724.5l84-48v576l-84 48v-576Z" fill="url(#qe7ve408tvwl7isja9csanxc)" fill-opacity=".45" opacity=".5" transform="translate(-1255.5,-628.5)"/><path d="M1339.5 628.5l84 48l-84 48l-84-48l84-48Z" fill="url(#nzvtv4zjkd3bb9220ct0wdxo)" fill-opacity=".45" transform="translate(-1255.5,-628.5)"/></g><g transform="translate(331.5,1994.5) translate(-84,-336)" style="animation: 19.4s linear both kkzkcw5ni3h62n16bm9ecrec_t;"><path d="M1255.5 676.5l84 48v576l-84-48v-576Z" fill="url(#p2cmeyx9ggpjz1ilmxy44kxh)" opacity=".5" transform="translate(-1255.5,-628.5)"/><path d="M1339.5 724.5l84-48v576l-84 48v-576Z" fill="url(#qe7ve408tvwl7isja9csanxc)" fill-opacity=".45" opacity=".5" transform="translate(-1255.5,-628.5)"/><path d="M1339.5 628.5l84 48l-84 48l-84-48l84-48Z" fill="url(#nzvtv4zjkd3bb9220ct0wdxo)" fill-opacity=".45" transform="translate(-1255.5,-628.5)"/></g><g transform="translate(499.5,1802.5) translate(-84,-336)" style="animation: 19.4s linear both xm8hnde5d731kw3zpvc7aaau_t;"><path d="M1255.5 676.5l84 48v576l-84-48v-576Z" fill="url(#p2cmeyx9ggpjz1ilmxy44kxh)" opacity=".5" transform="translate(-1255.5,-628.5)"/><path d="M1339.5 724.5l84-48v576l-84 48v-576Z" fill="url(#qe7ve408tvwl7isja9csanxc)" fill-opacity=".45" opacity=".5" transform="translate(-1255.5,-628.5)"/><path d="M1339.5 628.5l84 48l-84 48l-84-48l84-48Z" fill="url(#nzvtv4zjkd3bb9220ct0wdxo)" fill-opacity=".45" transform="translate(-1255.5,-628.5)"/></g><g transform="translate(667.5,1612.5) translate(-84,-336)" style="animation: 19.4s linear both vw5jphrptsr4a4loaun7hew3_t;"><path d="M1255.5 676.5l84 48v576l-84-48v-576Z" fill="url(#p2cmeyx9ggpjz1ilmxy44kxh)" opacity=".5" transform="translate(-1255.5,-628.5)"/><path d="M1339.5 724.5l84-48v576l-84 48v-576Z" fill="url(#qe7ve408tvwl7isja9csanxc)" fill-opacity=".45" opacity=".5" transform="translate(-1255.5,-628.5)"/><path d="M1339.5 628.5l84 48l-84 48l-84-48l84-48Z" fill="url(#nzvtv4zjkd3bb9220ct0wdxo)" fill-opacity=".45" transform="translate(-1255.5,-628.5)"/></g></svg>