<svg width="66" height="60" viewBox="0 0 66 60" fill="none" xmlns="http://www.w3.org/2000/svg">
<path d="M12.0918 30.8667L33.1288 19.1608L54.1657 30.8667L33.1288 42.5726L12.0918 30.8667Z" stroke="#25464F" stroke-width="4"/>
<path fill-rule="evenodd" clip-rule="evenodd" d="M7.3057 22.318C10.5638 11.3706 20.7061 3.39014 32.7085 3.39014C43.8906 3.39014 53.4583 10.3171 57.3485 20.1168L54.1162 17.957L52.4495 20.4514L58.8024 24.6963L60.0496 25.5297L60.883 24.2825L65.1279 17.9296L62.6335 16.2628L60.378 19.6384C56.2127 8.40097 45.3979 0.390137 32.7085 0.390137C19.3427 0.390137 8.05663 9.27776 4.43034 21.4623L7.3057 22.318ZM58.1113 37.4623C54.8532 48.4097 44.7109 56.3901 32.7085 56.3901C21.2793 56.3901 11.5367 49.1536 7.81898 39.0096L11.5439 40.3374L12.5511 37.5115L5.35403 34.9461L3.94111 34.4425L3.43747 35.8554L0.87207 43.0525L3.69792 44.0598L5.06735 40.2179C9.25313 51.4154 20.0478 59.3901 32.7085 59.3901C46.0743 59.3901 57.3604 50.5025 60.9867 38.318L58.1113 37.4623Z" fill="#25464F"/>
</svg>
