<svg width="64" height="64" viewBox="0 0 64 64" fill="none" xmlns="http://www.w3.org/2000/svg">
<path d="M11.1289 21.3662L32.1659 9.66033L53.2028 21.3662L32.1659 33.0721L11.1289 21.3662Z" stroke="#25464F" stroke-width="4"/>
<path d="M11.1289 31.3667L32.1659 19.6608L53.2028 31.3667L32.1659 43.0726L11.1289 31.3667Z" stroke="#25464F" stroke-width="4"/>
<path fill-rule="evenodd" clip-rule="evenodd" d="M4.25916 45.1236L2.85612 49.0598L0.0302734 48.0525L2.59567 40.8554L3.09931 39.4425L4.51223 39.9461L11.7093 42.5115L10.7021 45.3374L7.05571 44.0376C10.3878 52.5579 18.005 58.9323 27.2522 60.5108L26.7474 63.4681C16.444 61.7092 7.96707 54.6117 4.25916 45.1236ZM59.2232 45.5425L60.4769 49.0598L63.3028 48.0525L60.7374 40.8554L60.2337 39.4425L58.8208 39.9461L51.6237 42.5115L52.631 45.3374L56.6449 43.9066C53.2672 52.6813 45.3538 59.2055 35.7823 60.6082L36.2173 63.5765C46.6757 62.0438 55.3469 55.0279 59.2232 45.5425Z" fill="#25464F"/>
</svg>
