<svg width="526" height="393" viewBox="0 0 526 393" fill="none" xmlns="http://www.w3.org/2000/svg">
<path d="M408.52 225.774H406.684L401.896 238.5H403.642L404.956 234.882H410.212L411.526 238.5H413.308L408.52 225.774ZM407.638 227.664L409.726 233.388H405.496L407.566 227.664H407.638ZM417.321 238.77C419.211 238.77 420.525 237.726 420.525 236.07C420.525 232.686 415.773 234.306 415.773 232.182C415.773 231.552 416.259 230.994 417.267 230.994C418.149 230.994 418.887 231.516 418.977 232.254L420.435 231.966C420.201 230.688 418.887 229.788 417.231 229.788C415.431 229.788 414.207 230.778 414.207 232.29C414.207 235.638 418.959 234.072 418.959 236.16C418.959 236.97 418.419 237.582 417.357 237.582C416.349 237.582 415.575 237.06 415.359 236.214L413.901 236.502C414.261 237.888 415.575 238.77 417.321 238.77ZM425.012 238.77C426.902 238.77 428.216 237.726 428.216 236.07C428.216 232.686 423.464 234.306 423.464 232.182C423.464 231.552 423.95 230.994 424.958 230.994C425.84 230.994 426.578 231.516 426.668 232.254L428.126 231.966C427.892 230.688 426.578 229.788 424.922 229.788C423.122 229.788 421.898 230.778 421.898 232.29C421.898 235.638 426.65 234.072 426.65 236.16C426.65 236.97 426.11 237.582 425.048 237.582C424.04 237.582 423.266 237.06 423.05 236.214L421.592 236.502C421.952 237.888 423.266 238.77 425.012 238.77ZM435.799 236.106C435.349 237.006 434.611 237.456 433.567 237.456C432.001 237.456 430.975 236.304 430.831 234.666H437.455V234.198C437.383 231.318 435.529 229.788 433.351 229.788C430.903 229.788 429.247 231.786 429.247 234.288C429.247 236.844 430.975 238.77 433.567 238.77C435.241 238.77 436.429 238.014 437.131 236.502L435.799 236.106ZM433.387 231.012C433.981 231.012 434.521 231.21 435.007 231.624C435.493 232.02 435.763 232.668 435.817 233.568H430.849C431.047 231.984 431.947 231.012 433.387 231.012ZM442.356 238.68C442.95 238.68 443.508 238.554 443.796 238.41L443.598 237.15C443.364 237.276 443.04 237.348 442.644 237.348C441.618 237.348 441.15 236.844 441.15 235.458V231.408H443.724V230.058H441.15V227.34L439.584 227.646V230.058H437.946V231.408H439.584V235.728C439.584 237.87 440.682 238.68 442.356 238.68ZM461.912 225.9H459.446L455.468 235.98H455.396L451.418 225.9H448.88V238.5H450.518V228.096H450.59L454.676 238.5H456.098L460.184 228.096H460.256V238.5H461.912V225.9ZM471.382 232.974C471.382 230.958 470.176 229.788 468.106 229.788C466.306 229.788 465.01 230.634 464.578 232.128L466.144 232.272C466.414 231.498 467.062 231.048 467.998 231.048C469.132 231.048 469.816 231.732 469.816 232.938V233.82C469.438 233.586 468.628 233.406 467.782 233.406C465.622 233.406 464.254 234.45 464.254 236.16C464.254 237.69 465.478 238.752 467.224 238.752C468.358 238.752 469.402 238.248 469.852 237.51H469.888V238.5H471.382V232.974ZM465.838 236.034C465.838 235.116 466.63 234.54 467.944 234.54C468.718 234.54 469.438 234.738 469.852 235.008V235.8C469.852 236.682 468.772 237.51 467.584 237.51C466.558 237.51 465.838 236.898 465.838 236.034ZM480.734 233.1C480.734 231.03 479.6 229.788 477.746 229.788C476.522 229.788 475.532 230.382 475.046 231.3H474.974V230.058H473.516V238.5H475.082V233.64C475.082 232.2 476.054 231.174 477.35 231.174C478.502 231.174 479.168 231.984 479.168 233.442V238.5H480.734V233.1ZM489.699 232.974C489.699 230.958 488.493 229.788 486.423 229.788C484.623 229.788 483.327 230.634 482.895 232.128L484.461 232.272C484.731 231.498 485.379 231.048 486.315 231.048C487.449 231.048 488.133 231.732 488.133 232.938V233.82C487.755 233.586 486.945 233.406 486.099 233.406C483.939 233.406 482.571 234.45 482.571 236.16C482.571 237.69 483.795 238.752 485.541 238.752C486.675 238.752 487.719 238.248 488.169 237.51H488.205V238.5H489.699V232.974ZM484.155 236.034C484.155 235.116 484.947 234.54 486.261 234.54C487.035 234.54 487.755 234.738 488.169 235.008V235.8C488.169 236.682 487.089 237.51 485.901 237.51C484.875 237.51 484.155 236.898 484.155 236.034ZM491.276 234C491.276 236.52 492.986 238.194 495.092 238.194C496.37 238.194 497.378 237.654 497.81 236.79V238.248C497.81 239.886 496.928 240.822 495.47 240.822C494.336 240.822 493.418 240.246 493.22 239.436L491.636 239.778C491.996 241.146 493.49 242.1 495.452 242.1C497.954 242.1 499.358 240.588 499.358 237.906V230.058H497.846V231.066H497.792C497.27 230.292 496.424 229.788 495.146 229.788C493.004 229.788 491.276 231.408 491.276 234ZM492.86 234C492.86 232.272 493.94 231.156 495.362 231.156C496.856 231.156 497.882 232.29 497.882 234C497.882 235.674 496.856 236.826 495.362 236.826C493.94 236.826 492.86 235.728 492.86 234ZM507.591 236.106C507.141 237.006 506.403 237.456 505.359 237.456C503.793 237.456 502.767 236.304 502.623 234.666H509.247V234.198C509.175 231.318 507.321 229.788 505.143 229.788C502.695 229.788 501.039 231.786 501.039 234.288C501.039 236.844 502.767 238.77 505.359 238.77C507.033 238.77 508.221 238.014 508.923 236.502L507.591 236.106ZM505.179 231.012C505.773 231.012 506.313 231.21 506.799 231.624C507.285 232.02 507.555 232.668 507.609 233.568H502.641C502.839 231.984 503.739 231.012 505.179 231.012ZM510.889 238.5H512.455V234.342C512.455 232.398 513.427 231.39 514.777 231.39C515.047 231.39 515.281 231.426 515.461 231.498V229.986C515.299 229.914 515.065 229.86 514.777 229.86C513.751 229.86 512.851 230.454 512.419 231.444H512.347V230.058H510.889V238.5ZM519.437 238.77C521.327 238.77 522.641 237.726 522.641 236.07C522.641 232.686 517.889 234.306 517.889 232.182C517.889 231.552 518.375 230.994 519.383 230.994C520.265 230.994 521.003 231.516 521.093 232.254L522.551 231.966C522.317 230.688 521.003 229.788 519.347 229.788C517.547 229.788 516.323 230.778 516.323 232.29C516.323 235.638 521.075 234.072 521.075 236.16C521.075 236.97 520.535 237.582 519.473 237.582C518.465 237.582 517.691 237.06 517.475 236.214L516.017 236.502C516.377 237.888 517.691 238.77 519.437 238.77ZM525.848 236.376H524.282L523.04 240.876H524.318L525.848 236.376ZM403.192 247.9V260.5H404.83V254.974H409.708V253.444H404.83V249.412H411.31V247.9H403.192ZM418.434 254.974C418.434 252.958 417.228 251.788 415.158 251.788C413.358 251.788 412.062 252.634 411.63 254.128L413.196 254.272C413.466 253.498 414.114 253.048 415.05 253.048C416.184 253.048 416.868 253.732 416.868 254.938V255.82C416.49 255.586 415.68 255.406 414.834 255.406C412.674 255.406 411.306 256.45 411.306 258.16C411.306 259.69 412.53 260.752 414.276 260.752C415.41 260.752 416.454 260.248 416.904 259.51H416.94V260.5H418.434V254.974ZM412.89 258.034C412.89 257.116 413.682 256.54 414.996 256.54C415.77 256.54 416.49 256.738 416.904 257.008V257.8C416.904 258.682 415.824 259.51 414.636 259.51C413.61 259.51 412.89 258.898 412.89 258.034ZM432.971 255.028C432.971 253.03 431.855 251.788 430.055 251.788C428.831 251.788 427.823 252.418 427.265 253.48C426.959 252.472 425.969 251.788 424.691 251.788C423.521 251.788 422.531 252.418 422.099 253.21H422.027V252.058H420.569V260.5H422.135V255.532C422.135 254.218 423.071 253.174 424.223 253.174C425.357 253.174 425.987 254.02 425.987 255.406V260.5H427.553V255.532C427.553 254.866 427.751 254.308 428.165 253.858C428.579 253.408 429.065 253.174 429.659 253.174C430.757 253.174 431.405 254.02 431.405 255.406V260.5H432.971V255.028ZM436.699 247.9H435.133V249.844H436.699V247.9ZM436.699 252.058H435.133V260.5H436.699V252.058ZM439.009 260.5H440.575V247.9H439.009V260.5ZM450.212 252.058H448.646L446.216 258.376L443.57 252.058H441.86L445.37 260.23L443.822 264.01H445.388L450.212 252.058ZM467.218 254.2C467.218 250.312 464.464 247.63 460.972 247.63C457.462 247.63 454.708 250.312 454.708 254.2C454.708 258.088 457.462 260.77 460.972 260.77C464.464 260.77 467.218 258.088 467.218 254.2ZM465.526 254.2C465.526 257.188 463.492 259.222 460.972 259.222C458.47 259.222 456.4 257.188 456.4 254.2C456.4 251.194 458.47 249.178 460.972 249.178C463.492 249.178 465.526 251.194 465.526 254.2ZM469.769 253.408V260.5H471.353V253.408H474.863V260.5H476.447V253.408H478.859V252.058H476.447V250.762C476.447 249.7 476.897 248.998 478.031 248.998C478.337 248.998 478.625 249.052 478.859 249.106V247.774C478.643 247.702 478.211 247.63 477.725 247.63C475.835 247.63 474.863 248.8 474.863 250.618V252.058H471.353V250.762C471.353 249.7 471.803 248.998 472.937 248.998C473.243 248.998 473.531 249.052 473.765 249.106V247.774C473.549 247.702 473.117 247.63 472.631 247.63C470.741 247.63 469.769 248.8 469.769 250.618V252.058H468.149V253.408H469.769ZM481.367 247.9H479.801V249.844H481.367V247.9ZM481.367 252.058H479.801V260.5H481.367V252.058ZM487.133 251.788C484.775 251.788 483.047 253.606 483.047 256.27C483.047 258.844 484.667 260.77 487.223 260.77C489.077 260.77 490.373 259.816 490.931 258.106L489.455 257.728C489.095 258.736 488.375 259.384 487.169 259.384C485.513 259.384 484.631 258.034 484.631 256.288C484.631 254.506 485.513 253.174 487.169 253.174C488.375 253.174 489.113 253.804 489.455 254.83L490.985 254.596C490.463 252.724 489.167 251.788 487.133 251.788ZM498.415 258.106C497.965 259.006 497.227 259.456 496.183 259.456C494.617 259.456 493.591 258.304 493.447 256.666H500.071V256.198C499.999 253.318 498.145 251.788 495.967 251.788C493.519 251.788 491.863 253.786 491.863 256.288C491.863 258.844 493.591 260.77 496.183 260.77C497.857 260.77 499.045 260.014 499.747 258.502L498.415 258.106ZM496.003 253.012C496.597 253.012 497.137 253.21 497.623 253.624C498.109 254.02 498.379 254.668 498.433 255.568H493.465C493.663 253.984 494.563 253.012 496.003 253.012ZM504.539 260.77C506.429 260.77 507.743 259.726 507.743 258.07C507.743 254.686 502.991 256.306 502.991 254.182C502.991 253.552 503.477 252.994 504.485 252.994C505.367 252.994 506.105 253.516 506.195 254.254L507.653 253.966C507.419 252.688 506.105 251.788 504.449 251.788C502.649 251.788 501.425 252.778 501.425 254.29C501.425 257.638 506.177 256.072 506.177 258.16C506.177 258.97 505.637 259.582 504.575 259.582C503.567 259.582 502.793 259.06 502.577 258.214L501.119 258.502C501.479 259.888 502.793 260.77 504.539 260.77Z" fill="#847658"/>
<path d="M413.26 316.22C420.22 316.22 425.5 311.42 425.5 305.084C425.5 302.252 424.588 299.996 422.764 298.316C420.94 296.636 418.492 295.772 415.468 295.772L410.908 296.732H410.764L412.54 285.74H424.348V279.452H424.108L421.756 281.9H409.9L407.26 298.364H407.452L411.004 297.596C413.932 297.596 416.332 298.412 418.108 299.996C419.932 301.58 420.844 303.644 420.844 306.284C420.844 310.844 417.772 314.396 413.788 314.396C412.972 314.396 411.964 314.252 411.244 314.012L404.524 308.588H404.284V313.772C406.396 315.308 410.14 316.22 413.26 316.22ZM452.102 282.14V281.9H429.302V288.668H429.494L431.798 286.268H448.742V286.46L433.334 315.26V315.5H436.598L452.102 282.14Z" fill="#847658"/>
<path d="M461.772 293.652C465.068 293.652 467.372 291.092 467.372 287.54C467.372 284.116 465.196 281.748 461.996 281.748C458.732 281.748 456.396 284.372 456.396 287.86C456.396 291.252 458.572 293.652 461.772 293.652ZM460.748 304.5L476.076 282.1H474.604L459.308 304.5H460.748ZM462.156 292.852C460.268 292.852 458.988 290.58 458.988 287.156C458.988 284.212 459.948 282.548 461.612 282.548C463.5 282.548 464.78 284.82 464.78 288.244C464.78 291.188 463.788 292.852 462.156 292.852ZM473.356 304.852C476.652 304.852 478.956 302.292 478.956 298.74C478.956 295.316 476.78 292.948 473.58 292.948C470.316 292.948 467.98 295.572 467.98 299.06C467.98 302.452 470.156 304.852 473.356 304.852ZM473.74 304.052C471.852 304.052 470.572 301.78 470.572 298.356C470.572 295.412 471.532 293.748 473.196 293.748C475.084 293.748 476.364 296.02 476.364 299.444C476.364 302.388 475.372 304.052 473.74 304.052Z" fill="#847658" fill-opacity="0.65"/>
<path d="M8.274 156.176C8.274 154.25 6.924 152.9 4.404 152.9H0.192V165.5H4.674C6.06 165.5 7.104 165.176 7.788 164.51C8.472 163.844 8.814 162.98 8.814 161.954C8.814 160.514 7.986 159.2 6.114 158.984C7.572 158.696 8.274 157.472 8.274 156.176ZM4.26 154.43C5.916 154.43 6.564 155.366 6.564 156.374C6.564 157.436 5.934 158.318 4.512 158.318H1.83V154.43H4.26ZM7.122 161.846C7.122 162.404 6.924 162.908 6.528 163.34C6.132 163.772 5.502 163.988 4.638 163.988H1.83V159.74H4.566C5.484 159.74 6.15 159.956 6.528 160.37C6.924 160.784 7.122 161.288 7.122 161.846ZM17.6315 159.974C17.6315 157.958 16.4255 156.788 14.3555 156.788C12.5555 156.788 11.2595 157.634 10.8275 159.128L12.3935 159.272C12.6635 158.498 13.3115 158.048 14.2475 158.048C15.3815 158.048 16.0655 158.732 16.0655 159.938V160.82C15.6875 160.586 14.8775 160.406 14.0315 160.406C11.8715 160.406 10.5035 161.45 10.5035 163.16C10.5035 164.69 11.7275 165.752 13.4735 165.752C14.6075 165.752 15.6515 165.248 16.1015 164.51H16.1375V165.5H17.6315V159.974ZM12.0875 163.034C12.0875 162.116 12.8795 161.54 14.1935 161.54C14.9675 161.54 15.6875 161.738 16.1015 162.008V162.8C16.1015 163.682 15.0215 164.51 13.8335 164.51C12.8075 164.51 12.0875 163.898 12.0875 163.034ZM26.9843 160.1C26.9843 158.03 25.8503 156.788 23.9963 156.788C22.7723 156.788 21.7823 157.382 21.2963 158.3H21.2243V157.058H19.7663V165.5H21.3323V160.64C21.3323 159.2 22.3043 158.174 23.6003 158.174C24.7523 158.174 25.4183 158.984 25.4183 160.442V165.5H26.9843V160.1ZM30.7106 161.396L34.5806 165.5H36.6326L32.2766 160.892L36.2006 157.058H34.3106L30.7106 160.658V152.9H29.1446V165.5H30.7106V161.396ZM40.3118 165.77C42.2018 165.77 43.5158 164.726 43.5158 163.07C43.5158 159.686 38.7638 161.306 38.7638 159.182C38.7638 158.552 39.2498 157.994 40.2578 157.994C41.1398 157.994 41.8778 158.516 41.9678 159.254L43.4258 158.966C43.1918 157.688 41.8778 156.788 40.2218 156.788C38.4218 156.788 37.1978 157.778 37.1978 159.29C37.1978 162.638 41.9498 161.072 41.9498 163.16C41.9498 163.97 41.4098 164.582 40.3478 164.582C39.3398 164.582 38.5658 164.06 38.3498 163.214L36.8918 163.502C37.2518 164.888 38.5658 165.77 40.3118 165.77ZM46.7226 163.376H45.1566L43.9146 167.876H45.1926L46.7226 163.376ZM8.274 178.176C8.274 176.25 6.924 174.9 4.404 174.9H0.192V187.5H4.674C6.06 187.5 7.104 187.176 7.788 186.51C8.472 185.844 8.814 184.98 8.814 183.954C8.814 182.514 7.986 181.2 6.114 180.984C7.572 180.696 8.274 179.472 8.274 178.176ZM4.26 176.43C5.916 176.43 6.564 177.366 6.564 178.374C6.564 179.436 5.934 180.318 4.512 180.318H1.83V176.43H4.26ZM7.122 183.846C7.122 184.404 6.924 184.908 6.528 185.34C6.132 185.772 5.502 185.988 4.638 185.988H1.83V181.74H4.566C5.484 181.74 6.15 181.956 6.528 182.37C6.924 182.784 7.122 183.288 7.122 183.846ZM10.8275 187.5H12.3935V183.342C12.3935 181.398 13.3655 180.39 14.7155 180.39C14.9855 180.39 15.2195 180.426 15.3995 180.498V178.986C15.2375 178.914 15.0035 178.86 14.7155 178.86C13.6895 178.86 12.7895 179.454 12.3575 180.444H12.2855V179.058H10.8275V187.5ZM15.9195 183.27C15.9195 185.988 17.7915 187.77 20.2215 187.77C22.6515 187.77 24.5235 185.97 24.5235 183.27C24.5235 180.552 22.6515 178.788 20.2215 178.788C17.7915 178.788 15.9195 180.534 15.9195 183.27ZM17.5035 183.27C17.5035 182.388 17.7555 181.65 18.2415 181.056C18.7275 180.462 19.3935 180.174 20.2215 180.174C21.0495 180.174 21.7155 180.462 22.2015 181.056C22.6875 181.65 22.9395 182.388 22.9395 183.27C22.9395 185.07 21.8775 186.384 20.2215 186.384C18.5655 186.384 17.5035 185.07 17.5035 183.27ZM27.7575 183.396L31.6275 187.5H33.6795L29.3235 182.892L33.2475 179.058H31.3575L27.7575 182.658V174.9H26.1915V187.5H27.7575V183.396ZM40.3316 185.106C39.8816 186.006 39.1436 186.456 38.0996 186.456C36.5336 186.456 35.5076 185.304 35.3636 183.666H41.9876V183.198C41.9156 180.318 40.0616 178.788 37.8836 178.788C35.4356 178.788 33.7796 180.786 33.7796 183.288C33.7796 185.844 35.5076 187.77 38.0996 187.77C39.7736 187.77 40.9616 187.014 41.6636 185.502L40.3316 185.106ZM37.9196 180.012C38.5136 180.012 39.0536 180.21 39.5396 180.624C40.0256 181.02 40.2956 181.668 40.3496 182.568H35.3816C35.5796 180.984 36.4796 180.012 37.9196 180.012ZM43.6297 187.5H45.1957V183.342C45.1957 181.398 46.1677 180.39 47.5177 180.39C47.7877 180.39 48.0217 180.426 48.2017 180.498V178.986C48.0397 178.914 47.8057 178.86 47.5177 178.86C46.4917 178.86 45.5917 179.454 45.1597 180.444H45.0877V179.058H43.6297V187.5ZM52.1777 187.77C54.0677 187.77 55.3817 186.726 55.3817 185.07C55.3817 181.686 50.6297 183.306 50.6297 181.182C50.6297 180.552 51.1157 179.994 52.1237 179.994C53.0057 179.994 53.7437 180.516 53.8337 181.254L55.2917 180.966C55.0577 179.688 53.7437 178.788 52.0877 178.788C50.2877 178.788 49.0637 179.778 49.0637 181.29C49.0637 184.638 53.8157 183.072 53.8157 185.16C53.8157 185.97 53.2757 186.582 52.2137 186.582C51.2057 186.582 50.4317 186.06 50.2157 185.214L48.7577 185.502C49.1177 186.888 50.4317 187.77 52.1777 187.77Z" fill="#7C9891"/>
<path d="M9.972 243.22C17.412 243.22 22.788 238.324 22.788 231.46C22.788 227.092 19.572 223.3 15.204 222.628V222.436L19.044 220.036C19.764 219.076 20.292 217.444 20.292 215.716C20.292 211.3 16.884 208.18 11.556 208.18C5.94 208.18 2.292 211.732 1.956 217.636L2.196 217.684C3.78 213.508 6.372 211.396 9.972 211.396C13.668 211.396 16.068 213.748 16.068 217.444C16.068 219.604 15.204 221.236 13.524 222.58L7.332 225.076V225.364C8.1 225.22 8.82 225.172 9.444 225.172C14.772 225.172 18.228 228.388 18.228 233.332C18.228 237.94 15.156 241.396 10.932 241.396C10.164 241.396 9.492 241.3 8.964 241.156L2.004 235.876H1.764V241.252C3.444 242.356 6.948 243.22 9.972 243.22ZM49.8518 209.14V208.9H27.0518V215.668H27.2438L29.5478 213.268H46.4918V213.46L31.0838 242.26V242.5H34.3478L49.8518 209.14Z" fill="#708F87"/>
<path d="M59.772 220.652C63.068 220.652 65.372 218.092 65.372 214.54C65.372 211.116 63.196 208.748 59.996 208.748C56.732 208.748 54.396 211.372 54.396 214.86C54.396 218.252 56.572 220.652 59.772 220.652ZM58.748 231.5L74.076 209.1H72.604L57.308 231.5H58.748ZM60.156 219.852C58.268 219.852 56.988 217.58 56.988 214.156C56.988 211.212 57.948 209.548 59.612 209.548C61.5 209.548 62.78 211.82 62.78 215.244C62.78 218.188 61.788 219.852 60.156 219.852ZM71.356 231.852C74.652 231.852 76.956 229.292 76.956 225.74C76.956 222.316 74.78 219.948 71.58 219.948C68.316 219.948 65.98 222.572 65.98 226.06C65.98 229.452 68.156 231.852 71.356 231.852ZM71.74 231.052C69.852 231.052 68.572 228.78 68.572 225.356C68.572 222.412 69.532 220.748 71.196 220.748C73.084 220.748 74.364 223.02 74.364 226.444C74.364 229.388 73.372 231.052 71.74 231.052Z" fill="#708F87" fill-opacity="0.65"/>
<path d="M199.308 0.474218H197.58L193.692 11.0402H193.62L189.732 0.474218H187.896L192.684 13.2002H194.52L199.308 0.474218ZM199.766 6.79222C199.766 10.7702 202.43 13.3442 205.94 13.3442C208.46 13.3442 210.422 11.8862 211.106 9.56422L209.504 9.15022C208.946 10.8062 207.578 11.7962 205.868 11.7962C203.312 11.7962 201.458 9.69022 201.458 6.77422C201.458 3.85822 203.294 1.75222 205.886 1.75222C207.74 1.75222 209.054 2.92222 209.486 4.30822L211.178 4.02022C210.44 1.64422 208.46 0.204218 205.886 0.204218C202.394 0.204218 199.766 2.77822 199.766 6.79222ZM215.776 13.3442C217.666 13.3442 218.98 12.3002 218.98 10.6442C218.98 7.26022 214.228 8.88022 214.228 6.75622C214.228 6.12622 214.714 5.56822 215.722 5.56822C216.604 5.56822 217.342 6.09022 217.432 6.82822L218.89 6.54022C218.656 5.26222 217.342 4.36222 215.686 4.36222C213.886 4.36222 212.662 5.35222 212.662 6.86422C212.662 10.2122 217.414 8.64622 217.414 10.7342C217.414 11.5442 216.874 12.1562 215.812 12.1562C214.804 12.1562 214.03 11.6342 213.814 10.7882L212.356 11.0762C212.716 12.4622 214.03 13.3442 215.776 13.3442ZM222.187 10.9502H220.621L219.379 15.4502H220.657L222.187 10.9502ZM230.741 8.19622C233.189 8.19622 234.827 6.48622 234.827 4.34422C234.827 2.02222 233.009 0.474218 230.615 0.474218H226.205V13.0742H227.843V8.19622H230.741ZM233.135 4.34422C233.135 5.51422 232.289 6.68422 230.489 6.68422H227.843V2.00422H230.327C232.289 2.00422 233.135 3.17422 233.135 4.34422ZM236.031 13.0742H237.597V8.91622C237.597 6.97222 238.569 5.96422 239.919 5.96422C240.189 5.96422 240.423 6.00022 240.603 6.07222V4.56022C240.441 4.48822 240.207 4.43422 239.919 4.43422C238.893 4.43422 237.993 5.02822 237.561 6.01822H237.489V4.63222H236.031V13.0742ZM243.319 0.474218H241.753V2.41822H243.319V0.474218ZM243.319 4.63222H241.753V13.0742H243.319V4.63222ZM252.938 4.63222H251.372L248.888 11.1842H248.834L246.35 4.63222H244.64L248.078 13.1822H249.5L252.938 4.63222ZM260.423 7.54822C260.423 5.53222 259.217 4.36222 257.147 4.36222C255.347 4.36222 254.051 5.20822 253.619 6.70222L255.185 6.84622C255.455 6.07222 256.103 5.62222 257.039 5.62222C258.173 5.62222 258.857 6.30622 258.857 7.51222V8.39422C258.479 8.16022 257.669 7.98022 256.823 7.98022C254.663 7.98022 253.295 9.02422 253.295 10.7342C253.295 12.2642 254.519 13.3262 256.265 13.3262C257.399 13.3262 258.443 12.8222 258.893 12.0842H258.929V13.0742H260.423V7.54822ZM254.879 10.6082C254.879 9.69022 255.671 9.11422 256.985 9.11422C257.759 9.11422 258.479 9.31222 258.893 9.58222V10.3742C258.893 11.2562 257.813 12.0842 256.625 12.0842C255.599 12.0842 254.879 11.4722 254.879 10.6082ZM265.87 13.2542C266.464 13.2542 267.022 13.1282 267.31 12.9842L267.112 11.7242C266.878 11.8502 266.554 11.9222 266.158 11.9222C265.132 11.9222 264.664 11.4182 264.664 10.0322V5.98222H267.238V4.63222H264.664V1.91422L263.098 2.22022V4.63222H261.46V5.98222H263.098V10.3022C263.098 12.4442 264.196 13.2542 265.87 13.2542ZM274.36 10.6802C273.91 11.5802 273.172 12.0302 272.128 12.0302C270.562 12.0302 269.536 10.8782 269.392 9.24022H276.016V8.77222C275.944 5.89222 274.09 4.36222 271.912 4.36222C269.464 4.36222 267.808 6.36022 267.808 8.86222C267.808 11.4182 269.536 13.3442 272.128 13.3442C273.802 13.3442 274.99 12.5882 275.692 11.0762L274.36 10.6802ZM271.948 5.58622C272.542 5.58622 273.082 5.78422 273.568 6.19822C274.054 6.59422 274.324 7.24222 274.378 8.14222H269.41C269.608 6.55822 270.508 5.58622 271.948 5.58622ZM281.561 0.474218V13.0742H289.787V11.5622H283.199V7.45822H288.185V5.94622H283.199V1.98622H289.787V0.474218H281.561ZM291.285 8.84422C291.285 11.5082 292.995 13.3442 295.299 13.3442C296.649 13.3442 297.639 12.7322 298.125 11.8142V16.6742H299.709V4.63222H298.251V5.92822H298.197C297.675 4.86622 296.487 4.36222 295.263 4.36222C292.959 4.36222 291.285 6.18022 291.285 8.84422ZM292.869 8.84422C292.869 7.13422 293.895 5.76622 295.551 5.76622C297.189 5.76622 298.179 7.02622 298.179 8.84422C298.179 10.6622 297.189 11.9582 295.551 11.9582C293.895 11.9582 292.869 10.5722 292.869 8.84422ZM309.088 4.63222H307.522V9.49222C307.522 10.2122 307.306 10.8062 306.856 11.2742C306.424 11.7242 305.884 11.9582 305.254 11.9582C304.102 11.9582 303.436 11.1482 303.436 9.69022V4.63222H301.87V10.0322C301.87 12.0662 303.022 13.3442 304.84 13.3442C306.082 13.3442 307.072 12.7502 307.558 11.8322H307.63V13.0742H309.088V4.63222ZM312.958 0.474218H311.392V2.41822H312.958V0.474218ZM312.958 4.63222H311.392V13.0742H312.958V4.63222ZM318.581 13.2542C319.175 13.2542 319.733 13.1282 320.021 12.9842L319.823 11.7242C319.589 11.8502 319.265 11.9222 318.869 11.9222C317.843 11.9222 317.375 11.4182 317.375 10.0322V5.98222H319.949V4.63222H317.375V1.91422L315.809 2.22022V4.63222H314.171V5.98222H315.809V10.3022C315.809 12.4442 316.907 13.2542 318.581 13.2542ZM328.528 4.63222H326.962L324.532 10.9502L321.886 4.63222H320.176L323.686 12.8042L322.138 16.5842H323.704L328.528 4.63222ZM333.744 0.474218V13.0742H335.382V7.54822H340.26V6.01822H335.382V1.98622H341.862V0.474218H333.744ZM345.19 0.474218H343.624V2.41822H345.19V0.474218ZM345.19 4.63222H343.624V13.0742H345.19V4.63222ZM347.5 13.0742H349.066V8.91622C349.066 6.97222 350.038 5.96422 351.388 5.96422C351.658 5.96422 351.892 6.00022 352.072 6.07222V4.56022C351.91 4.48822 351.676 4.43422 351.388 4.43422C350.362 4.43422 349.462 5.02822 349.03 6.01822H348.958V4.63222H347.5V13.0742ZM365.624 7.60222C365.624 5.60422 364.508 4.36222 362.708 4.36222C361.484 4.36222 360.476 4.99222 359.918 6.05422C359.612 5.04622 358.622 4.36222 357.344 4.36222C356.174 4.36222 355.184 4.99222 354.752 5.78422H354.68V4.63222H353.222V13.0742H354.788V8.10622C354.788 6.79222 355.724 5.74822 356.876 5.74822C358.01 5.74822 358.64 6.59422 358.64 7.98022V13.0742H360.206V8.10622C360.206 7.44022 360.404 6.88222 360.818 6.43222C361.232 5.98222 361.718 5.74822 362.312 5.74822C363.41 5.74822 364.058 6.59422 364.058 7.98022V13.0742H365.624V7.60222ZM370.612 13.3442C372.502 13.3442 373.816 12.3002 373.816 10.6442C373.816 7.26022 369.064 8.88022 369.064 6.75622C369.064 6.12622 369.55 5.56822 370.558 5.56822C371.44 5.56822 372.178 6.09022 372.268 6.82822L373.726 6.54022C373.492 5.26222 372.178 4.36222 370.522 4.36222C368.722 4.36222 367.498 5.35222 367.498 6.86422C367.498 10.2122 372.25 8.64622 372.25 10.7342C372.25 11.5442 371.71 12.1562 370.648 12.1562C369.64 12.1562 368.866 11.6342 368.65 10.7882L367.192 11.0762C367.552 12.4622 368.866 13.3442 370.612 13.3442ZM377.023 10.9502H375.457L374.215 15.4502H375.493L377.023 10.9502ZM188.022 22.4742V24.0042H191.892V35.0742H193.53V24.0042H197.4V22.4742H188.022ZM196.857 35.0742H198.423V30.9162C198.423 28.9722 199.395 27.9642 200.745 27.9642C201.015 27.9642 201.249 28.0002 201.429 28.0722V26.5602C201.267 26.4882 201.033 26.4342 200.745 26.4342C199.719 26.4342 198.819 27.0282 198.387 28.0182H198.315V26.6322H196.857V35.0742ZM209.348 29.5482C209.348 27.5322 208.142 26.3622 206.072 26.3622C204.272 26.3622 202.976 27.2082 202.544 28.7022L204.11 28.8462C204.38 28.0722 205.028 27.6222 205.964 27.6222C207.098 27.6222 207.782 28.3062 207.782 29.5122V30.3942C207.404 30.1602 206.594 29.9802 205.748 29.9802C203.588 29.9802 202.22 31.0242 202.22 32.7342C202.22 34.2642 203.444 35.3262 205.19 35.3262C206.324 35.3262 207.368 34.8222 207.818 34.0842H207.854V35.0742H209.348V29.5482ZM203.804 32.6082C203.804 31.6902 204.596 31.1142 205.91 31.1142C206.684 31.1142 207.404 31.3122 207.818 31.5822V32.3742C207.818 33.2562 206.738 34.0842 205.55 34.0842C204.524 34.0842 203.804 33.4722 203.804 32.6082ZM210.852 30.8622C210.852 33.5262 212.526 35.3442 214.848 35.3442C216.09 35.3442 217.206 34.8042 217.782 33.6702H217.836V35.0742H219.276V22.4742H217.71V27.8022C217.188 26.9382 216.162 26.3622 214.866 26.3622C212.562 26.3622 210.852 28.1982 210.852 30.8622ZM212.436 30.8622C212.436 29.1162 213.462 27.7482 215.118 27.7482C216.756 27.7482 217.746 29.0082 217.746 30.8622C217.746 32.6802 216.756 33.9402 215.118 33.9402C213.534 33.9402 212.436 32.6442 212.436 30.8622ZM227.503 32.6802C227.053 33.5802 226.315 34.0302 225.271 34.0302C223.705 34.0302 222.679 32.8782 222.535 31.2402H229.159V30.7722C229.087 27.8922 227.233 26.3622 225.055 26.3622C222.607 26.3622 220.951 28.3602 220.951 30.8622C220.951 33.4182 222.679 35.3442 225.271 35.3442C226.945 35.3442 228.133 34.5882 228.835 33.0762L227.503 32.6802ZM225.091 27.5862C225.685 27.5862 226.225 27.7842 226.711 28.1982C227.197 28.5942 227.467 29.2422 227.521 30.1422H222.553C222.751 28.5582 223.651 27.5862 225.091 27.5862ZM234.704 22.4742V35.0742H236.342V29.5482H241.22V28.0182H236.342V23.9862H242.822V22.4742H234.704ZM246.149 22.4742H244.583V24.4182H246.149V22.4742ZM246.149 26.6322H244.583V35.0742H246.149V26.6322ZM255.678 29.6742C255.678 27.6042 254.544 26.3622 252.69 26.3622C251.466 26.3622 250.476 26.9562 249.99 27.8742H249.918V26.6322H248.46V35.0742H250.026V30.2142C250.026 28.7742 250.998 27.7482 252.294 27.7482C253.446 27.7482 254.112 28.5582 254.112 30.0162V35.0742H255.678V29.6742ZM264.642 29.5482C264.642 27.5322 263.436 26.3622 261.366 26.3622C259.566 26.3622 258.27 27.2082 257.838 28.7022L259.404 28.8462C259.674 28.0722 260.322 27.6222 261.258 27.6222C262.392 27.6222 263.076 28.3062 263.076 29.5122V30.3942C262.698 30.1602 261.888 29.9802 261.042 29.9802C258.882 29.9802 257.514 31.0242 257.514 32.7342C257.514 34.2642 258.738 35.3262 260.484 35.3262C261.618 35.3262 262.662 34.8222 263.112 34.0842H263.148V35.0742H264.642V29.5482ZM259.098 32.6082C259.098 31.6902 259.89 31.1142 261.204 31.1142C261.978 31.1142 262.698 31.3122 263.112 31.5822V32.3742C263.112 33.2562 262.032 34.0842 260.844 34.0842C259.818 34.0842 259.098 33.4722 259.098 32.6082ZM273.995 29.6742C273.995 27.6042 272.861 26.3622 271.007 26.3622C269.783 26.3622 268.793 26.9562 268.307 27.8742H268.235V26.6322H266.777V35.0742H268.343V30.2142C268.343 28.7742 269.315 27.7482 270.611 27.7482C271.763 27.7482 272.429 28.5582 272.429 30.0162V35.0742H273.995V29.6742ZM279.611 26.3622C277.253 26.3622 275.525 28.1802 275.525 30.8442C275.525 33.4182 277.145 35.3442 279.701 35.3442C281.555 35.3442 282.851 34.3902 283.409 32.6802L281.933 32.3022C281.573 33.3102 280.853 33.9582 279.647 33.9582C277.991 33.9582 277.109 32.6082 277.109 30.8622C277.109 29.0802 277.991 27.7482 279.647 27.7482C280.853 27.7482 281.591 28.3782 281.933 29.4042L283.463 29.1702C282.941 27.2982 281.645 26.3622 279.611 26.3622ZM290.893 32.6802C290.443 33.5802 289.705 34.0302 288.661 34.0302C287.095 34.0302 286.069 32.8782 285.925 31.2402H292.549V30.7722C292.477 27.8922 290.623 26.3622 288.445 26.3622C285.997 26.3622 284.341 28.3602 284.341 30.8622C284.341 33.4182 286.069 35.3442 288.661 35.3442C290.335 35.3442 291.523 34.5882 292.225 33.0762L290.893 32.6802ZM288.481 27.5862C289.075 27.5862 289.615 27.7842 290.101 28.1982C290.587 28.5942 290.857 29.2422 290.911 30.1422H285.943C286.141 28.5582 287.041 27.5862 288.481 27.5862Z" fill="#5BA5BE"/>
<path d="M201.324 90.7942C207.516 90.7942 212.268 85.9462 212.268 79.8022C212.268 74.2822 208.476 70.3942 203.052 70.3942C201.9 70.3942 200.892 70.5862 200.172 70.7782L197.292 72.4582L197.388 72.6982C198.108 72.5542 198.876 72.5062 199.404 72.5062C204.252 72.5062 207.852 76.5382 207.852 81.7702C207.852 86.1382 205.356 89.0662 201.564 89.0662C197.1 89.0662 194.22 84.9382 194.22 78.3622C194.22 68.6182 200.268 60.9862 211.932 55.8502L211.788 55.7542C198.252 57.4822 189.612 65.9302 189.612 77.4502C189.612 85.1302 194.556 90.7942 201.324 90.7942Z" fill="#5BA5BE"/>
<path d="M222.772 68.2262C226.068 68.2262 228.372 65.6662 228.372 62.1142C228.372 58.6902 226.196 56.3222 222.996 56.3222C219.732 56.3222 217.396 58.9462 217.396 62.4342C217.396 65.8262 219.572 68.2262 222.772 68.2262ZM221.748 79.0742L237.076 56.6742H235.604L220.308 79.0742H221.748ZM223.156 67.4262C221.268 67.4262 219.988 65.1542 219.988 61.7302C219.988 58.7862 220.948 57.1222 222.612 57.1222C224.5 57.1222 225.78 59.3942 225.78 62.8182C225.78 65.7622 224.788 67.4262 223.156 67.4262ZM234.356 79.4262C237.652 79.4262 239.956 76.8662 239.956 73.3142C239.956 69.8902 237.78 67.5222 234.58 67.5222C231.316 67.5222 228.98 70.1462 228.98 73.6342C228.98 77.0262 231.156 79.4262 234.356 79.4262ZM234.74 78.6262C232.852 78.6262 231.572 76.3542 231.572 72.9302C231.572 69.9862 232.532 68.3222 234.196 68.3222C236.084 68.3222 237.364 70.5942 237.364 74.0182C237.364 76.9622 236.372 78.6262 234.74 78.6262Z" fill="#5BA5BE" fill-opacity="0.65"/>
<path d="M242.5 120.508C263.55 120.508 284.275 125.699 302.839 135.622C321.403 145.545 337.233 159.893 348.928 177.395C360.623 194.897 367.82 215.013 369.884 235.962C371.947 256.91 368.812 278.044 360.757 297.491C352.701 316.939 339.974 334.099 323.702 347.453C307.431 360.807 288.117 369.942 267.472 374.048C246.826 378.155 225.487 377.107 205.344 370.996C185.2 364.886 166.875 353.902 151.99 339.017" stroke="url(#paint0_angular)" stroke-width="32"/>
<path d="M151.99 339.018C137.158 324.185 126.198 305.934 120.075 285.87C113.951 265.807 112.853 244.546 116.876 223.959C120.899 203.372 129.921 184.088 143.146 167.806C156.372 151.524 173.396 138.742 192.722 130.584" stroke="url(#paint1_angular)" stroke-width="32"/>
<path d="M192.229 130.793C208.272 123.942 225.546 120.442 242.991 120.509" stroke="url(#paint2_angular)" stroke-width="32"/>
<defs>
<radialGradient id="paint0_angular" cx="0" cy="0" r="1" gradientUnits="userSpaceOnUse" gradientTransform="translate(244.5 248.723) rotate(-65.5193) scale(129.107 125.317)">
<stop offset="0.069099" stop-color="#847658" stop-opacity="0.16"/>
<stop offset="0.192988" stop-color="#847658"/>
<stop offset="0.465552" stop-color="#847658"/>
<stop offset="0.72291" stop-color="#847658"/>
<stop offset="0.886104" stop-color="#847658" stop-opacity="0.63"/>
<stop offset="0.956003" stop-color="#847658" stop-opacity="0.59"/>
</radialGradient>
<radialGradient id="paint1_angular" cx="0" cy="0" r="1" gradientUnits="userSpaceOnUse" gradientTransform="translate(236 243.223) rotate(-180) scale(121 120.775)">
<stop offset="0.0350241" stop-color="#7C9891" stop-opacity="0.75"/>
<stop offset="0.126099" stop-color="#7C9891" stop-opacity="0.17"/>
<stop offset="0.74187" stop-color="#7C9891"/>
<stop offset="0.882251" stop-color="#7C9891"/>
</radialGradient>
<radialGradient id="paint2_angular" cx="0" cy="0" r="1" gradientUnits="userSpaceOnUse" gradientTransform="translate(243 248.723) rotate(-115.694) scale(117.631 119.148)">
<stop offset="0.0563052" stop-color="#5BA5BE" stop-opacity="0"/>
<stop offset="0.930227" stop-color="#5EA7BF"/>
</radialGradient>
</defs>
</svg>
