<svg width="520" height="409" viewBox="0 0 520 409" fill="none" xmlns="http://www.w3.org/2000/svg">
<path d="M398.02 241.592H396.184L391.396 254.318H393.142L394.456 250.7H399.712L401.026 254.318H402.808L398.02 241.592ZM397.138 243.482L399.226 249.206H394.996L397.066 243.482H397.138ZM406.821 254.588C408.711 254.588 410.025 253.544 410.025 251.888C410.025 248.504 405.273 250.124 405.273 248C405.273 247.37 405.759 246.812 406.767 246.812C407.649 246.812 408.387 247.334 408.477 248.072L409.935 247.784C409.701 246.506 408.387 245.606 406.731 245.606C404.931 245.606 403.707 246.596 403.707 248.108C403.707 251.456 408.459 249.89 408.459 251.978C408.459 252.788 407.919 253.4 406.857 253.4C405.849 253.4 405.075 252.878 404.859 252.032L403.401 252.32C403.761 253.706 405.075 254.588 406.821 254.588ZM414.512 254.588C416.402 254.588 417.716 253.544 417.716 251.888C417.716 248.504 412.964 250.124 412.964 248C412.964 247.37 413.45 246.812 414.458 246.812C415.34 246.812 416.078 247.334 416.168 248.072L417.626 247.784C417.392 246.506 416.078 245.606 414.422 245.606C412.622 245.606 411.398 246.596 411.398 248.108C411.398 251.456 416.15 249.89 416.15 251.978C416.15 252.788 415.61 253.4 414.548 253.4C413.54 253.4 412.766 252.878 412.55 252.032L411.092 252.32C411.452 253.706 412.766 254.588 414.512 254.588ZM425.299 251.924C424.849 252.824 424.111 253.274 423.067 253.274C421.501 253.274 420.475 252.122 420.331 250.484H426.955V250.016C426.883 247.136 425.029 245.606 422.851 245.606C420.403 245.606 418.747 247.604 418.747 250.106C418.747 252.662 420.475 254.588 423.067 254.588C424.741 254.588 425.929 253.832 426.631 252.32L425.299 251.924ZM422.887 246.83C423.481 246.83 424.021 247.028 424.507 247.442C424.993 247.838 425.263 248.486 425.317 249.386H420.349C420.547 247.802 421.447 246.83 422.887 246.83ZM431.856 254.498C432.45 254.498 433.008 254.372 433.296 254.228L433.098 252.968C432.864 253.094 432.54 253.166 432.144 253.166C431.118 253.166 430.65 252.662 430.65 251.276V247.226H433.224V245.876H430.65V243.158L429.084 243.464V245.876H427.446V247.226H429.084V251.546C429.084 253.688 430.182 254.498 431.856 254.498ZM451.412 241.718H448.946L444.968 251.798H444.896L440.918 241.718H438.38V254.318H440.018V243.914H440.09L444.176 254.318H445.598L449.684 243.914H449.756V254.318H451.412V241.718ZM460.882 248.792C460.882 246.776 459.676 245.606 457.606 245.606C455.806 245.606 454.51 246.452 454.078 247.946L455.644 248.09C455.914 247.316 456.562 246.866 457.498 246.866C458.632 246.866 459.316 247.55 459.316 248.756V249.638C458.938 249.404 458.128 249.224 457.282 249.224C455.122 249.224 453.754 250.268 453.754 251.978C453.754 253.508 454.978 254.57 456.724 254.57C457.858 254.57 458.902 254.066 459.352 253.328H459.388V254.318H460.882V248.792ZM455.338 251.852C455.338 250.934 456.13 250.358 457.444 250.358C458.218 250.358 458.938 250.556 459.352 250.826V251.618C459.352 252.5 458.272 253.328 457.084 253.328C456.058 253.328 455.338 252.716 455.338 251.852ZM470.234 248.918C470.234 246.848 469.1 245.606 467.246 245.606C466.022 245.606 465.032 246.2 464.546 247.118H464.474V245.876H463.016V254.318H464.582V249.458C464.582 248.018 465.554 246.992 466.85 246.992C468.002 246.992 468.668 247.802 468.668 249.26V254.318H470.234V248.918ZM479.199 248.792C479.199 246.776 477.993 245.606 475.923 245.606C474.123 245.606 472.827 246.452 472.395 247.946L473.961 248.09C474.231 247.316 474.879 246.866 475.815 246.866C476.949 246.866 477.633 247.55 477.633 248.756V249.638C477.255 249.404 476.445 249.224 475.599 249.224C473.439 249.224 472.071 250.268 472.071 251.978C472.071 253.508 473.295 254.57 475.041 254.57C476.175 254.57 477.219 254.066 477.669 253.328H477.705V254.318H479.199V248.792ZM473.655 251.852C473.655 250.934 474.447 250.358 475.761 250.358C476.535 250.358 477.255 250.556 477.669 250.826V251.618C477.669 252.5 476.589 253.328 475.401 253.328C474.375 253.328 473.655 252.716 473.655 251.852ZM480.776 249.818C480.776 252.338 482.486 254.012 484.592 254.012C485.87 254.012 486.878 253.472 487.31 252.608V254.066C487.31 255.704 486.428 256.64 484.97 256.64C483.836 256.64 482.918 256.064 482.72 255.254L481.136 255.596C481.496 256.964 482.99 257.918 484.952 257.918C487.454 257.918 488.858 256.406 488.858 253.724V245.876H487.346V246.884H487.292C486.77 246.11 485.924 245.606 484.646 245.606C482.504 245.606 480.776 247.226 480.776 249.818ZM482.36 249.818C482.36 248.09 483.44 246.974 484.862 246.974C486.356 246.974 487.382 248.108 487.382 249.818C487.382 251.492 486.356 252.644 484.862 252.644C483.44 252.644 482.36 251.546 482.36 249.818ZM497.091 251.924C496.641 252.824 495.903 253.274 494.859 253.274C493.293 253.274 492.267 252.122 492.123 250.484H498.747V250.016C498.675 247.136 496.821 245.606 494.643 245.606C492.195 245.606 490.539 247.604 490.539 250.106C490.539 252.662 492.267 254.588 494.859 254.588C496.533 254.588 497.721 253.832 498.423 252.32L497.091 251.924ZM494.679 246.83C495.273 246.83 495.813 247.028 496.299 247.442C496.785 247.838 497.055 248.486 497.109 249.386H492.141C492.339 247.802 493.239 246.83 494.679 246.83ZM500.389 254.318H501.955V250.16C501.955 248.216 502.927 247.208 504.277 247.208C504.547 247.208 504.781 247.244 504.961 247.316V245.804C504.799 245.732 504.565 245.678 504.277 245.678C503.251 245.678 502.351 246.272 501.919 247.262H501.847V245.876H500.389V254.318ZM508.937 254.588C510.827 254.588 512.141 253.544 512.141 251.888C512.141 248.504 507.389 250.124 507.389 248C507.389 247.37 507.875 246.812 508.883 246.812C509.765 246.812 510.503 247.334 510.593 248.072L512.051 247.784C511.817 246.506 510.503 245.606 508.847 245.606C507.047 245.606 505.823 246.596 505.823 248.108C505.823 251.456 510.575 249.89 510.575 251.978C510.575 252.788 510.035 253.4 508.973 253.4C507.965 253.4 507.191 252.878 506.975 252.032L505.517 252.32C505.877 253.706 507.191 254.588 508.937 254.588ZM515.348 252.194H513.782L512.54 256.694H513.818L515.348 252.194ZM392.692 263.718V276.318H394.33V270.792H399.208V269.262H394.33V265.23H400.81V263.718H392.692ZM407.934 270.792C407.934 268.776 406.728 267.606 404.658 267.606C402.858 267.606 401.562 268.452 401.13 269.946L402.696 270.09C402.966 269.316 403.614 268.866 404.55 268.866C405.684 268.866 406.368 269.55 406.368 270.756V271.638C405.99 271.404 405.18 271.224 404.334 271.224C402.174 271.224 400.806 272.268 400.806 273.978C400.806 275.508 402.03 276.57 403.776 276.57C404.91 276.57 405.954 276.066 406.404 275.328H406.44V276.318H407.934V270.792ZM402.39 273.852C402.39 272.934 403.182 272.358 404.496 272.358C405.27 272.358 405.99 272.556 406.404 272.826V273.618C406.404 274.5 405.324 275.328 404.136 275.328C403.11 275.328 402.39 274.716 402.39 273.852ZM422.471 270.846C422.471 268.848 421.355 267.606 419.555 267.606C418.331 267.606 417.323 268.236 416.765 269.298C416.459 268.29 415.469 267.606 414.191 267.606C413.021 267.606 412.031 268.236 411.599 269.028H411.527V267.876H410.069V276.318H411.635V271.35C411.635 270.036 412.571 268.992 413.723 268.992C414.857 268.992 415.487 269.838 415.487 271.224V276.318H417.053V271.35C417.053 270.684 417.251 270.126 417.665 269.676C418.079 269.226 418.565 268.992 419.159 268.992C420.257 268.992 420.905 269.838 420.905 271.224V276.318H422.471V270.846ZM426.199 263.718H424.633V265.662H426.199V263.718ZM426.199 267.876H424.633V276.318H426.199V267.876ZM428.509 276.318H430.075V263.718H428.509V276.318ZM439.712 267.876H438.146L435.716 274.194L433.07 267.876H431.36L434.87 276.048L433.322 279.828H434.888L439.712 267.876ZM456.718 270.018C456.718 266.13 453.964 263.448 450.472 263.448C446.962 263.448 444.208 266.13 444.208 270.018C444.208 273.906 446.962 276.588 450.472 276.588C453.964 276.588 456.718 273.906 456.718 270.018ZM455.026 270.018C455.026 273.006 452.992 275.04 450.472 275.04C447.97 275.04 445.9 273.006 445.9 270.018C445.9 267.012 447.97 264.996 450.472 264.996C452.992 264.996 455.026 267.012 455.026 270.018ZM459.269 269.226V276.318H460.853V269.226H464.363V276.318H465.947V269.226H468.359V267.876H465.947V266.58C465.947 265.518 466.397 264.816 467.531 264.816C467.837 264.816 468.125 264.87 468.359 264.924V263.592C468.143 263.52 467.711 263.448 467.225 263.448C465.335 263.448 464.363 264.618 464.363 266.436V267.876H460.853V266.58C460.853 265.518 461.303 264.816 462.437 264.816C462.743 264.816 463.031 264.87 463.265 264.924V263.592C463.049 263.52 462.617 263.448 462.131 263.448C460.241 263.448 459.269 264.618 459.269 266.436V267.876H457.649V269.226H459.269ZM470.867 263.718H469.301V265.662H470.867V263.718ZM470.867 267.876H469.301V276.318H470.867V267.876ZM476.633 267.606C474.275 267.606 472.547 269.424 472.547 272.088C472.547 274.662 474.167 276.588 476.723 276.588C478.577 276.588 479.873 275.634 480.431 273.924L478.955 273.546C478.595 274.554 477.875 275.202 476.669 275.202C475.013 275.202 474.131 273.852 474.131 272.106C474.131 270.324 475.013 268.992 476.669 268.992C477.875 268.992 478.613 269.622 478.955 270.648L480.485 270.414C479.963 268.542 478.667 267.606 476.633 267.606ZM487.915 273.924C487.465 274.824 486.727 275.274 485.683 275.274C484.117 275.274 483.091 274.122 482.947 272.484H489.571V272.016C489.499 269.136 487.645 267.606 485.467 267.606C483.019 267.606 481.363 269.604 481.363 272.106C481.363 274.662 483.091 276.588 485.683 276.588C487.357 276.588 488.545 275.832 489.247 274.32L487.915 273.924ZM485.503 268.83C486.097 268.83 486.637 269.028 487.123 269.442C487.609 269.838 487.879 270.486 487.933 271.386H482.965C483.163 269.802 484.063 268.83 485.503 268.83ZM494.039 276.588C495.929 276.588 497.243 275.544 497.243 273.888C497.243 270.504 492.491 272.124 492.491 270C492.491 269.37 492.977 268.812 493.985 268.812C494.867 268.812 495.605 269.334 495.695 270.072L497.153 269.784C496.919 268.506 495.605 267.606 493.949 267.606C492.149 267.606 490.925 268.596 490.925 270.108C490.925 273.456 495.677 271.89 495.677 273.978C495.677 274.788 495.137 275.4 494.075 275.4C493.067 275.4 492.293 274.878 492.077 274.032L490.619 274.32C490.979 275.706 492.293 276.588 494.039 276.588Z" fill="#847658"/>
<path d="M402.76 332.038C409.72 332.038 415 327.238 415 320.902C415 318.07 414.088 315.814 412.264 314.134C410.44 312.454 407.992 311.59 404.968 311.59L400.408 312.55H400.264L402.04 301.558H413.848V295.27H413.608L411.256 297.718H399.4L396.76 314.182H396.952L400.504 313.414C403.432 313.414 405.832 314.23 407.608 315.814C409.432 317.398 410.344 319.462 410.344 322.102C410.344 326.662 407.272 330.214 403.288 330.214C402.472 330.214 401.464 330.07 400.744 329.83L394.024 324.406H393.784V329.59C395.896 331.126 399.64 332.038 402.76 332.038ZM431.345 332.038C438.881 332.038 444.449 324.31 444.449 313.942C444.449 304.006 439.313 296.998 432.161 296.998C424.673 296.998 419.057 304.726 419.057 315.094C419.057 325.03 424.241 332.038 431.345 332.038ZM432.017 330.262C427.025 330.262 424.097 323.83 424.097 313.558C424.097 304.006 426.929 298.774 431.393 298.774C436.481 298.774 439.361 305.206 439.361 315.478C439.361 325.03 436.577 330.262 432.017 330.262Z" fill="#847658"/>
<path d="M455.272 309.47C458.568 309.47 460.872 306.91 460.872 303.358C460.872 299.934 458.696 297.566 455.496 297.566C452.232 297.566 449.896 300.19 449.896 303.678C449.896 307.07 452.072 309.47 455.272 309.47ZM454.248 320.318L469.576 297.918H468.104L452.808 320.318H454.248ZM455.656 308.67C453.768 308.67 452.488 306.398 452.488 302.974C452.488 300.03 453.448 298.366 455.112 298.366C457 298.366 458.28 300.638 458.28 304.062C458.28 307.006 457.288 308.67 455.656 308.67ZM466.856 320.67C470.152 320.67 472.456 318.11 472.456 314.558C472.456 311.134 470.28 308.766 467.08 308.766C463.816 308.766 461.48 311.39 461.48 314.878C461.48 318.27 463.656 320.67 466.856 320.67ZM467.24 319.87C465.352 319.87 464.072 317.598 464.072 314.174C464.072 311.23 465.032 309.566 466.696 309.566C468.584 309.566 469.864 311.838 469.864 315.262C469.864 318.206 468.872 319.87 467.24 319.87Z" fill="#847658" fill-opacity="0.65"/>
<path d="M10.274 245.457C10.274 243.531 8.924 242.181 6.404 242.181H2.192V254.781H6.674C8.06 254.781 9.104 254.457 9.788 253.791C10.472 253.125 10.814 252.261 10.814 251.235C10.814 249.795 9.986 248.481 8.114 248.265C9.572 247.977 10.274 246.753 10.274 245.457ZM6.26 243.711C7.916 243.711 8.564 244.647 8.564 245.655C8.564 246.717 7.934 247.599 6.512 247.599H3.83V243.711H6.26ZM9.122 251.127C9.122 251.685 8.924 252.189 8.528 252.621C8.132 253.053 7.502 253.269 6.638 253.269H3.83V249.021H6.566C7.484 249.021 8.15 249.237 8.528 249.651C8.924 250.065 9.122 250.569 9.122 251.127ZM19.6315 249.255C19.6315 247.239 18.4255 246.069 16.3555 246.069C14.5555 246.069 13.2595 246.915 12.8275 248.409L14.3935 248.553C14.6635 247.779 15.3115 247.329 16.2475 247.329C17.3815 247.329 18.0655 248.013 18.0655 249.219V250.101C17.6875 249.867 16.8775 249.687 16.0315 249.687C13.8715 249.687 12.5035 250.731 12.5035 252.441C12.5035 253.971 13.7275 255.033 15.4735 255.033C16.6075 255.033 17.6515 254.529 18.1015 253.791H18.1375V254.781H19.6315V249.255ZM14.0875 252.315C14.0875 251.397 14.8795 250.821 16.1935 250.821C16.9675 250.821 17.6875 251.019 18.1015 251.289V252.081C18.1015 252.963 17.0215 253.791 15.8335 253.791C14.8075 253.791 14.0875 253.179 14.0875 252.315ZM28.9843 249.381C28.9843 247.311 27.8503 246.069 25.9963 246.069C24.7723 246.069 23.7823 246.663 23.2963 247.581H23.2243V246.339H21.7663V254.781H23.3323V249.921C23.3323 248.481 24.3043 247.455 25.6003 247.455C26.7523 247.455 27.4183 248.265 27.4183 249.723V254.781H28.9843V249.381ZM32.7106 250.677L36.5806 254.781H38.6326L34.2766 250.173L38.2006 246.339H36.3106L32.7106 249.939V242.181H31.1446V254.781H32.7106V250.677ZM42.3118 255.051C44.2018 255.051 45.5158 254.007 45.5158 252.351C45.5158 248.967 40.7638 250.587 40.7638 248.463C40.7638 247.833 41.2498 247.275 42.2578 247.275C43.1398 247.275 43.8778 247.797 43.9678 248.535L45.4258 248.247C45.1918 246.969 43.8778 246.069 42.2218 246.069C40.4218 246.069 39.1978 247.059 39.1978 248.571C39.1978 251.919 43.9498 250.353 43.9498 252.441C43.9498 253.251 43.4098 253.863 42.3478 253.863C41.3398 253.863 40.5658 253.341 40.3498 252.495L38.8918 252.783C39.2518 254.169 40.5658 255.051 42.3118 255.051ZM48.7226 252.657H47.1566L45.9146 257.157H47.1926L48.7226 252.657ZM10.274 267.457C10.274 265.531 8.924 264.181 6.404 264.181H2.192V276.781H6.674C8.06 276.781 9.104 276.457 9.788 275.791C10.472 275.125 10.814 274.261 10.814 273.235C10.814 271.795 9.986 270.481 8.114 270.265C9.572 269.977 10.274 268.753 10.274 267.457ZM6.26 265.711C7.916 265.711 8.564 266.647 8.564 267.655C8.564 268.717 7.934 269.599 6.512 269.599H3.83V265.711H6.26ZM9.122 273.127C9.122 273.685 8.924 274.189 8.528 274.621C8.132 275.053 7.502 275.269 6.638 275.269H3.83V271.021H6.566C7.484 271.021 8.15 271.237 8.528 271.651C8.924 272.065 9.122 272.569 9.122 273.127ZM12.8275 276.781H14.3935V272.623C14.3935 270.679 15.3655 269.671 16.7155 269.671C16.9855 269.671 17.2195 269.707 17.3995 269.779V268.267C17.2375 268.195 17.0035 268.141 16.7155 268.141C15.6895 268.141 14.7895 268.735 14.3575 269.725H14.2855V268.339H12.8275V276.781ZM17.9195 272.551C17.9195 275.269 19.7915 277.051 22.2215 277.051C24.6515 277.051 26.5235 275.251 26.5235 272.551C26.5235 269.833 24.6515 268.069 22.2215 268.069C19.7915 268.069 17.9195 269.815 17.9195 272.551ZM19.5035 272.551C19.5035 271.669 19.7555 270.931 20.2415 270.337C20.7275 269.743 21.3935 269.455 22.2215 269.455C23.0495 269.455 23.7155 269.743 24.2015 270.337C24.6875 270.931 24.9395 271.669 24.9395 272.551C24.9395 274.351 23.8775 275.665 22.2215 275.665C20.5655 275.665 19.5035 274.351 19.5035 272.551ZM29.7575 272.677L33.6275 276.781H35.6795L31.3235 272.173L35.2475 268.339H33.3575L29.7575 271.939V264.181H28.1915V276.781H29.7575V272.677ZM42.3316 274.387C41.8816 275.287 41.1436 275.737 40.0996 275.737C38.5336 275.737 37.5076 274.585 37.3636 272.947H43.9876V272.479C43.9156 269.599 42.0616 268.069 39.8836 268.069C37.4356 268.069 35.7796 270.067 35.7796 272.569C35.7796 275.125 37.5076 277.051 40.0996 277.051C41.7736 277.051 42.9616 276.295 43.6636 274.783L42.3316 274.387ZM39.9196 269.293C40.5136 269.293 41.0536 269.491 41.5396 269.905C42.0256 270.301 42.2956 270.949 42.3496 271.849H37.3816C37.5796 270.265 38.4796 269.293 39.9196 269.293ZM45.6297 276.781H47.1957V272.623C47.1957 270.679 48.1677 269.671 49.5177 269.671C49.7877 269.671 50.0217 269.707 50.2017 269.779V268.267C50.0397 268.195 49.8057 268.141 49.5177 268.141C48.4917 268.141 47.5917 268.735 47.1597 269.725H47.0877V268.339H45.6297V276.781ZM54.1777 277.051C56.0677 277.051 57.3817 276.007 57.3817 274.351C57.3817 270.967 52.6297 272.587 52.6297 270.463C52.6297 269.833 53.1157 269.275 54.1237 269.275C55.0057 269.275 55.7437 269.797 55.8337 270.535L57.2917 270.247C57.0577 268.969 55.7437 268.069 54.0877 268.069C52.2877 268.069 51.0637 269.059 51.0637 270.571C51.0637 273.919 55.8157 272.353 55.8157 274.441C55.8157 275.251 55.2757 275.863 54.2137 275.863C53.2057 275.863 52.4317 275.341 52.2157 274.495L50.7577 274.783C51.1177 276.169 52.4317 277.051 54.1777 277.051Z" fill="#7C9891"/>
<path d="M11.972 332.501C19.412 332.501 24.788 327.605 24.788 320.741C24.788 316.373 21.572 312.581 17.204 311.909V311.717L21.044 309.317C21.764 308.357 22.292 306.725 22.292 304.997C22.292 300.581 18.884 297.461 13.556 297.461C7.94 297.461 4.292 301.013 3.956 306.917L4.196 306.965C5.78 302.789 8.372 300.677 11.972 300.677C15.668 300.677 18.068 303.029 18.068 306.725C18.068 308.885 17.204 310.517 15.524 311.861L9.332 314.357V314.645C10.1 314.501 10.82 314.453 11.444 314.453C16.772 314.453 20.228 317.669 20.228 322.613C20.228 327.221 17.156 330.677 12.932 330.677C12.164 330.677 11.492 330.581 10.964 330.437L4.004 325.157H3.764V330.533C5.444 331.637 8.948 332.501 11.972 332.501ZM49.7731 331.541L47.3731 329.189V322.757H52.2691V318.293H52.0291L49.6771 320.741H47.3731V298.181H42.6211L27.2611 322.517V322.757H42.6691V329.189L40.3171 331.541V331.781H49.7731V331.541ZM42.6691 301.445V320.741H30.4291L42.6691 301.445Z" fill="#708F87"/>
<path d="M61.772 309.933C65.068 309.933 67.372 307.373 67.372 303.821C67.372 300.397 65.196 298.029 61.996 298.029C58.732 298.029 56.396 300.653 56.396 304.141C56.396 307.533 58.572 309.933 61.772 309.933ZM60.748 320.781L76.076 298.381H74.604L59.308 320.781H60.748ZM62.156 309.133C60.268 309.133 58.988 306.861 58.988 303.437C58.988 300.493 59.948 298.829 61.612 298.829C63.5 298.829 64.78 301.101 64.78 304.525C64.78 307.469 63.788 309.133 62.156 309.133ZM73.356 321.133C76.652 321.133 78.956 318.573 78.956 315.021C78.956 311.597 76.78 309.229 73.58 309.229C70.316 309.229 67.98 311.853 67.98 315.341C67.98 318.733 70.156 321.133 73.356 321.133ZM73.74 320.333C71.852 320.333 70.572 318.061 70.572 314.637C70.572 311.693 71.532 310.029 73.196 310.029C75.084 310.029 76.364 312.301 76.364 315.725C76.364 318.669 75.372 320.333 73.74 320.333Z" fill="#708F87" fill-opacity="0.65"/>
<path d="M142.308 20.2184H140.58L136.692 30.7844H136.62L132.732 20.2184H130.896L135.684 32.9444H137.52L142.308 20.2184ZM142.766 26.5364C142.766 30.5144 145.43 33.0884 148.94 33.0884C151.46 33.0884 153.422 31.6304 154.106 29.3084L152.504 28.8944C151.946 30.5504 150.578 31.5404 148.868 31.5404C146.312 31.5404 144.458 29.4344 144.458 26.5184C144.458 23.6024 146.294 21.4964 148.886 21.4964C150.74 21.4964 152.054 22.6664 152.486 24.0524L154.178 23.7644C153.44 21.3884 151.46 19.9484 148.886 19.9484C145.394 19.9484 142.766 22.5224 142.766 26.5364ZM158.776 33.0884C160.666 33.0884 161.98 32.0444 161.98 30.3884C161.98 27.0044 157.228 28.6244 157.228 26.5004C157.228 25.8704 157.714 25.3124 158.722 25.3124C159.604 25.3124 160.342 25.8344 160.432 26.5724L161.89 26.2844C161.656 25.0064 160.342 24.1064 158.686 24.1064C156.886 24.1064 155.662 25.0964 155.662 26.6084C155.662 29.9564 160.414 28.3904 160.414 30.4784C160.414 31.2884 159.874 31.9004 158.812 31.9004C157.804 31.9004 157.03 31.3784 156.814 30.5324L155.356 30.8204C155.716 32.2064 157.03 33.0884 158.776 33.0884ZM165.187 30.6944H163.621L162.379 35.1944H163.657L165.187 30.6944ZM173.741 27.9404C176.189 27.9404 177.827 26.2304 177.827 24.0884C177.827 21.7664 176.009 20.2184 173.615 20.2184H169.205V32.8184H170.843V27.9404H173.741ZM176.135 24.0884C176.135 25.2584 175.289 26.4284 173.489 26.4284H170.843V21.7484H173.327C175.289 21.7484 176.135 22.9184 176.135 24.0884ZM179.031 32.8184H180.597V28.6604C180.597 26.7164 181.569 25.7084 182.919 25.7084C183.189 25.7084 183.423 25.7444 183.603 25.8164V24.3044C183.441 24.2324 183.207 24.1784 182.919 24.1784C181.893 24.1784 180.993 24.7724 180.561 25.7624H180.489V24.3764H179.031V32.8184ZM186.319 20.2184H184.753V22.1624H186.319V20.2184ZM186.319 24.3764H184.753V32.8184H186.319V24.3764ZM195.938 24.3764H194.372L191.888 30.9284H191.834L189.35 24.3764H187.64L191.078 32.9264H192.5L195.938 24.3764ZM203.423 27.2924C203.423 25.2764 202.217 24.1064 200.147 24.1064C198.347 24.1064 197.051 24.9524 196.619 26.4464L198.185 26.5904C198.455 25.8164 199.103 25.3664 200.039 25.3664C201.173 25.3664 201.857 26.0504 201.857 27.2564V28.1384C201.479 27.9044 200.669 27.7244 199.823 27.7244C197.663 27.7244 196.295 28.7684 196.295 30.4784C196.295 32.0084 197.519 33.0704 199.265 33.0704C200.399 33.0704 201.443 32.5664 201.893 31.8284H201.929V32.8184H203.423V27.2924ZM197.879 30.3524C197.879 29.4344 198.671 28.8584 199.985 28.8584C200.759 28.8584 201.479 29.0564 201.893 29.3264V30.1184C201.893 31.0004 200.813 31.8284 199.625 31.8284C198.599 31.8284 197.879 31.2164 197.879 30.3524ZM208.87 32.9984C209.464 32.9984 210.022 32.8724 210.31 32.7284L210.112 31.4684C209.878 31.5944 209.554 31.6664 209.158 31.6664C208.132 31.6664 207.664 31.1624 207.664 29.7764V25.7264H210.238V24.3764H207.664V21.6584L206.098 21.9644V24.3764H204.46V25.7264H206.098V30.0464C206.098 32.1884 207.196 32.9984 208.87 32.9984ZM217.36 30.4244C216.91 31.3244 216.172 31.7744 215.128 31.7744C213.562 31.7744 212.536 30.6224 212.392 28.9844H219.016V28.5164C218.944 25.6364 217.09 24.1064 214.912 24.1064C212.464 24.1064 210.808 26.1044 210.808 28.6064C210.808 31.1624 212.536 33.0884 215.128 33.0884C216.802 33.0884 217.99 32.3324 218.692 30.8204L217.36 30.4244ZM214.948 25.3304C215.542 25.3304 216.082 25.5284 216.568 25.9424C217.054 26.3384 217.324 26.9864 217.378 27.8864H212.41C212.608 26.3024 213.508 25.3304 214.948 25.3304ZM224.561 20.2184V32.8184H232.787V31.3064H226.199V27.2024H231.185V25.6904H226.199V21.7304H232.787V20.2184H224.561ZM234.285 28.5884C234.285 31.2524 235.995 33.0884 238.299 33.0884C239.649 33.0884 240.639 32.4764 241.125 31.5584V36.4184H242.709V24.3764H241.251V25.6724H241.197C240.675 24.6104 239.487 24.1064 238.263 24.1064C235.959 24.1064 234.285 25.9244 234.285 28.5884ZM235.869 28.5884C235.869 26.8784 236.895 25.5104 238.551 25.5104C240.189 25.5104 241.179 26.7704 241.179 28.5884C241.179 30.4064 240.189 31.7024 238.551 31.7024C236.895 31.7024 235.869 30.3164 235.869 28.5884ZM252.088 24.3764H250.522V29.2364C250.522 29.9564 250.306 30.5504 249.856 31.0184C249.424 31.4684 248.884 31.7024 248.254 31.7024C247.102 31.7024 246.436 30.8924 246.436 29.4344V24.3764H244.87V29.7764C244.87 31.8104 246.022 33.0884 247.84 33.0884C249.082 33.0884 250.072 32.4944 250.558 31.5764H250.63V32.8184H252.088V24.3764ZM255.958 20.2184H254.392V22.1624H255.958V20.2184ZM255.958 24.3764H254.392V32.8184H255.958V24.3764ZM261.581 32.9984C262.175 32.9984 262.733 32.8724 263.021 32.7284L262.823 31.4684C262.589 31.5944 262.265 31.6664 261.869 31.6664C260.843 31.6664 260.375 31.1624 260.375 29.7764V25.7264H262.949V24.3764H260.375V21.6584L258.809 21.9644V24.3764H257.171V25.7264H258.809V30.0464C258.809 32.1884 259.907 32.9984 261.581 32.9984ZM271.528 24.3764H269.962L267.532 30.6944L264.886 24.3764H263.176L266.686 32.5484L265.138 36.3284H266.704L271.528 24.3764ZM280.488 33.0884C283.044 33.0884 284.844 31.5944 284.844 29.2724C284.844 24.4484 278.166 26.7344 278.166 23.3684C278.166 22.0904 279.174 21.4064 280.488 21.4064C282.054 21.4064 282.972 22.3244 283.188 23.6024L284.79 23.3144C284.502 21.3884 282.918 19.9484 280.542 19.9484C278.238 19.9484 276.492 21.3524 276.492 23.5124C276.492 28.3544 283.17 26.0504 283.17 29.4524C283.17 30.7484 282.108 31.6484 280.542 31.6484C279.21 31.6484 277.842 30.9644 277.626 29.4524L276.024 29.7944C276.348 31.9724 278.364 33.0884 280.488 33.0884ZM295.135 28.5884C295.135 25.9244 293.479 24.1064 291.139 24.1064C289.897 24.1064 288.781 24.6464 288.205 25.7804H288.169V24.3764H286.711V36.4184H288.295V31.6484C288.799 32.5124 289.843 33.0884 291.121 33.0884C293.425 33.0884 295.135 31.2524 295.135 28.5884ZM293.551 28.5884C293.551 30.3164 292.525 31.7024 290.869 31.7024C289.267 31.7024 288.241 30.4064 288.241 28.5884C288.241 26.7704 289.267 25.5104 290.869 25.5104C292.453 25.5104 293.551 26.7884 293.551 28.5884ZM302.732 30.4244C302.282 31.3244 301.544 31.7744 300.5 31.7744C298.934 31.7744 297.908 30.6224 297.764 28.9844H304.388V28.5164C304.316 25.6364 302.462 24.1064 300.284 24.1064C297.836 24.1064 296.18 26.1044 296.18 28.6064C296.18 31.1624 297.908 33.0884 300.5 33.0884C302.174 33.0884 303.362 32.3324 304.064 30.8204L302.732 30.4244ZM300.32 25.3304C300.914 25.3304 301.454 25.5284 301.94 25.9424C302.426 26.3384 302.696 26.9864 302.75 27.8864H297.782C297.98 26.3024 298.88 25.3304 300.32 25.3304ZM309.487 24.1064C307.129 24.1064 305.401 25.9244 305.401 28.5884C305.401 31.1624 307.021 33.0884 309.577 33.0884C311.431 33.0884 312.727 32.1344 313.285 30.4244L311.809 30.0464C311.449 31.0544 310.729 31.7024 309.523 31.7024C307.867 31.7024 306.985 30.3524 306.985 28.6064C306.985 26.8244 307.867 25.4924 309.523 25.4924C310.729 25.4924 311.467 26.1224 311.809 27.1484L313.339 26.9144C312.817 25.0424 311.521 24.1064 309.487 24.1064ZM316.412 20.2184H314.846V22.1624H316.412V20.2184ZM316.412 24.3764H314.846V32.8184H316.412V24.3764ZM325.527 27.2924C325.527 25.2764 324.321 24.1064 322.251 24.1064C320.451 24.1064 319.155 24.9524 318.723 26.4464L320.289 26.5904C320.559 25.8164 321.207 25.3664 322.143 25.3664C323.277 25.3664 323.961 26.0504 323.961 27.2564V28.1384C323.583 27.9044 322.773 27.7244 321.927 27.7244C319.767 27.7244 318.399 28.7684 318.399 30.4784C318.399 32.0084 319.623 33.0704 321.369 33.0704C322.503 33.0704 323.547 32.5664 323.997 31.8284H324.033V32.8184H325.527V27.2924ZM319.983 30.3524C319.983 29.4344 320.775 28.8584 322.089 28.8584C322.863 28.8584 323.583 29.0564 323.997 29.3264V30.1184C323.997 31.0004 322.917 31.8284 321.729 31.8284C320.703 31.8284 319.983 31.2164 319.983 30.3524ZM327.661 32.8184H329.227V20.2184H327.661V32.8184ZM333.104 20.2184H331.538V22.1624H333.104V20.2184ZM333.104 24.3764H331.538V32.8184H333.104V24.3764ZM338.24 33.0884C340.13 33.0884 341.444 32.0444 341.444 30.3884C341.444 27.0044 336.692 28.6244 336.692 26.5004C336.692 25.8704 337.178 25.3124 338.186 25.3124C339.068 25.3124 339.806 25.8344 339.896 26.5724L341.354 26.2844C341.12 25.0064 339.806 24.1064 338.15 24.1064C336.35 24.1064 335.126 25.0964 335.126 26.6084C335.126 29.9564 339.878 28.3904 339.878 30.4784C339.878 31.2884 339.338 31.9004 338.276 31.9004C337.268 31.9004 336.494 31.3784 336.278 30.5324L334.82 30.8204C335.18 32.2064 336.494 33.0884 338.24 33.0884ZM346.417 32.9984C347.011 32.9984 347.569 32.8724 347.857 32.7284L347.659 31.4684C347.425 31.5944 347.101 31.6664 346.705 31.6664C345.679 31.6664 345.211 31.1624 345.211 29.7764V25.7264H347.785V24.3764H345.211V21.6584L343.645 21.9644V24.3764H342.007V25.7264H343.645V30.0464C343.645 32.1884 344.743 32.9984 346.417 32.9984ZM351.864 33.0884C353.754 33.0884 355.068 32.0444 355.068 30.3884C355.068 27.0044 350.316 28.6244 350.316 26.5004C350.316 25.8704 350.802 25.3124 351.81 25.3124C352.692 25.3124 353.43 25.8344 353.52 26.5724L354.978 26.2844C354.744 25.0064 353.43 24.1064 351.774 24.1064C349.974 24.1064 348.75 25.0964 348.75 26.6084C348.75 29.9564 353.502 28.3904 353.502 30.4784C353.502 31.2884 352.962 31.9004 351.9 31.9004C350.892 31.9004 350.118 31.3784 349.902 30.5324L348.444 30.8204C348.804 32.2064 350.118 33.0884 351.864 33.0884ZM140.238 48.8244H142.164V47.4024H140.238V45.1344H138.636V47.4024H136.116C134.586 47.4024 133.614 46.6464 133.614 45.4764C133.614 44.4144 134.442 43.5144 136.404 43.5144C136.962 43.5144 137.394 43.5504 137.7 43.6224L137.934 42.2184C137.628 42.1644 136.998 42.0744 136.26 42.0744C133.434 42.0744 131.94 43.4604 131.94 45.2784C131.94 46.7004 132.84 47.7624 134.136 47.9964C132.462 48.3024 131.544 49.5444 131.544 51.1824C131.544 53.3424 133.11 54.8184 136.296 54.8184H140.238V48.8244ZM136.296 53.3964C134.154 53.3964 133.218 52.3524 133.218 51.0744C133.218 49.8684 134.028 48.8244 135.774 48.8244H138.636V53.3964H136.296ZM151.934 49.9404C154.382 49.9404 156.02 48.2304 156.02 46.0884C156.02 43.7664 154.202 42.2184 151.808 42.2184H147.398V54.8184H149.036V49.9404H151.934ZM154.328 46.0884C154.328 47.2584 153.482 48.4284 151.682 48.4284H149.036V43.7484H151.52C153.482 43.7484 154.328 44.9184 154.328 46.0884ZM157.225 54.8184H158.791V50.6604C158.791 48.7164 159.763 47.7084 161.113 47.7084C161.383 47.7084 161.617 47.7444 161.797 47.8164V46.3044C161.635 46.2324 161.401 46.1784 161.113 46.1784C160.087 46.1784 159.187 46.7724 158.755 47.7624H158.683V46.3764H157.225V54.8184ZM162.317 50.5884C162.317 53.3064 164.189 55.0884 166.619 55.0884C169.049 55.0884 170.921 53.2884 170.921 50.5884C170.921 47.8704 169.049 46.1064 166.619 46.1064C164.189 46.1064 162.317 47.8524 162.317 50.5884ZM163.901 50.5884C163.901 49.7064 164.153 48.9684 164.639 48.3744C165.125 47.7804 165.791 47.4924 166.619 47.4924C167.447 47.4924 168.113 47.7804 168.599 48.3744C169.085 48.9684 169.337 49.7064 169.337 50.5884C169.337 52.3884 168.275 53.7024 166.619 53.7024C164.963 53.7024 163.901 52.3884 163.901 50.5884ZM174.155 42.2184H172.589V44.1624H174.155V42.2184ZM171.293 58.3284C173.147 58.3284 174.155 57.2304 174.155 55.1604V46.3764H172.589V55.0164C172.589 56.1144 172.211 56.9244 170.987 56.9244C170.843 56.9244 170.627 56.8884 170.501 56.8704V58.2564C170.771 58.2744 171.059 58.3284 171.293 58.3284ZM182.387 52.4244C181.937 53.3244 181.199 53.7744 180.155 53.7744C178.589 53.7744 177.563 52.6224 177.419 50.9844H184.043V50.5164C183.971 47.6364 182.117 46.1064 179.939 46.1064C177.491 46.1064 175.835 48.1044 175.835 50.6064C175.835 53.1624 177.563 55.0884 180.155 55.0884C181.829 55.0884 183.017 54.3324 183.719 52.8204L182.387 52.4244ZM179.975 47.3304C180.569 47.3304 181.109 47.5284 181.595 47.9424C182.081 48.3384 182.351 48.9864 182.405 49.8864H177.437C177.635 48.3024 178.535 47.3304 179.975 47.3304ZM189.141 46.1064C186.783 46.1064 185.055 47.9244 185.055 50.5884C185.055 53.1624 186.675 55.0884 189.231 55.0884C191.085 55.0884 192.381 54.1344 192.939 52.4244L191.463 52.0464C191.103 53.0544 190.383 53.7024 189.177 53.7024C187.521 53.7024 186.639 52.3524 186.639 50.6064C186.639 48.8244 187.521 47.4924 189.177 47.4924C190.383 47.4924 191.121 48.1224 191.463 49.1484L192.993 48.9144C192.471 47.0424 191.175 46.1064 189.141 46.1064ZM197.813 54.9984C198.407 54.9984 198.965 54.8724 199.253 54.7284L199.055 53.4684C198.821 53.5944 198.497 53.6664 198.101 53.6664C197.075 53.6664 196.607 53.1624 196.607 51.7764V47.7264H199.181V46.3764H196.607V43.6584L195.041 43.9644V46.3764H193.403V47.7264H195.041V52.0464C195.041 54.1884 196.139 54.9984 197.813 54.9984ZM204.336 42.2184V54.8184H205.974V49.2924H210.852V47.7624H205.974V43.7304H212.454V42.2184H204.336ZM215.782 42.2184H214.216V44.1624H215.782V42.2184ZM215.782 46.3764H214.216V54.8184H215.782V46.3764ZM225.31 49.4184C225.31 47.3484 224.176 46.1064 222.322 46.1064C221.098 46.1064 220.108 46.7004 219.622 47.6184H219.55V46.3764H218.092V54.8184H219.658V49.9584C219.658 48.5184 220.63 47.4924 221.926 47.4924C223.078 47.4924 223.744 48.3024 223.744 49.7604V54.8184H225.31V49.4184ZM234.274 49.2924C234.274 47.2764 233.068 46.1064 230.998 46.1064C229.198 46.1064 227.902 46.9524 227.47 48.4464L229.036 48.5904C229.306 47.8164 229.954 47.3664 230.89 47.3664C232.024 47.3664 232.708 48.0504 232.708 49.2564V50.1384C232.33 49.9044 231.52 49.7244 230.674 49.7244C228.514 49.7244 227.146 50.7684 227.146 52.4784C227.146 54.0084 228.37 55.0704 230.116 55.0704C231.25 55.0704 232.294 54.5664 232.744 53.8284H232.78V54.8184H234.274V49.2924ZM228.73 52.3524C228.73 51.4344 229.522 50.8584 230.836 50.8584C231.61 50.8584 232.33 51.0564 232.744 51.3264V52.1184C232.744 53.0004 231.664 53.8284 230.476 53.8284C229.45 53.8284 228.73 53.2164 228.73 52.3524ZM243.627 49.4184C243.627 47.3484 242.493 46.1064 240.639 46.1064C239.415 46.1064 238.425 46.7004 237.939 47.6184H237.867V46.3764H236.409V54.8184H237.975V49.9584C237.975 48.5184 238.947 47.4924 240.243 47.4924C241.395 47.4924 242.061 48.3024 242.061 49.7604V54.8184H243.627V49.4184ZM249.243 46.1064C246.885 46.1064 245.157 47.9244 245.157 50.5884C245.157 53.1624 246.777 55.0884 249.333 55.0884C251.187 55.0884 252.483 54.1344 253.041 52.4244L251.565 52.0464C251.205 53.0544 250.485 53.7024 249.279 53.7024C247.623 53.7024 246.741 52.3524 246.741 50.6064C246.741 48.8244 247.623 47.4924 249.279 47.4924C250.485 47.4924 251.223 48.1224 251.565 49.1484L253.095 48.9144C252.573 47.0424 251.277 46.1064 249.243 46.1064ZM260.525 52.4244C260.075 53.3244 259.337 53.7744 258.293 53.7744C256.727 53.7744 255.701 52.6224 255.557 50.9844H262.181V50.5164C262.109 47.6364 260.255 46.1064 258.077 46.1064C255.629 46.1064 253.973 48.1044 253.973 50.6064C253.973 53.1624 255.701 55.0884 258.293 55.0884C259.967 55.0884 261.155 54.3324 261.857 52.8204L260.525 52.4244ZM258.113 47.3304C258.707 47.3304 259.247 47.5284 259.733 47.9424C260.219 48.3384 260.489 48.9864 260.543 49.8864H255.575C255.773 48.3024 256.673 47.3304 258.113 47.3304Z" fill="#5BA5BE"/>
<path d="M144.084 109.578L141.684 107.226V76.2184H139.188L132.804 80.5384V80.7784H136.98V107.226L134.628 109.578V109.818H144.084V109.578ZM160.052 110.538C166.244 110.538 170.996 105.69 170.996 99.5464C170.996 94.0264 167.204 90.1384 161.78 90.1384C160.628 90.1384 159.62 90.3304 158.899 90.5224L156.02 92.2024L156.116 92.4424C156.836 92.2984 157.604 92.2504 158.132 92.2504C162.98 92.2504 166.58 96.2824 166.58 101.514C166.58 105.882 164.084 108.81 160.292 108.81C155.828 108.81 152.947 104.682 152.947 98.1064C152.947 88.3624 158.996 80.7304 170.66 75.5944L170.516 75.4984C156.98 77.2264 148.34 85.6744 148.34 97.1944C148.34 104.874 153.283 110.538 160.052 110.538Z" fill="#5BA5BE"/>
<path d="M181.772 87.9704C185.068 87.9704 187.372 85.4104 187.372 81.8584C187.372 78.4344 185.196 76.0664 181.996 76.0664C178.732 76.0664 176.396 78.6904 176.396 82.1784C176.396 85.5704 178.572 87.9704 181.772 87.9704ZM180.748 98.8184L196.076 76.4184H194.604L179.308 98.8184H180.748ZM182.156 87.1704C180.268 87.1704 178.988 84.8984 178.988 81.4744C178.988 78.5304 179.948 76.8664 181.612 76.8664C183.5 76.8664 184.78 79.1384 184.78 82.5624C184.78 85.5064 183.788 87.1704 182.156 87.1704ZM193.356 99.1704C196.652 99.1704 198.956 96.6104 198.956 93.0584C198.956 89.6344 196.78 87.2664 193.58 87.2664C190.316 87.2664 187.98 89.8904 187.98 93.3784C187.98 96.7704 190.156 99.1704 193.356 99.1704ZM193.74 98.3704C191.852 98.3704 190.572 96.0984 190.572 92.6744C190.572 89.7304 191.532 88.0664 193.196 88.0664C195.084 88.0664 196.364 90.3384 196.364 93.7624C196.364 96.7064 195.372 98.3704 193.74 98.3704Z" fill="#5BA5BE" fill-opacity="0.65"/>
<path d="M232 136.326C253.05 136.326 273.775 141.517 292.339 151.44C310.903 161.363 326.734 175.711 338.428 193.213C350.123 210.715 357.32 230.832 359.384 251.78C361.447 272.728 358.312 293.862 350.257 313.31C342.201 332.757 329.474 349.918 313.202 363.271C296.931 376.625 277.617 385.76 256.972 389.867C248.718 391.508 240.354 392.326 232 392.326" stroke="url(#paint0_linear)" stroke-width="32"/>
<path d="M126.172 193.095C114.477 210.598 107.28 230.714 105.216 251.662C103.153 272.611 106.288 293.744 114.343 313.192C122.399 332.639 135.126 349.8 151.398 363.154C167.669 376.508 186.983 385.642 207.628 389.749C215.684 391.351 223.845 392.169 232 392.207" stroke="url(#paint1_linear)" stroke-width="32"/>
<path d="M232.545 136.31C211.495 136.31 190.771 141.502 172.206 151.424C153.642 161.347 137.812 175.695 126.117 193.197" stroke="url(#paint2_linear)" stroke-width="32"/>
<defs>
<linearGradient id="paint0_linear" x1="241.5" y1="392" x2="315.5" y2="172.5" gradientUnits="userSpaceOnUse">
<stop stop-color="#847658"/>
<stop offset="0.956003" stop-color="#847658" stop-opacity="0.47"/>
</linearGradient>
<linearGradient id="paint1_linear" x1="262.5" y1="412" x2="105" y2="230.5" gradientUnits="userSpaceOnUse">
<stop offset="0.126099" stop-color="#7C9891" stop-opacity="0.48"/>
<stop offset="0.882251" stop-color="#7C9891"/>
</linearGradient>
<linearGradient id="paint2_linear" x1="113.5" y1="255.5" x2="229" y2="133" gradientUnits="userSpaceOnUse">
<stop offset="0.0317691" stop-color="#5BA5BE" stop-opacity="0"/>
<stop offset="0.930227" stop-color="#5EA7BF"/>
</linearGradient>
</defs>
</svg>
