<svg width="72" height="72" viewBox="0 0 72 72" fill="none" xmlns="http://www.w3.org/2000/svg">
<path fill-rule="evenodd" clip-rule="evenodd" d="M5.96876 0.869324L5.96876 6.86932L0.96875 6.86932L0.96875 7.86932L5.96876 7.86932L5.96875 18.8693H0.96875L0.96875 19.8693H5.96875L5.96875 30.8693H0.96875L0.96875 31.8693H5.96875L5.96875 42.8693H0.96875L0.96875 43.8693H5.96875L5.96875 54.8693H0.96875L0.96875 55.8693H5.96875L5.96875 66.3694H0.96875V67.3694H5.96875L5.96875 71.3999H6.96875L6.96875 67.3694H17.9688V71.3999H18.9688V67.3694H29.9688V71.3999H30.9688V67.3694L41.9688 67.3694V71.3999H42.9688V67.3694H53.9688V71.3999H54.9688V67.3694H65.9688V71.3999H66.9688V67.3694H71.4994V66.3694H66.9688L66.9688 55.8694H71.4994V54.8694H66.9688V43.8693H71.4994V42.8693H66.9688V31.8693H71.4994V30.8693H66.9688V19.8693H71.4994V18.8693H66.9688V7.86933L71.4994 7.86933V6.86933L66.9688 6.86933V0.869324H65.9688V6.86933L54.9688 6.86933V0.869324H53.9688V6.86933L42.9688 6.86933V0.869324H41.9688V6.86933L30.9688 6.86933V0.869324H29.9688V6.86933L18.9688 6.86933V0.869324H17.9688V6.86933L6.96876 6.86932L6.96876 0.869324H5.96876ZM65.9688 66.3694L65.9688 55.8694L54.9688 55.8694L54.9688 66.3694H65.9688ZM53.9688 66.3694L53.9688 55.8694L42.9688 55.8694L42.9688 66.3694H53.9688ZM41.9688 66.3694L41.9688 55.8694H30.9688L30.9688 66.3694L41.9688 66.3694ZM29.9688 66.3694L29.9688 55.8694H18.9688L18.9688 66.3694H29.9688ZM17.9688 66.3694L17.9688 55.8693H6.96875L6.96875 66.3694H17.9688ZM17.9688 54.8693H6.96875L6.96875 43.8693H17.9688V54.8693ZM29.9688 54.8694H18.9688V43.8693H29.9688V54.8694ZM41.9688 54.8694H30.9688V43.8693H41.9688V54.8694ZM53.9688 54.8694L42.9688 54.8694V43.8693L53.9688 43.8693V54.8694ZM65.9688 54.8694L54.9688 54.8694V43.8693L65.9688 43.8693V54.8694ZM65.9688 42.8693V31.8693L54.9688 31.8693L54.9688 42.8693L65.9688 42.8693ZM53.9688 42.8693L53.9688 31.8693H42.9688L42.9688 42.8693L53.9688 42.8693ZM41.9688 42.8693L41.9688 31.8693L30.9688 31.8693L30.9688 42.8693H41.9688ZM29.9688 42.8693L29.9688 31.8693H18.9688L18.9688 42.8693H29.9688ZM17.9688 42.8693L17.9688 31.8693L6.96875 31.8693L6.96875 42.8693H17.9688ZM17.9688 30.8693L6.96875 30.8693L6.96875 19.8693L17.9688 19.8693V30.8693ZM29.9688 30.8693H18.9688V19.8693H29.9688V30.8693ZM41.9688 30.8693L30.9688 30.8693V19.8693L41.9688 19.8693V30.8693ZM53.9688 30.8693H42.9688V19.8693H53.9688V30.8693ZM65.9688 30.8693L54.9688 30.8693V19.8693L65.9688 19.8693V30.8693ZM65.9688 18.8693V7.86933L54.9688 7.86933V18.8693L65.9688 18.8693ZM53.9688 18.8693V7.86933L42.9688 7.86933V18.8693H53.9688ZM41.9688 18.8693V7.86933L30.9688 7.86933L30.9688 18.8693L41.9688 18.8693ZM29.9688 18.8693L29.9688 7.86933L18.9688 7.86933L18.9688 18.8693H29.9688ZM17.9688 18.8693L17.9688 7.86933L6.96876 7.86932L6.96875 18.8693L17.9688 18.8693Z" fill="white" fill-opacity="0.5"/>
<path d="M54.4688 26.6097L50.0861 15.9268L43.0257 25.0638L54.4688 26.6097ZM47.7874 20.209C44.7571 18.726 40.9451 17.6097 36.4688 17.6097V19.6097C40.6052 19.6097 44.1182 20.64 46.9083 22.0054L47.7874 20.209ZM36.4688 17.6097C26.5085 17.6097 19.5085 23.1289 17.1926 25.9791L18.7449 27.2403C20.7623 24.7573 27.229 19.6097 36.4688 19.6097V17.6097Z" fill="white"/>
<path d="M17.9688 47.6097L29.4363 48.9617L22.5317 58.2169L17.9688 47.6097ZM55.2687 48.2097C53.1137 51.0832 46.4359 56.6097 36.4688 56.6097V54.6097C45.7016 54.6097 51.8238 49.4697 53.6688 47.0097L55.2687 48.2097ZM36.4688 56.6097C31.8676 56.6097 27.9007 55.4305 24.7441 53.8901L25.6211 52.0927C28.5468 53.5203 32.2152 54.6097 36.4688 54.6097V56.6097Z" fill="white"/>
</svg>
