<svg width="72" height="72" viewBox="0 0 72 72" fill="none" xmlns="http://www.w3.org/2000/svg">
<path fill-rule="evenodd" clip-rule="evenodd" d="M65.4558 1.46936V19.1021L54.7007 19.1021L54.7007 1.4694L53.7007 1.4694L53.7007 19.1021L19.4353 19.1021L19.4353 1.4694L18.4353 1.4694L18.4353 19.1021L7.68022 19.1021L7.68022 1.4694L6.68022 1.4694L6.68022 19.1021H0.802734V20.1021H6.68022L6.68021 30.8571H0.802734V31.8571H6.68021L6.68021 42.6123H0.802734V43.6123H6.68021L6.68021 54.3674H0.802734L0.802734 55.3674H6.68021L6.68021 72H7.68021L7.68021 55.3674H18.4353L18.4353 72H19.4353L19.4353 55.3674H53.7007L53.7007 72H54.7007L54.7007 55.3674L65.4558 55.3674L65.4558 72H66.4558L66.4558 55.3674H71.3333V54.3674H66.4558V43.6123H71.3333V42.6123H66.4558V31.8571H71.3333V30.8571H66.4558V20.1021H71.3333V19.1021H66.4558V1.46936H65.4558ZM65.4558 54.3674V43.6123L54.7007 43.6123V54.3674L65.4558 54.3674ZM53.7007 54.3674V43.6123H19.4353V54.3674H53.7007ZM18.4353 54.3674V43.6123H7.68021L7.68021 54.3674H18.4353ZM54.7007 20.1021L65.4558 20.1021V30.8571L54.7007 30.8571V20.1021ZM19.4353 20.1021L53.7007 20.1021V30.8571L19.4353 30.8571V20.1021ZM7.68022 20.1021L18.4353 20.1021V30.8571L7.68021 30.8571L7.68022 20.1021ZM65.4558 42.6123V31.8571L54.7007 31.8571V42.6123L65.4558 42.6123ZM53.7007 42.6123V31.8571L19.4353 31.8571L19.4353 42.6123H53.7007ZM18.4353 42.6123L18.4353 31.8571L7.68021 31.8571L7.68021 42.6123H18.4353Z" fill="white" fill-opacity="0.5"/>
<path fill-rule="evenodd" clip-rule="evenodd" d="M0.802733 42.6123L30.6804 42.6123L30.6804 70.5306L32.6804 70.5306L32.6804 42.6123L42.4558 42.6123L42.4558 70.5306L44.4558 70.5306L44.4558 42.6123L71.3333 42.6123L71.3333 40.6123L44.4558 40.6123L44.4558 30.8572L71.3333 30.8572L71.3333 28.8572L44.4558 28.8572L44.4558 5.72126e-06L42.4558 5.80868e-06L42.4558 28.8572L32.6804 28.8572L32.6804 6.23598e-06L30.6804 6.3234e-06L30.6804 28.8572L0.802733 28.8572L0.802733 30.8572L30.6804 30.8572L30.6804 40.6123L0.802733 40.6123L0.802733 42.6123ZM42.4558 30.8572L32.6804 30.8572L32.6804 40.6123L42.4558 40.6123L42.4558 30.8572Z" fill="white"/>
</svg>
