<svg width="71" height="71" viewBox="0 0 71 71" fill="none" xmlns="http://www.w3.org/2000/svg">
<path fill-rule="evenodd" clip-rule="evenodd" d="M5.46972 0L5.46972 6L0.469727 6L0.469727 7L5.46972 7L5.46972 18H0.469727L0.469727 19H5.46972L5.46972 30H0.469727L0.469727 31H5.46972L5.46972 42H0.469727L0.469727 43H5.46972L5.46972 54H0.469727L0.469727 55H5.46972L5.46972 65.5H0.469727L0.469727 66.5H5.46972L5.46972 70.5306H6.46972L6.46972 66.5H17.4697V70.5306H18.4697V66.5H29.4697V70.5306H30.4697V66.5L41.4697 66.5V70.5306H42.4697V66.5H53.4697V70.5306H54.4697V66.5H65.4698V70.5306H66.4698V66.5H71.0003V65.5H66.4698V55H71.0003V54H66.4698V43H71.0003V42H66.4698V31H71.0003V30H66.4698V19H71.0003V18H66.4698V7.00001L71.0003 7.00001V6.00001L66.4698 6.00001V0L65.4698 0V6.00001L54.4698 6V0L53.4698 0V6L42.4697 6V0L41.4697 0V6L30.4697 6V0L29.4697 0V6L18.4697 6V0L17.4697 0V6L6.46972 6L6.46972 0L5.46972 0ZM65.4698 65.5V55L54.4697 55L54.4697 65.5H65.4698ZM53.4697 65.5L53.4697 55L42.4697 55L42.4697 65.5H53.4697ZM41.4697 65.5L41.4697 55H30.4697L30.4697 65.5L41.4697 65.5ZM29.4697 65.5L29.4697 55H18.4697L18.4697 65.5H29.4697ZM17.4697 65.5L17.4697 55H6.46972L6.46972 65.5H17.4697ZM17.4697 54H6.46972L6.46972 43H17.4697V54ZM29.4697 54H18.4697V43H29.4697V54ZM41.4697 54H30.4697V43H41.4697V54ZM53.4697 54L42.4697 54V43L53.4697 43V54ZM65.4698 54L54.4697 54V43L65.4698 43V54ZM65.4698 42V31L54.4698 31L54.4697 42L65.4698 42ZM53.4697 42L53.4698 31H42.4697L42.4697 42L53.4697 42ZM41.4697 42L41.4697 31L30.4697 31L30.4697 42H41.4697ZM29.4697 42L29.4697 31H18.4697L18.4697 42H29.4697ZM17.4697 42L17.4697 31L6.46972 31L6.46972 42H17.4697ZM17.4697 30L6.46972 30L6.46972 19L17.4697 19V30ZM29.4697 30H18.4697V19H29.4697V30ZM41.4697 30L30.4697 30V19L41.4697 19V30ZM53.4698 30H42.4697V19H53.4698V30ZM65.4698 30L54.4698 30V19L65.4698 19V30ZM65.4698 18V7.00001L54.4698 7V18L65.4698 18ZM53.4698 18V7L42.4697 7V18H53.4698ZM41.4697 18V7L30.4697 7L30.4697 18L41.4697 18ZM29.4697 18L29.4697 7L18.4697 7L18.4697 18H29.4697ZM17.4697 18L17.4697 7L6.46972 7L6.46972 18L17.4697 18Z" fill="white" fill-opacity="0.5"/>
<mask id="path-2-inside-1" fill="white">
<path d="M20.3779 23.5003C20.5565 23.1907 20.8867 23 21.2441 23H50.089C50.4464 23 50.7766 23.1907 50.9552 23.5003L64.8013 47.5003C65.186 48.1669 64.7048 49 63.9352 49H7.39798C6.62832 49 6.14717 48.1669 6.53179 47.5003L20.3779 23.5003Z"/>
</mask>
<path d="M64.8013 47.5003L63.069 48.4997L64.8013 47.5003ZM50.9552 23.5003L49.2228 24.4997L50.9552 23.5003ZM20.3779 23.5003L18.6456 22.5008L20.3779 23.5003ZM21.2441 25H50.089V21H21.2441V25ZM49.2228 24.4997L63.069 48.4997L66.5337 46.5008L52.6876 22.5008L49.2228 24.4997ZM63.9352 47H7.39798V51H63.9352V47ZM8.26416 48.4997L22.1103 24.4997L18.6456 22.5008L4.79942 46.5008L8.26416 48.4997ZM7.39798 47C8.16763 47 8.64878 47.833 8.26416 48.4997L4.79942 46.5008C3.64557 48.5008 5.08901 51 7.39798 51V47ZM63.069 48.4997C62.6844 47.8331 63.1655 47 63.9352 47V51C66.2441 51 67.6876 48.5008 66.5337 46.5008L63.069 48.4997ZM50.089 25C49.7316 25 49.4014 24.8093 49.2228 24.4997L52.6876 22.5008C52.1518 21.5722 51.1611 21 50.089 21V25ZM21.2441 21C20.172 21 19.1813 21.5722 18.6456 22.5008L22.1103 24.4997C21.9317 24.8093 21.6015 25 21.2441 25V21Z" fill="white" mask="url(#path-2-inside-1)"/>
</svg>
