<svg width="71" height="71" viewBox="0 0 71 71" fill="none" xmlns="http://www.w3.org/2000/svg">
<path fill-rule="evenodd" clip-rule="evenodd" d="M5.14453 0.318268L5.14453 6.31827L0.144531 6.31827L0.144531 7.31827L5.14453 7.31827L5.14453 18.3183H0.144531L0.144531 19.3183H5.14453L5.14453 30.3183H0.144531L0.144531 31.3183H5.14453L5.14453 42.3183H0.144531L0.144531 43.3183H5.14453L5.14453 54.3183H0.144531L0.144531 55.3183H5.14453L5.14453 65.8183H0.144531L0.144531 66.8183H5.14453L5.14453 70.8489H6.14453L6.14453 66.8183H17.1445V70.8489H18.1445V66.8183H29.1445V70.8489H30.1445V66.8183L41.1445 66.8183V70.8489H42.1445V66.8183H53.1446V70.8489H54.1446V66.8183H65.1446V70.8489H66.1446V66.8183H70.6751V65.8183H66.1446L66.1446 55.3183H70.6751V54.3183H66.1446V43.3183H70.6751V42.3183H66.1446V31.3183H70.6751V30.3183H66.1446V19.3183H70.6751V18.3183H66.1446V7.31827L70.6751 7.31827V6.31827L66.1446 6.31827V0.318268L65.1446 0.318268V6.31827L54.1446 6.31827V0.318268L53.1446 0.318268V6.31827L42.1445 6.31827V0.318268L41.1445 0.318268V6.31827L30.1445 6.31827V0.318268L29.1445 0.318268V6.31827L18.1445 6.31827V0.318268L17.1445 0.318268V6.31827L6.14453 6.31827L6.14453 0.318268L5.14453 0.318268ZM65.1446 65.8183L65.1446 55.3183L54.1446 55.3183L54.1446 65.8183H65.1446ZM53.1446 65.8183L53.1446 55.3183L42.1445 55.3183L42.1445 65.8183H53.1446ZM41.1445 65.8183L41.1445 55.3183H30.1445L30.1445 65.8183L41.1445 65.8183ZM29.1445 65.8183L29.1445 55.3183H18.1445L18.1445 65.8183H29.1445ZM17.1445 65.8183L17.1445 55.3183H6.14453L6.14453 65.8183H17.1445ZM17.1445 54.3183H6.14453L6.14453 43.3183H17.1445V54.3183ZM29.1445 54.3183H18.1445V43.3183H29.1445V54.3183ZM41.1445 54.3183H30.1445V43.3183H41.1445V54.3183ZM53.1446 54.3183L42.1445 54.3183V43.3183L53.1446 43.3183V54.3183ZM65.1446 54.3183L54.1446 54.3183V43.3183L65.1446 43.3183V54.3183ZM65.1446 42.3183V31.3183L54.1446 31.3183L54.1446 42.3183L65.1446 42.3183ZM53.1446 42.3183L53.1446 31.3183H42.1445V42.3183L53.1446 42.3183ZM41.1445 42.3183V31.3183L30.1445 31.3183L30.1445 42.3183H41.1445ZM29.1445 42.3183L29.1445 31.3183H18.1445L18.1445 42.3183H29.1445ZM17.1445 42.3183L17.1445 31.3183L6.14453 31.3183L6.14453 42.3183H17.1445ZM17.1445 30.3183L6.14453 30.3183L6.14453 19.3183L17.1445 19.3183V30.3183ZM29.1445 30.3183H18.1445V19.3183H29.1445V30.3183ZM41.1445 30.3183L30.1445 30.3183V19.3183L41.1445 19.3183V30.3183ZM53.1446 30.3183H42.1445V19.3183H53.1446V30.3183ZM65.1446 30.3183L54.1446 30.3183V19.3183L65.1446 19.3183V30.3183ZM65.1446 18.3183V7.31827L54.1446 7.31827V18.3183L65.1446 18.3183ZM53.1446 18.3183V7.31827L42.1445 7.31827V18.3183H53.1446ZM41.1445 18.3183V7.31827L30.1445 7.31827L30.1445 18.3183L41.1445 18.3183ZM29.1445 18.3183L29.1445 7.31827L18.1445 7.31827L18.1445 18.3183H29.1445ZM17.1445 18.3183L17.1445 7.31827L6.14453 7.31827L6.14453 18.3183L17.1445 18.3183Z" fill="white" fill-opacity="0.5"/>
<path fill-rule="evenodd" clip-rule="evenodd" d="M29.7563 5.88714L4.75629 30.8871L6.1705 32.3014L31.1705 7.30136L29.7563 5.88714ZM65.334 41.6097L40.334 66.6097L41.7482 68.024L66.7482 43.024L65.334 41.6097ZM65.1321 53.5024L53.1321 65.5024L54.5463 66.9166L66.5463 54.9166L65.1321 53.5024ZM3.7562 18.1129L17.1912 4.67791L18.6054 6.09212L5.17042 19.5272L3.7562 18.1129Z" fill="white"/>
</svg>
