 <svg width="72" height="72" viewBox="0 0 72 72" fill="none" xmlns="http://www.w3.org/2000/svg">
<path fill-rule="evenodd" clip-rule="evenodd" d="M5.5 0.869324L5.5 6.86932L0.5 6.86932L0.5 7.86932L5.5 7.86932L5.5 18.8693H0.5L0.5 19.8693H5.5L5.5 30.8693H0.5L0.5 31.8693H5.5L5.49999 42.8693H0.5L0.5 43.8693H5.49999L5.49999 54.8693H0.5L0.5 55.8693H5.49999L5.49999 66.3694H0.5V67.3694H5.49999L5.49999 71.3999H6.49999L6.49999 67.3694H17.5V71.3999H18.5V67.3694H29.5V71.3999H30.5V67.3694L41.5 67.3694V71.3999H42.5V67.3694H53.5V71.3999H54.5V67.3694H65.5V71.3999H66.5V67.3694H71.0306V66.3694H66.5V55.8694H71.0306V54.8694H66.5V43.8693H71.0306V42.8693H66.5V31.8693H71.0306V30.8693H66.5V19.8693H71.0306V18.8693H66.5V7.86933L71.0306 7.86933V6.86933L66.5 6.86933V0.869324H65.5V6.86933L54.5 6.86933V0.869324H53.5V6.86933L42.5 6.86933V0.869324H41.5V6.86933L30.5 6.86933V0.869324H29.5V6.86933L18.5 6.86933V0.869324H17.5V6.86933L6.5 6.86932L6.5 0.869324L5.5 0.869324ZM65.5 66.3694V55.8694L54.5 55.8694L54.5 66.3694H65.5ZM53.5 66.3694L53.5 55.8694L42.5 55.8694L42.5 66.3694H53.5ZM41.5 66.3694L41.5 55.8694H30.5L30.5 66.3694L41.5 66.3694ZM29.5 66.3694L29.5 55.8694H18.5L18.5 66.3694H29.5ZM17.5 66.3694L17.5 55.8693H6.49999L6.49999 66.3694H17.5ZM17.5 54.8693H6.49999L6.49999 43.8693H17.5V54.8693ZM29.5 54.8694H18.5V43.8693H29.5V54.8694ZM41.5 54.8694H30.5V43.8693H41.5V54.8694ZM53.5 54.8694L42.5 54.8694V43.8693L53.5 43.8693V54.8694ZM65.5 54.8694L54.5 54.8694V43.8693L65.5 43.8693V54.8694ZM65.5 42.8693V31.8693L54.5 31.8693L54.5 42.8693L65.5 42.8693ZM53.5 42.8693L53.5 31.8693H42.5L42.5 42.8693L53.5 42.8693ZM41.5 42.8693L41.5 31.8693L30.5 31.8693L30.5 42.8693H41.5ZM29.5 42.8693L29.5 31.8693H18.5L18.5 42.8693H29.5ZM17.5 42.8693L17.5 31.8693L6.5 31.8693L6.49999 42.8693H17.5ZM17.5 30.8693L6.5 30.8693L6.5 19.8693L17.5 19.8693V30.8693ZM29.5 30.8693H18.5V19.8693H29.5V30.8693ZM41.5 30.8693L30.5 30.8693V19.8693L41.5 19.8693V30.8693ZM53.5 30.8693H42.5V19.8693H53.5V30.8693ZM65.5 30.8693L54.5 30.8693V19.8693L65.5 19.8693V30.8693ZM65.5 18.8693V7.86933L54.5 7.86933V18.8693L65.5 18.8693ZM53.5 18.8693V7.86933L42.5 7.86933V18.8693H53.5ZM41.5 18.8693V7.86933L30.5 7.86933L30.5 18.8693L41.5 18.8693ZM29.5 18.8693L29.5 7.86933L18.5 7.86933L18.5 18.8693H29.5ZM17.5 18.8693L17.5 7.86933L6.5 7.86932L6.5 18.8693L17.5 18.8693Z" fill="white" fill-opacity="0.5"/>
<mask id="path-2-inside-1" fill="white">
<path d="M11.6963 13.1097C11.6963 12.5575 12.144 12.1097 12.6963 12.1097H59.7612C60.3135 12.1097 60.7612 12.5575 60.7612 13.1097V60.6097C60.7612 61.162 60.3135 61.6097 59.7612 61.6097H12.6963C12.144 61.6097 11.6963 61.162 11.6963 60.6097V13.1097Z"/>
</mask>
<path d="M12.6963 14.1097H59.7612V10.1097H12.6963V14.1097ZM58.7612 13.1097V60.6097H62.7612V13.1097H58.7612ZM59.7612 59.6097H12.6963V63.6097H59.7612V59.6097ZM13.6963 60.6097V13.1097H9.69629V60.6097H13.6963ZM12.6963 59.6097C13.2486 59.6097 13.6963 60.0575 13.6963 60.6097H9.69629C9.69629 62.2666 11.0394 63.6097 12.6963 63.6097V59.6097ZM58.7612 60.6097C58.7612 60.0575 59.2089 59.6097 59.7612 59.6097V63.6097C61.4181 63.6097 62.7612 62.2666 62.7612 60.6097H58.7612ZM59.7612 14.1097C59.2089 14.1097 58.7612 13.662 58.7612 13.1097H62.7612C62.7612 11.4529 61.4181 10.1097 59.7612 10.1097V14.1097ZM12.6963 10.1097C11.0394 10.1097 9.69629 11.4529 9.69629 13.1097H13.6963C13.6963 13.662 13.2486 14.1097 12.6963 14.1097V10.1097Z" fill="white" mask="url(#path-2-inside-1)"/>
</svg>
