<svg width="17" height="24" viewBox="0 0 17 24" fill="none" xmlns="http://www.w3.org/2000/svg">
<path fill-rule="evenodd" clip-rule="evenodd" d="M0.307617 18.1945H4.53835V5.91895H0.307617V18.1945Z" fill="white"/>
<path fill-rule="evenodd" clip-rule="evenodd" d="M12.1846 18.1945H16.4153V5.91895H12.1846V18.1945Z" fill="white"/>
<path fill-rule="evenodd" clip-rule="evenodd" d="M6.25391 23.5616H10.3135V0.237305H6.25391V23.5616Z" fill="white"/>
<path fill-rule="evenodd" clip-rule="evenodd" d="M2.39656 4.89706C3.86396 4.89706 4.81758 3.93956 4.81758 2.49109C4.81758 1.04261 3.86396 0.0605469 2.39656 0.0605469C0.95373 0.0605469 0 1.04261 0 2.49109C0 3.93956 0.95373 4.89706 2.39656 4.89706Z" fill="#D33737"/>
<path fill-rule="evenodd" clip-rule="evenodd" d="M14.2814 23.94C15.7487 23.94 16.7026 22.9826 16.7026 21.5341C16.7026 20.0856 15.7487 19.1035 14.2814 19.1035C12.8386 19.1035 11.8848 20.0856 11.8848 21.5341C11.8848 22.9826 12.8386 23.94 14.2814 23.94Z" fill="#D33737"/>
</svg>
