 <svg width="45" height="45" viewBox="0 0 45 45" fill="none" xmlns="http://www.w3.org/2000/svg">
<path d="M35.2074 0.895508H9.11573C4.12763 0.895508 0.0839844 4.92494 0.0839844 9.89551V35.8955C0.0839844 40.8661 4.12763 44.8955 9.11573 44.8955H35.2074C40.1955 44.8955 44.2392 40.8661 44.2392 35.8955V9.89551C44.2392 4.92494 40.1955 0.895508 35.2074 0.895508Z" fill="#225363"/>
<path d="M23.609 26.716C23.7416 26.5159 23.7997 26.2759 23.773 26.0376C23.773 24.2501 23.773 22.4675 23.7482 20.68C23.7482 20.1848 23.8624 20.0512 24.3743 20.0611C26.0986 20.0958 27.8228 20.0909 29.552 20.0611C30.0489 20.0611 30.198 20.1799 30.1881 20.68C30.1583 22.4675 30.1881 24.2501 30.1881 26.0326C30.1947 26.1726 30.1701 26.3123 30.1159 26.4416C30.0618 26.5709 29.9795 26.6866 29.875 26.7803C28.4472 28.1965 27.0211 29.6209 25.5966 31.0535C25.0998 31.5487 24.6028 32.1082 24.106 32.643C23.9867 32.7717 23.8873 32.9204 23.6737 32.8658C23.5991 31.917 23.5792 30.9648 23.6141 30.0137C23.6141 29.1224 23.6141 28.2311 23.5345 27.3448C23.4951 27.1325 23.521 26.9133 23.609 26.716Z" fill="white"/>
<path d="M20.6278 19.9917C20.514 20.1756 20.4602 20.3901 20.4737 20.6057C20.4737 22.3882 20.4737 24.1708 20.4737 25.9534C20.4737 26.3842 20.3843 26.5278 19.9421 26.5278C18.1532 26.5278 16.3644 26.5278 14.5755 26.5278C14.2277 26.5278 14.1283 26.4089 14.1332 26.0673C14.1332 24.2005 14.1332 22.3288 14.1332 20.4621C14.1294 20.3441 14.1515 20.2268 14.1978 20.1182C14.2441 20.0096 14.3137 19.9123 14.4016 19.8332C16.2766 17.9582 18.1432 16.0832 20.0017 14.2082C20.041 14.1591 20.0909 14.1194 20.1477 14.092C20.2044 14.0645 20.2666 14.0501 20.3296 14.0498C20.3688 14.0761 20.3997 14.1127 20.4189 14.1556C20.4383 14.1985 20.4452 14.2459 20.439 14.2924C20.3097 14.7876 20.1259 15.253 20.439 15.7333C20.4726 15.8213 20.4869 15.9155 20.4808 16.0094C20.4748 16.1034 20.4487 16.195 20.4042 16.278C20.111 16.4315 20.1707 16.2186 20.1707 16.2136C20.2932 16.6337 20.2468 17.0847 20.0414 17.4713C19.9909 17.6807 20.0015 17.9 20.0719 18.1036C20.1424 18.3071 20.2697 18.4863 20.439 18.6201C20.5732 19.0459 20.5234 19.5213 20.6278 19.9917Z" fill="white"/>
<path d="M20.355 14.337V14.0301C20.355 13.7924 20.5141 13.8171 20.6631 13.8171H26.4819L21.1252 19.4322C20.6283 19.4322 20.5289 19.0163 20.4693 18.6251C20.3649 17.9666 20.4693 17.2981 20.3799 16.6445C20.3467 16.5338 20.3332 16.4181 20.3401 16.3028V15.6443C20.2308 15.2147 20.2359 14.7641 20.355 14.337Z" fill="white"/>
<path d="M17.9999 32.866C17.8309 32.8957 17.6222 32.9798 17.5327 32.7966C17.4433 32.6134 17.662 32.559 17.7663 32.4599L21.6223 28.6918C21.8061 28.8156 21.9154 28.7958 21.995 28.5829C22.0745 28.3699 22.1292 28.365 22.2782 28.3749C22.3445 28.3799 22.4065 28.4097 22.4517 28.4584C22.4969 28.5071 22.5218 28.571 22.5216 28.6373C22.5317 28.9203 22.5167 29.2036 22.477 29.484C22.4347 29.7858 22.4753 30.0934 22.5942 30.3741C22.7132 30.6548 22.9062 30.8982 23.1528 31.0784C23.7093 31.5191 23.595 32.5936 22.9937 32.8263C21.3341 32.866 19.6645 32.7669 17.9999 32.866Z" fill="white"/>
<path d="M23.2411 32.757C23.2809 32.3807 23.3305 31.9994 23.3654 31.6231C23.3797 31.5581 23.3742 31.4903 23.3493 31.4284C23.3245 31.3666 23.2817 31.3137 23.2262 31.2765C22.292 30.811 22.2324 30.0089 22.3665 29.1226C22.3665 28.9988 22.3665 28.8651 22.3665 28.7413C22.3665 28.6175 22.446 28.5036 22.2871 28.4838C22.0436 28.4442 22.1926 28.6423 22.1529 28.7363C22.0634 28.9256 21.9621 29.1092 21.8498 29.286C21.5765 29.1473 21.9442 28.7908 21.6162 28.6918C21.7451 28.4817 21.9289 28.3105 22.1479 28.1966C22.4162 28.1669 22.5107 27.9886 22.5504 27.7609L22.9181 27.3994C23.3256 27.3994 23.6039 27.548 23.4399 28.0332C23.4102 28.1158 23.3951 28.2029 23.3952 28.2907C23.3952 28.5828 23.6834 28.7858 23.6784 29.073C23.6784 29.2513 23.7728 29.4989 23.4349 29.484C23.5086 29.8201 23.5583 30.161 23.584 30.504C23.6926 31.12 23.7276 31.7466 23.6883 32.3708C23.7032 32.6431 23.6088 32.8659 23.2411 32.757Z" fill="white"/>
<path d="M23.2413 32.7567C23.5942 32.7567 23.6041 32.4893 23.6389 32.2121C23.6555 31.4766 23.5736 30.7423 23.3954 30.0284C23.3772 29.8557 23.369 29.6821 23.3706 29.5085C23.4998 29.5382 23.0277 28.949 23.5544 29.3352C23.6439 29.4045 23.6538 29.1124 23.6191 29.0629C23.3408 28.6717 23.0476 28.3152 23.3408 27.7754C23.4103 27.6566 23.0774 27.518 22.9334 27.3793C23.1144 27.1175 23.3437 26.8923 23.6091 26.7158C23.8625 28.5528 23.7035 30.3998 23.7482 32.2418C23.7768 32.456 23.7386 32.6738 23.6389 32.8657H17.999C18.2028 32.6775 18.4512 32.7617 18.6848 32.7567H23.2413Z" fill="white"/>
<path d="M20.4892 16.5605C20.6045 16.9218 20.6384 17.3038 20.5886 17.6796C20.5886 18.3134 20.4694 19.0017 21.1402 19.4325C21.0161 19.6564 20.8407 19.8481 20.6283 19.992C20.0818 19.5959 20.4544 19.0017 20.3451 18.5412C20.1017 17.8479 19.9824 17.1844 20.4892 16.5605Z" fill="white"/>
<path d="M22.5665 27.7412C22.6162 28.0532 22.7951 28.4839 22.1641 28.1769C22.2286 27.964 22.4224 27.8749 22.5665 27.7412Z" fill="white"/>
<path d="M20.4901 16.5599C20.2019 17.1987 20.4305 17.8671 20.356 18.5405L20.0479 18.6099C20.0777 18.2137 19.71 17.7681 19.864 17.4958C20.0975 16.9741 20.1751 16.3965 20.0876 15.832L20.356 16.3272C20.3959 16.3518 20.4291 16.386 20.4526 16.4266C20.476 16.4673 20.4889 16.5131 20.4901 16.5599Z" fill="white"/>
<path d="M20.3552 14.3369C20.462 14.7661 20.462 15.2149 20.3552 15.6441C19.8681 15.2084 20.1316 14.7726 20.3552 14.3369Z" fill="white"/>
</svg>
