<svg width="21" height="21" viewBox="0 0 21 21" fill="none" xmlns="http://www.w3.org/2000/svg">
<path d="M19.0567 20.1648L12.2464 13.3532C9.21674 15.5071 5.04206 14.9803 2.64256 12.1412C0.243061 9.30216 0.41925 5.09805 3.04788 2.46972C5.67581 -0.159752 9.88033 -0.336703 12.7199 2.06267C15.5595 4.46204 16.0866 8.63713 13.9326 11.667L20.7429 18.4786L19.0579 20.1636L19.0567 20.1648ZM8.10293 2.75809C5.84317 2.75758 3.89359 4.34383 3.43454 6.55647C2.97549 8.76911 4.13314 11 6.2066 11.8985C8.28006 12.797 10.6994 12.1161 12 10.2681C13.3005 8.42004 13.1247 5.91283 11.579 4.26437L12.3 4.97937L11.4873 4.16904L11.473 4.15474C10.5813 3.25763 9.36776 2.75468 8.10293 2.75809Z" fill="#847658"/>
</svg>
