<svg width="72" height="71" viewBox="0 0 72 71" fill="none" xmlns="http://www.w3.org/2000/svg">
<path fill-rule="evenodd" clip-rule="evenodd" d="M5.80273 0L5.80273 6L0.802734 6L0.802734 7L5.80273 7L5.80273 18H0.802734L0.802734 19H5.80273L5.80273 30H0.802734L0.802734 31H5.80273L5.80273 42H0.802734L0.802734 43H5.80273L5.80273 54H0.802734L0.802734 55H5.80273L5.80273 65.5H0.802734V66.5H5.80273L5.80273 70.5306H6.80273L6.80273 66.5H17.8027V70.5306H18.8027V66.5H29.8027V70.5306H30.8027V66.5L41.8027 66.5V70.5306H42.8027V66.5H53.8028V70.5306H54.8028V66.5H65.8028V70.5306H66.8028V66.5H71.3333V65.5H66.8028L66.8028 55H71.3333V54H66.8028V43H71.3333V42H66.8028V31H71.3333V30H66.8028V19H71.3333V18H66.8028V7.00001L71.3333 7.00001V6.00001L66.8028 6.00001V0L65.8028 0V6.00001L54.8028 6V0L53.8028 0V6L42.8027 6V0L41.8027 0V6L30.8027 6V0L29.8027 0V6L18.8027 6V0L17.8027 0V6L6.80273 6L6.80273 0L5.80273 0ZM65.8028 65.5L65.8028 55L54.8028 55L54.8028 65.5H65.8028ZM53.8028 65.5L53.8028 55L42.8027 55L42.8027 65.5H53.8028ZM41.8027 65.5L41.8027 55H30.8027L30.8027 65.5L41.8027 65.5ZM29.8027 65.5L29.8027 55H18.8027L18.8027 65.5H29.8027ZM17.8027 65.5L17.8027 55H6.80273L6.80273 65.5H17.8027ZM17.8027 54H6.80273L6.80273 43H17.8027V54ZM29.8027 54H18.8027V43H29.8027V54ZM41.8027 54H30.8027V43H41.8027V54ZM53.8028 54L42.8027 54V43L53.8028 43V54ZM65.8028 54L54.8028 54V43L65.8028 43V54ZM65.8028 42V31L54.8028 31L54.8028 42L65.8028 42ZM53.8028 42L53.8028 31H42.8027V42L53.8028 42ZM41.8027 42V31L30.8027 31L30.8027 42H41.8027ZM29.8027 42L29.8027 31H18.8027L18.8027 42H29.8027ZM17.8027 42L17.8027 31L6.80273 31L6.80273 42H17.8027ZM17.8027 30L6.80273 30L6.80273 19L17.8027 19V30ZM29.8027 30H18.8027V19H29.8027V30ZM41.8027 30L30.8027 30V19L41.8027 19V30ZM53.8028 30H42.8027V19H53.8028V30ZM65.8028 30L54.8028 30V19L65.8028 19V30ZM65.8028 18V7.00001L54.8028 7V18L65.8028 18ZM53.8028 18V7L42.8027 7V18H53.8028ZM41.8027 18V7L30.8027 7L30.8027 18L41.8027 18ZM29.8027 18L29.8027 7L18.8027 7L18.8027 18H29.8027ZM17.8027 18L17.8027 7L6.80273 7L6.80273 18L17.8027 18Z" fill="white" fill-opacity="0.5"/>
<path fill-rule="evenodd" clip-rule="evenodd" d="M58.6198 35.3868C60.8849 33.5535 62.333 30.7508 62.333 27.6097C62.333 22.0869 57.8559 17.6097 52.333 17.6097H43.333V10.6097H41.333V17.6097H31.333V10.6097H29.333V17.6097H11.333V19.6097H29.333V35.6097H11.333V37.6097H29.333V53.6097H11.333V55.6097H29.333V61.6097H31.333V55.6097H41.333V61.6097H43.333V55.6097H52.333C57.8559 55.6097 62.333 51.1326 62.333 45.6097C62.333 42.4687 60.8848 39.666 58.6198 37.8327C58.1468 37.4498 57.6381 37.1092 57.0996 36.8167C56.9672 36.7448 56.833 36.6758 56.6971 36.6097C57.3859 36.2751 58.0305 35.8638 58.6198 35.3868ZM60.2489 28.7742C60.3043 28.394 60.333 28.0052 60.333 27.6097C60.333 23.1915 56.7513 19.6097 52.333 19.6097H43.333V35.6097H52.333C56.3558 35.6097 59.6851 32.6406 60.2489 28.7742ZM41.333 35.6097V19.6097H31.333V35.6097H41.333ZM60.1857 44.0738C59.4694 40.3903 56.2259 37.6097 52.333 37.6097H43.333V53.6097H52.333C56.7513 53.6097 60.333 50.028 60.333 45.6097C60.333 45.0845 60.2824 44.5709 60.1857 44.0738ZM41.333 37.6097V53.6097H31.333V37.6097H41.333Z" fill="white"/>
</svg>
