<svg width="71" height="71" viewBox="0 0 71 71" fill="none" xmlns="http://www.w3.org/2000/svg">
<path fill-rule="evenodd" clip-rule="evenodd" d="M5.13574 0L5.13574 6L0.135742 6L0.135742 7L5.13574 7L5.13574 18H0.135742L0.135742 19H5.13574L5.13574 30H0.135742L0.135742 31H5.13574L5.13574 42H0.135742L0.135742 43H5.13574L5.13574 54H0.135742L0.135742 55H5.13574L5.13574 65.5H0.135742L0.135742 66.5H5.13574L5.13574 70.5306H6.13574L6.13574 66.5H17.1357V70.5306H18.1357V66.5H29.1357V70.5306H30.1357V66.5L41.1358 66.5V70.5306H42.1358V66.5H53.1358V70.5306H54.1358V66.5H65.1358V70.5306H66.1358V66.5H70.6663V65.5H66.1358L66.1358 55H70.6663V54H66.1358V43H70.6663V42H66.1358V31H70.6663V30H66.1358V19H70.6663V18H66.1358V7.00001L70.6663 7.00001V6.00001L66.1358 6.00001V0L65.1358 0V6.00001L54.1358 6V0L53.1358 0V6L42.1358 6V0L41.1358 0V6L30.1358 6V0L29.1358 0V6L18.1357 6V0L17.1357 0V6L6.13574 6L6.13574 0L5.13574 0ZM65.1358 65.5L65.1358 55L54.1358 55L54.1358 65.5H65.1358ZM53.1358 65.5L53.1358 55L42.1358 55L42.1358 65.5H53.1358ZM41.1358 65.5L41.1358 55H30.1357L30.1357 65.5L41.1358 65.5ZM29.1357 65.5L29.1357 55H18.1357L18.1357 65.5H29.1357ZM17.1357 65.5L17.1357 55H6.13574L6.13574 65.5H17.1357ZM17.1357 54H6.13574L6.13574 43H17.1357V54ZM29.1357 54H18.1357V43H29.1357V54ZM41.1358 54H30.1357V43H41.1358V54ZM53.1358 54L42.1358 54V43L53.1358 43V54ZM65.1358 54L54.1358 54V43L65.1358 43V54ZM65.1358 42V31L54.1358 31L54.1358 42L65.1358 42ZM53.1358 42L53.1358 31H42.1358V42L53.1358 42ZM41.1358 42V31L30.1358 31L30.1357 42H41.1358ZM29.1357 42L29.1358 31H18.1357L18.1357 42H29.1357ZM17.1357 42L17.1357 31L6.13574 31L6.13574 42H17.1357ZM17.1357 30L6.13574 30L6.13574 19L17.1357 19V30ZM29.1358 30H18.1357V19H29.1358V30ZM41.1358 30L30.1358 30V19L41.1358 19V30ZM53.1358 30H42.1358V19H53.1358V30ZM65.1358 30L54.1358 30V19L65.1358 19V30ZM65.1358 18V7.00001L54.1358 7V18L65.1358 18ZM53.1358 18V7L42.1358 7V18H53.1358ZM41.1358 18V7L30.1358 7L30.1358 18L41.1358 18ZM29.1358 18L29.1358 7L18.1357 7L18.1357 18H29.1358ZM17.1357 18L17.1357 7L6.13574 7L6.13574 18L17.1357 18Z" fill="white" fill-opacity="0.5"/>
<path d="M35.666 42.0791C29.5909 42.0791 24.666 37.1542 24.666 31.0791H22.666C22.666 38.2588 28.4863 44.0791 35.666 44.0791V42.0791ZM46.666 31.0791C46.666 37.1542 41.7411 42.0791 35.666 42.0791V44.0791C42.8457 44.0791 48.666 38.2588 48.666 31.0791H46.666ZM35.666 20.0791C41.7411 20.0791 46.666 25.004 46.666 31.0791H48.666C48.666 23.8994 42.8457 18.0791 35.666 18.0791V20.0791ZM35.666 18.0791C28.4863 18.0791 22.666 23.8994 22.666 31.0791H24.666C24.666 25.004 29.5909 20.0791 35.666 20.0791V18.0791Z" fill="white"/>
<path d="M18.666 50.0791C12.5909 50.0791 7.66602 45.1542 7.66602 39.0791H5.66602C5.66602 46.2588 11.4863 52.0791 18.666 52.0791V50.0791ZM29.666 39.0791C29.666 45.1542 24.7411 50.0791 18.666 50.0791V52.0791C25.8457 52.0791 31.666 46.2588 31.666 39.0791H29.666ZM18.666 28.0791C24.7411 28.0791 29.666 33.004 29.666 39.0791H31.666C31.666 31.8994 25.8457 26.0791 18.666 26.0791V28.0791ZM18.666 26.0791C11.4863 26.0791 5.66602 31.8994 5.66602 39.0791H7.66602C7.66602 33.004 12.5909 28.0791 18.666 28.0791V26.0791Z" fill="white"/>
<path d="M52.666 50.0791C46.5909 50.0791 41.666 45.1542 41.666 39.0791H39.666C39.666 46.2588 45.4863 52.0791 52.666 52.0791V50.0791ZM63.666 39.0791C63.666 45.1542 58.7411 50.0791 52.666 50.0791V52.0791C59.8457 52.0791 65.666 46.2588 65.666 39.0791H63.666ZM52.666 28.0791C58.7411 28.0791 63.666 33.004 63.666 39.0791H65.666C65.666 31.8994 59.8457 26.0791 52.666 26.0791V28.0791ZM52.666 26.0791C45.4863 26.0791 39.666 31.8994 39.666 39.0791H41.666C41.666 33.004 46.5909 28.0791 52.666 28.0791V26.0791Z" fill="white"/>
</svg>
