<svg width="72" height="72" viewBox="0 0 72 72" fill="none" xmlns="http://www.w3.org/2000/svg">
<path fill-rule="evenodd" clip-rule="evenodd" d="M5.7041 0.73468L5.7041 6.73468L0.704102 6.73468L0.704102 7.73468L5.7041 7.73468L5.7041 18.7347H0.704102L0.704102 19.7347H5.7041L5.7041 30.7347H0.704102L0.704102 31.7347H5.7041L5.7041 42.7347H0.704102L0.704102 43.7347H5.7041L5.7041 54.7347H0.704102L0.704102 55.7347H5.7041L5.7041 66.2347H0.704102V67.2347H5.7041L5.7041 71.2653H6.7041L6.7041 67.2347H17.7041V71.2653H18.7041V67.2347H29.7041V71.2653H30.7041V67.2347L41.7041 67.2347V71.2653H42.7041V67.2347H53.7041V71.2653H54.7041V67.2347H65.7041V71.2653H66.7041V67.2347H71.2347V66.2347H66.7041L66.7041 55.7347H71.2347V54.7347H66.7041V43.7347H71.2347V42.7347H66.7041V31.7347H71.2347V30.7347H66.7041V19.7347H71.2347V18.7347H66.7041V7.73469L71.2347 7.73469V6.73469L66.7041 6.73469V0.73468H65.7041V6.73469L54.7041 6.73468V0.73468H53.7041V6.73468L42.7041 6.73468V0.73468H41.7041V6.73468L30.7041 6.73468V0.73468H29.7041V6.73468L18.7041 6.73468V0.73468H17.7041V6.73468L6.7041 6.73468L6.7041 0.73468L5.7041 0.73468ZM65.7041 66.2347L65.7041 55.7347L54.7041 55.7347L54.7041 66.2347H65.7041ZM53.7041 66.2347L53.7041 55.7347L42.7041 55.7347L42.7041 66.2347H53.7041ZM41.7041 66.2347L41.7041 55.7347H30.7041L30.7041 66.2347L41.7041 66.2347ZM29.7041 66.2347L29.7041 55.7347H18.7041L18.7041 66.2347H29.7041ZM17.7041 66.2347L17.7041 55.7347H6.7041L6.7041 66.2347H17.7041ZM17.7041 54.7347H6.7041L6.7041 43.7347H17.7041V54.7347ZM29.7041 54.7347H18.7041V43.7347H29.7041V54.7347ZM41.7041 54.7347H30.7041V43.7347H41.7041V54.7347ZM53.7041 54.7347L42.7041 54.7347V43.7347L53.7041 43.7347V54.7347ZM65.7041 54.7347L54.7041 54.7347V43.7347L65.7041 43.7347V54.7347ZM65.7041 42.7347V31.7347L54.7041 31.7347L54.7041 42.7347L65.7041 42.7347ZM53.7041 42.7347L53.7041 31.7347H42.7041V42.7347L53.7041 42.7347ZM41.7041 42.7347V31.7347L30.7041 31.7347L30.7041 42.7347H41.7041ZM29.7041 42.7347L29.7041 31.7347H18.7041L18.7041 42.7347H29.7041ZM17.7041 42.7347L17.7041 31.7347L6.7041 31.7347L6.7041 42.7347H17.7041ZM17.7041 30.7347L6.7041 30.7347L6.7041 19.7347L17.7041 19.7347V30.7347ZM29.7041 30.7347H18.7041V19.7347H29.7041V30.7347ZM41.7041 30.7347L30.7041 30.7347V19.7347L41.7041 19.7347V30.7347ZM53.7041 30.7347H42.7041V19.7347H53.7041V30.7347ZM65.7041 30.7347L54.7041 30.7347V19.7347L65.7041 19.7347V30.7347ZM65.7041 18.7347V7.73469L54.7041 7.73468V18.7347L65.7041 18.7347ZM53.7041 18.7347V7.73468L42.7041 7.73468V18.7347H53.7041ZM41.7041 18.7347V7.73468L30.7041 7.73468L30.7041 18.7347L41.7041 18.7347ZM29.7041 18.7347L29.7041 7.73468L18.7041 7.73468L18.7041 18.7347H29.7041ZM17.7041 18.7347L17.7041 7.73468L6.7041 7.73468L6.7041 18.7347L17.7041 18.7347Z" fill="white" fill-opacity="0.5"/>
<path d="M54.7054 20.7937C54.5736 20.2574 54.0319 19.9296 53.4956 20.0615L44.7559 22.2106C44.2196 22.3424 43.8918 22.8841 44.0237 23.4204C44.1555 23.9567 44.6972 24.2846 45.2335 24.1527L53.0021 22.2424L54.9124 30.011C55.0443 30.5473 55.5859 30.8751 56.1223 30.7433C56.6586 30.6114 56.9864 30.0697 56.8545 29.5334L54.7054 20.7937ZM29.712 33.8162L30.544 34.3709L29.712 33.8162ZM41.8884 38.673L31.5518 32.6433L30.544 34.3709L40.8806 40.4005L41.8884 38.673ZM28.8799 33.2615L17.4023 50.4778L19.0664 51.5872L30.544 34.3709L28.8799 33.2615ZM52.8789 20.5147L41.8884 38.673L43.5994 39.7086L54.5899 21.5503L52.8789 20.5147ZM31.5518 32.6433C30.6378 32.1102 29.4668 32.3811 28.8799 33.2615L30.544 34.3709L30.544 34.3709L31.5518 32.6433ZM40.8806 40.4005C41.8238 40.9507 43.0339 40.6427 43.5994 39.7086L41.8884 38.673L40.8806 40.4005Z" fill="white"/>
</svg>
 