 <svg width="72" height="71" viewBox="0 0 72 71" fill="none" xmlns="http://www.w3.org/2000/svg">
<path fill-rule="evenodd" clip-rule="evenodd" d="M5.76562 0L5.76562 6L0.765625 6L0.765625 7L5.76562 7L5.76562 18H0.765625L0.765625 19H5.76562L5.76562 30H0.765625L0.765625 31H5.76562L5.76562 42H0.765625L0.765625 43H5.76562L5.76562 54H0.765625L0.765625 55H5.76562L5.76562 65.5H0.765625V66.5H5.76562L5.76562 70.5306H6.76562L6.76562 66.5H17.7656V70.5306H18.7656V66.5H29.7656V70.5306H30.7656V66.5L41.7656 66.5V70.5306H42.7656V66.5H53.7656V70.5306H54.7656V66.5H65.7657V70.5306H66.7657V66.5H71.2962V65.5H66.7657L66.7657 55H71.2962V54H66.7657V43H71.2962V42H66.7657V31H71.2962V30H66.7657V19H71.2962V18H66.7657V7.00001L71.2962 7.00001V6.00001L66.7657 6.00001V0L65.7657 0V6.00001L54.7657 6V0L53.7657 0V6L42.7656 6V0L41.7656 0V6L30.7656 6V0L29.7656 0V6L18.7656 6V0L17.7656 0V6L6.76562 6L6.76562 0L5.76562 0ZM65.7657 65.5L65.7657 55L54.7657 55L54.7656 65.5H65.7657ZM53.7656 65.5L53.7657 55L42.7656 55L42.7656 65.5H53.7656ZM41.7656 65.5L41.7656 55H30.7656L30.7656 65.5L41.7656 65.5ZM29.7656 65.5L29.7656 55H18.7656L18.7656 65.5H29.7656ZM17.7656 65.5L17.7656 55H6.76562L6.76562 65.5H17.7656ZM17.7656 54H6.76562L6.76562 43H17.7656V54ZM29.7656 54H18.7656V43H29.7656V54ZM41.7656 54H30.7656V43H41.7656V54ZM53.7657 54L42.7656 54V43L53.7657 43V54ZM65.7657 54L54.7657 54V43L65.7657 43V54ZM65.7657 42V31L54.7657 31L54.7657 42L65.7657 42ZM53.7657 42L53.7657 31H42.7656V42L53.7657 42ZM41.7656 42V31L30.7656 31L30.7656 42H41.7656ZM29.7656 42L29.7656 31H18.7656L18.7656 42H29.7656ZM17.7656 42L17.7656 31L6.76562 31L6.76562 42H17.7656ZM17.7656 30L6.76562 30L6.76562 19L17.7656 19V30ZM29.7656 30H18.7656V19H29.7656V30ZM41.7656 30L30.7656 30V19L41.7656 19V30ZM53.7657 30H42.7656V19H53.7657V30ZM65.7657 30L54.7657 30V19L65.7657 19V30ZM65.7657 18V7.00001L54.7657 7V18L65.7657 18ZM53.7657 18V7L42.7656 7V18H53.7657ZM41.7656 18V7L30.7656 7L30.7656 18L41.7656 18ZM29.7656 18L29.7656 7L18.7656 7L18.7656 18H29.7656ZM17.7656 18L17.7656 7L6.76562 7L6.76562 18L17.7656 18Z" fill="white" fill-opacity="0.5"/>
<path d="M60.2969 23.3934H61.2969V22.9618L60.9829 22.6658L60.2969 23.3934ZM60.2969 51.9362L60.8584 52.7637L61.2969 52.4662V51.9362H60.2969ZM48.2969 60.0791V61.0791H48.6041L48.8584 60.9066L48.2969 60.0791ZM24.2969 60.0791L23.6109 60.8067L23.8998 61.0791H24.2969V60.0791ZM12.2969 48.7648H11.2969V49.1964L11.6109 49.4924L12.2969 48.7648ZM12.2969 23.3934L11.6109 22.6658L11.2969 22.9618V23.3934H12.2969ZM24.2969 12.0791V11.0791H23.8998L23.6109 11.3515L24.2969 12.0791ZM48.2969 12.0791L48.9829 11.3515L48.694 11.0791H48.2969V12.0791ZM59.2969 23.3934V42.422H61.2969V23.3934H59.2969ZM59.2969 42.422V51.9362H61.2969V42.422H59.2969ZM48.2969 59.0791H36.2969V61.0791H48.2969V59.0791ZM36.2969 59.0791H24.2969V61.0791H36.2969V59.0791ZM13.2969 48.7648V36.0791H11.2969V48.7648H13.2969ZM13.2969 36.0791V23.3934H11.2969V36.0791H13.2969ZM24.2969 13.0791H36.2969V11.0791H24.2969V13.0791ZM36.2969 13.0791H48.2969V11.0791H36.2969V13.0791ZM47.6109 12.8067L59.6109 24.121L60.9829 22.6658L48.9829 11.3515L47.6109 12.8067ZM12.9829 24.121L24.9829 12.8067L23.6109 11.3515L11.6109 22.6658L12.9829 24.121ZM24.9829 59.3515L12.9829 48.0372L11.6109 49.4924L23.6109 60.8067L24.9829 59.3515ZM59.7354 51.1088L47.7354 59.2516L48.8584 60.9066L60.8584 52.7637L59.7354 51.1088Z" fill="white"/>
<path d="M53.2969 27.0934H54.2969V26.6618L53.9829 26.3658L53.2969 27.0934ZM53.2969 47.3112L53.8584 48.1387L54.2969 47.8412V47.3112H53.2969ZM44.7969 53.0791V54.0791H45.1041L45.3584 53.9066L44.7969 53.0791ZM27.7969 53.0791L27.1109 53.8067L27.3998 54.0791H27.7969V53.0791ZM19.2969 45.0648H18.2969V45.4964L18.6109 45.7924L19.2969 45.0648ZM19.2969 27.0934L18.6109 26.3658L18.2969 26.6618V27.0934H19.2969ZM27.7969 19.0791V18.0791H27.3998L27.1109 18.3515L27.7969 19.0791ZM44.7969 19.0791L45.4829 18.3515L45.194 18.0791H44.7969V19.0791ZM52.2969 27.0934V40.572H54.2969V27.0934H52.2969ZM52.2969 40.572V47.3112H54.2969V40.572H52.2969ZM44.7969 52.0791H36.2969V54.0791H44.7969V52.0791ZM36.2969 52.0791H27.7969V54.0791H36.2969V52.0791ZM20.2969 45.0648V36.0791H18.2969V45.0648H20.2969ZM20.2969 36.0791V27.0934H18.2969V36.0791H20.2969ZM27.7969 20.0791H36.2969V18.0791H27.7969V20.0791ZM36.2969 20.0791H44.7969V18.0791H36.2969V20.0791ZM44.1109 19.8067L52.6109 27.821L53.9829 26.3658L45.4829 18.3515L44.1109 19.8067ZM19.9829 27.821L28.4829 19.8067L27.1109 18.3515L18.6109 26.3658L19.9829 27.821ZM28.4829 52.3515L19.9829 44.3372L18.6109 45.7924L27.1109 53.8067L28.4829 52.3515ZM52.7354 46.4838L44.2354 52.2516L45.3584 53.9066L53.8584 48.1387L52.7354 46.4838Z" fill="white"/>
</svg>
