<svg width="71" height="71" viewBox="0 0 71 71" fill="none" xmlns="http://www.w3.org/2000/svg">
<path fill-rule="evenodd" clip-rule="evenodd" d="M5.23438 0L5.23437 6L0.234375 6L0.234375 7L5.23437 7L5.23437 18H0.234375L0.234375 19H5.23437L5.23437 30H0.234375L0.234375 31H5.23437L5.23437 42H0.234375L0.234375 43H5.23437L5.23437 54H0.234375L0.234375 55H5.23437L5.23437 65.5H0.234375L0.234375 66.5H5.23437L5.23437 70.5306H6.23437L6.23437 66.5H17.2344V70.5306H18.2344V66.5H29.2344V70.5306H30.2344V66.5L41.2344 66.5V70.5306H42.2344V66.5H53.2344V70.5306H54.2344V66.5H65.2344V70.5306H66.2344V66.5H70.765V65.5H66.2344L66.2344 55H70.765V54H66.2344V43H70.765V42H66.2344V31H70.765V30H66.2344V19H70.765V18H66.2344V7.00001L70.765 7.00001V6.00001L66.2344 6.00001V0L65.2344 0V6.00001L54.2344 6V0L53.2344 0V6L42.2344 6V0L41.2344 0V6L30.2344 6V0L29.2344 0V6L18.2344 6V0L17.2344 0V6L6.23437 6L6.23438 0L5.23438 0ZM65.2344 65.5L65.2344 55L54.2344 55L54.2344 65.5H65.2344ZM53.2344 65.5L53.2344 55L42.2344 55L42.2344 65.5H53.2344ZM41.2344 65.5L41.2344 55H30.2344L30.2344 65.5L41.2344 65.5ZM29.2344 65.5L29.2344 55H18.2344L18.2344 65.5H29.2344ZM17.2344 65.5L17.2344 55H6.23437L6.23437 65.5H17.2344ZM17.2344 54H6.23437L6.23437 43H17.2344V54ZM29.2344 54H18.2344V43H29.2344V54ZM41.2344 54H30.2344V43H41.2344V54ZM53.2344 54L42.2344 54V43L53.2344 43V54ZM65.2344 54L54.2344 54V43L65.2344 43V54ZM65.2344 42V31L54.2344 31L54.2344 42L65.2344 42ZM53.2344 42L53.2344 31H42.2344V42L53.2344 42ZM41.2344 42V31L30.2344 31L30.2344 42H41.2344ZM29.2344 42L29.2344 31H18.2344L18.2344 42H29.2344ZM17.2344 42L17.2344 31L6.23437 31L6.23437 42H17.2344ZM17.2344 30L6.23437 30L6.23437 19L17.2344 19V30ZM29.2344 30H18.2344V19H29.2344V30ZM41.2344 30L30.2344 30V19L41.2344 19V30ZM53.2344 30H42.2344V19H53.2344V30ZM65.2344 30L54.2344 30V19L65.2344 19V30ZM65.2344 18V7.00001L54.2344 7V18L65.2344 18ZM53.2344 18V7L42.2344 7V18H53.2344ZM41.2344 18V7L30.2344 7L30.2344 18L41.2344 18ZM29.2344 18L29.2344 7L18.2344 7L18.2344 18H29.2344ZM17.2344 18L17.2344 7L6.23437 7L6.23437 18L17.2344 18Z" fill="white" fill-opacity="0.5"/>
<path d="M35.7656 51C27.4814 51 20.7656 44.2843 20.7656 36H18.7656C18.7656 45.3888 26.3768 53 35.7656 53V51ZM50.7656 36C50.7656 44.2843 44.0499 51 35.7656 51V53C45.1545 53 52.7656 45.3888 52.7656 36H50.7656ZM35.7656 21C44.0499 21 50.7656 27.7157 50.7656 36H52.7656C52.7656 26.6112 45.1545 19 35.7656 19V21ZM35.7656 19C26.3768 19 18.7656 26.6112 18.7656 36H20.7656C20.7656 27.7157 27.4814 21 35.7656 21V19Z" fill="white"/>
</svg>
