<svg width="71" height="72" viewBox="0 0 71 72" fill="none" xmlns="http://www.w3.org/2000/svg">
<path fill-rule="evenodd" clip-rule="evenodd" d="M5.46973 0.734711L5.46973 6.73471L0.469727 6.73471L0.469727 7.73471L5.46973 7.73471L5.46973 18.7347H0.469727L0.469727 19.7347H5.46973L5.46972 30.7347H0.469727L0.469727 31.7347H5.46972L5.46972 42.7347H0.469727L0.469727 43.7347H5.46972L5.46972 54.7347H0.469727L0.469727 55.7347H5.46972L5.46972 66.2347H0.469727L0.469727 67.2347H5.46972L5.46972 71.2653H6.46972L6.46972 67.2347H17.4697V71.2653H18.4697V67.2347H29.4697V71.2653H30.4697V67.2347L41.4697 67.2347V71.2653H42.4697V67.2347H53.4697V71.2653H54.4697V67.2347H65.4698V71.2653H66.4698V67.2347H71.0003V66.2347H66.4698L66.4698 55.7347H71.0003V54.7347H66.4698V43.7347H71.0003V42.7347H66.4698V31.7347H71.0003V30.7347H66.4698V19.7347H71.0003V18.7347H66.4698V7.73472L71.0003 7.73472V6.73472L66.4698 6.73472V0.734711H65.4698V6.73472L54.4698 6.73471V0.734711H53.4698V6.73471L42.4697 6.73471V0.734711H41.4697V6.73471L30.4697 6.73471V0.734711H29.4697V6.73471L18.4697 6.73471V0.734711H17.4697V6.73471L6.46973 6.73471L6.46973 0.734711L5.46973 0.734711ZM65.4698 66.2347L65.4698 55.7347L54.4698 55.7347L54.4697 66.2347H65.4698ZM53.4697 66.2347L53.4698 55.7347L42.4697 55.7347L42.4697 66.2347H53.4697ZM41.4697 66.2347L41.4697 55.7347H30.4697L30.4697 66.2347L41.4697 66.2347ZM29.4697 66.2347L29.4697 55.7347H18.4697L18.4697 66.2347H29.4697ZM17.4697 66.2347L17.4697 55.7347H6.46972L6.46972 66.2347H17.4697ZM17.4697 54.7347H6.46972L6.46972 43.7347H17.4697V54.7347ZM29.4697 54.7347H18.4697V43.7347H29.4697V54.7347ZM41.4697 54.7347H30.4697V43.7347H41.4697V54.7347ZM53.4698 54.7347L42.4697 54.7347V43.7347L53.4698 43.7347V54.7347ZM65.4698 54.7347L54.4698 54.7347V43.7347L65.4698 43.7347V54.7347ZM65.4698 42.7347V31.7347L54.4698 31.7347L54.4698 42.7347L65.4698 42.7347ZM53.4698 42.7347L53.4698 31.7347H42.4697V42.7347L53.4698 42.7347ZM41.4697 42.7347V31.7347L30.4697 31.7347L30.4697 42.7347H41.4697ZM29.4697 42.7347L29.4697 31.7347H18.4697L18.4697 42.7347H29.4697ZM17.4697 42.7347L17.4697 31.7347L6.46972 31.7347L6.46972 42.7347H17.4697ZM17.4697 30.7347L6.46972 30.7347L6.46973 19.7347L17.4697 19.7347V30.7347ZM29.4697 30.7347H18.4697V19.7347H29.4697V30.7347ZM41.4697 30.7347L30.4697 30.7347V19.7347L41.4697 19.7347V30.7347ZM53.4698 30.7347H42.4697V19.7347H53.4698V30.7347ZM65.4698 30.7347L54.4698 30.7347V19.7347L65.4698 19.7347V30.7347ZM65.4698 18.7347V7.73472L54.4698 7.73471V18.7347L65.4698 18.7347ZM53.4698 18.7347V7.73471L42.4697 7.73471V18.7347H53.4698ZM41.4697 18.7347V7.73471L30.4697 7.73471L30.4697 18.7347L41.4697 18.7347ZM29.4697 18.7347L29.4697 7.73471L18.4697 7.73471L18.4697 18.7347H29.4697ZM17.4697 18.7347L17.4697 7.73471L6.46973 7.73471L6.46973 18.7347L17.4697 18.7347Z" fill="white" fill-opacity="0.5"/>
<circle cx="18.9697" cy="43.2347" r="1.5" stroke="white" stroke-width="2"/>
<line x1="20.0924" y1="42.8086" x2="34.6231" y2="36.8877" stroke="white" stroke-width="2"/>
<line x1="36.8357" y1="36.5483" x2="46.7874" y2="34.8906" stroke="white" stroke-width="2"/>
<path d="M37 37.8138L53.4692 53.7347" stroke="white" stroke-width="2"/>
<path d="M33.0006 48.8138L35.6673 38.539" stroke="white" stroke-width="2"/>
<path d="M35.8672 36.2347L30.7007 20.8138" stroke="white" stroke-width="2"/>
<circle cx="35.9697" cy="37.2347" r="1.5" stroke="white" stroke-width="2"/>
<circle cx="54.5371" cy="55.1556" r="1.5" stroke="white" stroke-width="2"/>
<circle cx="30.167" cy="19.3138" r="1.5" stroke="white" stroke-width="2"/>
<circle cx="48.5" cy="34.3138" r="1.5" stroke="white" stroke-width="2"/>
<circle cx="32.5" cy="50.3138" r="1.5" stroke="white" stroke-width="2"/>
</svg>
