<svg width="289" height="219" viewBox="0 0 289 219" fill="none" xmlns="http://www.w3.org/2000/svg">
<g opacity="0.8">
<path d="M53.4 1.8H36.312L0.984 69H17.016L24.024 54.888H47.544L49.368 69H65.016L53.4 1.8ZM42.456 18.216L45.528 41.736H30.456L42.072 18.216H42.456ZM91.8105 70.44C107.075 70.44 117.347 61.416 117.347 47.784C117.347 27.72 90.1785 31.176 90.1785 19.944C90.1785 15.816 93.4425 13.032 98.1465 13.032C103.043 13.032 106.403 16.104 107.267 21.192L121.955 18.888C120.803 7.752 111.299 0.359997 98.1465 0.359997C84.5145 0.359997 74.4345 9.576 74.4345 22.44C74.4345 42.504 101.699 39.048 101.699 50.28C101.699 54.792 98.0505 57.864 92.7705 57.864C87.0105 57.864 82.7865 54.792 81.9225 49.8L67.2345 51.432C68.7705 63.24 78.0825 70.44 91.8105 70.44ZM145.578 70.44C160.842 70.44 171.114 61.416 171.114 47.784C171.114 27.72 143.946 31.176 143.946 19.944C143.946 15.816 147.21 13.032 151.914 13.032C156.81 13.032 160.17 16.104 161.034 21.192L175.722 18.888C174.57 7.752 165.066 0.359997 151.914 0.359997C138.282 0.359997 128.202 9.576 128.202 22.44C128.202 42.504 155.466 39.048 155.466 50.28C155.466 54.792 151.818 57.864 146.538 57.864C140.778 57.864 136.554 54.792 135.69 49.8L121.002 51.432C122.538 63.24 131.85 70.44 145.578 70.44ZM186.77 1.8L174.962 69H220.178L222.482 55.656H192.146L194.546 42.024H217.49L219.89 28.584H196.946L199.346 15.144H229.682L231.986 1.8H186.77ZM237.059 1.8L234.755 15.144H253.283L243.779 69H258.659L268.163 15.144H286.499L288.899 1.8H237.059Z" fill="#DBAD8A"/>
<path d="M25.368 116.216H29.304L40.152 143H57.048L44.376 115.064C55.128 112.376 61.848 105.08 61.848 94.424C61.848 80.984 51.96 75.8 38.616 75.8H17.592L5.784 143H20.664L25.368 116.216ZM36.696 89.048C43.896 89.048 46.104 92.12 46.104 96.248C46.104 102.104 41.016 104.792 34.2 104.792H27.384L30.168 89.048H36.696ZM91.7423 144.056C108.638 144.056 119.486 134.168 122.654 116.024L129.758 75.8H115.07L108.062 114.68C106.43 124.376 100.958 130.328 93.3743 130.328C84.6383 130.328 80.7983 123.896 82.7183 113.048L89.3423 75.8H74.5583L67.7423 114.008C64.4783 131.864 74.2703 144.056 91.7423 144.056ZM152.047 144.44C167.311 144.44 177.583 135.416 177.583 121.784C177.583 101.72 150.415 105.176 150.415 93.944C150.415 89.816 153.679 87.032 158.383 87.032C163.279 87.032 166.639 90.104 167.503 95.192L182.191 92.888C181.039 81.752 171.535 74.36 158.383 74.36C144.751 74.36 134.671 83.576 134.671 96.44C134.671 116.504 161.935 113.048 161.935 124.28C161.935 128.792 158.287 131.864 153.007 131.864C147.247 131.864 143.023 128.792 142.159 123.8L127.471 125.432C129.007 137.24 138.319 144.44 152.047 144.44ZM235.478 75.8L230.678 102.968H203.318L208.118 75.8H193.238L181.43 143H196.31L201.014 116.408H228.374L223.67 143H238.55L250.358 75.8H235.478Z" fill="#FBDEBF"/>
<path d="M55.32 203.848H29.496L45.528 191.176C56.184 182.824 61.176 176.2 61.176 166.984C61.176 156.136 51.672 148.36 38.328 148.36C24.408 148.36 14.904 156.712 12.6 171.208L26.52 172.648C27.576 165.832 31.8 161.608 37.56 161.608C42.456 161.608 45.624 164.488 45.624 168.808C45.624 173.128 42.648 176.776 38.424 180.232L8.184 204.904L6.072 217H53.016L55.32 203.848ZM86.3663 218.44C105.662 218.44 117.278 197.416 117.278 176.68C117.278 157.864 107.774 148.36 94.5263 148.36C74.8463 148.36 63.8063 169.48 63.8063 189.928C63.8063 208.84 73.2143 218.44 86.3663 218.44ZM87.2303 205.192C82.1423 205.192 78.4943 199.912 78.4943 190.216C78.4943 177.736 84.5423 161.608 93.7583 161.608C99.1343 161.608 102.686 166.792 102.686 176.488C102.686 189.064 96.5423 205.192 87.2303 205.192ZM167.824 203.848H142L158.032 191.176C168.688 182.824 173.68 176.2 173.68 166.984C173.68 156.136 164.176 148.36 150.832 148.36C136.912 148.36 127.408 156.712 125.104 171.208L139.024 172.648C140.08 165.832 144.304 161.608 150.064 161.608C154.96 161.608 158.128 164.488 158.128 168.808C158.128 173.128 155.152 176.776 150.928 180.232L120.688 204.904L118.576 217H165.52L167.824 203.848ZM178.71 173.608L194.646 165.448L185.526 217H200.118L211.926 149.8H198.87L180.342 158.056L178.71 173.608Z" fill="#FDF4E9"/>
</g>
</svg>
