<svg width="217" height="62" viewBox="0 0 217 62" fill="none" xmlns="http://www.w3.org/2000/svg">
<g opacity="0.8">
<path d="M6.016 22.7812H11.392L15.872 8.02925H16L20.512 22.7812H25.888L31.424 0.381248H26.208L23.136 14.3972H22.944L18.688 0.381248H13.536L9.312 14.3972H9.12L5.984 0.381248H0.32L6.016 22.7812ZM40.956 17.6932C40.412 18.8132 39.42 19.3892 38.044 19.3892C36.252 19.3892 34.94 18.2372 34.524 16.3492H45.596V15.3572C45.596 10.0452 42.204 6.84525 37.596 6.84525C33.052 6.84525 29.628 10.3012 29.628 15.1012C29.628 19.9012 33.212 23.2613 38.012 23.2613C41.372 23.2613 43.676 21.7572 44.988 18.7812L40.956 17.6932ZM37.692 10.4612C39.324 10.4612 40.508 11.4212 40.636 13.2132H34.524C34.94 11.3252 36.124 10.4612 37.692 10.4612ZM46.4255 15.0372C46.4255 19.9652 49.5295 23.2613 53.5615 23.2613C55.1935 23.2613 57.2095 22.6852 58.2015 20.7972H58.3295V22.7812H62.7455V0.381248H57.9135V9.05325C57.3055 7.80525 55.8015 6.84525 53.6575 6.84525C49.6895 6.84525 46.4255 10.0452 46.4255 15.0372ZM51.2575 15.0372C51.2575 12.7332 52.5375 11.0372 54.6815 11.0372C56.8255 11.0372 58.1055 12.7012 58.1055 15.0372C58.1055 17.3732 56.8255 19.0692 54.6815 19.0692C52.5375 19.0692 51.2575 17.3412 51.2575 15.0372ZM79.7378 12.7652C79.7378 8.95725 77.6898 6.84525 74.3938 6.84525C72.3138 6.84525 70.5858 7.83725 69.7218 9.11725H69.6578V7.32525H65.2098V22.7812H70.0418V13.9812C70.0418 12.1572 71.2258 11.0372 72.7298 11.0372C74.1058 11.0372 74.9058 11.9012 74.9058 13.7252V22.7812H79.7378V12.7652ZM92.5673 17.6932C92.0233 18.8132 91.0313 19.3892 89.6553 19.3892C87.8633 19.3892 86.5513 18.2372 86.1353 16.3492H97.2073V15.3572C97.2073 10.0452 93.8153 6.84525 89.2073 6.84525C84.6633 6.84525 81.2393 10.3012 81.2393 15.1012C81.2393 19.9012 84.8233 23.2613 89.6233 23.2613C92.9833 23.2613 95.2873 21.7572 96.5993 18.7812L92.5673 17.6932ZM89.3033 10.4612C90.9353 10.4612 92.1193 11.4212 92.2473 13.2132H86.1353C86.5513 11.3252 87.7353 10.4612 89.3033 10.4612ZM104.885 23.2613C108.949 23.2613 111.605 21.1492 111.605 17.9492C111.605 11.5492 103.445 14.2372 103.445 11.6132C103.445 10.8772 104.053 10.3972 105.045 10.3972C106.101 10.3972 106.965 10.9092 107.125 11.7732L111.509 10.8132C110.837 8.38125 108.277 6.84525 104.949 6.84525C103.061 6.84525 101.557 7.32525 100.373 8.25325C99.2208 9.18125 98.6448 10.4292 98.6448 11.9332C98.6448 18.3332 106.805 15.6772 106.805 18.3012C106.805 19.2292 106.133 19.8052 105.013 19.8052C103.733 19.8052 102.677 19.1012 102.389 18.0773L98.0048 18.9092C98.8688 21.6932 101.397 23.2613 104.885 23.2613ZM112.366 15.0372C112.366 19.9652 115.47 23.2613 119.502 23.2613C121.134 23.2613 123.15 22.6852 124.142 20.7972H124.27V22.7812H128.686V0.381248H123.854V9.05325C123.246 7.80525 121.742 6.84525 119.598 6.84525C115.63 6.84525 112.366 10.0452 112.366 15.0372ZM117.198 15.0372C117.198 12.7332 118.478 11.0372 120.622 11.0372C122.766 11.0372 124.046 12.7012 124.046 15.0372C124.046 17.3732 122.766 19.0692 120.622 19.0692C118.478 19.0692 117.198 17.3412 117.198 15.0372ZM145.07 13.1492C145.07 9.08525 142.702 6.84525 138.35 6.84525C134.638 6.84525 131.982 8.50925 131.054 11.4532L135.854 11.7732C136.206 11.1332 136.91 10.5572 138.062 10.5572C139.47 10.5572 140.302 11.3892 140.302 12.7972V13.7252C139.822 13.4372 138.542 13.2132 137.294 13.2132C133.166 13.2132 130.606 15.1012 130.606 18.3332C130.606 21.2132 132.91 23.2293 136.11 23.2293C137.806 23.2293 139.63 22.4612 140.398 21.4052H140.526V22.7812H145.07V13.1492ZM135.47 18.0132C135.47 17.0212 136.398 16.4132 137.966 16.4132C139.086 16.4132 140.046 16.6372 140.398 16.9892V17.7892C140.398 18.7172 139.118 19.5812 137.582 19.5812C136.174 19.5812 135.47 19.0692 135.47 18.0132ZM161.864 7.32525H157.128L153.992 16.5092L150.568 7.32525H145.32L151.4 22.1092L148.584 29.1813H153.32L161.864 7.32525Z" fill="#DBAD8A"/>
<path d="M9.536 55.2613C14.56 55.2613 17.888 52.3172 17.888 47.9652C17.888 39.2932 7.04 42.6532 7.04 38.4292C7.04 37.0532 8.064 36.2532 9.696 36.2532C11.456 36.2532 12.576 37.2132 12.928 38.8772L17.824 38.0132C17.152 34.3012 14.144 31.9012 9.824 31.9012C5.152 31.9012 1.888 34.7812 1.888 38.9092C1.888 47.5812 12.704 44.2532 12.704 48.5412C12.704 49.9812 11.552 50.9412 9.728 50.9412C7.808 50.9412 6.272 49.8212 5.92 48.2532L1.024 49.2452C1.792 52.9252 5.184 55.2613 9.536 55.2613ZM30.3623 49.6932C29.8183 50.8132 28.8263 51.3892 27.4503 51.3892C25.6583 51.3892 24.3463 50.2372 23.9303 48.3492H35.0023V47.3572C35.0023 42.0452 31.6103 38.8452 27.0023 38.8452C22.4583 38.8452 19.0343 42.3012 19.0343 47.1012C19.0343 51.9012 22.6183 55.2613 27.4183 55.2613C30.7783 55.2613 33.0823 53.7572 34.3943 50.7812L30.3623 49.6932ZM27.0983 42.4612C28.7303 42.4612 29.9143 43.4212 30.0423 45.2132H23.9303C24.3463 43.3252 25.5303 42.4612 27.0983 42.4612ZM52.9518 47.0372C52.9518 42.1092 49.8478 38.8452 45.8158 38.8452C44.2158 38.8452 42.1678 39.4212 41.1438 41.3092H41.0478V39.3252H36.6318V61.1813H41.4318V53.0532C42.0718 54.2372 43.5758 55.2613 45.7198 55.2613C49.7198 55.2613 52.9518 51.9972 52.9518 47.0372ZM48.0878 47.0372C48.0878 49.3732 46.8398 51.0692 44.6958 51.0692C42.5518 51.0692 41.2398 49.3732 41.2398 47.0372C41.2398 44.7012 42.5518 43.0372 44.6958 43.0372C46.8398 43.0372 48.0878 44.7332 48.0878 47.0372ZM61.3733 55.1013C62.5573 55.1013 63.5493 54.9413 64.0933 54.7172L63.6133 50.9092C63.2613 51.0692 62.8453 51.1652 62.3653 51.1652C61.0533 51.1652 60.3173 50.5892 60.3173 48.8932V43.3572H63.9013V39.3252H60.3173V34.4932L55.5173 35.4532V39.3252H53.0213V43.3572H55.5173V49.6292C55.5173 53.7253 57.9493 55.1013 61.3733 55.1013ZM75.661 49.6932C75.117 50.8132 74.125 51.3892 72.749 51.3892C70.957 51.3892 69.645 50.2372 69.229 48.3492H80.301V47.3572C80.301 42.0452 76.909 38.8452 72.301 38.8452C67.757 38.8452 64.333 42.3012 64.333 47.1012C64.333 51.9012 67.917 55.2613 72.717 55.2613C76.077 55.2613 78.381 53.7572 79.693 50.7812L75.661 49.6932ZM72.397 42.4612C74.029 42.4612 75.213 43.4212 75.341 45.2132H69.229C69.645 43.3252 70.829 42.4612 72.397 42.4612ZM105.707 44.5732C105.707 41.0212 103.723 38.8452 100.395 38.8452C98.3145 38.8452 96.4265 39.9652 95.5305 41.4692C94.7625 39.8372 93.2585 38.8452 91.0825 38.8452C89.0025 38.8452 87.2105 39.8372 86.4105 41.0852H86.3465V39.3252H81.8985V54.7812H86.7305V45.9812C86.7305 44.2212 87.8185 43.0372 89.2585 43.0372C90.6985 43.0372 91.4025 43.8692 91.4025 45.5332V54.7812H96.2025V45.9812C96.2025 44.2212 97.2905 43.0372 98.7945 43.0372C100.203 43.0372 100.907 43.8692 100.907 45.5332V54.7812H105.707V44.5732ZM124.329 47.0372C124.329 42.0452 121.097 38.8452 117.097 38.8452C115.017 38.8452 113.449 39.8372 112.809 41.0212V32.3812H108.009V54.7812H112.457V52.8292H112.585C113.577 54.6212 115.529 55.2613 117.225 55.2613C121.193 55.2613 124.329 51.9652 124.329 47.0372ZM119.465 47.0372C119.465 49.3732 118.217 51.0692 116.073 51.0692C113.929 51.0692 112.617 49.3732 112.617 47.0372C112.617 44.7012 113.929 43.0372 116.073 43.0372C118.217 43.0372 119.465 44.7332 119.465 47.0372ZM136.553 49.6932C136.009 50.8132 135.017 51.3892 133.641 51.3892C131.849 51.3892 130.537 50.2372 130.121 48.3492H141.193V47.3572C141.193 42.0452 137.801 38.8452 133.193 38.8452C128.649 38.8452 125.225 42.3012 125.225 47.1012C125.225 51.9012 128.809 55.2613 133.609 55.2613C136.969 55.2613 139.273 53.7572 140.585 50.7812L136.553 49.6932ZM133.289 42.4612C134.921 42.4612 136.105 43.4212 136.233 45.2132H130.121C130.537 43.3252 131.721 42.4612 133.289 42.4612ZM142.791 54.7812H147.623V48.0932C147.623 44.5732 149.191 43.6452 151.335 43.6452C151.783 43.6452 152.135 43.7092 152.423 43.8372V39.3252C152.167 39.1652 151.783 39.1012 151.271 39.1012C149.575 39.1012 148.071 40.0292 147.303 41.6932H147.239V39.3252H142.791V54.7812ZM159.1 40.7012L164.38 37.5972V54.7812H169.308V32.3812H164.892L158.588 35.7412L159.1 40.7012ZM180.595 55.2613C185.715 55.2613 189.267 51.8692 189.267 47.1332C189.267 42.6852 186.259 39.7412 182.067 39.7412C179.859 39.7412 178.483 40.5412 177.811 41.4052V36.8932H187.955V32.3812H173.235V45.8852H177.427C177.939 44.7332 179.091 44.0612 180.531 44.0612C182.611 44.0612 184.019 45.4372 184.019 47.5172C184.019 49.4372 182.739 50.8452 180.659 50.8452C179.091 50.8452 177.747 50.0132 177.203 48.5732L172.435 49.8212C173.139 53.0212 176.499 55.2613 180.595 55.2613ZM198.176 55.1013C199.36 55.1013 200.352 54.9413 200.896 54.7172L200.416 50.9092C200.064 51.0692 199.648 51.1652 199.168 51.1652C197.856 51.1652 197.12 50.5892 197.12 48.8932V43.3572H200.704V39.3252H197.12V34.4932L192.32 35.4532V39.3252H189.824V43.3572H192.32V49.6292C192.32 53.7253 194.752 55.1013 198.176 55.1013ZM202.122 54.7812H206.954V45.9812C206.954 44.1572 208.138 43.0372 209.642 43.0372C211.018 43.0372 211.818 43.9012 211.818 45.7252V54.7812H216.65V44.7652C216.65 41.0212 214.602 38.8452 211.306 38.8452C209.482 38.8452 207.754 39.8052 206.954 40.8292V32.3812H202.122V54.7812Z" fill="#FDF4E9"/>
</g>
</svg>
