<svg width="253" height="19" viewBox="0 0 253 19" fill="none" xmlns="http://www.w3.org/2000/svg">
<g opacity="0.8">
<path d="M3.994 8.58725L9.274 15.7812H13.828L7.602 7.50925L13.52 0.381249H9.428L3.994 7.09125V0.381249H0.518V15.7812H3.994V8.58725ZM23.7309 9.15925C23.7309 6.36525 22.1029 4.82525 19.1109 4.82525C16.5589 4.82525 14.7329 5.96925 14.0949 7.99325L17.3949 8.21325C17.6369 7.77325 18.1209 7.37725 18.9129 7.37725C19.8809 7.37725 20.4529 7.94925 20.4529 8.91725V9.55525C20.1229 9.35725 19.2429 9.20325 18.3849 9.20325C15.5469 9.20325 13.7869 10.5012 13.7869 12.7232C13.7869 14.7032 15.3709 16.0893 17.5709 16.0893C18.7369 16.0893 19.9909 15.5612 20.5189 14.8352H20.6069V15.7812H23.7309V9.15925ZM17.1309 12.5032C17.1309 11.8212 17.7689 11.4032 18.8469 11.4032C19.6169 11.4032 20.2769 11.5572 20.5189 11.7992V12.3492C20.5189 12.9872 19.6389 13.5812 18.5829 13.5812C17.6149 13.5812 17.1309 13.2292 17.1309 12.5032ZM35.136 5.15525H31.814V11.2052C31.814 12.4592 31 13.2292 29.966 13.2292C29.02 13.2292 28.47 12.6132 28.47 11.3812V5.15525H25.148V12.0412C25.148 14.5932 26.556 16.1113 28.822 16.1113C30.296 16.1113 31.462 15.4072 32.012 14.5492H32.122V15.7812H35.136V5.15525ZM37.7303 7.92725V15.7812H41.0523V7.92725H43.3623V5.15525H41.0523V4.49525C41.0523 3.39525 41.5363 2.84525 42.5263 2.84525C42.7683 2.84525 43.0323 2.88925 43.3623 2.95525V0.22725C43.0763 0.139249 42.5263 0.0512493 41.8443 0.0512493C39.2703 0.0512493 37.7303 1.45925 37.7303 4.18725V5.15525H36.0583V7.92725H37.7303ZM44.2423 15.7812H47.5643V0.381249H44.2423V15.7812ZM56.3665 12.2832C55.9925 13.0532 55.3105 13.4492 54.3645 13.4492C53.1325 13.4492 52.2305 12.6572 51.9445 11.3592H59.5565V10.6772C59.5565 7.02525 57.2245 4.82525 54.0565 4.82525C50.9325 4.82525 48.5785 7.20125 48.5785 10.5012C48.5785 13.8012 51.0425 16.1113 54.3425 16.1113C56.6525 16.1113 58.2365 15.0772 59.1385 13.0312L56.3665 12.2832ZM54.1225 7.31125C55.2445 7.31125 56.0585 7.97125 56.1465 9.20325H51.9445C52.2305 7.90525 53.0445 7.31125 54.1225 7.31125ZM70.5328 5.15525H67.2108V11.2052C67.2108 12.4592 66.3968 13.2292 65.3628 13.2292C64.4168 13.2292 63.8668 12.6132 63.8668 11.3812V5.15525H60.5448V12.0412C60.5448 14.5932 61.9528 16.1113 64.2188 16.1113C65.6928 16.1113 66.8588 15.4072 67.4088 14.5492H67.5188V15.7812H70.5328V5.15525ZM76.9991 16.0013C77.8131 16.0013 78.4951 15.8913 78.8691 15.7372L78.5391 13.1192C78.2971 13.2292 78.0111 13.2952 77.6811 13.2952C76.7791 13.2952 76.2731 12.8992 76.2731 11.7332V7.92725H78.7371V5.15525H76.2731V1.83325L72.9731 2.49325V5.15525H71.2571V7.92725H72.9731V12.2392C72.9731 15.0553 74.6451 16.0013 76.9991 16.0013ZM86.8219 12.2832C86.4479 13.0532 85.7659 13.4492 84.8199 13.4492C83.5879 13.4492 82.6859 12.6572 82.3999 11.3592H90.0119V10.6772C90.0119 7.02525 87.6799 4.82525 84.5119 4.82525C81.3879 4.82525 79.0339 7.20125 79.0339 10.5012C79.0339 13.8012 81.4979 16.1113 84.7979 16.1113C87.1079 16.1113 88.6919 15.0772 89.5939 13.0312L86.8219 12.2832ZM84.5779 7.31125C85.6999 7.31125 86.5139 7.97125 86.6019 9.20325H82.3999C82.6859 7.90525 83.4999 7.31125 84.5779 7.31125ZM101.098 8.89525C101.098 6.27725 99.6902 4.82525 97.4242 4.82525C95.9942 4.82525 94.8062 5.50725 94.2122 6.38725H94.1682V5.15525H91.1102V15.7812H94.4322V9.73125C94.4322 8.47725 95.2462 7.70725 96.2802 7.70725C97.2262 7.70725 97.7762 8.30125 97.7762 9.55525V15.7812H101.098V8.89525ZM110.496 8.58725L115.776 15.7812H120.33L114.104 7.50925L120.022 0.381249H115.93L110.496 7.09125V0.381249H107.02V15.7812H110.496V8.58725ZM120.964 15.7812H124.286V0.381249H120.964V15.7812ZM135.838 5.15525H132.516V11.2052C132.516 12.4592 131.702 13.2292 130.668 13.2292C129.722 13.2292 129.172 12.6132 129.172 11.3812V5.15525H125.85V12.0412C125.85 14.5932 127.258 16.1113 129.524 16.1113C130.998 16.1113 132.164 15.4072 132.714 14.5492H132.824V15.7812H135.838V5.15525ZM148.75 10.4572C148.75 7.02525 146.528 4.82525 143.778 4.82525C142.348 4.82525 141.27 5.50725 140.83 6.32125V0.381249H137.53V15.7812H140.588V14.4392H140.676C141.358 15.6712 142.7 16.1113 143.866 16.1113C146.594 16.1113 148.75 13.8452 148.75 10.4572ZM145.406 10.4572C145.406 12.0632 144.548 13.2292 143.074 13.2292C141.6 13.2292 140.698 12.0632 140.698 10.4572C140.698 8.85125 141.6 7.70725 143.074 7.70725C144.548 7.70725 145.406 8.87325 145.406 10.4572ZM154.074 16.1113C156.868 16.1113 158.694 14.6592 158.694 12.4592C158.694 8.05925 153.084 9.90725 153.084 8.10325C153.084 7.59725 153.502 7.26725 154.184 7.26725C154.91 7.26725 155.504 7.61925 155.614 8.21325L158.628 7.55325C158.166 5.88125 156.406 4.82525 154.118 4.82525C152.82 4.82525 151.786 5.15525 150.972 5.79325C150.18 6.43125 149.784 7.28925 149.784 8.32325C149.784 12.7232 155.394 10.8972 155.394 12.7012C155.394 13.3392 154.932 13.7352 154.162 13.7352C153.282 13.7352 152.556 13.2512 152.358 12.5473L149.344 13.1192C149.938 15.0332 151.676 16.1113 154.074 16.1113ZM169.315 9.15925C169.315 6.36525 167.687 4.82525 164.695 4.82525C162.143 4.82525 160.317 5.96925 159.679 7.99325L162.979 8.21325C163.221 7.77325 163.705 7.37725 164.497 7.37725C165.465 7.37725 166.037 7.94925 166.037 8.91725V9.55525C165.707 9.35725 164.827 9.20325 163.969 9.20325C161.131 9.20325 159.371 10.5012 159.371 12.7232C159.371 14.7032 160.955 16.0893 163.155 16.0893C164.321 16.0893 165.575 15.5612 166.103 14.8352H166.191V15.7812H169.315V9.15925ZM162.715 12.5032C162.715 11.8212 163.353 11.4032 164.431 11.4032C165.201 11.4032 165.861 11.5572 166.103 11.7992V12.3492C166.103 12.9872 165.223 13.5812 164.167 13.5812C163.199 13.5812 162.715 13.2292 162.715 12.5032ZM180.412 9.15925C180.412 6.36525 178.784 4.82525 175.792 4.82525C173.24 4.82525 171.414 5.96925 170.776 7.99325L174.076 8.21325C174.318 7.77325 174.802 7.37725 175.594 7.37725C176.562 7.37725 177.134 7.94925 177.134 8.91725V9.55525C176.804 9.35725 175.924 9.20325 175.066 9.20325C172.228 9.20325 170.468 10.5012 170.468 12.7232C170.468 14.7032 172.052 16.0893 174.252 16.0893C175.418 16.0893 176.672 15.5612 177.2 14.8352H177.288V15.7812H180.412V9.15925ZM173.812 12.5032C173.812 11.8212 174.45 11.4032 175.528 11.4032C176.298 11.4032 176.958 11.5572 177.2 11.7992V12.3492C177.2 12.9872 176.32 13.5812 175.264 13.5812C174.296 13.5812 173.812 13.2292 173.812 12.5032ZM181.939 15.7812H185.261V0.381249H181.939V15.7812ZM190.851 12.7452H187.529L186.011 18.6852H188.629L190.851 12.7452Z" fill="#FBDEBF"/>
<path d="M206.466 12.5692H199.03L206.312 3.35125V0.381249H195.048V3.57125H201.934L194.652 12.7892V15.7812H206.466V12.5692ZM217.708 5.15525H214.386V11.2052C214.386 12.4592 213.572 13.2292 212.538 13.2292C211.592 13.2292 211.042 12.6132 211.042 11.3812V5.15525H207.72V12.0412C207.72 14.5932 209.128 16.1113 211.394 16.1113C212.868 16.1113 214.034 15.4072 214.584 14.5492H214.694V15.7812H217.708V5.15525ZM219.378 15.7812H222.7V11.1832C222.7 8.76325 223.778 8.12525 225.252 8.12525C225.56 8.12525 225.802 8.16925 226 8.25725V5.15525C225.824 5.04525 225.56 5.00125 225.208 5.00125C224.042 5.00125 223.008 5.63925 222.48 6.78325H222.436V5.15525H219.378V15.7812ZM230.145 0.381249H226.823V3.24125H230.145V0.381249ZM230.145 5.15525H226.823V15.7812H230.145V5.15525ZM236.769 4.82525C233.821 4.82525 231.269 6.87125 231.269 10.4352C231.269 13.8452 233.623 16.1113 236.923 16.1113C239.409 16.1113 241.235 14.8572 241.873 12.5473L238.749 11.8652C238.507 12.6792 237.825 13.2292 236.835 13.2292C235.405 13.2292 234.569 12.1292 234.569 10.4572C234.569 8.80725 235.405 7.70725 236.835 7.70725C237.825 7.70725 238.551 8.21325 238.793 9.07125L242.005 8.63125C241.455 6.14525 239.585 4.82525 236.769 4.82525ZM242.829 15.7812H246.151V9.73125C246.151 8.47725 246.965 7.70725 247.999 7.70725C248.945 7.70725 249.495 8.30125 249.495 9.55525V15.7812H252.817V8.89525C252.817 6.32125 251.409 4.82525 249.143 4.82525C247.889 4.82525 246.701 5.48525 246.151 6.18925V0.381249H242.829V15.7812Z" fill="#FDF4E9"/>
</g>
</svg>
