<svg width="396" height="309" viewBox="0 0 396 309" fill="none" xmlns="http://www.w3.org/2000/svg">
<path d="M99.667 266.392L478.178 50.3901" stroke="#6F929F" stroke-opacity="0.25" stroke-width="0.338561" stroke-linecap="square" stroke-linejoin="round"/>
<path d="M0.666992 256.681L449.599 0.390137" stroke="#6F929F" stroke-opacity="0.25" stroke-width="0.338561" stroke-linecap="square" stroke-linejoin="round"/>
<path d="M208.443 272.392L586.954 56.3904" stroke="#6F929F" stroke-opacity="0.25" stroke-width="0.338561" stroke-linecap="square" stroke-linejoin="round"/>
<path d="M262.443 308.392L640.954 92.3904" stroke="#6F929F" stroke-opacity="0.25" stroke-width="0.338561" stroke-linecap="square" stroke-linejoin="round"/>
<g opacity="0.55">
<path d="M343.186 128.109L372.443 111.39V144.828L343.186 128.109Z" fill="#151C1F" fill-opacity="0.65"/>
<path d="M343.186 162.109L372.443 145.39V178.828L343.186 162.109Z" fill="#151C1F" fill-opacity="0.65"/>
<path d="M372.701 179.109L343.443 162.39V195.828L372.701 179.109Z" fill="#637E77" fill-opacity="0.45"/>
<path d="M314.186 179.109L343.443 162.39V195.828L314.186 179.109Z" fill="#25464F" fill-opacity="0.45"/>
<path d="M313.701 179.109L284.443 162.39V195.828L313.701 179.109Z" fill="url(#paint0_linear)"/>
<path d="M255.186 179.109L284.443 162.39V195.828L255.186 179.109Z" fill="#A3B3AF"/>
<path d="M372.701 112.109L343.443 95.3901V128.828L372.701 112.109Z" fill="#151C1F" fill-opacity="0.65"/>
<path d="M314.186 112.109L343.443 95.3901V128.828L314.186 112.109Z" fill="#25464F" fill-opacity="0.45"/>
<path d="M313.701 112.109L284.443 95.3901V128.828L313.701 112.109Z" fill="url(#paint1_linear)"/>
<path d="M255.186 112.109L284.443 95.3901V128.828L255.186 112.109Z" fill="#25464F" fill-opacity="0.45"/>
<path d="M372.701 145.109L343.443 128.39V161.828L372.701 145.109Z" fill="#151C1F" fill-opacity="0.65"/>
<path d="M314.186 145.109L343.443 128.39V161.828L314.186 145.109Z" fill="#25464F" fill-opacity="0.45"/>
<path d="M313.701 145.109L284.443 128.39V161.828L313.701 145.109Z" fill="url(#paint2_linear)"/>
<path d="M255.186 145.109L284.443 128.39V161.828L255.186 145.109Z" fill="#A3B3AF"/>
<path d="M342.701 128.109L313.443 111.39V144.828L342.701 128.109Z" fill="#25464F" fill-opacity="0.45"/>
<path d="M342.701 162.109L313.443 145.39V178.828L342.701 162.109Z" fill="#25464F" fill-opacity="0.45"/>
<path d="M284.186 128.109L313.443 111.39V144.828L284.186 128.109Z" fill="url(#paint3_linear)"/>
<path d="M284.186 162.109L313.443 145.39V178.828L284.186 162.109Z" fill="url(#paint4_linear)"/>
<path d="M284.701 128.109L255.443 111.39V144.828L284.701 128.109Z" fill="#A3B3AF"/>
<path d="M342.701 95.1089L313.443 78.3901V111.828L342.701 95.1089Z" fill="#25464F" fill-opacity="0.45"/>
<path d="M284.186 95.1089L313.443 78.3901V111.828L284.186 95.1089Z" fill="#25464F" fill-opacity="0.45"/>
<path d="M342.701 195.109L313.443 178.39V211.828L342.701 195.109Z" fill="#637E77" fill-opacity="0.45"/>
<path d="M284.186 195.109L313.443 178.39V211.828L284.186 195.109Z" fill="url(#paint5_linear)"/>
<path d="M284.701 162.109L255.443 145.39V178.828L284.701 162.109Z" fill="#A3B3AF"/>
</g>
<g opacity="0.55">
<path d="M343.186 61.1089L372.443 44.3901V77.8277L343.186 61.1089Z" fill="#151C1F" fill-opacity="0.65"/>
<path d="M343.186 95.1089L372.443 78.3901V111.828L343.186 95.1089Z" fill="#151C1F" fill-opacity="0.65"/>
<path d="M372.701 112.109L343.443 95.3901V128.828L372.701 112.109Z" fill="#394140"/>
<path d="M314.186 112.109L343.443 95.3901V128.828L314.186 112.109Z" fill="url(#paint6_linear)"/>
<path d="M313.701 112.109L284.443 95.3901V128.828L313.701 112.109Z" fill="#394140"/>
<path d="M255.186 112.109L284.443 95.3901V128.828L255.186 112.109Z" fill="#394140"/>
<path d="M372.701 45.1089L343.443 28.3901V61.8277L372.701 45.1089Z" fill="#151C1F" fill-opacity="0.65"/>
<path d="M314.186 45.1089L343.443 28.3901V61.8277L314.186 45.1089Z" fill="#151C1F" fill-opacity="0.65"/>
<path d="M313.701 45.1089L284.443 28.3901V61.8277L313.701 45.1089Z" fill="#394140"/>
<path d="M255.186 45.1089L284.443 28.3901V61.8277L255.186 45.1089Z" fill="#1D2021"/>
<path d="M372.701 78.1089L343.443 61.3901V94.8277L372.701 78.1089Z" fill="#151C1F" fill-opacity="0.65"/>
<path d="M314.186 78.1089L343.443 61.3901V94.8277L314.186 78.1089Z" fill="url(#paint7_linear)"/>
<path d="M313.701 78.1089L284.443 61.3901V94.8277L313.701 78.1089Z" fill="#394140"/>
<path d="M255.186 78.1089L284.443 61.3901V94.8277L255.186 78.1089Z" fill="#394140"/>
<path d="M342.701 61.1089L313.443 44.3901V77.8277L342.701 61.1089Z" fill="#637E77" fill-opacity="0.45"/>
<path d="M342.701 95.1089L313.443 78.3901V111.828L342.701 95.1089Z" fill="url(#paint8_linear)"/>
<path d="M284.186 61.1089L313.443 44.3901V77.8277L284.186 61.1089Z" fill="#394140"/>
<path d="M284.186 95.1089L313.443 78.3901V111.828L284.186 95.1089Z" fill="#394140"/>
<path d="M284.701 61.1089L255.443 44.3901V77.8277L284.701 61.1089Z" fill="#394140"/>
<path d="M342.701 28.1089L313.443 11.3901V44.8277L342.701 28.1089Z" fill="#151C1F" fill-opacity="0.65"/>
<path d="M284.186 28.1089L313.443 11.3901V44.8277L284.186 28.1089Z" fill="#1D2021"/>
<path d="M342.701 128.109L313.443 111.39V144.828L342.701 128.109Z" fill="url(#paint9_linear)"/>
<path d="M284.186 128.109L313.443 111.39V144.828L284.186 128.109Z" fill="#394140"/>
<path d="M284.701 95.1089L255.443 78.3901V111.828L284.701 95.1089Z" fill="#394140"/>
</g>
<g opacity="0.55">
<path d="M313.701 178.109L284.443 161.39V194.828L313.701 178.109Z" fill="#151C1F" fill-opacity="0.65"/>
<path d="M313.701 212.109L284.443 195.39V228.828L313.701 212.109Z" fill="#151C1F" fill-opacity="0.65"/>
<path d="M284.186 229.109L313.443 212.39V245.828L284.186 229.109Z" fill="#394140"/>
<path d="M342.701 229.109L313.443 212.39V245.828L342.701 229.109Z" fill="url(#paint10_linear)"/>
<path d="M343.186 229.109L372.443 212.39V245.828L343.186 229.109Z" fill="#394140"/>
<path d="M401.701 229.109L372.443 212.39V245.828L401.701 229.109Z" fill="#394140"/>
<path d="M284.186 162.109L313.443 145.39V178.828L284.186 162.109Z" fill="#151C1F" fill-opacity="0.65"/>
<path d="M342.701 162.109L313.443 145.39V178.828L342.701 162.109Z" fill="#151C1F" fill-opacity="0.65"/>
<path d="M343.186 162.109L372.443 145.39V178.828L343.186 162.109Z" fill="#394140"/>
<path d="M401.701 162.109L372.443 145.39V178.828L401.701 162.109Z" fill="#1D2021"/>
<path d="M284.186 195.109L313.443 178.39V211.828L284.186 195.109Z" fill="#151C1F" fill-opacity="0.65"/>
<path d="M342.701 195.109L313.443 178.39V211.828L342.701 195.109Z" fill="url(#paint11_linear)"/>
<path d="M343.186 195.109L372.443 178.39V211.828L343.186 195.109Z" fill="#394140"/>
<path d="M401.701 195.109L372.443 178.39V211.828L401.701 195.109Z" fill="#394140"/>
<path d="M314.186 178.109L343.443 161.39V194.828L314.186 178.109Z" fill="#637E77" fill-opacity="0.45"/>
<path d="M314.186 212.109L343.443 195.39V228.828L314.186 212.109Z" fill="url(#paint12_linear)"/>
<path d="M372.701 178.109L343.443 161.39V194.828L372.701 178.109Z" fill="#394140"/>
<path d="M372.701 212.109L343.443 195.39V228.828L372.701 212.109Z" fill="#394140"/>
<path d="M372.186 178.109L401.443 161.39V194.828L372.186 178.109Z" fill="#394140"/>
<path d="M314.186 145.109L343.443 128.39V161.828L314.186 145.109Z" fill="#151C1F" fill-opacity="0.65"/>
<path d="M372.701 145.109L343.443 128.39V161.828L372.701 145.109Z" fill="#1D2021"/>
<path d="M314.186 245.109L343.443 228.39V261.828L314.186 245.109Z" fill="url(#paint13_linear)"/>
<path d="M372.701 245.109L343.443 228.39V261.828L372.701 245.109Z" fill="#394140"/>
<path d="M372.186 212.109L401.443 195.39V228.828L372.186 212.109Z" fill="#394140"/>
</g>
<defs>
<linearGradient id="paint0_linear" x1="299.072" y1="162.39" x2="299.072" y2="195.828" gradientUnits="userSpaceOnUse">
<stop stop-color="#637E77"/>
<stop offset="1" stop-color="#637E77" stop-opacity="0.59"/>
</linearGradient>
<linearGradient id="paint1_linear" x1="299.072" y1="95.3901" x2="299.072" y2="128.828" gradientUnits="userSpaceOnUse">
<stop stop-color="#637E77"/>
<stop offset="1" stop-color="#637E77" stop-opacity="0.59"/>
</linearGradient>
<linearGradient id="paint2_linear" x1="299.072" y1="128.39" x2="299.072" y2="161.828" gradientUnits="userSpaceOnUse">
<stop stop-color="#637E77"/>
<stop offset="1" stop-color="#637E77" stop-opacity="0.59"/>
</linearGradient>
<linearGradient id="paint3_linear" x1="298.814" y1="111.39" x2="298.814" y2="144.828" gradientUnits="userSpaceOnUse">
<stop stop-color="#637E77"/>
<stop offset="1" stop-color="#637E77" stop-opacity="0.59"/>
</linearGradient>
<linearGradient id="paint4_linear" x1="298.814" y1="145.39" x2="298.814" y2="178.828" gradientUnits="userSpaceOnUse">
<stop stop-color="#637E77"/>
<stop offset="1" stop-color="#637E77" stop-opacity="0.59"/>
</linearGradient>
<linearGradient id="paint5_linear" x1="298.814" y1="178.39" x2="298.814" y2="211.828" gradientUnits="userSpaceOnUse">
<stop stop-color="#637E77"/>
<stop offset="1" stop-color="#637E77" stop-opacity="0.59"/>
</linearGradient>
<linearGradient id="paint6_linear" x1="328.814" y1="95.3901" x2="328.814" y2="128.828" gradientUnits="userSpaceOnUse">
<stop stop-color="#637E77"/>
<stop offset="1" stop-color="#637E77" stop-opacity="0.59"/>
</linearGradient>
<linearGradient id="paint7_linear" x1="328.814" y1="61.3901" x2="328.814" y2="94.8277" gradientUnits="userSpaceOnUse">
<stop stop-color="#637E77"/>
<stop offset="1" stop-color="#637E77" stop-opacity="0.59"/>
</linearGradient>
<linearGradient id="paint8_linear" x1="328.072" y1="78.3901" x2="328.072" y2="111.828" gradientUnits="userSpaceOnUse">
<stop stop-color="#637E77"/>
<stop offset="1" stop-color="#637E77" stop-opacity="0.59"/>
</linearGradient>
<linearGradient id="paint9_linear" x1="328.072" y1="111.39" x2="328.072" y2="144.828" gradientUnits="userSpaceOnUse">
<stop stop-color="#637E77"/>
<stop offset="1" stop-color="#637E77" stop-opacity="0.59"/>
</linearGradient>
<linearGradient id="paint10_linear" x1="328.072" y1="212.39" x2="328.072" y2="245.828" gradientUnits="userSpaceOnUse">
<stop stop-color="#637E77"/>
<stop offset="1" stop-color="#637E77" stop-opacity="0.59"/>
</linearGradient>
<linearGradient id="paint11_linear" x1="328.072" y1="178.39" x2="328.072" y2="211.828" gradientUnits="userSpaceOnUse">
<stop stop-color="#637E77"/>
<stop offset="1" stop-color="#637E77" stop-opacity="0.59"/>
</linearGradient>
<linearGradient id="paint12_linear" x1="328.814" y1="195.39" x2="328.814" y2="228.828" gradientUnits="userSpaceOnUse">
<stop stop-color="#637E77"/>
<stop offset="1" stop-color="#637E77" stop-opacity="0.59"/>
</linearGradient>
<linearGradient id="paint13_linear" x1="328.814" y1="228.39" x2="328.814" y2="261.828" gradientUnits="userSpaceOnUse">
<stop stop-color="#637E77"/>
<stop offset="1" stop-color="#637E77" stop-opacity="0.59"/>
</linearGradient>
</defs>
</svg>
